<?xml version="1.0" encoding="utf-8" ?><svg xmlns="http://www.w3.org/2000/svg" xmlns:xlink="http://www.w3.org/1999/xlink" width="1006" height="1365" viewBox="0 0 1006 1365"><path fill="#161515" transform="matrix(1.12277 0 0 1.12253 0.000244141 0)" d="M484.768 0L504.608 0C540.577 8.60167 555.314 17.3202 570.5 52.2363C577.076 56.2895 583.699 60.2658 590.368 64.1644C590.071 67.7982 589.633 71.9327 589.526 75.5359C585.203 75.2374 575.628 73.509 572.781 75.5684C571.303 80.8432 581.645 90.8333 585.305 94.5731L612.036 85.8132L624.103 120.902C634.732 129.105 644.203 137.323 654.141 146.261C657.024 148.853 662.514 150.95 666.192 154.182C676.995 163.674 685.647 176.57 691.468 189.676C694 195.377 695.835 201.653 698.173 207.371C703.666 206.82 713.638 205.878 718.188 209.779C723.219 214.094 724.969 226.689 725.279 233.003C725.427 236.025 724.932 236.766 723.209 239.223C723.117 244.239 723.136 249.255 723.265 254.27C723.613 265.16 725.344 275.034 716.924 283.353C716.116 284.147 715.298 284.931 714.468 285.703C714.298 296.778 713.937 299.308 706.625 307.9C702.358 349.05 690.092 368.32 657.875 395.879C644.564 407.266 628.941 415.408 614.805 425.262C613.89 432.285 611.601 441.952 609.904 448.977C620.574 441.461 646.539 440.343 653.94 452.307C657.767 458.492 663.328 477.532 663.145 484.724C661.334 485.627 658.247 485.329 658.06 486.824C655.149 510.057 667.374 537.416 632.983 538.264C648.528 575.615 653.189 591.613 630.73 628.413C633.606 629.985 641.185 634.052 643.332 636.01C652.803 644.646 666.578 661.623 673.551 672.139C668.704 672.208 661.982 672.141 657.323 672.584C668.633 708.257 706.025 735.031 660.027 764.896C655.802 785.785 655.844 787.933 658.83 809.054C670.428 809.546 671.911 813.745 676.139 823.59C709.661 823.517 726.982 829.433 751.886 853.266C763.47 864.352 774.539 881.727 774.802 898.043C774.938 906.517 770.67 913.35 766.209 920.347C780.902 950.349 799.058 983.281 814.732 1013.24C836.319 1019.16 851.617 1029.82 862.896 1049.54C867.457 1057.62 870.94 1066.26 873.253 1075.25C875.887 1074.59 878.167 1073.8 880.542 1075.43C887.274 1080.06 890.973 1089.95 896 1096.9L896 1097.6C883.678 1108.29 869.771 1119.01 856.945 1129.29C848.858 1135.78 837.569 1145.29 829.214 1151.05C823.819 1146.46 819.046 1143.02 813.346 1138.82C799.064 1153.28 785.666 1167.05 773.667 1183.17C770.78 1187.05 750.606 1200.46 746.641 1200.6C709.885 1201.9 654.778 1200.84 619.934 1201.4C619.362 1193.92 617.323 1178.06 622.426 1172.29C623.606 1170.96 625.946 1170.5 627.655 1170.1C627.381 1163.1 627.06 1156.95 628.459 1150.03C632.9 1128.04 649.888 1113.87 672.166 1112.87C686.798 1112.21 693.892 1117.6 706.62 1121.13C703.297 1110.2 702.974 1105.05 714.224 1099.73C715.37 1086.05 717.613 1085.17 727.467 1075.68C719.771 1068.95 721.763 1064.27 725.502 1055.95C719.988 1052.94 719.384 1052.45 716.215 1047.18C716.136 1043.37 716.138 1039.22 715.95 1035.44C704.988 1031.22 702.934 1029.6 702.185 1017.67C699.903 1019.19 697.022 1021.23 694.725 1022.6C684.913 1012.16 672.5 999.342 663.867 988.217C632.459 993.302 615.18 991.117 617.001 953.817C617.325 947.181 605.984 937.44 601.965 932.222C598.209 934.39 594.73 936.498 590.73 938.213C568.503 920.817 543.638 902.276 524.091 881.766C519.213 876.649 520.206 864.76 521.114 858.109C505.278 839.249 498.264 828.179 485.944 806.806C470.889 812.12 452.866 825.366 436.278 833.316L433.164 838.369C447.041 843.6 445.468 849.987 438.007 860.656C457.184 888.077 468.752 921.93 463.494 955.457C460.384 975.288 447.773 989.626 428.499 994.357C418.138 1025.26 407.622 1060.23 398.036 1091.55C416.459 1115.56 420.202 1138.1 416.286 1167.62C415.949 1170.16 415.586 1172.7 415.198 1175.23C418.164 1176.93 419.695 1177.76 420.408 1181.36C421.935 1189.09 421.408 1198.48 421.435 1206.31L362.253 1212.39C355.807 1213.03 338.052 1214.37 332.703 1216L331.623 1216C330.752 1211.39 330.036 1206.23 329.291 1201.56C306.26 1203.7 283.216 1207.4 261.613 1216L253.188 1216C241.882 1211.54 223.735 1207.13 211.775 1203.83L138.05 1183.18C139.059 1174.42 140.253 1165.37 143.707 1157.24C145.402 1156.21 148.646 1154.71 150.539 1153.77C152.292 1145.75 153.87 1138.45 157.744 1131.08C175.309 1097.65 213.078 1101.63 241.783 1117C246.522 1106.32 250.534 1104.2 262.026 1106.15C262.532 1105.43 263.058 1104.72 263.602 1104.02C267.794 1098.7 270.258 1097.85 276.718 1097.09C281.525 1089.27 283.591 1087.73 292.488 1085.06C294.778 1078.21 295.441 1076.93 301.401 1073.07C296.147 1062.84 296.926 1057.53 305.545 1049.6C296.28 1039.33 297.963 1033.11 305.796 1022.96L292.435 1018.97C294.931 1008.24 297.286 992.949 298.838 981.975C284.908 976.858 273.327 967.031 275.594 950.576C277.195 938.96 288.627 932.411 297.468 926.19C297.911 916.2 295.308 905.784 293.236 895.976L282.724 889.324C280.203 869.648 280.78 847.449 280.04 827.614C279.821 821.755 275.411 815.575 276.131 810.561C277.513 800.949 285.048 793.041 291.916 787.107C295.517 768.324 298.787 749.036 302.613 730.385C297.76 726.915 286.247 721.937 285.461 715.601C283.71 701.48 295.306 685.571 302.418 674.061C311.259 659.822 320.259 645.683 329.418 631.647C323.248 629.382 317.544 627.3 311.536 624.651C320.215 616.574 329.778 609.156 338.798 601.527C345.596 595.777 350.546 590.695 358.492 586.912C364.58 584.013 370.058 572.717 375.138 567.681C381.257 561.613 388.817 556.784 394.077 549.989C396.532 546.711 399.37 537.961 400.851 533.848C397.621 532.605 394.402 530.869 391.304 529.287C374.149 541.703 362.476 527.359 364.292 510.205C363.757 503.915 365.679 492.929 364.509 487.079C362.371 476.384 360.982 472.352 361.275 461.249C359.271 461.087 357.27 460.884 355.275 460.64C325.975 456.88 285.822 428.088 265.595 407.129C259.653 399.947 254.236 392.214 248.781 384.641C237.923 369.57 227.276 354.547 215.909 339.843C209.758 338.07 202.688 335.468 196.447 334.283C188.467 332.767 178.471 333.181 170.186 333.204C163.795 327.945 147.138 310.997 140.966 304.655C142.46 298.058 144.315 292.264 146.342 285.8L142.43 280.507C144.234 274.055 150.73 260.722 153.84 254.113C152.167 251.983 150.54 249.539 148.981 247.296C150.976 242.623 155.045 235.954 157.588 230.343C153.67 230.351 149.427 229.994 145.49 229.742C142.736 227.191 139.188 223.218 136.53 220.416L136.367 210.861L128.316 210.753L128.178 218.302C121.904 218.376 115.63 218.418 109.356 218.429L109.315 210.759C87.7805 210.212 66.2357 210.172 44.6989 210.639L44.8913 216.745L0 216.751L0 188.218C13.6437 188.357 27.753 187.543 41.3911 188.255C46.7282 188.534 42.9676 190.375 45.3659 193.263C62.5428 194.509 91.5688 193.512 109.555 193.429C109.7 188.373 109.139 188.293 113.382 185.338C113.985 170.924 114.07 158.108 114.073 143.624L132.302 143.548C135.482 148.911 148.832 172.812 153.44 174.806C154.037 173.9 154.642 173 155.257 172.105C158.005 171.546 159.016 172.294 161.115 174.045C164.037 169.942 166.288 171.812 169.06 174.718L169.49 175.174C172.287 172.301 170.107 172.803 173.538 171.89C176.034 172.543 175.692 172.697 177.247 174.951C178.499 173.534 178.7 173.371 180.252 172.272C182.137 171.89 182.303 171.762 184.027 172.409L184.902 175.041L185.524 174.959L186.002 172.521C187.287 171.826 190.828 171.899 192.108 172.643L192.727 175.358L193.615 175.41C193.673 173.222 193.32 173.551 194.397 172.131C196.518 171.903 197.531 171.605 199.541 172.357L200.419 174.462C203.475 171.08 206.263 170.139 208.419 174.784L209.181 174.801C209.372 173.397 209.317 173.385 209.925 172.126C213.882 171.282 214.092 172.777 216.967 174.859C217.472 172.748 217.014 173.296 218.472 172.21C220.573 172.051 220.997 171.886 222.904 172.591C223.505 173.641 223.853 174.569 224.887 175.122L226.381 172.63C230.846 171.436 236.291 169.752 240.801 169.642L241.511 169.63C247.158 161.845 255.529 147.699 261.089 141.23C289.378 140.92 318.641 141.099 346.961 141.26C355.596 153.341 364.79 164.855 374.002 176.497C373.958 179.084 373.588 182.579 375.336 184.397L376.38 184.31C377.655 181.713 378.169 180.935 381.331 181.002C411.114 181.636 440.999 180.713 470.778 181.418L477.015 175.2L474.403 166.931C459.396 176.983 439.882 176.047 434.304 156.495C435.095 153.967 436.229 151.966 437.445 149.622C435.585 144.719 434.446 140.163 433.099 135.111L442.084 132.715C445.502 131.784 453.371 129.832 455.22 126.602L454.451 125.887C448.762 125.15 438.788 128.369 432.844 129.944C432.002 126.429 431.243 122.766 430.457 119.226C425.032 119.421 419.689 120.079 414.293 120.666L422.834 88.8834C421.185 85.3729 420.475 83.9899 419.629 80.2563C415.961 80.6175 413.299 80.5762 409.594 80.5222C390.348 69.619 388.364 25.5989 423.481 34.7638C434.101 20.7111 448.75 10.227 465.478 4.70778C471.115 2.87598 478.79 1.39532 484.768 0ZM285.113 295.733C301.142 295.476 314.735 295.488 329.965 301.845C334.187 303.199 343.507 307.812 345.947 308.073L346.036 306.169C344.487 303.942 334.598 302.103 331.016 300.967C329.284 297.963 328.662 294.17 327.848 290.759C320.049 288.221 321.427 283.916 320.153 276.686C307.103 270.018 313.574 264.456 315.791 253.554C306.465 253.337 302.623 253.184 293.358 254.942C290.546 268.302 287.436 282.288 285.113 295.733ZM298.695 225.126C298.63 229.6 298.23 236.466 299.235 240.582L300.155 241.494C302.634 240.561 302.873 239.039 303.841 236.648C306.384 233.787 308.935 231.604 309.242 227.802C307.145 223.761 302.868 224.958 298.695 225.126ZM129.944 165.845C127.336 168.419 127.613 169.115 127.591 173.184C127.592 175.999 127.613 178.814 127.655 181.629L139.017 181.597L139.969 181.276C140.257 177.814 133.888 166.988 129.944 165.845ZM319.362 224.983C318.995 228.363 318.641 231.644 318.147 235.009C315.493 237.928 313.849 238.868 310.517 241.068L321.476 241.373C323.977 239.278 326.53 237.079 329.097 235.082L328.98 224.821L319.362 224.983Z"/><path fill="#8A8872" transform="matrix(1.12277 0 0 1.12253 0.000244141 0)" d="M468.562 269.583C457.909 236.256 450.887 202.446 483.716 177.917C511.986 156.794 546.726 160.124 579.533 164.783C588.523 186.367 585.062 202.121 566.574 217.094L566.587 218.277C587.433 205.517 595.379 193.21 595.602 168.569L608.156 173.275L610.303 178.685C618.186 184.157 629.382 189.68 639.084 189.472C646.92 195.984 651.375 201.374 657.636 209.029C676.449 232.031 666.31 253.914 671.548 281.941C665.799 291.545 655.573 310.142 647.023 316.905C642.213 320.71 624.425 326.524 618.934 331.942C617.889 332.973 618.326 334.148 618.374 335.484C616.147 338.071 602.842 345.567 599.326 346.09C592.613 347.086 592.842 344.17 583.123 347.525C586.385 341.424 589.061 335.781 591.98 329.499C607.852 323.288 625 312.336 636.253 299.487C622.915 308.802 611.501 315.577 595.586 319.397C598.297 309.759 599.309 305.093 599.935 295.193C607.748 291.11 613.193 287.972 619.496 281.468C631.724 268.917 638.355 251.954 637.879 234.438C637.547 219.604 631.752 208.238 621.081 198.116C628.6 209.046 633.117 219.256 632.351 232.822C631.427 247.196 624.745 260.589 613.815 269.971C591.772 289.249 560.673 289.961 533.228 288.153C546.167 292.202 558.556 295.941 571.809 298.966C582.96 326.917 570.311 345.614 551.786 365.942C534.391 385.03 516.367 397.247 489.509 398.449C483.949 361.46 471.515 342.285 445.417 315.613C446.087 314.584 446.796 313.582 447.541 312.606C467.91 285.611 491.864 283.384 522.708 279.121C485.255 273.545 460.924 275.613 440.309 311.627C424.723 297.837 411.674 291.761 391.621 287.64C400.112 254.246 423.624 245.891 455.316 245.762C459.109 252.952 464.174 263.032 468.562 269.583Z"/><path fill="#464B3D" transform="matrix(1.12277 0 0 1.12253 0.000244141 0)" d="M566.574 217.094L566.587 218.277C564.719 219.339 564.655 219.784 562.84 219.754C563.632 217.994 564.44 218.103 566.574 217.094Z"/><path fill="#161515" transform="matrix(1.12277 0 0 1.12253 0.000244141 0)" d="M551.1 169.631L551.398 169.974C546.535 171.874 541.362 172.973 536.712 175.25C508.711 188.968 487.39 210.93 476.349 239.792L475.909 239.034C478.385 223.671 487.689 204.208 498.446 192.873C513.349 177.17 529.882 170.551 551.1 169.631Z"/><path fill="#464B3D" transform="matrix(1.12277 0 0 1.12253 0.000244141 0)" d="M490.558 541.437C498.099 542.271 506.583 542.442 514.233 542.726C514.331 551.254 513.344 563.243 512.91 571.99L519.528 572.441C519.574 596.474 509.732 629.557 546.215 632.124C557.778 632.937 569.886 632.583 581.427 633.388C615.951 635.797 613.529 602.289 613.384 578.061L620.715 579.707C619.746 568.271 617.178 557.4 616.086 546.026C621.114 545.27 623.282 544.75 628.123 543.337C632.564 553.481 638.377 568.194 639.391 578.95C642.798 615.074 614.83 641.29 584.314 654.468C562.106 664.059 541.973 667.826 517.814 669.652C528.243 671.351 537.141 671.748 547.643 672.197C545.081 722.661 507.562 779.054 467.562 808.042C455.24 816.972 439.906 821.795 428.228 831.465C418.28 833.336 407.805 834.544 397.738 835.86C407.542 837.609 417.262 839.793 426.872 842.405C411.8 848.298 394.03 850.312 377.953 851.142C402.294 857.705 408.866 857.321 429.799 843.46C433.38 844.923 436.825 845.883 437.559 849.917C437.118 851.018 436.04 853.07 434.888 853.396C423.07 856.73 412.947 860.894 401.772 866.088C416.216 864.983 425.144 860.635 436.545 872.053C447.536 885.123 451.286 899.115 455.382 915.271C456.939 921.413 458.333 926.987 458.631 933.392C458.94 939.654 458.092 945.919 456.128 951.872C444.393 986.693 400.57 996.561 368.729 985.319C389.291 973.287 413.226 959.23 422.727 935.23C405.839 956.551 384.468 968.346 356.916 969.136C360.743 958.169 367.324 945.915 371.776 933.026C363.051 896.954 356.559 888.084 361.928 849.622C366.246 818.694 360.962 822.115 377.251 793.208L392.025 766.419C409.709 775.055 423.549 783.075 444.062 778.526C464.652 773.96 470.941 761.525 479.156 743.542C484.387 732.089 489.633 719.907 494.802 708.335C496.815 703.829 498.861 697.85 501.425 693.728C503.221 693.271 505.433 694.361 507.288 695.02C511.789 678.028 515.542 660.613 519.687 643.48C495.904 634.463 472.278 625.036 448.82 615.204C456.625 598.56 475.723 579.364 488.525 566.235C488.875 558.388 489.873 549.345 490.558 541.437Z"/><path fill="#464B3D" transform="matrix(1.12277 0 0 1.12253 0.000244141 0)" d="M619.955 639.329C624.758 641.804 633.775 660.039 636.375 665.358C650.143 693.577 656.09 724.973 653.596 756.273C652.821 765.786 651.103 775.353 650.51 784.858C650.112 791.236 650.907 798.47 651.494 804.885C641.592 814.101 630.315 820.582 619.202 831.444C629.275 828.714 643.5 822.417 653.387 818.318C648.709 826.421 635.824 839.162 629.203 849.091C642.44 837.288 652.429 831.938 657.972 814.902C660.89 815.485 665.583 815.874 667.084 818.697C666.351 822.783 655.649 836.28 652.508 840.676C668.907 832.785 676.812 827.154 696.531 830.596C720.524 834.97 742.992 849.377 757.221 869.211C779.822 900.714 753.194 928.529 727.896 945.976C721.639 950.209 715.219 952.026 708.108 954.088C723.067 933.498 727.243 912.713 714.705 889.422C719.95 920.055 706.281 939.375 681.443 954.851C678.863 943.342 677.072 932.005 675.138 920.377C659.965 906.664 643.223 893.241 628.038 879.374C619.384 871.471 609.108 863.251 601.405 854.479C580.167 830.294 562.666 802.996 542.356 777.928C562.553 740.154 568.634 714.162 561.814 670.878C586.156 664.045 600.482 655.049 619.955 639.329Z"/><path fill="#D5B4A3" transform="matrix(1.12277 0 0 1.12253 0.000244141 0)" d="M161.291 206.061C167.628 206.078 173.964 206.279 180.29 206.665C186.707 211.339 194.006 220.636 200.961 226.31C208.451 227.181 219.636 227.594 227.306 228.098C238.865 241.9 237.269 253.423 236.2 270.583L221.899 270.768C241.751 283.088 258.486 296.008 280.571 303.446C283.985 302.616 287.459 302.052 290.961 301.761C323.464 299.027 349.174 316.483 372.512 336.06C362.181 346.837 349.66 350.124 335.528 352.304L335.166 353.454C353.581 353.27 361.256 351.119 375.5 338.906C387.676 350.294 399.121 363.749 409.115 377.045C388.811 407.372 364.024 408.715 331.467 413.051C342.067 416.528 352.501 419.692 363.364 422.257C389.203 428.359 404.14 402.423 412.297 381.999C420.753 393.294 424.48 402.213 428.342 415.567C415.525 431.721 391.556 447.608 371.608 453.093C352.604 458.318 336.208 445.918 332.154 427.193C313.326 424.1 283.493 419.808 271.162 403.688C254.177 381.486 235.971 358.017 220.436 334.784C214.921 333.153 209.239 331.278 203.734 329.547C203.687 328.676 203.648 327.805 203.617 326.934C203.032 310.433 207.153 302.533 217.84 291.113C202.984 299.959 199.365 311.679 202.121 328.358C192.078 326.602 182.806 327.045 172.676 327.56C164.171 319.442 155.799 311.185 147.566 302.792C148.911 299.056 150.408 293.194 151.542 289.23L159.276 297.502C156.738 290.783 153.248 285.031 149.561 278.916L157.976 260.59C161.276 264.151 164.56 268.043 167.76 271.717C164.426 263.476 159.999 254.942 156.001 246.947C160.227 239.015 163.672 233.792 169.051 226.602L169.303 226.84C176.023 233.107 182.957 238.419 190.147 244.13C185.496 236.264 176.712 226.045 170.834 218.45C166.481 218.991 152.624 219.787 150.996 214.316C157.465 213.775 160.03 213.547 161.16 206.854L161.291 206.061Z"/><path fill="#42433B" transform="matrix(1.12277 0 0 1.12253 0.000244141 0)" d="M322.765 353.807C326.791 352.587 331.299 352.546 335.528 352.304L335.166 353.454C331.144 354.032 326.848 353.849 322.765 353.807Z"/><path fill="#161515" transform="matrix(1.12277 0 0 1.12253 0.000244141 0)" d="M266.347 343.566C268.568 345.043 271.383 351.103 272.968 353.554C283.433 369.733 292.634 384.553 312.205 390.532C318.524 392.462 324.029 393.314 330.177 394.89L330.55 395.608L329.414 396.328C318.968 399.034 306.363 400.918 296.471 395.467C282.074 387.534 270.586 358.725 266.347 343.566Z"/><path fill="#464B3D" transform="matrix(1.12277 0 0 1.12253 0.000244141 0)" d="M396.605 557.401C400.296 558.109 407.984 560.697 411.654 561.828C430.335 567.584 445.821 573.89 462.068 584.705C454.671 594.443 448.447 602.44 443.136 613.443C437.811 611.321 432.511 609.139 427.236 606.896C424.154 611.952 399.775 651.343 399.766 653.365C400.673 654.072 401.638 654.763 401.823 656.003C402.888 663.109 356.216 731.303 358.749 742.122C360.8 750.885 378.666 759.106 386.048 763.505C378.348 781.863 364.596 798.587 358.748 817.196C357.419 821.426 357.026 833.781 356.777 838.913C349.614 838.598 342.449 838.323 335.283 838.089C336.492 833.442 337.661 825.79 338.563 820.859C342.691 805.584 344.116 802.766 342.401 787.067C327.199 786.394 314.068 786.037 298.92 786.127C301.014 773.881 303.644 761.812 305.569 749.497C314.202 749.296 324.555 747.783 333.21 746.628C323.83 742.8 316.556 739.352 307.478 734.766C320.559 736.019 335.005 739.879 347.894 742.973C348.368 717.091 359.846 701.322 372.1 679.836C386.331 654.881 401.553 630.584 415.187 605.29C402.987 599.939 380.617 593.858 366.829 589.031C374.551 577.503 386.253 566.511 396.605 557.401Z"/><path fill="#8A8872" transform="matrix(1.12277 0 0 1.12253 0.000244141 0)" d="M380.527 292.668C381.326 292.599 382.127 292.554 382.929 292.534C402.803 292.055 428.071 306.195 442.122 319.942C476.231 353.312 483.849 379.227 485.269 425C460.053 425.772 457.481 431.356 439.581 447.369C437.582 439.503 436.251 427.31 434.341 418.432C426.328 380.557 394.673 348.197 366.589 323.493C385.2 302.35 393.012 310.598 414.227 321.412C394.518 302.135 388.828 300.2 366.761 315.975C370.145 308.645 374.753 298.105 380.527 292.668Z"/><path fill="#161515" transform="matrix(1.12277 0 0 1.12253 0.000244141 0)" d="M422.107 342.452C431.252 344.249 443.66 354.646 449.282 362.182C460.208 376.776 464.921 395.097 462.394 413.151L462.36 413.165C461.768 411.927 460.967 405.26 460.703 403.271C457.022 375.502 442.91 359.209 422.107 342.452Z"/><path fill="#464B3D" transform="matrix(1.12277 0 0 1.12253 0.000244141 0)" d="M486.013 6.75133C512.8 2.28211 544.383 16.4375 557.86 40.015C560.481 44.6006 562.834 51.2259 565.091 56.2122C571.381 59.9641 577.301 63.4853 583.38 67.6012C574.043 66.4684 562.278 66.4619 552.627 65.7011C515.646 62.7856 483.427 63.4403 446.654 68.583C436.95 70.571 416.576 74.1159 407.16 74.3257C390.365 48.8558 411.17 30.3131 419.347 39.0738C419.867 42.4578 416.92 46.7265 415.152 49.9023C411.512 47.4401 409.389 45.5421 405.581 49.0481C403.629 53.9808 406.285 56.2941 409.506 59.5839C407.67 61.6478 405.999 63.9314 404.317 66.1313C415.083 60.196 421.378 47.0878 429.017 37.4725C444.115 18.4687 462.694 9.7047 486.013 6.75133Z"/><path fill="#464B3D" transform="matrix(1.12277 0 0 1.12253 0.000244141 0)" d="M696.189 331.323L696.433 332.175C688.522 361.159 664.14 385.436 639.718 401.113C629.759 407.505 618.311 414.164 608.942 421.093C607.746 427.559 606.06 434.669 604.669 441.152C593.404 438.918 579.568 436.215 568.536 433.268L568.125 433.155C571.15 435.094 583.636 440.269 588.886 443.026C571.377 444.686 559.116 438.449 546.152 450.336C543.633 447.637 541.327 445.053 537.878 443.54C528.549 439.448 501.165 442.453 489.344 441.738C495.413 439.015 500.878 436.933 507.122 434.604C511.939 432.779 517.353 431.027 522.262 429.332C509.477 430.539 489.537 436.443 477.421 440.561L477.417 431.266C481.944 430.646 485.462 430.409 489.98 430.181C490.348 426.629 490.396 422.567 490.522 418.961C503.35 415.618 510.389 412.841 521.878 406.444C530.673 403.68 541.847 404.424 551.038 402.969C555.401 402.278 574.033 397.741 576.118 398.467C576.512 400.177 576.538 401.386 577.861 402.447C583.267 402.68 598.686 395.27 604.444 393.291C606.615 392.278 605.666 388.298 607.684 387.108C616.686 381.801 626.653 377.515 635.792 372.437L638.289 377.257C642.402 374.864 662.344 364.015 663.842 361.174C663.699 360.435 663.22 358.256 663.592 357.771C667.204 353.062 676.086 348.379 680.403 344.115C685.003 339.572 686.896 336.809 691.24 332.652C693.355 330.629 692.57 333.52 696.189 331.323Z"/><path fill="#464B3D" transform="matrix(1.12277 0 0 1.12253 0.000244141 0)" d="M333.764 875.839C339.959 875.712 347.04 876.156 353.306 876.418C352.222 891.84 361.384 916.239 365.825 932.538C362.044 943.506 354.822 958.43 349.937 969.154C342.601 968.677 337.504 967.791 330.464 966.047C338.067 973.964 344.739 979.792 353.189 986.825C346.238 987.827 342.233 988.283 335.142 987.724C322.904 984.789 311.241 979.838 300.629 973.074C294.079 968.883 284.568 961.67 283.155 953.518C280.72 939.476 297.49 937.805 302.45 929.929C306.588 923.358 301.957 905.525 300.046 898.054C311.315 896.099 322.556 893.99 333.767 891.727L333.764 875.839Z"/><path fill="#A2997F" transform="matrix(1.12277 0 0 1.12253 0.000244141 0)" d="M265.007 175.818L329.158 175.969L329.291 189.032C342.452 190.008 362.935 189.378 376.561 189.319C376.787 192.572 376.824 196.218 376.931 199.507L366.929 199.485L366.968 216.192C369.495 216.174 373.693 216.058 375.933 217.217L375.795 217.894C370.638 220.094 365.907 219.707 360.398 219.646L238.137 219.64L238.13 189.94L265.183 189.58L265.007 175.818Z"/><path fill="#161515" transform="matrix(1.12277 0 0 1.12253 0.000244141 0)" d="M267.803 182.345C287.19 182.521 306.578 182.518 325.965 182.335L325.97 191.734C322.787 191.433 319.191 191.376 315.961 191.256L301.196 191.202L301.305 201.655L270.781 201.788C270.707 192.454 267.489 190.535 267.803 182.345Z"/><path fill="#A2997F" transform="matrix(1.12277 0 0 1.12253 0.000244141 0)" d="M269.686 184.341C276.361 184.358 318.497 183.347 322.758 184.757C324.028 186.223 323.956 187.608 324.21 189.589C318.576 190.754 295.714 188.237 289.195 188.083C283.807 187.956 275.729 188.259 270.519 187.971C269.388 186.47 269.77 186.65 269.686 184.341Z"/><path fill="#464B3D" transform="matrix(1.12277 0 0 1.12253 0.000244141 0)" d="M273.109 191.182C277.978 191.106 294.393 190.527 298.061 191.619C299.15 193.475 298.828 195.466 298.787 197.712C293.767 197.763 277.531 198.261 273.799 197.082C272.82 195.519 273.1 193.131 273.109 191.182Z"/><path fill="#464B3D" transform="matrix(1.12277 0 0 1.12253 0.000244141 0)" d="M620.393 881.499C625.29 884.537 635.579 893.608 640.219 897.766C649.605 906.179 660.445 915.373 669.314 924.249C670.911 935.269 673.291 946.738 675.5 957.666C672.15 959 669.637 960.21 666.403 961.827C671.937 963.877 677.867 965.544 683.542 967.244C676.513 970.173 669.365 972.385 662.076 974.545C644.1 977.918 619.438 982.09 623.211 956.417C624.789 945.678 613.501 935.389 606.464 928.128C615.324 919.572 619.082 912.204 621.604 900.337C615.916 898.582 612.923 897.126 607.841 894.072L620.393 881.499Z"/><path fill="#464B3D" transform="matrix(1.12277 0 0 1.12253 0.000244141 0)" d="M548.45 574.884C553.509 574.052 567.356 575.066 572.794 575.443C584.288 576.3 595.787 577.097 607.289 577.835C606.975 583.679 606.954 589.984 606.734 595.842C606.053 613.981 605.302 625.521 584.476 626.658C573.077 626.25 560.632 626.001 549.232 625.888C519.705 625.596 524.306 603.283 525.497 581.047C533.001 578.479 540.669 576.42 548.45 574.884Z"/><path fill="#464B3D" transform="matrix(1.12277 0 0 1.12253 0.000244141 0)" d="M430.524 614.962C436.694 617.805 443.341 620.348 449.698 622.794C470.445 630.779 491.032 639.466 511.85 647.242C509.15 660.176 505.991 673.444 503.084 686.366C499.962 684.988 496.234 683.615 493.02 682.339C464.936 671.907 437.342 660.415 408.955 650.702C415.786 638.576 422.979 626.658 430.524 614.962Z"/><path fill="#464B3D" transform="matrix(1.12277 0 0 1.12253 0.000244141 0)" d="M303.059 792.301C310.229 791.858 327.517 792.517 334.726 793.283C323.338 830.026 321.911 846.674 326.183 884.358C319.648 885.752 313.09 887.036 306.512 888.208C298.591 889.109 295.94 887.789 288.784 884.122C286.299 872.042 286.479 840.78 286.35 827.433L294.792 830.356C288.67 823.951 284.85 820.838 282.366 812.283C284.815 801.15 291.243 793.066 303.059 792.301Z"/><path fill="#464B3D" transform="matrix(1.12277 0 0 1.12253 0.000244141 0)" d="M409.479 657.051C417.005 659.303 428.961 664.603 436.648 667.775C428.652 698.232 417.336 732.563 392.479 753.664C383.05 750.423 371.036 747.085 364.159 739.911C378.4 712.383 394.435 684.192 409.479 657.051Z"/><path fill="#464B3D" transform="matrix(1.12277 0 0 1.12253 0.000244141 0)" d="M549.668 838.892C553.079 842.788 557.693 851.086 561.145 855.639C576.192 875.49 591.178 895.008 614.671 904.8C611.842 910.787 599.184 931.26 592.26 930.623C585.518 926.003 548.172 897.416 544.253 891.836L545.351 890.882C544.667 889.186 538.09 887.011 536.161 885.436C514.424 867.684 533.862 850.333 549.668 838.892Z"/><path fill="#464B3D" transform="matrix(1.12277 0 0 1.12253 0.000244141 0)" d="M351.227 639.885C363.436 643.945 367.458 644.848 380.246 645.43C378.169 651.107 373.295 658.827 370.235 664.083C355.178 689.949 344.068 700.943 341.047 732.024L332.307 729.821C326.644 728.545 305.242 724.109 304.131 722.173C295.693 707.467 345.335 646.701 351.227 639.885Z"/><path fill="#A2997F" transform="matrix(1.12277 0 0 1.12253 0.000244141 0)" d="M382.681 186.717C410.821 186.447 438.963 186.405 467.105 186.591C458.177 198.882 453.555 207.548 448.361 221.706C446.995 225.723 445.329 234.404 444.438 238.718C428.043 230.651 407.553 221.057 390.011 215.79C388.529 215.345 383.887 215.386 382.143 215.403C382.012 211.593 380.833 189.018 382.681 186.717Z"/><path fill="#D5B4A3" transform="matrix(1.12277 0 0 1.12253 0.000244141 0)" d="M464.585 73.746C465.149 73.7163 466.214 73.8688 466.821 73.9328C470.236 78.1254 473.599 93.9156 474.924 99.691C475.201 100.9 473.528 101.464 473.238 103.116C474.716 102.911 474.763 102.929 476.254 103.087C478.574 106.115 483.198 124.725 484.486 129.454C482.004 135.839 478.778 143.358 474.564 149.588C469.623 156.894 451.1 164.229 443.019 158.395C438.137 154.871 445.691 149.079 448.706 146.73C452.784 146.734 457.198 147.233 460.542 144.999L460.501 144.041C454.695 140.371 446 143.317 440.143 145.338L439.267 136.917C444.262 135.391 449.29 133.972 454.346 132.662C458.786 131.504 459.634 134.021 462.305 133.43C462.384 131.411 461.235 129.438 460.376 127.51L455.761 120.094C449.947 121.954 442.897 123.479 436.868 124.924L434.781 117.175L445.828 114.783C445.906 111.869 446.357 108.375 446.664 105.423C450.642 106.984 455.995 109.625 459.996 111.47C456.409 107.99 446.731 99.9464 441.613 100.777C437.73 104.012 442.864 104.833 441.109 109.698C436.932 113.622 427.192 114.138 421.477 114.772C423.591 106.756 425.55 98.5601 427.554 90.505C429.976 90.2757 432.869 89.7996 435.322 89.4547C439.02 91.6382 444.201 94.1248 448.547 92.3418L448.985 91.23C448.177 89.2297 446.71 88.5677 444.869 87.3046C448.298 86.3106 452.497 85.331 455.459 83.4719L455.477 82.8707C452.532 82.3611 449.43 83.161 446.446 83.6903C451.746 79.9805 458.474 74.2572 464.585 73.746Z"/><path fill="#161515" transform="matrix(1.12277 0 0 1.12253 0.000244141 0)" d="M457.103 114.465C462.172 116.032 466.006 121.266 469.074 125.311L468.027 132.152L467.082 132.046C465.591 129.542 457.48 116.145 457.103 114.465Z"/><path fill="#464B3D" transform="matrix(1.12277 0 0 1.12253 0.000244141 0)" d="M539.015 782.997C543.53 787.871 552.2 800.671 556.763 806.852L592.069 853.958C588.596 857.585 584.654 862.311 581.289 866.151C573.092 856.566 567.613 848.128 561.097 837.371C559.13 833.491 557.866 829.894 556.362 825.84C543.66 836.629 537.127 840.644 524.719 853.077L503.854 825.57C517.999 810.3 526.595 799.574 539.015 782.997Z"/><path fill="#464B3D" transform="matrix(1.12277 0 0 1.12253 0.000244141 0)" d="M482.743 473.271C485.331 474.22 501.05 485.827 504.253 488.096L526.162 488.082C531.25 484.201 536.183 479.285 540.796 474.829C539.831 488.756 540.331 506.525 540.414 520.783C537.971 533.391 523.14 533.034 513.02 532.874C502.791 532.712 490.019 533.949 483.483 524.448C481.779 508.495 482.387 489.345 482.743 473.271Z"/><path fill="#464B3D" transform="matrix(1.12277 0 0 1.12253 0.000244141 0)" d="M549.184 473.538C556.439 478.046 563.366 484.377 571.119 489.308L593.82 489.715C598.251 485.074 601.936 481.269 606.698 476.992C606.049 491.845 606.25 507.498 606.231 522.426C599.849 539.777 584.693 533.258 569.668 534.163C565.991 534.385 553.722 531.669 552.315 528.174C546.826 514.54 548.047 487.952 549.184 473.538Z"/><path fill="#464B3D" transform="matrix(1.12277 0 0 1.12253 0.000244141 0)" d="M418.977 471.387C422.693 473.154 434.356 481.762 438.307 484.582L459.294 484.426C463.698 481.023 469.605 475.204 473.821 471.265C474.045 486.367 474.454 501.093 474.254 516.208C472.776 525.746 465.437 529.463 456.414 529.209C448.827 529.179 426.049 530.636 421.395 523.77C416.626 516.735 418.629 480.263 418.977 471.387Z"/><path fill="#464B3D" transform="matrix(1.12277 0 0 1.12253 0.000244141 0)" d="M441.14 668.869C447.795 672.263 459.697 676.696 467.098 679.703C459.895 706.243 443.373 744.198 423.493 763.788L422.882 764.12C418.795 764.2 402.523 757.469 397.768 755.643C423.418 732.74 432.747 701.143 441.14 668.869Z"/><path fill="#464B3D" transform="matrix(1.12277 0 0 1.12253 0.000244141 0)" d="M472.704 681.943C480.389 684.579 488.333 687.636 495.985 690.449L479.46 727.146C472.613 742.622 466.518 762.813 450.011 769.858C441.155 771.547 435.648 769.365 427.57 766.052C451.217 742.004 460.988 713.105 472.704 681.943Z"/><path fill="#464B3D" transform="matrix(1.12277 0 0 1.12253 0.000244141 0)" d="M606.229 94.4231L607.089 94.4731C610.516 96.504 615.074 113.841 616.509 118.664C607.095 122.039 587.791 129.65 578.539 130.746C549.669 134.165 524.442 132.65 506.195 159.757L496.248 163.609C493.198 164.897 489.931 166.087 486.824 167.271C493.572 160.25 499.568 152.89 506.819 146.273C535.508 120.092 570.358 107.161 606.229 94.4231Z"/><path fill="#464B3D" transform="matrix(1.12277 0 0 1.12253 0.000244141 0)" d="M520.757 543.233C533.841 543.265 547.944 544.817 561.029 545.542C577.667 546.463 594.156 547.404 610.776 548.746C611.446 556.555 612.478 564.526 613.4 572.324C604.852 571.349 593.348 571.035 584.418 570.381C562.98 568.699 541.524 567.239 520.056 566.004C520.163 558.507 520.516 550.748 520.757 543.233Z"/><path fill="#D5B4A3" transform="matrix(1.12277 0 0 1.12253 0.000244141 0)" d="M351.032 227.391L392.454 227.572C397.141 235.314 401.396 244.871 405.223 253.159C393.53 264.184 389.867 269.793 385.368 285.052C382.811 275.984 380.092 266.962 377.211 257.991L374.165 249.041L381.523 241.682C371.258 244.05 363.774 243.963 353.302 244.047C346.455 248.246 336.606 255.46 330.266 260.229C328.33 258.948 319.704 253.891 321.264 251.249C326.743 241.965 342.444 232.896 351.032 227.391Z"/><path fill="#464B3D" transform="matrix(1.12277 0 0 1.12253 0.000244141 0)" d="M358.494 593.671C368.74 595.56 392.695 604.263 403.697 608.008C392.268 617.665 380.077 627.348 368.458 636.851C363.557 639.28 330.821 625.392 324.024 622.541C332.883 614.386 348.935 601.207 358.494 593.671Z"/><path fill="#A2997F" transform="matrix(1.12277 0 0 1.12253 0.000244141 0)" d="M263.413 146.533L344.141 146.606C348.508 153.062 370.504 177.095 367.453 183.062C362.706 185.344 340.932 184.259 334.352 184.136L334.403 161.352C333.488 150.323 309.76 153.142 302.043 153.282C290.871 153.479 279.698 153.611 268.525 153.679C266.002 156.338 262.97 160.399 260.629 163.353C260.039 170.308 260.155 177.697 260.14 184.71L238.11 184.71L238.06 174.527L245.42 174.305C251.301 164.973 257.299 155.715 263.413 146.533Z"/><path fill="#161515" transform="matrix(1.12277 0 0 1.12253 0.000244141 0)" d="M342.866 165.381C345.302 164.915 347.8 165.796 349.405 167.687C351.009 169.578 351.472 172.186 350.616 174.513C349.761 176.841 347.718 178.528 345.271 178.929C341.556 179.537 338.042 177.048 337.384 173.342C336.726 169.635 339.169 166.089 342.866 165.381Z"/><path fill="#8A8872" transform="matrix(1.12277 0 0 1.12253 0.000244141 0)" d="M343.286 169.54C344.917 169.1 346.596 170.064 347.039 171.695C347.482 173.325 346.521 175.006 344.892 175.452C343.258 175.899 341.572 174.935 341.128 173.3C340.684 171.666 341.651 169.981 343.286 169.54Z"/><path fill="#464B3D" transform="matrix(1.12277 0 0 1.12253 0.000244141 0)" d="M612.297 474.772C614.7 476.647 618.197 482.839 619.929 485.677L651.437 485.688C651.797 496.371 653.77 519.392 647.87 527.594C646.15 529.341 644.385 530.506 642.405 531.938L621.197 532.544C617.064 529.906 615.632 528.278 612.888 524.294C611.464 510.402 612.137 488.98 612.297 474.772Z"/><path fill="#D5B4A3" transform="matrix(1.12277 0 0 1.12253 0.000244141 0)" d="M568.182 83.6823C571.99 87.7731 575.8 92.891 579.284 97.3492C557.06 105.833 539.634 115.036 519.79 127.907C517.774 117.977 517.133 113.08 512.947 103.67C510.803 117.736 508.03 124.103 502.169 136.721C497.429 144.758 494.278 148.474 487.983 155.366C491.267 143.162 497.461 133.695 502.992 122.529C507.279 113.875 511.13 104.424 514.817 95.4578C518.337 95.7052 521.217 95.6312 524.754 95.5479C529.142 93.1152 530.233 91.4177 533.22 87.5157C534.267 87.8758 535.322 88.2119 536.384 88.5237C548.009 91.8972 557.969 89.3117 568.182 83.6823Z"/><path fill="#464B3D" transform="matrix(1.12277 0 0 1.12253 0.000244141 0)" d="M494.711 447.89C504.833 447.258 527.987 447.032 537.309 449.063C542.374 454.692 542.79 456.075 542.7 463.443C537.533 468.748 532.034 474.075 526.77 479.313L523.267 482.049L507.417 482.046C497.656 473.998 465.053 455.785 494.711 447.89Z"/><path fill="#161515" transform="matrix(1.12277 0 0 1.12253 0.000244141 0)" d="M514.337 465.194C517.899 464.676 521.221 467.102 521.81 470.653C522.399 474.204 520.039 477.573 516.501 478.234C514.148 478.673 511.742 477.806 510.21 475.967C508.678 474.129 508.259 471.606 509.115 469.371C509.971 467.136 511.969 465.538 514.337 465.194Z"/><path fill="#464B3D" transform="matrix(1.12277 0 0 1.12253 0.000244141 0)" d="M513.166 467.596C515.401 466.551 518.059 467.522 519.093 469.762C520.127 472.002 519.142 474.655 516.898 475.678C514.668 476.694 512.037 475.718 511.01 473.494C509.983 471.269 510.947 468.633 513.166 467.596Z"/><path fill="#464B3D" transform="matrix(1.12277 0 0 1.12253 0.000244141 0)" d="M438.79 539.675C447.529 538.86 474.685 540.581 484.769 540.973L484.698 541.404C483.481 549.064 483.049 556.365 482.457 564.084C476.342 569.218 471.725 574.391 466.327 580.253C454.392 571.301 442.495 566.459 428.848 560.87C419.353 557.799 409.092 554.684 399.808 551.176L400.399 551.002C426.062 543.623 440.441 550.487 462.228 562.631C454.613 550.087 451.158 547.418 438.79 539.675Z"/><path fill="#464B3D" transform="matrix(1.12277 0 0 1.12253 0.000244141 0)" d="M556.419 449.515C571.571 449.273 586.726 449.269 601.879 449.504C607.404 454.732 608.508 457.144 610.607 464.433L596.548 478.01L591.096 483.267L574.054 483.279C565.858 477.192 556.868 469.282 549.775 461.975C545.537 457.609 553.357 451.684 556.419 449.515Z"/><path fill="#161515" transform="matrix(1.12277 0 0 1.12253 0.000244141 0)" d="M580.439 466.986C582.679 466.089 585.229 466.471 587.109 467.985C588.988 469.499 589.904 471.909 589.504 474.289C589.105 476.669 587.452 478.648 585.181 479.466C581.755 480.699 577.973 478.959 576.679 475.556C575.386 472.152 577.058 468.339 580.439 466.986Z"/><path fill="#464B3D" transform="matrix(1.12277 0 0 1.12253 0.000244141 0)" d="M580.799 469.401C582.796 468.236 585.359 468.896 586.545 470.881C587.731 472.866 587.098 475.436 585.125 476.642C583.831 477.434 582.211 477.469 580.883 476.735C579.555 476.001 578.724 474.61 578.707 473.093C578.689 471.576 579.488 470.166 580.799 469.401Z"/><path fill="#464B3D" transform="matrix(1.12277 0 0 1.12253 0.000244141 0)" d="M449.918 444.889C451.462 444.795 453.007 444.737 454.553 444.715C459.91 444.602 469.789 444.427 473.448 448.785C481.402 458.256 462.594 473.148 456.715 478.504C449.951 478.858 443.692 479.813 437.703 476.449C431.623 471.244 424.124 465.514 418.658 459.89L418.579 451.775C420.432 449.449 422.433 447.34 424.45 445.156C430.892 448.457 434.374 450.317 440.248 454.422C443.582 450.19 445.62 448.101 449.918 444.889Z"/><path fill="#161515" transform="matrix(1.12277 0 0 1.12253 0.000244141 0)" d="M445.375 461.796C455.171 462.732 456.196 467.394 450.918 474.819C440.974 474.345 440.688 469.007 445.375 461.796Z"/><path fill="#464B3D" transform="matrix(1.12277 0 0 1.12253 0.000244141 0)" d="M447.404 464.061C449.645 463.704 451.772 465.166 452.242 467.386C452.712 469.606 451.36 471.805 449.166 472.386C447.645 472.789 446.026 472.322 444.954 471.169C443.883 470.017 443.534 468.368 444.046 466.88C444.559 465.393 445.85 464.309 447.404 464.061Z"/><path fill="#464B3D" transform="matrix(1.12277 0 0 1.12253 0.000244141 0)" d="M653.811 156.375C671.031 167.27 682.391 186.637 690.724 204.667C680.311 204.867 685.829 205.683 679.39 209.419L672.518 211.953C663.998 196.941 657.355 188.98 643.94 178.386C647.469 170.901 650.637 164.043 653.811 156.375Z"/><path fill="#464B3D" transform="matrix(1.12277 0 0 1.12253 0.000244141 0)" d="M563.334 137.331C584.743 136.31 601.959 137.166 622.503 143.487L613.307 161.833L608.47 160.516C582.141 152.003 573.761 151.718 546.731 150.803C551.886 146.287 557.716 141.153 563.334 137.331Z"/><path fill="#464B3D" transform="matrix(1.12277 0 0 1.12253 0.000244141 0)" d="M618.266 450.089C626.765 449.706 636.304 449.581 644.649 451.131L645.156 451.562C649.403 455.128 650.48 457.848 652.424 463.168C653.551 466.252 656.552 476.501 655.093 479.483L653.296 479.737C644.31 479.643 635.323 479.754 626.342 480.069L614.183 454.665L618.266 450.089Z"/><path fill="#161515" transform="matrix(1.12277 0 0 1.12253 0.000244141 0)" d="M636.622 463.962C640.161 463.291 643.58 465.594 644.287 469.125C644.994 472.657 642.725 476.099 639.201 476.841C636.889 477.328 634.494 476.536 632.929 474.767C631.363 472.999 630.868 470.525 631.632 468.29C632.396 466.055 634.301 464.402 636.622 463.962Z"/><path fill="#464B3D" transform="matrix(1.12277 0 0 1.12253 0.000244141 0)" d="M635.457 467.03C637.403 465.987 639.826 466.65 640.969 468.539C642.112 470.428 641.576 472.882 639.749 474.122C638.479 474.984 636.838 475.075 635.48 474.359C634.123 473.642 633.272 472.236 633.267 470.701C633.262 469.167 634.105 467.755 635.457 467.03Z"/><path fill="#A2997F" transform="matrix(1.12277 0 0 1.12253 0.000244141 0)" d="M245.21 224.94C261.15 224.77 277.092 224.71 293.034 224.76C293.26 232.349 293.169 240.29 293.191 247.907C281.365 246.91 258.002 240.713 245.524 237.745L245.21 224.94Z"/><path fill="#464B3D" transform="matrix(1.12277 0 0 1.12253 0.000244141 0)" d="M682.922 233.362C688.33 233.236 694.094 233.351 699.534 233.374C699.451 244.88 701.667 273.65 697.334 282.24C689.853 287.121 683.434 283.56 682.948 274.943C682.178 261.305 682.768 247.081 682.922 233.362Z"/><path fill="#464B3D" transform="matrix(1.12277 0 0 1.12253 0.000244141 0)" d="M648.301 677.049C649.504 677.326 649.765 677.484 650.882 677.949C654.47 681.925 674.136 719.349 674.891 726.588C675.952 736.774 675.165 741.771 669.361 750.032C666.735 752.804 663.546 755.483 660.659 758.022C661.528 723.399 658.638 709.577 648.301 677.049Z"/><path fill="#FAF9FC" transform="matrix(1.12277 0 0 1.12253 0.000244141 0)" d="M270.284 158.501C278.788 158.455 324.771 157.19 328.289 160.642C329.823 163.443 329.668 165.869 329.255 168.975C327.993 170.614 328.688 170.129 326.129 170.473C318.234 170.467 269.877 171.639 266.348 169.621C265.695 169.248 265.483 168.28 265.425 167.564C265.169 164.43 268.46 160.795 270.284 158.501Z"/><path fill="#464B3D" transform="matrix(1.12277 0 0 1.12253 0.000244141 0)" d="M335.62 633.84C338.89 635.128 342.478 636.361 345.803 637.576C342.384 642.938 336.251 650.647 332.274 655.848C317.604 675.037 306.257 689.901 297.756 712.65C297.063 715.053 296.887 717.19 294.138 717.694C286.136 710.072 302.236 687.079 306.48 680.044C315.822 664.411 325.538 649.006 335.62 633.84Z"/><path fill="#8A8872" transform="matrix(1.12277 0 0 1.12253 0.000244141 0)" d="M5.9521 193.858C17.2327 193.697 28.5146 193.643 39.7962 193.698C39.8255 196.825 40.3614 209.824 38.9993 211.758C27.7679 211.885 16.5358 211.941 5.3037 211.926C5.36908 206.587 4.6551 199.376 5.01865 194.529L5.9521 193.858Z"/><path fill="#161515" transform="matrix(1.12277 0 0 1.12253 0.000244141 0)" d="M8.31917 197.114L31.871 197.075L31.8825 208.331L8.26666 208.333L8.31917 197.114Z"/><path fill="#464B3D" transform="matrix(1.12277 0 0 1.12253 0.000244141 0)" d="M640.949 326.581C645.251 330.392 654.891 352.361 657.893 358.81L643.311 366.799L642.774 366.778C641.508 365.647 629.079 338.657 626.58 334.591C631.404 331.983 636.194 329.313 640.949 326.581Z"/><path fill="#464B3D" transform="matrix(1.12277 0 0 1.12253 0.000244141 0)" d="M409.699 483.864C411.584 485.434 410.933 500.172 410.763 503.303C410.37 510.574 412.557 532.759 399.217 526.436C393.964 519.646 396.614 497.047 396.221 486.493C402.727 486.519 404.055 486.735 409.699 483.864Z"/><path fill="#464B3D" transform="matrix(1.12277 0 0 1.12253 0.000244141 0)" d="M673.456 289.428C682.033 296.215 690.789 302.775 699.713 309.099C697.181 313.982 694.58 318.83 691.911 323.64C682.35 317.316 674.402 311.856 665.332 304.83C668.079 299.048 670.172 294.891 673.456 289.428Z"/><path fill="#464B3D" transform="matrix(1.12277 0 0 1.12253 0.000244141 0)" d="M384.281 483.394C386.365 486.483 385.237 515.721 384.559 521.201C383.926 526.316 378.445 526.987 374.014 525.946C373.416 525.278 371.835 523.463 371.724 522.685C370.275 512.468 371.014 497.055 371.097 486.819C377.642 486.931 378.868 486.943 384.281 483.394Z"/><path fill="#464B3D" transform="matrix(1.12277 0 0 1.12253 0.000244141 0)" d="M333.807 844.367C341.331 844.518 348.854 844.722 356.375 844.979C355.368 850.965 354.64 863.419 354.394 869.611C348.239 870.138 339.668 869.89 333.316 869.877C333.637 861.49 333.666 852.781 333.807 844.367Z"/><path fill="#464B3D" transform="matrix(1.12277 0 0 1.12253 0.000244141 0)" d="M587.597 352.872C590.581 357.327 596.98 382.999 598.616 389.133C594.697 390.539 590.805 392.017 586.942 393.568C585.8 393.791 585.572 393.782 584.421 393.866C583.405 392.525 577.376 360.345 576.185 355.505C580.452 354.773 583.455 353.99 587.597 352.872Z"/><path fill="#464B3D" transform="matrix(1.12277 0 0 1.12253 0.000244141 0)" d="M704.808 236.742L717.176 236.908C717.282 246.041 718.561 270.825 714.905 277.792C712.899 279.25 712.154 279.923 709.718 280.667C702.595 279.716 704.808 243.389 704.808 236.742Z"/><path fill="#464B3D" transform="matrix(1.12277 0 0 1.12253 0.000244141 0)" d="M403.014 446.485C410.756 448.393 410.134 457.141 410.026 463.464C409.892 471.316 409.408 477.07 401.841 480.775C396.928 479.925 394.411 477.985 394.155 472.81C393.8 465.628 394.27 457.521 394.409 450.364C397.215 448.811 400.055 447.71 403.014 446.485Z"/><path fill="#161515" transform="matrix(1.12277 0 0 1.12253 0.000244141 0)" d="M400.18 463.452C403.258 462.709 406.356 464.603 407.099 467.682C407.841 470.76 405.947 473.857 402.868 474.599C399.79 475.341 396.694 473.447 395.951 470.37C395.209 467.292 397.102 464.195 400.18 463.452Z"/><path fill="#464B3D" transform="matrix(1.12277 0 0 1.12253 0.000244141 0)" d="M399.702 465.82C401.488 464.912 403.672 465.63 404.57 467.421C405.468 469.212 404.737 471.392 402.94 472.279C401.159 473.159 399.001 472.435 398.111 470.659C397.22 468.883 397.931 466.721 399.702 465.82Z"/><path fill="#464B3D" transform="matrix(1.12277 0 0 1.12253 0.000244141 0)" d="M595.392 858.356C602.266 863.913 609.589 871.214 616.219 877.335L605.146 888.465L604.54 888.94C600.843 888.567 589.068 874.436 585.829 870.783L595.392 858.356Z"/><path fill="#A2997F" transform="matrix(1.12277 0 0 1.12253 0.000244141 0)" d="M64.9617 198.604C79.8155 198.516 94.6697 198.528 109.523 198.641L109.687 205.387L89.9563 205.379C75.7466 205.273 60.2521 206.136 46.1766 205.021C45.0702 204.934 45.3997 204.841 44.5262 203.608C44.1863 201.548 44.1442 201.466 45.0256 199.652C47.435 198.235 60.9828 198.642 64.9617 198.604Z"/><path fill="#A2997F" transform="matrix(1.12277 0 0 1.12253 0.000244141 0)" d="M258.011 246.674C261.065 247.574 264.916 248.364 268.07 249.102C265.943 262.729 264.059 274.81 260.869 288.275L250.735 281.564C253.371 270.332 256.175 258.035 258.011 246.674Z"/><path fill="#D5B4A3" transform="matrix(1.12277 0 0 1.12253 0.000244141 0)" d="M346.973 254.553C351.593 254.9 359.418 256.974 357.17 263.006C355.61 267.191 344.429 271.133 340.309 272.965C335.804 272.387 329.558 272.114 324.907 271.795C321.643 271.001 320.317 271.116 318.692 268.05C318.494 265.302 319.702 262.817 320.663 260.15C323.396 262.238 326.142 264.736 328.748 267.018C336.25 263.247 340.393 259.723 346.973 254.553Z"/><path fill="#464B3D" transform="matrix(1.12277 0 0 1.12253 0.000244141 0)" d="M382.6 456.019L383.757 456.02C385.568 458.484 384.786 470.271 384.724 473.808C380.595 479.698 378.809 481.88 371.459 480.049C365.654 475.3 367.561 466.657 368.212 460.034C373.389 458.81 377.53 457.595 382.6 456.019Z"/><path fill="#161515" transform="matrix(1.12277 0 0 1.12253 0.000244141 0)" d="M374.935 464.006C377.898 463.249 380.922 465.005 381.732 467.954C382.543 470.903 380.842 473.957 377.908 474.821C375.963 475.394 373.859 474.872 372.407 473.456C370.955 472.04 370.381 469.95 370.905 467.991C371.429 466.032 372.97 464.508 374.935 464.006Z"/><path fill="#464B3D" transform="matrix(1.12277 0 0 1.12253 0.000244141 0)" d="M374.092 465.747C377.07 466.162 377.882 466.256 379.35 468.731C379.507 471.07 378.89 471.95 377.939 474.095C375.672 473.415 374.593 473.071 373.362 471.173C372.826 468.834 373.327 468.032 374.092 465.747Z"/><path fill="#D5B4A3" transform="matrix(1.12277 0 0 1.12253 0.000244141 0)" d="M481.649 72.4727C485.204 72.2894 489.283 72.3392 492.882 72.298C495.276 79.1736 497.536 82.2326 502.557 87.3234L497.901 97.5268L494.682 104.273C488.862 95.1628 485.145 82.8451 481.649 72.4727Z"/><path fill="#464B3D" transform="matrix(1.12277 0 0 1.12253 0.000244141 0)" d="M625.15 634.161C637.602 637.032 644.401 644.476 651.723 654.248C654.252 657.623 657.087 660.791 659.242 664.442C652.916 663.427 646.76 661.357 640.734 659.241C635.962 650.416 628.732 641.243 625.15 634.161Z"/><path fill="#D5B4A3" transform="matrix(1.12277 0 0 1.12253 0.000244141 0)" d="M353.349 272.504C356.517 272.534 358.447 272.86 360.957 274.894C361.405 275.781 362.001 276.508 361.813 277.449C359.724 287.916 341.523 286.562 334.996 285.725C332.461 285.592 329.573 285.251 327.02 285.001C326.739 282.51 326.632 279.348 326.481 276.8C332.02 277.649 336.323 278.342 341.926 278.594C345.575 276.466 349.586 274.464 353.349 272.504Z"/><path fill="#A2997F" transform="matrix(1.12277 0 0 1.12253 0.000244141 0)" d="M272.188 249.416L279.688 251.55C276.702 265.396 273.829 279.267 271.068 293.161C269.319 293.775 266.271 292.779 265.02 291.38C264.681 285.148 270.786 258.177 272.188 249.416Z"/><path fill="#8A8872" transform="matrix(1.12277 0 0 1.12253 0.000244141 0)" d="M206.221 181.359L215.347 181.412C215.477 191.811 215.429 202.212 215.202 212.61L206.084 212.59C206.024 202.179 206.069 191.769 206.221 181.359Z"/><path fill="#8A8872" transform="matrix(1.12277 0 0 1.12253 0.000244141 0)" d="M220.764 181.552L229.267 181.575L229.3 212.602L220.881 212.592L220.764 181.552Z"/><path fill="#A2997F" transform="matrix(1.12277 0 0 1.12253 0.000244141 0)" d="M119.81 148.459L128.799 148.404C131.276 151.987 132.647 154.316 134.714 158.16L134.409 159.658C131.012 161.405 126.54 162.764 122.859 164.012C122.821 166.74 123.298 185.316 122.793 186.406C120.685 186.849 121.413 187.017 119.802 186.124C118.693 183.358 119.686 153.867 119.81 148.459Z"/><path fill="#161515" transform="matrix(1.12277 0 0 1.12253 0.000244141 0)" d="M124.673 151.681C125.962 151.279 127.347 151.912 127.885 153.15C128.424 154.388 127.943 155.833 126.771 156.502C125.891 157.004 124.801 156.959 123.965 156.386C123.129 155.814 122.694 154.814 122.845 153.812C122.996 152.81 123.706 151.982 124.673 151.681Z"/><path fill="#464B3D" transform="matrix(1.12277 0 0 1.12253 0.000244141 0)" d="M476.041 72.6855C477.519 72.5096 478.049 72.6037 479.49 72.7451C480.377 73.81 486.404 92.7892 487.468 95.6341L481.584 98.3478L478.853 99.4017C477.823 97.9472 470.779 75.8952 470.595 73.6053C471.916 72.8036 474.391 72.815 476.041 72.6855Z"/><path fill="#8A8872" transform="matrix(1.12277 0 0 1.12253 0.000244141 0)" d="M192.374 181.184L200.25 181.366C200.335 191.796 200.309 202.227 200.172 212.656L199.78 212.65C197.118 212.589 195.331 212.955 193.099 211.573C191.534 209.016 192.33 185.618 192.374 181.184Z"/><path fill="#464B3D" transform="matrix(1.12277 0 0 1.12253 0.000244141 0)" d="M497.669 106.152L504.237 109.361C501.399 120.033 500.34 123.032 494.046 131.996C480.51 130.743 494.345 111.743 497.669 106.152Z"/><path fill="#42433B" transform="matrix(1.12277 0 0 1.12253 0.000244141 0)" d="M704.763 213C720.152 213.129 716.496 218.633 718.782 231.434L704.886 231.604L704.763 213Z"/><path fill="#161515" transform="matrix(1.12277 0 0 1.12253 0.000244141 0)" d="M709.974 219.957C712.282 219.203 714.766 220.451 715.538 222.753C716.31 225.055 715.08 227.549 712.784 228.338C710.463 229.135 707.937 227.89 707.157 225.563C706.377 223.236 707.642 220.72 709.974 219.957Z"/><path fill="#42433B" transform="matrix(1.12277 0 0 1.12253 0.000244141 0)" d="M710.382 221.236C711.977 220.704 713.7 221.575 714.218 223.175C714.736 224.775 713.85 226.491 712.246 226.994C710.661 227.492 708.971 226.619 708.46 225.039C707.948 223.459 708.806 221.762 710.382 221.236Z"/><path fill="#464B3D" transform="matrix(1.12277 0 0 1.12253 0.000244141 0)" d="M615.091 125.315C620.272 125.467 629.325 132.782 633.61 136.027L626.164 138.406L618.869 136.313L597.521 131.368L615.091 125.315Z"/><path fill="#D5B4A3" transform="matrix(1.12277 0 0 1.12253 0.000244141 0)" d="M358.756 288.524C360.78 288.823 361.888 289.88 363.311 291.218C363.676 292.222 364.154 292.898 363.82 293.894C360.856 302.723 344.624 298.183 339.169 296.94C337.545 296.629 337.213 296.455 335.681 295.782C334.316 294.107 334.112 294.008 333.756 291.958C335.377 289.053 344.879 292.502 349.336 291.611C353.785 290.721 354.404 290.351 358.756 288.524Z"/><path fill="#A2997F" transform="matrix(1.12277 0 0 1.12253 0.000244141 0)" d="M283.638 252.637C285.457 252.921 286.541 253.151 287.215 254.79C286.786 259.952 280.747 293.524 279.17 297.09C277.191 296.431 275.949 296.263 274.649 294.667C277.954 280.447 280.534 266.782 283.638 252.637Z"/><path fill="#A2997F" transform="matrix(1.12277 0 0 1.12253 0.000244141 0)" d="M114.597 191.141L122.385 191.246L122.375 213.546L114.634 213.302L114.597 191.141Z"/><path fill="#8A8872" transform="matrix(1.12277 0 0 1.12253 0.000244141 0)" d="M177.979 181.548L186.543 181.56C186.488 188.653 186.544 195.746 186.713 202.837C183.156 201.246 181.915 201.122 178.011 200.515L177.979 181.548Z"/><path fill="#464B3D" transform="matrix(1.12277 0 0 1.12253 0.000244141 0)" d="M486.473 132.671L492.24 135.343C490.234 141.956 488.313 152.564 480.808 154.152L473.784 155.062C479.687 146.76 481.979 141.957 486.473 132.671Z"/><path fill="#A2997F" transform="matrix(1.12277 0 0 1.12253 0.000244141 0)" d="M249.02 244.78C250.962 245.261 251.176 245.322 252.924 246.261C254.073 248.702 248.218 274.52 247.164 279.769L242.198 276.448C244.851 265.98 247.746 255.504 249.02 244.78Z"/><path fill="#8A8872" transform="matrix(1.12277 0 0 1.12253 0.000244141 0)" d="M163.975 181.585L172.203 181.623L172.215 200.65L163.972 200.636L163.975 181.585Z"/><path fill="#464B3D" transform="matrix(1.12277 0 0 1.12253 0.000244141 0)" d="M504.657 89.2826C506.264 89.9491 510.677 92.7264 512.396 93.7576C510.574 97.4984 508.104 104.229 506.478 108.293C503.502 105.073 502.435 104.897 498.345 103.881L504.657 89.2826Z"/><path fill="#464B3D" transform="matrix(1.12277 0 0 1.12253 0.000244141 0)" d="M674.547 233.389L675.865 233.862C678.558 237.067 677.476 273.292 677.846 281.263C672.631 274.152 673.969 242.756 674.547 233.389Z"/><defs><linearGradient id="gradient_0" gradientUnits="userSpaceOnUse" x1="138.93622" y1="205.33763" x2="155.92516" y2="212.41316"><stop offset="0" stop-color="#868371"/><stop offset="1" stop-color="#A89D80"/></linearGradient></defs><path fill="url(#gradient_0)" transform="matrix(1.12277 0 0 1.12253 0.000244141 0)" d="M142.497 194.096C144.418 193.927 145.113 193.95 147.048 194.075C149.045 195.342 148.445 194.61 149.455 196.726C149.353 201.066 147.578 202.643 144.837 205.866C144.615 209.975 144.711 212.867 145.571 216.865L152.165 223.465L152.967 224.383C149.328 226.821 144.103 220.25 142.175 217.633C141.779 211.282 142.342 200.742 142.497 194.096Z"/><path fill="#42433B" transform="matrix(1.12277 0 0 1.12253 0.000244141 0)" d="M544.118 155.252L544.657 155.214C558.249 154.398 600.919 158.821 610.573 167.319C600.696 166.431 590.796 161.842 580.601 159.908C572.181 158.311 550.971 157.635 544.118 155.252Z"/><path fill="#464B3D" transform="matrix(1.12277 0 0 1.12253 0.000244141 0)" d="M414.503 236.639L425.281 242.572L416.392 246.689C413.964 247.836 412.475 248.936 409.949 247.909C409.138 244.485 412.594 239.902 414.503 236.639Z"/><path fill="#8A8872" transform="matrix(1.12277 0 0 1.12253 0.000244141 0)" d="M153.782 181.447C155.409 181.484 156.11 181.343 157.489 182.211C159.56 185.795 158.526 195.876 158.403 200.601C156.825 200.684 156.237 200.851 154.802 200.162C152.553 196.616 153.645 186.191 153.782 181.447Z"/><path fill="#464B3D" transform="matrix(1.12277 0 0 1.12253 0.000244141 0)" d="M641.175 183.243C649.2 184.482 664.229 205.866 667.241 213.365C665.79 212.521 659.421 204.18 658.393 202.554C655.225 197.546 643.307 187.527 641.175 183.243Z"/><path fill="#42433B" transform="matrix(1.12277 0 0 1.12253 0.000244141 0)" d="M488.401 98.0337C489.389 99.2033 491.174 103.814 491.894 105.506C488.524 106.724 485.892 107.808 482.616 109.27C480.682 108.012 480.325 104.62 479.827 102.322C482.619 101.019 485.623 99.4297 488.401 98.0337Z"/><path fill="#A2997F" transform="matrix(1.12277 0 0 1.12253 0.000244141 0)" d="M127.629 186.356L137.696 186.434L137.659 187.528C137.748 189.647 138.091 191.394 137.122 193.191C134.297 194.951 131.408 194.255 127.698 194.138L127.629 186.356Z"/><path fill="#8A8872" transform="matrix(1.12277 0 0 1.12253 0.000244141 0)" d="M134.714 158.16C142.13 169.099 148.643 176.047 148.504 189.025C144.086 188.855 141.894 188.597 137.659 187.528L137.696 186.434C139.883 186.475 146.039 186.906 146.199 184.286C146.617 177.464 137.81 165.405 134.409 159.658L134.714 158.16Z"/><path fill="#464B3D" transform="matrix(1.12277 0 0 1.12253 0.000244141 0)" d="M489.17 109.256C490.111 109.117 489.76 109.148 490.745 109.441C491.582 112.633 488.24 120.156 486.707 123.102L485.751 123.26L482.273 112.113C484.294 111.167 487.052 110.123 489.17 109.256Z"/><path fill="#D5B4A3" transform="matrix(1.12277 0 0 1.12253 0.000244141 0)" d="M437.606 77.4247C438.998 77.1584 438.994 77.2225 440.418 77.4221L440.17 78.3175C437.258 80.6903 432.214 83.1697 428.778 85.0131C427.267 84.9486 427.221 84.7481 426.01 83.8677C424.985 81.7997 424.939 82.4725 425.273 80.5723C428.004 77.8421 433.622 77.8438 437.606 77.4247Z"/><path fill="#A2997F" transform="matrix(1.12277 0 0 1.12253 0.000244141 0)" d="M127.691 198.991C130.688 198.872 134.166 198.261 136.443 199.881C137.577 201.658 137.186 203.268 137.065 205.47C134.232 205.668 130.855 206.35 128.661 204.91C127.313 203.008 127.653 201.408 127.691 198.991Z"/><path fill="#D5B4A3" transform="matrix(1.12277 0 0 1.12253 0.000244141 0)" d="M150.082 206.063C153.39 205.779 156.409 205.002 158.948 206.781C159.284 209.037 158.81 209.187 157.895 211.494C154.944 212.585 153.251 213.319 150.771 211.175C149.881 209.13 150.053 208.311 150.082 206.063Z"/><path fill="#A2997F" transform="matrix(1.12277 0 0 1.12253 0.000244141 0)" d="M333.727 225.017L344.495 225.04L338.992 229.185L333.725 233.206L333.727 225.017Z"/><path fill="#464B3D" transform="matrix(1.12277 0 0 1.12253 0.000244141 0)" d="M422.599 438.501C428.108 439.159 429.892 438.878 434.365 442.301L434.059 443.393C428.954 443.308 426.532 441.697 421.922 439.61L422.599 438.501Z"/><path fill="#42433B" transform="matrix(1.12277 0 0 1.12253 0.000244141 0)" d="M408.133 49.5502C409.206 49.0867 410.445 49.2375 411.375 49.9445C412.305 50.6515 412.782 51.805 412.623 52.9624C412.463 54.1199 411.692 55.1015 410.605 55.5308C408.962 56.18 407.101 55.3905 406.426 53.7572C405.751 52.124 406.511 50.2511 408.133 49.5502Z"/><path fill="#FAF9FC" fill-opacity="0.019607844" transform="matrix(1.12277 0 0 1.12253 0.000244141 0)" d="M331.016 300.967C334.598 302.103 344.487 303.942 346.036 306.169L345.947 308.073C343.507 307.812 334.187 303.199 329.965 301.845L331.016 300.967Z"/><path fill="#8A8872" transform="matrix(1.12277 0 0 1.12253 0.000244141 0)" d="M220.833 217.552C223.559 217.326 225.882 216.87 228.426 217.727C229.847 219.416 229.471 218.602 229.666 220.889C227.162 221.173 225.044 221.658 222.68 220.93C220.931 219.269 221.473 220.04 220.833 217.552Z"/><path fill="#8A8872" transform="matrix(1.12277 0 0 1.12253 0.000244141 0)" d="M372.77 204.567C374.888 204.939 375.231 204.859 376.768 206.216C377.643 208.264 377.073 209.774 376.659 212.035C374.776 211.41 373.453 211.203 372.163 209.737C371.514 207.653 372.09 206.676 372.77 204.567Z"/><path fill="#FAF9FC" transform="matrix(1.12277 0 0 1.12253 0.000244141 0)" d="M397.92 223.621C403.93 225.745 404.107 226.149 403.366 232.5L402.303 232.407C400.632 230.346 399.035 226.201 397.92 223.621Z"/><path fill="#8A8872" transform="matrix(1.12277 0 0 1.12253 0.000244141 0)" d="M205.821 217.552C209.846 217.182 213.777 215.946 215.714 220.078C211.886 220.352 207.793 221.333 205.821 217.552Z"/><path fill="#A2997F" transform="matrix(1.12277 0 0 1.12253 0.000244141 0)" d="M298.282 246.688C302.426 246.027 312.495 245.791 316.218 247.309C311.923 247.908 302.038 248.443 298.282 246.688Z"/><path fill="#42433B" transform="matrix(1.12277 0 0 1.12253 0.000244141 0)" d="M314.762 225.406L315.395 226.147C315.808 228.676 314.025 232.703 313.048 235.09L312.588 234.766C312.526 232.973 314.186 227.436 314.762 225.406Z"/><path fill="#42433B" transform="matrix(1.12277 0 0 1.12253 0.000244141 0)" d="M412.186 435.757C415.824 436.581 419.06 437.256 422.599 438.501L421.922 439.61C417.732 438.306 416.018 437.782 412.186 435.757Z"/><path fill="#42433B" transform="matrix(1.12277 0 0 1.12253 0.000244141 0)" d="M473.383 157.018C475.777 156.595 476.927 156.194 478.781 157.881C476.807 158.027 474.717 158.474 473.383 157.018Z"/></svg>