<?xml version="1.0" encoding="utf-8" ?><svg xmlns="http://www.w3.org/2000/svg" xmlns:xlink="http://www.w3.org/1999/xlink" width="896" height="1280" viewBox="0 0 896 1280"><path d="M520.212 169.617C535.614 168.89 557.295 174.708 570.179 183.101C596.873 200.49 605.638 217.278 612.684 246.805C630.291 246.722 655.807 245.697 673.295 247.154C675.958 247.376 695.317 259.983 699.117 262.384L741.48 262.093L745.033 269.947C774.387 258.96 803.862 246.041 833.413 235.914C833.346 233.165 832.95 221.55 834.015 220.333C837.585 216.251 855.875 217.67 860.25 219.868C862.108 222.626 861.338 248.476 861.347 253.681L861.497 315.027L861.6 350.561C861.614 358.265 861.915 368.684 860.765 376.073C851.766 377.428 842.65 376.902 833.57 376.619L833.351 361.793C822.025 356.366 808.371 350.838 796.718 345.692C779.337 337.9 761.999 330.013 744.706 322.029C743.633 324.037 742.454 326.675 741.45 328.774C728.291 329.342 713.465 328.87 700.159 328.728C695.382 333.171 691.443 335.446 685.816 338.443C693.117 346.304 695.265 349.322 700.656 358.659C722.314 365.228 732.974 393.807 733.004 414.495C733.007 416.626 733.002 418.765 732.98 420.896C752.144 450.109 762.861 469.857 771.444 504.079C791.026 511.159 795.34 523.873 788.811 542.991C797.194 550.852 800.157 555.705 795.043 566.813C803.013 585.848 799.423 596.769 782.291 607.635C784.364 640.076 783.681 651.405 779.199 683.391C785.578 686.538 791.171 689.426 796.999 693.517C792.033 702.697 776.115 720.048 768.896 729.275C771.903 735.026 774.608 740.722 776.855 746.811C789.678 781.562 782.145 834.011 742.916 847.965C749.968 867.418 759.084 889.351 766.892 908.685C791.343 919.01 802.494 927.238 813.546 952.086L819.114 946.621C829.784 956.693 839.818 967.42 849.156 978.739C844.05 987.01 836.201 998.815 830.246 1006.36L818.983 1004.63C820.085 1008.05 822.124 1012.45 823.58 1015.84C814.606 1026.28 801.955 1039.84 791.957 1049.04C788.447 1045.71 787.017 1043.91 784.085 1040.16C781.459 1043.72 778.669 1046.79 775.75 1050.09C776.505 1053.23 777.077 1056.78 777.664 1059.99C772.286 1068.69 765.647 1076.55 757.965 1083.3C737.096 1101.93 720.247 1105.66 692.886 1105.38C652.718 1104.98 612.003 1107.01 571.869 1104.78C570.916 1093.04 570.949 1079.35 571.692 1067.47C571.814 1065.52 574.695 1063.07 576.28 1062.18C577.188 1061.66 577.198 1061.48 577.086 1060.08C576.196 1048.99 575.313 1042.28 578.755 1031.4C583.017 1017.7 592.621 1006.29 605.396 999.759C622.215 991.047 636.304 992.378 653.519 997.778C658.477 992.137 658.517 991.714 660.233 984.302C650.904 976.845 640.904 967.338 632.014 959.191C617.942 946.148 603.706 933.285 589.307 920.604C587.832 920.664 586.356 920.705 584.879 920.725C550.244 921.382 533.114 901.062 532.95 867.168C517.252 862.8 508.706 856.811 496.953 846.358C479.364 854.455 459.55 863.586 442.487 872.641C447.327 886.089 442.516 892.007 431.332 898.651C431.492 900.91 432.039 905.243 430.616 906.918C428.387 909.543 423.967 911.22 421.827 913.986C405.156 935.538 388.385 957.07 371.648 978.567C366.019 985.548 360.426 992.559 354.869 999.597C358.288 1026.64 349.109 1047.95 332.934 1068.86L340.489 1071.92C338.093 1081.98 330.026 1102.8 324.482 1111.47C309.223 1109.17 288.381 1104.42 273.403 1100.22C272.714 1097.02 272.165 1093.26 271.605 1089.99C268.51 1093.16 266.105 1095.42 262.755 1098.33L225.604 1082.93C226.607 1077.4 228.46 1071.88 230.108 1066.5L215.606 1061.49L203.34 1073C190.267 1067.04 175.458 1059.33 162.241 1052.98C162.974 1048.71 163.675 1044.43 164.344 1040.14C160.286 1041.24 156.183 1042.65 152.177 1043.95C148.492 1041.64 142.245 1036.32 138.598 1033.4L114.223 1013.85L84.6312 990.02C78.3907 984.996 70.4651 978.996 64.9109 973.421C72.7409 962.909 83.033 950.911 91.4248 940.597L95.8963 944.757C101.68 931.327 112.733 918.165 125.389 910.911C138.422 903.389 153.928 901.416 168.429 905.432C186.079 910.309 195.928 920.814 204.51 936.157C206.394 936.322 215.49 937.586 216.175 937.209C223.834 932.993 221.683 932.159 231.121 935.272C235.838 924.898 240.078 913.655 244.71 903.088C253.606 882.793 262.445 862.614 270.361 841.911C266.829 837.903 265.427 836.379 262.849 831.687C263.637 829.769 264.894 827.253 265.793 825.322C251.396 774.952 307.603 750.336 345.988 738.131L341.003 731.706C332.382 728.243 330.481 726.786 326.09 718.88C321.906 717.184 320.387 716.08 316.726 713.424C309.312 714.339 299.163 715.477 291.827 714.076C285.859 712.936 283.974 710.828 280.854 706.088C271.76 705.775 267.507 706.565 265.567 695.741C263.325 683.236 263.729 670.195 264.126 657.547C245.775 639.452 248.23 618.152 263.796 599.291C263.718 597.801 263.686 596.31 263.7 594.818C263.974 576.887 278.982 583.387 279.965 579.565C283.469 565.95 288.925 576.147 295.107 570.307C295.343 568.645 295.562 568.193 294.754 566.72C290.432 565.852 282.98 567.144 278.26 567.019C274.741 566.927 272.019 566.275 268.578 565.512C255.931 581.766 245.812 586.349 232.931 567.783C215.944 570.698 214.257 556.26 218.355 543.848C189.159 528.347 177.376 496.811 174.697 465.357C173.646 453.011 175.282 441.375 177.029 429.158C168.003 427.538 161.815 425.291 153.544 421.583C157.899 409.903 171.594 385.16 177.988 373.411C168.081 363.19 167.295 357.794 166.712 344.021C136.943 351.106 107.074 357.759 77.1125 363.978C66.1071 377.987 53.5547 384.726 41.8561 365.941C31.4364 349.21 29.161 326.562 28.2934 307.305C27.6191 292.34 28.9786 276.034 32.0048 261.33C34.6935 248.711 41.0928 232.184 52.3322 225.047C64.0889 217.581 73.5607 232.683 78.6376 240.978C100.124 243.522 124.546 250.29 146.274 253.94C160.562 256.34 167.21 258.522 182.221 258.711C185.183 238.345 192.714 228.711 213.891 229.368C226.099 221.941 229.439 219.453 243.174 225.119C245.021 224.158 246.922 223.306 248.869 222.567C259.495 218.495 266.462 220.182 276.379 224.645C301.768 216.138 307.905 231.211 312.736 253.152C313.629 252.229 314.567 251.351 315.548 250.521C322.335 244.778 329.825 246.009 338.098 246.684C338.464 232.849 338.567 219.009 338.406 205.171L327.544 205.02C327.362 198.506 327.471 192.181 327.57 185.664C334.273 185.922 341.288 188.09 347.553 188.118C374.528 188.236 401.682 188.126 428.649 188.156C428.626 182.531 428.633 176.906 428.67 171.281L448.069 171.308C448.119 180.235 447.989 189.938 448.483 198.793C450.609 199.406 453.185 200.357 455.322 201.086L456.162 200.056C473.128 179.421 494.686 172.119 520.212 169.617ZM276.319 376.839C277.86 387.05 279.248 394.468 282.11 404.376C279.132 406.577 277.987 407.243 275.99 410.319L276.579 411.112C290.49 408.177 291.274 399.887 302.12 416.159C307.499 410.734 310.719 407.664 318.972 408.694C323.193 410.841 325.239 412.073 329.13 414.775C332.814 407.352 336.306 401.129 340.757 394.17C346.29 385.52 344.495 380.969 353.871 374.992C355.358 366.446 356.404 361.841 363.694 356.74C364.568 356.125 365.455 355.529 366.355 354.954C348.731 355.214 323.624 359.065 310.414 346.644C301.266 362.95 292.636 368.605 276.319 376.839ZM376.677 218.175C383.132 218.094 390.377 217.852 396.757 218.189C401.877 230.395 403.585 233.185 403.797 246.292L414.232 246.189L411.864 238.989C410.122 224.224 412.47 217.971 420.149 205.764C406.258 205.493 390.655 205.37 376.71 205.644L376.677 218.175ZM354.932 226.284L354.87 234.266C362.837 233.992 370.807 233.854 378.778 233.855L376.694 226.321C369.5 226.298 362.109 226.185 354.932 226.284ZM275.162 589.057C269.021 597.036 279.003 601.177 273.624 606.017C262.676 615.866 256.745 623.891 263.363 638.972C265.295 621.667 261.439 613.863 280.54 607.074C280.635 601.964 281.498 594.425 278.749 590.308C277.088 589.201 277.171 589.269 275.162 589.057Z"/><path fill="#8B2C43" d="M665.51 382.143C672.89 381.504 683.9 381.964 690.24 386.235C728.951 412.311 753.125 459.93 765.703 503.341C719.223 500.101 656.545 521.511 625.551 557.117C618.352 546.793 612.818 535.403 609.153 523.361C607.776 518.823 606.609 514.464 605.511 509.876C604.363 505.079 604.136 492.828 600.847 489.492L599.799 489.795C598.247 492.72 599.947 499.67 600.637 503.044C602.355 512.14 604.664 520.959 607.044 529.889C583.367 518.393 587.019 504.293 578.196 497.848L577.435 498.106C576.499 510.043 593.938 529.32 599.519 539.381C603.038 545.726 604.068 552.669 605.197 559.755C593.83 556.443 584.635 553.115 575.553 545.143C562.132 533.271 554.024 516.517 553.04 498.623C549.935 448.426 594.751 396.136 642.382 385.163C650.459 383.302 657.253 382.616 665.51 382.143Z"/><path fill="#8B2C43" d="M708.125 671.498C737.848 668.41 765.261 680.598 790.48 694.918C784.08 703.331 774.784 716.016 766.864 722.981C765.395 724.273 760.192 722.995 758.061 722.625C763.613 730.125 767.642 735.631 771.301 744.499C780.046 765.69 780.925 791.419 772.144 812.726C767.323 824.423 757.593 837.182 745.572 842.187C743.481 843.058 740.961 843.697 738.81 842.757C738.705 838.543 750.45 821.737 747.915 817.021L746.36 816.575C742.987 818.546 739.694 832.897 735.639 838.212C728.558 847.492 712.203 857.933 701.153 848.935C700.71 846.487 723.352 822.224 716.688 813.241L715.625 813.28C713.801 815.435 712.642 821.002 711.501 823.946C707.012 835.526 699.23 848.542 685.718 850.294C679.927 851.046 670.451 848.758 670.064 841.698C669.878 838.603 672.196 836.694 674.164 834.593C678.145 829.698 691.035 809.457 685.816 803.41C682.324 805.198 677.537 831.851 661.689 839.954C657.6 842.045 652.967 842.303 648.631 840.806C644.87 839.509 640.951 837.378 639.302 833.551C635.963 825.802 645.381 815.973 649.026 809.539C651.071 805.931 652.634 802.033 654.157 798.182C657.471 789.798 663.112 772.793 659.425 764.284L658.616 764.442C653.984 772.308 656.513 781.992 652.24 790.302C648.995 796.613 639.785 801.856 633.266 803.733C630.421 804.542 627.369 804.152 624.819 802.654C621.672 800.825 619.588 797.488 618.777 793.99C618.134 791.3 618.328 788.478 619.333 785.902C621.002 781.705 626.139 776.766 628.346 772.511C632.827 763.925 635.658 753.646 640.814 745.478C653.416 725.516 676 717.604 698.225 714.331C699.614 714.126 700.252 713.367 700.932 712.282L700.164 711.457C693.506 710.081 678.503 714.848 671.327 716.856C667.899 705.822 664.103 695.907 659.897 685.21C676.987 677.839 689.566 673.312 708.125 671.498Z"/><path fill="#292C32" d="M80.5424 246.126C97.5611 248.941 114.524 252.087 131.42 255.563C154.623 260.382 167.147 263.435 190.828 263.161C195.769 284.92 208.452 287.547 223.512 271.658C234.655 277.067 242.755 281.201 253.184 272.395C265.568 279.252 272.365 278.817 283.773 270.518C297.667 277.656 306.174 279.719 313.415 263.018C317.107 263.355 320.802 263.66 324.499 263.933C338.612 286.595 336.646 316.622 320.593 337.784L312.551 339.303C311.679 330.987 311.032 327.476 308.149 319.641C304.358 311.309 298.517 300.893 290.032 296.774C281.124 292.451 271.573 295.901 267.558 305.1C262.673 316.291 267.312 328.116 271.198 338.798C242.035 338.052 213.085 338.771 183.935 338.563C174.097 338.493 167.639 339.251 158.064 341.303C131.547 346.984 105.419 353.999 78.8061 359.225C92.6695 321.322 92.4122 284.453 80.5424 246.126Z"/><path fill="#8B2C43" d="M350.234 742.001C353.458 744.518 355.169 745.498 358.776 747.507C361.979 755.596 366.129 765.024 376.609 762.072L378.383 761.57C378.7 763.395 376.546 764.345 378.735 767.673C381.83 772.38 387.061 775.676 392.399 777.23C394.629 777.879 397.466 774.872 399.515 773.726C399.992 775.076 399.379 778.867 399.204 780.508C415.681 796.399 417.659 783.321 421.609 784.326C421.536 786.742 421.556 787.885 421.824 790.283C426.149 797.72 438.388 800.279 443.801 792.39L444.393 793.489L444.591 798.601C437.814 803.449 430.838 808.014 423.681 812.282C415.572 817.142 385.636 833.781 380.93 839.807C374.933 847.484 362.547 871.88 357.648 881.232C332.203 872.699 281.032 850.182 270.829 823.101C267.082 813.292 267.456 802.384 271.864 792.853C284.141 766.276 324.672 751.47 350.234 742.001Z"/><path fill="#8B2C43" d="M747.258 507.132C763.726 504.836 787.914 509.424 787.344 530.13C787.182 535.989 785.551 539.029 781.517 543.037C789.445 552.78 799.152 553.027 788.741 567.049C799.257 583.113 794.358 591.806 781.322 603.558L779.386 595.261C782.299 592.65 785.164 590.583 787.843 587.633C791.152 574.65 761.782 576.54 755.038 576.892C725.4 578.436 700.501 587.767 675.026 602.346C669.713 605.623 654.014 614.496 653.099 620.497L654.17 621.566C656.571 622.242 658.826 621.518 661.354 621.032L662.979 632.811C633.123 629.759 637.501 610.45 638.553 586.52C630.505 586.384 624.221 585.262 623.488 575.711C622.469 559.404 642.224 546.728 654.088 538.798C682.79 519.612 713.139 510.19 747.258 507.132Z"/><path d="M760.455 543.276C761.967 543.076 763.095 542.954 764.09 544.057C762.784 545.428 758.414 546.38 756.424 546.917C747.882 549.223 740.331 552.285 732.538 556.484L730.53 557.237L730.042 556.615C733.284 549.903 753.118 544.79 760.455 543.276Z"/><path d="M673.281 556.754L674.448 557.682C674.113 559.422 669.982 562.118 668.282 563.339C660.612 568.851 654.801 574.846 649.246 582.424L648.578 582.096C645.294 576.117 668.485 559.911 673.281 556.754Z"/><path fill="#8B2C43" d="M593.509 805.317C599.801 816.96 613.453 812.885 617.655 801.891C629.194 811.059 636.337 808.393 648.553 801.744C646.556 805.858 643.376 812.109 640.514 815.587C623.819 835.878 644.058 851.703 665.462 842.399C670.293 850.215 671.11 851.254 679.714 854.523C658.854 876.933 609.672 913.157 577.009 914.747C568.08 915.182 558.991 911.349 552.613 905.073C541.15 893.794 538.809 883.733 538.288 868.303C551.404 870.577 591.828 876.819 603.127 871.617L604.097 870.504C602.115 867.555 595.286 869.094 591.845 869.147C564.702 869.566 533.815 866.625 510.632 850.893C517.458 843.31 522.767 835.934 532.697 832.297C551.283 825.49 569.578 817.992 588.676 812.745C589.656 812.474 591.794 810.394 592.593 809.599C592.923 808.199 593.212 806.73 593.509 805.317Z"/><path fill="#292C32" d="M819.569 953.557C825.086 958.317 837.737 972.862 843.157 978.779C840.208 984.496 832.37 996.626 828.136 1001.34C823.931 1000.71 817.554 998.848 814.665 1002.46C813.526 1006.48 816.241 1010.67 818.08 1014.52C811.378 1023.26 800.218 1032.72 792.284 1043.11C789.573 1039.65 786.757 1036.28 783.84 1032.99C779.038 1038.86 775.204 1043.31 770.028 1048.93C773.959 1062.71 766.235 1067.78 757.602 1076.98C731.975 1104.29 699.967 1101.25 666.022 1101.23L614.516 1101.22L576.065 1101.23C576.011 1090.22 576.2 1079.2 576.634 1068.2C604.333 1068.82 632.041 1069.01 659.746 1068.76C721.747 1068.65 719.187 1075.28 759.695 1026.04L795.85 981.678C803.138 972.737 811.718 961.895 819.569 953.557Z"/><path fill="#8B2C43" d="M279.825 299.45C288.051 299.187 292.439 301.578 296.785 308.549C302.767 318.144 309.59 329.636 306.784 341.42C302.719 358.497 283.61 368.671 268.295 374.29C264.078 375.809 258.283 376.976 254.316 378.931C253.394 379.386 253.613 379.455 253.421 380.491L254.419 381.241C258.72 381.743 266.903 379.123 271.323 377.868C272.693 386.224 274.562 394.492 276.921 402.625C243.29 430.923 199.447 432.483 159.25 419.515C161.581 414.741 164.587 409.36 167.092 404.601C169.511 399.733 179.142 378.972 182.491 377.705C185.545 379.105 185.955 379.839 187.808 377.244C187.6 373.917 180.885 369.412 178.414 366.701C172.047 359.716 171.948 351.828 171.78 343.174L241.512 342.563C235.742 345.603 234.494 346.602 230.343 351.663C229.02 349.574 225.894 344.384 223.268 344.582C223.57 348.549 227.389 351.745 227.908 355.805C229.016 364.458 223.296 365.773 220.135 370.269L220.436 371.165C228.246 371.311 230.1 360.333 230.881 354.631C239.656 343.678 249.09 342.205 262.632 342.496C265.843 342.565 270.112 342.795 273.15 342.047C280.404 334.335 256.519 312.695 279.825 299.45Z"/><path fill="#292C32" d="M91.6171 947.745C97.8711 950.886 118.401 968.699 125.182 974.155C136.299 983.566 148.314 991.97 159.639 1001.09C172.03 1011.07 183.43 1021.98 198.584 1027.87C218.54 1035.63 239.185 1042.16 259.461 1049.26L300.745 1063.72C311.186 1067.37 324.751 1072.26 335.387 1074.45C331.553 1085.27 327.133 1096.09 322.858 1106.75C312.958 1104.26 302.303 1102.15 292.283 1099.99C286.947 1098.85 281.617 1097.68 276.295 1096.48C276.271 1092.12 277.282 1085.95 272.263 1084.63C267.984 1085.7 265.43 1089.4 262.532 1092.73C251.98 1088.41 241.631 1084.11 230.887 1080.28C233.023 1074.47 234.315 1069.62 235.918 1063.62C228.421 1060.79 221.968 1058.43 214.298 1056.07C210.37 1059.81 206.26 1063.55 202.278 1067.25C190.739 1061.67 179.127 1055.87 167.184 1051.27C168.27 1044.39 168.659 1040.6 168.743 1033.74C163.151 1035 158.215 1037.16 152.987 1039.4C135.807 1025.19 118.497 1011.14 101.062 997.25C91.8128 989.845 79.4359 980.493 70.9928 972.615C78.3033 964.696 85.1877 956.395 91.6171 947.745Z"/><path fill="#292C32" d="M410.08 703.69C414.495 703.708 419.135 703.999 423.563 704.204C423.207 714.105 421.901 718.099 432.76 720.983C437.66 745.919 450.993 742.228 472.213 742.558C481.826 742.708 492.785 743.861 501.343 738.496C510.626 732.675 508.525 724.336 510.386 715.81C512.008 714.173 511.233 714.657 513.771 714.256C518.316 716.474 519.41 736.016 532.179 737.28C546.42 738.689 561.222 738.828 575.489 737.311C586.591 736.131 590.02 729.154 592.332 719.255C596.089 702.952 604.05 725.493 606.698 727.254C616.872 734.018 634.148 732.298 646.259 731.967C634.35 745.765 631.808 745.572 614.985 752.1C594.12 759.647 577.167 764.74 555.198 768.981C498.307 779.962 440.184 774.558 386.97 751.354C376.057 746.595 360.41 739.209 350.487 732.449C366.935 734.02 378.975 736.172 392.745 726.099C398.1 722.182 403.317 719.236 408.162 714.409C409.714 710.483 409.834 707.862 410.08 703.69Z"/><path fill="#E0C5C3" d="M752.11 581.507C757.922 581.04 765.229 581.242 771.182 581.263C779.86 620.378 779.605 641.886 773.948 680.98C747.413 669.207 730.377 664.999 701.623 667.652C694.157 668.929 688.591 670.438 681.293 672.363C669.71 650.501 667.886 638.557 666.108 613.851C695.956 593.056 715.714 585.508 752.11 581.507Z"/><path fill="#E0C5C3" d="M269.672 413.125L275.6 415.766C276.31 459.31 256.585 507.908 233.453 544.022C220.263 539.082 214.532 536.103 204.321 526.268C203.022 524.837 201.76 523.372 200.538 521.874C178.47 494.402 179.111 463.294 182.667 430.354C214.949 435.101 241.735 429.991 269.672 413.125Z"/><path fill="#8B2C43" d="M286.93 410.583C296.334 410.263 295.592 416.863 299.08 418.173C313.593 423.622 309.476 403.797 327.919 420.092C324.135 435.787 322.216 441.691 322.398 457.808C320.758 459.217 319.159 460.672 317.602 462.17C307.046 472.313 311.259 474.02 309.259 485.782C308.256 491.676 304.266 502.317 302.574 508.726C298.151 525.616 295.778 542.977 295.507 560.434C286.651 561.453 279.739 561.362 270.842 561.16C273.611 556.716 283.685 543.044 282.032 538.47L280.749 538.43C277.526 542.323 274.817 547.16 272.184 551.515C267.374 559.175 257.144 576.923 245.883 574.046C240.66 572.711 238.095 566.643 235.866 562.1C219.215 564.632 219.863 559.066 222.171 545.054C224.885 545.767 227.39 546.178 229.661 547.755C229.814 549.505 229.653 550.282 229.43 552.042L230.316 552.765C230.697 552.679 231.296 552.587 231.558 552.282C257.951 521.575 270.445 481.438 277.952 442.334C279.635 433.567 278.609 425.259 280.66 416.615C281.487 413.127 284.121 412.159 286.93 410.583Z"/><path d="M312.57 425.344L313.986 426.449C316.348 433.09 316.064 452.265 316.017 459.845L314.519 459.142C312.685 455.753 312.38 430.388 312.57 425.344Z"/><path fill="#747474" d="M513.81 174.579C515.903 174.282 521.588 174.251 523.799 174.285C547.116 174.549 569.344 184.197 585.463 201.052C604.885 221.267 609.014 242.01 608.475 268.783C596.366 263.875 578.642 258.887 565.8 254.952C551.363 250.981 534.437 245.423 520.177 240.863C521.429 219.331 498.009 202.258 478.369 201.147C474.339 200.919 462.287 205.284 459.663 203.822C460.04 200.741 466.174 195.908 468.59 193.824C481.861 182.378 496.798 177.154 513.81 174.579Z"/><path d="M590.575 216.603C591.956 219.912 590.222 236.269 588.278 239.531C585.762 234.03 587.96 221.809 590.575 216.603Z"/><path d="M509.134 182.671C514.167 182.348 519.96 183.749 524.919 184.823C526.314 186.548 527.539 188.398 528.8 190.225C525.57 189.898 524.429 188.222 522.168 185.93C516.858 185.482 513.718 185.348 509.134 182.671Z"/><path d="M525.579 182.15C529.891 181.213 536.614 181.153 539.514 184.947C535.816 184.597 527.679 184.532 525.579 182.15Z"/><path d="M585.671 226.099L586.292 226.58L586.424 227.683C584.54 230.604 581.039 233.519 578.409 235.929L577.718 234.938C578.347 231.742 583.104 228.258 585.671 226.099Z"/><path fill="#292C32" d="M831.595 241.26L833.003 241.612C834.647 246.63 833.556 345.146 833.548 356.27C813.37 347.932 793.365 339.182 773.545 330.024C764.437 325.913 755.289 321.892 746.101 317.962C749.116 301.539 750.092 290.957 746.558 274.42C773.94 263.025 803.798 252.012 831.595 241.26Z"/><path fill="#292C32" d="M337.198 251.298L415.847 251.259C423.674 259.646 426.047 259.729 437.173 258.85C436.707 262.133 435.828 265.745 435.108 269.018C434.363 269.609 433.626 270.212 432.898 270.826C426.252 276.441 426.17 279.022 425.44 287.401C419.681 292.692 414.979 298.664 409.772 304.475C402.209 312.915 397.121 313.839 386.448 312.119C392.037 322.006 402.223 327.191 413.233 328.886L421.598 328.835C420.284 333.322 418.745 337.922 417.318 342.389C416.663 339.918 416.433 338.295 414.953 336.205C410.128 333.518 401.34 337.591 397.077 340.291C376.525 353.307 357.589 350.946 333.935 350.584C352.985 316.967 353.889 286.123 337.198 251.298Z"/><path fill="#292C32" d="M659.132 362.765C673.885 361.782 697.015 364.781 710.501 371.361C720.79 376.381 724.914 391.968 727.978 402.401C707.703 380.348 684.558 375.696 655.853 378.617C596.703 384.636 543.539 443.832 549.493 504.106C551.43 523.706 562.699 540.066 577.829 552.017C592.954 562.671 603.072 563.773 620.866 563.759C619.261 571.313 618.685 574.052 620.688 581.442C478.119 580.236 515.556 377.13 659.132 362.765Z"/><path fill="#8B2C43" d="M543.806 798.806C545.495 808.952 539.257 812.31 551.561 817.39C544.91 820.533 535.962 823.839 529.009 826.72C517.443 831.547 505.962 836.574 494.57 841.798C477.294 849.672 459.944 858.36 442.819 866.661C435.303 870.304 414.898 871.826 412.981 873.252L413.008 874.711C417.481 878.435 434.542 870.825 439.401 878.385C440.592 882.869 436.624 890.326 432.606 891.87C415.778 898.336 391.191 891.774 374.809 886.895C379.775 877.112 389.813 858.528 396.424 850.461C398.978 847.345 417.803 836.491 422.752 833.503L468.777 805.595C478.917 813.187 487.396 816.387 492.763 801.983C493.797 803.956 493.654 805.41 493.754 807.648C493.908 808 494.068 808.349 494.234 808.695C495.946 812.24 497.95 813.847 501.715 815.058C505.205 816.183 509.007 815.797 512.2 813.994C516.367 811.675 516.476 809.784 517.614 805.422L518.731 806.072L519.209 809.457C521.185 817.369 533.721 819.086 539.458 814.515C543.141 811.58 543.23 803.453 543.806 798.806Z"/><path fill="#292C32" d="M57.0166 228.065C70.7286 228.849 75.4406 243.77 78.8683 254.948C88.5982 286.677 87.1244 322.68 76.2417 353.93C73.1622 362.772 69.1373 368.313 61.2394 373.174C35.329 373.751 31.7734 312.535 32.5969 294.699C33.5665 273.701 36.4645 239.144 57.0166 228.065Z"/><path d="M49.6458 254.162C59.0721 254.815 62.0122 267.533 62.9185 275.181C65.5576 297.451 67.5958 330.598 53.7346 349.515C44.0228 348.938 40.8877 331.996 39.9716 324.339C37.6017 304.53 37.2189 270.732 49.6458 254.162Z"/><path fill="#E0C5C3" d="M455.086 259.194C456.512 259.722 457.996 261.131 459.259 262.143C459.055 267.931 458.808 271.69 461.719 276.901C464.135 281.257 468.196 284.464 472.993 285.805C484.696 289.103 493.394 281.874 496.372 270.847C499.463 269.711 502.725 268.185 505.761 266.839C506.782 279.356 508.003 291.855 509.424 304.333C516.971 312.126 526.191 315.388 536.049 319.068C527.577 333.132 518.929 347.09 510.109 360.938C497.382 364.973 485.862 367.223 470.761 369.826C453.647 372.775 425.797 373.523 419.081 352.126C417.68 347.662 423.674 330.975 426.916 326.864C431.644 324.058 433.343 322.93 437.536 319.314L442.885 329.067C438.481 329.36 436.205 329.067 432.806 331.872L432.969 332.676C435.284 333.104 437.554 332.021 439.894 331.239C458.9 337.764 469.894 352.054 496.214 344.867C501.82 343.337 513.122 338.428 516.066 333.327L515.748 332.31C511.822 331.215 508.088 333.122 504.995 331.981C489.276 326.182 485.073 311.656 474.02 301.343C469.771 297.378 464.191 295.098 458.921 292.876C462.383 287.986 462.145 278.067 456.61 278.463C455.758 281.888 460.641 285.07 458.955 288.625C456.477 293.848 450.315 291.576 446.612 290.241C438.798 297.738 429.986 299.404 428.482 285.854C427.153 273.872 441.309 270.783 448.909 265.247C451.343 263.475 453.086 261.504 455.086 259.194Z"/><path d="M439.064 344.543C443.422 347.807 440.292 352.137 442.567 356.88C444.377 360.652 449.636 362.966 451.233 366.885C440.47 365.901 437.762 353.441 439.064 344.543Z"/><path d="M493.081 284.394C493.628 284.481 493.836 284.719 494.367 285.054L494.079 286.013C491.101 288.68 485.082 289.863 481.258 290.662L479.986 289.856L480.187 288.794C482.136 287.56 489.537 285.804 493.081 284.394Z"/><path fill="#292C32" d="M313.037 488.372C327.58 495.883 347.405 501.102 362.52 508.176C358.304 520.846 355.106 533.832 352.955 547.011C350.929 558.987 348.827 591.277 344.401 599.212C336.153 606.409 329.415 604.534 319.895 601.124C315.223 599.45 304.579 594.711 303.074 589.579C294.262 559.516 302.069 516.651 313.037 488.372Z"/><path fill="#292C32" d="M457.272 414.82C465.995 416.775 476.063 420.169 484.771 422.751C495.648 425.985 506.606 428.941 517.634 431.616C509.166 448.377 501.638 465.588 493.403 482.463C490.539 488.331 487.735 494.301 483.931 499.633C477.299 504.421 469.131 502.186 461.638 501.876C434.439 500.748 430.243 490.518 426.004 466.241C435.304 448.41 446.246 431.61 457.272 414.82Z"/><path fill="#292C32" d="M654.607 357.748C662.338 356.558 707.315 359.369 708.83 368.282C704.454 368.016 692.278 362.761 687.006 361.974C652.686 356.85 618.762 364.655 590.618 384.169C558.996 406.041 537.366 439.591 530.493 477.428C521.358 528.786 546.573 575.016 600.967 582.455C608.14 583.436 615.43 583.341 622.514 584.554L623.125 585.494C621.453 586.996 616.742 588.217 613.122 591.215L612.584 591.669C608.943 592.365 605.658 584.477 588.056 590.505C577.376 583.88 576.697 581.644 563.505 585.865C555.062 577.122 550.747 575.314 538.841 577.795C527.646 562.759 526.005 572.137 515.938 565.522C505.551 558.697 512.432 557.905 495.391 553.243C490.255 544.602 487.364 544.207 478.098 540.199C471.65 528.73 469.017 531.106 458.538 523.529C465.773 523.432 473.132 525.396 480.181 525.045C499.447 524.086 507.591 518.952 513.212 500.896C519.714 481.163 526.366 460.518 535.397 441.787C541.73 428.65 549.892 425.913 549.363 409.633C576.675 380.527 615.262 362.748 654.607 357.748Z"/><path fill="#292C32" d="M505.291 649.905L505.81 650.523C507.271 657.893 506 671.254 506.029 679.521C506.027 692.91 506.53 706.204 506.067 719.578C505.317 741.209 488.455 738.711 472.242 738.766C463.178 738.796 452.313 739.504 443.99 735.245C439.91 733.157 438.325 727.117 437.427 723.025C437.22 699.289 437.163 675.552 437.257 651.815C440.329 655.872 443.024 659.216 447.112 662.319C455.369 668.554 465.787 671.204 476.019 669.673C489.624 667.658 497.421 660.327 505.291 649.905Z"/><path fill="#292C32" d="M521.181 646.712C522.949 648.135 527.985 655.62 530.509 658.046C537.095 664.377 545.659 668.408 554.824 668.477C565.843 668.561 572.666 664.63 580.263 657.425C583.429 658.645 585.321 659.046 588.65 659.782C588.529 672.602 588.505 685.422 588.579 698.243C588.581 705.962 588.854 715.152 587.781 722.669C585.63 728.618 581.278 733.32 574.521 733.531C521.848 735.175 521.094 740.073 521.381 688.912C521.477 674.845 521.41 660.778 521.181 646.712Z"/><path fill="#292C32" d="M612.493 251.209C631.997 251.106 651.503 251.113 671.007 251.23C683.053 277.159 682.568 303.108 675.534 330.167C671.702 326.869 669.594 325.203 665.421 322.324C664.478 321.862 663.505 321.462 662.509 321.129C650.316 317.006 632.114 317.535 620.055 323.383C615.464 319.122 612.57 319.079 606.559 318.597C612.417 314.59 615.838 312.052 620.597 306.818C616.734 300.835 612.249 294.656 608.143 288.79C611.26 271.789 613.784 270.394 612.493 251.209Z"/><path fill="#292C32" d="M373.501 528.285L380.331 532.615L387.25 530.733C376.837 542.744 387.309 551.53 398.566 555.593C400.609 582.096 412.757 564.339 421.061 585.107C422.628 589.025 431.332 591.639 435.052 592.462C440.105 598.831 439.744 603.058 448.484 606.584C454.673 609.081 455.478 606.322 458.177 607.056L458.186 607.583C451.624 612.845 436.675 604.548 426.592 615.531L426.109 616.064C421.304 624.868 422.453 634.728 422.981 644.373L410.476 644.265C410.793 620.339 414.293 618.76 388.023 612.933C380.28 611.216 370.462 608.577 362.689 606.385C366.675 594.498 365.56 580.728 366.857 567.812C368.359 552.854 370.161 542.881 373.501 528.285Z"/><path fill="#292C32" d="M633.222 321.845C644.484 322.961 656.496 321.819 666.582 327.732C676.249 333.4 683.678 341.314 690.823 349.775C690.136 349.659 689.449 349.55 688.76 349.448C638.08 341.939 598.002 356.759 557.701 386.58C551.946 391.639 546.254 396.769 540.627 401.969C532.015 398.04 522.238 394.957 513.212 391.917C538.097 366.984 563.531 351.107 597.175 339.075C606.613 335.7 621.346 334.764 630.268 328.997C632.513 327.546 632.835 324.333 633.222 321.845Z"/><path fill="#747474" d="M510.92 260.73C512.835 261.134 512.74 261.1 514.337 262.24C517.687 267.279 518.537 291.283 519.434 299.103C525.6 303.116 529.683 305.371 536.495 307.869C532.222 303.672 526.446 300.544 521.298 297.393C520.044 287.007 518.936 273.508 518.513 263.088C541.764 269.928 565.876 278.297 589.229 285.474C605.625 290.551 605.872 292.329 615.129 306.687C587.729 326.339 540.094 322.898 513.736 302.716C512.694 294.02 508.872 268.267 510.92 260.73Z"/><path d="M546.832 293.459C549.288 292.676 551.976 293.287 553.852 295.055C555.728 296.824 556.497 299.472 555.861 301.971C555.225 304.47 553.284 306.427 550.79 307.082C547.07 308.06 543.248 305.895 542.175 302.2C541.101 298.505 543.167 294.628 546.832 293.459Z"/><path fill="#747474" d="M547.868 295.935C550.093 295.337 552.403 296.555 553.167 298.729C553.932 300.903 552.892 303.298 550.782 304.224C549.269 304.889 547.51 304.65 546.229 303.605C544.948 302.56 544.36 300.886 544.705 299.269C545.051 297.652 546.272 296.365 547.868 295.935Z"/><path fill="#292C32" d="M604.985 642.296C609.664 646.32 603.752 654.343 617.01 663.727C624.535 669.002 633.841 671.085 642.896 669.521C653.69 667.625 659.92 661.798 665.888 653.193C666.117 661.401 666.155 669.614 666.002 677.825C649.112 685.653 658.57 693.489 663.811 706.711C665.004 712.176 664.665 714.094 663.357 719.568C661.126 721.241 658.852 722.857 656.538 724.414C647.458 730.446 628.025 729.668 617.683 727.459C613.906 726.652 608.169 724.793 606.137 721.229C601.733 713.505 602.799 652.248 604.985 642.296Z"/><path fill="#292C32" d="M389.029 650.524C390.967 653.197 389.243 706.774 389.778 713.715C391.423 735.064 358.62 728.7 346.022 728.231C334.548 727.804 332.194 725.124 329.574 714.21C328.326 700.093 329.267 671.242 329.324 656.231C349.129 682.535 372.769 676.519 389.029 650.524Z"/><path fill="#292C32" d="M350.415 608.866C360.964 608.363 386.247 616.333 397.801 619.281C381.058 633.202 397.064 644.534 371.77 664.487C356.412 674.973 336.54 666.987 331.44 649.538C328.721 640.236 328.094 630.114 332.661 621.248C336.75 613.311 342.51 611.239 350.415 608.866Z"/><path fill="#292C32" d="M837.442 222.439L856.909 222.477C858.717 260.263 855.61 299.185 856.706 337.112C857.036 348.5 857.123 361.002 856.655 372.331C853.222 372.723 841.919 372.436 837.908 372.435L837.442 222.439Z"/><path fill="#747474" d="M426.035 290.475C434.434 299.006 435.274 301.325 447.028 294.148C490.251 298.437 474.34 327.77 510.34 335.505C496.361 344.011 485.027 345.659 469.028 342.124C452.278 337.886 444.535 328.769 438.643 313.275L438.156 313.884C424.205 331.226 408.392 329.223 392.389 316.205C410.014 313.644 413.536 302.454 426.035 290.475Z"/><path fill="#292C32" d="M436.11 613.264C443.75 612.996 451.936 613.171 459.62 613.203C471.713 625.341 477.157 625.98 489.783 614.35C489.23 616.096 488.711 617.854 488.225 619.62C484.729 632.66 495.805 635.708 505.467 637.888C503.563 644.885 501.354 648.639 497.036 654.35C477.856 674.527 447.169 668.952 437.722 642.561C435.549 636.491 437.422 627.253 433.626 622.557C431.897 620.418 430.831 620.786 430.053 617.711C430.976 615.924 434.193 614.406 436.11 613.264Z"/><path fill="#292C32" d="M432.987 176.213L444.113 176.225C444.416 183.504 444.232 191.543 444.207 198.885C432.926 197.67 431.228 200.231 421.097 200.491C405.164 200.9 388.945 201.039 372.995 201.234C372.7 208.185 372.5 215.14 372.393 222.096L350.515 221.881L350.54 238.052C357.078 238.111 389.03 239.551 391.997 236.033C389.882 233.177 386.044 233.726 382.892 233.84C381.687 230.275 380.849 226.225 379.991 222.531C385.97 222.228 392.403 220.29 395.511 226.013C399.323 234.516 399.719 237.757 399.963 246.856L343.006 247.021C342.979 232.564 343.309 217.331 341.81 202.994C341.589 200.872 334.732 201.161 336.59 193.645C339.802 191.448 422.687 193.19 433.336 193.869C433.029 188.149 433.054 181.978 432.987 176.213Z"/><path d="M354.12 200.309C355.47 199.625 357.089 199.762 358.305 200.661C359.521 201.56 360.126 203.069 359.869 204.56C359.611 206.05 358.535 207.268 357.088 207.707C355.103 208.31 352.987 207.294 352.214 205.368C351.442 203.442 352.27 201.246 354.12 200.309Z"/><path fill="#292C32" d="M708.461 266.532C718.57 266.184 728.993 266.49 739.106 266.822C740.686 270.493 741.557 273.419 742.774 277.21C745.565 285.902 747.074 321.469 735.139 324.293C723.372 324.7 711.426 324.477 699.641 324.385C701.784 299.872 703.3 291.574 699.718 266.87L708.461 266.532Z"/><path fill="#292C32" d="M402.237 395.949C406.965 396.968 417.232 400.699 422.06 402.425L453.112 413.565C444.707 425.136 434.431 443.548 427.4 455.954C422.489 464.534 422.429 466.723 422.746 476.475C420.671 475.168 418.941 473.878 416.982 472.428C415.667 461.287 413.846 461.172 407.471 451.66C407.451 438.829 407.535 438.74 400.042 428.119C402.735 417.913 402.153 415.07 396.921 405.825C399.571 401.752 400.369 400.459 402.237 395.949Z"/><path fill="#747474" d="M470.772 206.456C484.255 204.654 496.657 214.097 498.509 227.577C500.362 241.057 490.969 253.498 477.5 255.403C463.958 257.318 451.438 247.86 449.575 234.307C447.713 220.754 457.216 208.267 470.772 206.456Z"/><path d="M471.429 209.409C475.324 209.221 478.619 209.478 482.224 211.027C487.045 213.059 490.817 216.989 492.649 221.891C494.715 227.479 494.432 233.666 491.865 239.042C488.626 245.895 483.439 249.47 476.501 251.876C449.181 254.478 443.919 220.527 471.429 209.409Z"/><path fill="#292C32" d="M281.877 658.162L313.994 658.707C313.507 668.763 313.497 679.164 313.191 689.174C313.07 693.106 314.086 708.359 313.508 710.263C273.879 720.461 281.58 684.749 281.877 658.162Z"/><path fill="#8B2C43" d="M505.633 365.114L506.304 365.718C505.278 369.951 496.595 382.911 493.754 387.372C479.434 383.866 475.723 388.04 464.899 396.986C451.705 396.453 442.203 394.158 430.037 389.509C419.776 382.541 424.365 377.734 429.883 369.256C433.326 370.77 437.792 372.789 441.49 373.2C461.858 375.462 486.254 370.304 505.633 365.114Z"/><path fill="#292C32" d="M482.509 389.4C497.127 390.972 522.458 398.731 536.13 404.169C527.108 408.131 522.47 413.438 516.461 420.791C509.772 420.312 471.58 408.29 462.87 405.665C469.475 398.017 473.046 393.585 482.509 389.4Z"/><path fill="#292C32" d="M519.775 245.333C548.633 253.357 578.884 263.774 607.863 272.412L604.554 286.288L553.031 269.727C544.136 266.862 523.766 260.541 516.276 256.264C517.514 252.644 518.681 248.999 519.775 245.333Z"/><path fill="#8B2C43" d="M257.298 225.219C259.148 225.191 261.833 225.236 263.664 225.456C280.418 227.466 285.662 254.046 279.681 266.856C278.018 270.418 275.522 271.407 272.002 272.527C263.663 272.802 261.907 272.652 254.96 267.873C254.051 250.918 253.263 244.166 246.577 228.278C250.434 226.647 253.203 225.87 257.298 225.219Z"/><path fill="#292C32" d="M491.361 562.144C498.381 567.779 501.49 568.82 509.875 571.115C501.112 585.079 489.458 605.487 480.411 618.06C474.362 621.533 466 614.928 462.484 610.204C468.206 596.37 482.867 575.053 491.361 562.144Z"/><path fill="#292C32" d="M539.224 585.055C546.14 589.495 550.181 590.463 557.949 592.077C551.658 609.069 543.229 627.982 535.424 644.439C531.343 646.178 518.729 641.113 518.78 638.391C518.998 626.67 535.084 594.099 539.224 585.055Z"/><path fill="#8B2C43" d="M448.391 802.398C451.56 802.948 456.98 804.535 460.263 805.384C445.702 815.536 400.07 839.543 391.731 849.396C384.015 858.512 377.667 872.674 371.747 883.285C371.19 884.063 370.908 884.166 370.14 884.787C367.452 884.914 364.717 883.59 362.102 882.621C365.544 875.696 378.955 847.933 382.55 844.461C396.892 830.61 430.8 812.576 448.391 802.398Z"/><path fill="#292C32" d="M514.408 574.382C521.407 580.148 524.21 581.272 533.119 582.999C524.609 599.16 517.125 616.644 508.366 632.363C500.256 635.527 495.153 630.835 490.109 625.355C496.351 609.4 506.611 589.91 514.408 574.382Z"/><path fill="#292C32" d="M564.156 592.653C571.664 597.052 575.197 597.35 583.664 597.792C579.574 611.545 572.013 638.564 565.984 650.964C560.536 652.058 547.172 652.514 548.165 643.499C548.776 637.954 551.898 630.263 553.71 624.778C557.291 614.102 560.773 603.393 564.156 592.653Z"/><path fill="#292C32" d="M455.305 534.151C460.643 538.388 465.522 542.493 471.234 546.236C458.961 559.432 450.518 574.095 436.163 587.65C429.535 589.301 423.19 581.724 420.299 576.719C430.062 563.45 444.341 546.454 455.305 534.151Z"/><path fill="#292C32" d="M438.507 518.559C445.196 524.535 443.443 525.45 453.16 531.254C442.003 542.974 427.93 562.823 415.983 572.459C407.831 570.164 405.402 567.004 400.823 560.22C413.722 546.482 425.08 532.216 438.507 518.559Z"/><path fill="#292C32" d="M410.889 478.905C416.353 485.715 414.276 487.088 423.094 495.296C408.58 506.249 398.507 518.136 381.472 528.941C374.273 526.67 371.991 520.488 369.041 514.244C379.605 504.034 399.267 487.965 410.889 478.905Z"/><path fill="#292C32" d="M472.845 549.652C474.923 550.733 476.114 552.233 478.021 553.701C481.669 556.509 484.858 557.756 489.081 559.336C479.41 573.196 466.865 592.034 455.297 603.961C447.744 605.08 443.626 599.374 439.648 594.04C448.238 579.755 462.266 562.749 472.845 549.652Z"/><path fill="#292C32" d="M614.918 598.007C623.098 599.055 626.059 599.042 634.167 597.918C634.005 613.223 633.376 639.413 629.905 653.618C626.841 655.097 623.422 655.785 620.027 655.789C617.721 655.792 614.975 655.253 613.369 653.464C609.216 648.84 614.125 606.184 614.918 598.007Z"/><path fill="#292C32" d="M589.604 597.869C596.593 601.013 602.197 600.761 609.567 600.599C608.321 609.745 605.151 621.999 603.488 631.298C602.478 636.938 600.104 649.86 598.405 654.436C594.995 655.415 590.559 656.254 587.007 655.791C584.607 655.478 582.37 654.639 580.902 652.621C577.588 648.066 588.053 605.766 589.604 597.869Z"/><path fill="#8B2C43" d="M229.169 226.993C247.406 227.018 249.261 244.017 250.692 258.576C251.613 267.952 250.092 272.676 239.974 273.29C233.034 271.798 230.453 270.876 224.363 267.264C224.435 253.511 222.932 245.265 217.57 232.586C221.789 229.48 224.194 228.456 229.169 226.993Z"/><path fill="#292C32" d="M424.674 499.212C425.695 500.184 426.757 502.388 427.591 503.692C431.167 509.285 432.457 510.489 437.773 514.188C423.886 527.15 414.065 539.58 398.478 552.018C390.968 548.83 389.445 545.553 385.422 538.572C394.73 527.971 413.97 508.362 424.674 499.212Z"/><path fill="#292C32" d="M398.639 457.415C399.828 458.356 402.219 467.301 403.983 469.881C405.653 472.325 406.242 472.996 408.391 475.265C396.917 484.047 376.921 498.648 364.298 504.38C358.813 501.56 356.411 493.841 354.226 488.3C368.851 477.306 383.477 467.595 398.639 457.415Z"/><path fill="#292C32" d="M533.86 419.073C536.583 419.949 538.844 420.566 540.351 422.979C540.722 427.442 531.856 440.229 529.553 445.264C520.088 465.952 513.885 487.564 506.096 508.831C504.439 513.356 496.985 518.468 492.343 519.753C478.973 523.456 463.455 520.932 451.293 514.472C447.619 511.837 445.509 510.068 442.151 507.024C456.434 510.469 474.145 516.968 488.635 512.844C504.292 508.387 504.541 489.824 509.584 477.301C517.288 458.173 524.148 437.302 533.86 419.073Z"/><path fill="#292C32" d="M390.971 433.039C393.927 436.983 390.577 442.068 399.219 452.459C383.711 461.743 370.001 470.296 353.327 477.469C348.164 472.826 347.126 467.307 345.297 460.833C350.342 456.388 360.706 450.903 366.811 447.43C375.006 442.874 383.063 438.075 390.971 433.039Z"/><path fill="#292C32" d="M385.594 408.238C387.693 411.628 385.025 417.352 391.805 428.26C381.443 434.763 358.444 444.734 346.74 449.457L345.454 448.852C342.405 444.765 341.149 437.329 340.015 432.258C350.424 424.843 373.18 414.323 385.594 408.238Z"/><path fill="#292C32" d="M281.907 623.047L314.871 623.36L314.24 654.374C303.458 654.554 292.673 654.567 281.89 654.412C281.823 643.957 281.828 633.502 281.907 623.047Z"/><path fill="#292C32" d="M540.026 319.793C545.003 321.164 548.124 321.646 553.155 322.279C538.275 346.557 527.391 366.96 509.723 389.574C509.343 390.048 508.889 390.22 508.315 390.568C505.017 390.697 501.07 389.45 497.792 388.603C511.222 365.45 526.322 342.89 540.026 319.793Z"/><path fill="#292C32" d="M677.59 255.265C683.733 257.364 690.902 262.447 695.745 266.716C699.187 285.191 698.075 309.73 694.612 328.172C693.481 329.146 691.835 330.218 690.579 331.099C686.952 333.093 685.119 335.069 681.05 333.804C678.524 330.484 682.073 320.252 682.905 315.99C687.081 294.58 683.03 275.985 677.59 255.265Z"/><path fill="#292C32" d="M385.203 383.632L386.225 383.882C387.987 390.621 386.346 393.469 389.914 402.098C374.16 408.806 360.841 417.087 344.04 422.82C339.239 417.797 339.267 411.41 338.586 404.774C353.503 397.144 369.851 390.463 385.203 383.632Z"/><path fill="#8B2C43" d="M203.819 234.518C222.008 231.769 223.419 261.063 216.914 271.922C212.451 279.373 205.507 278.799 198.977 274.048C194.311 267.911 195.149 259.278 194.259 251.573C193.078 250.006 193.823 250.417 192.077 250.095C190.294 252.429 191.275 255.022 189.815 258.501C188.903 258.153 188.431 258.071 188.118 256.911C185.358 246.71 196.007 237.96 203.819 234.518Z"/><path fill="#292C32" d="M399.707 641.503L406.76 641.196C406.844 662.78 407.531 689.332 406.389 710.55C403.693 713.589 402.927 714.453 399.64 716.762L393.625 720.4L393.444 670.091C393.425 663.766 393.086 648.64 393.909 642.808C395.937 641.423 396.98 641.767 399.707 641.503Z"/><path fill="#747474" d="M434.063 201.177C447.207 203.468 445.405 219.238 441.688 228.407C438.278 236.817 433.392 242.204 425.111 245.706C424.031 245.69 423.399 245.601 422.334 245.299C419.571 244.492 417.278 242.553 416.024 239.961C413.672 235.143 415.302 225.04 417.278 220.263C421.096 211.032 425.127 205.369 434.063 201.177Z"/><path d="M430.473 205.564C452.363 205.632 436.523 232.958 428.04 240.827C418.712 242.871 417.088 235.012 418.261 227.774C419.767 218.485 423.009 211.393 430.473 205.564Z"/><path fill="#292C32" d="M322.101 250.594C325.706 250.553 327.155 250.818 330.742 251.457C349.395 273.936 350.123 325.3 329.45 347.747C328.3 348.995 326.717 350.397 325.469 351.56C322.333 350.381 320.991 349.591 318.082 347.896L313.858 343.396C318.002 342.186 322.399 341.182 325.548 338.119C334.65 329.264 337.514 312.838 337.783 300.504C338.034 288.966 336.338 271.251 328.192 262.533C324.394 258.468 320.149 258.756 315.033 258.674C317.557 255.295 319.128 253.627 322.101 250.594Z"/><path fill="#8B2C43" d="M283.672 226.968C302.193 225.762 308.766 244.396 308.174 259.89C307.987 264.775 306.782 267.05 303.166 270.087C297.385 271.449 296.097 271.324 290.352 269.661C288.395 267.648 286.943 265.442 285.325 263.152C285.527 256.978 286.064 247.144 284.169 241.377C282.83 237.3 281.131 233.953 279.878 229.459C281.002 227.718 281.533 227.91 283.672 226.968Z"/><path fill="#292C32" d="M365.192 512.949C366.131 513.849 368.146 521.441 370.659 525.35C367.28 538.941 364.591 552.122 363.353 566.107C362.172 579.442 362.579 591.341 359.436 604.421C355.084 604.779 350.74 605.232 346.408 605.779C345.174 606.305 343.613 606.733 342.314 607.13L341.784 606.721C356.031 594.196 351.207 588.857 353.292 571.345C355.657 551.489 358.913 531.97 365.192 512.949Z"/><path fill="#292C32" d="M659.862 349.64C670.521 349.275 681.845 350.566 692.345 352.28C693.589 353.879 693.951 354.153 694.49 356.046C693.154 356.923 686.208 355.373 683.899 355.083C640.641 349.648 600.453 364.046 566.37 389.847C559.28 395.404 554.149 399.797 547.75 406.09L542.992 402.648C580.11 369.757 609.943 353.12 659.862 349.64Z"/><path fill="#E0C5C3" d="M600.595 320.083C601.699 319.791 601.694 319.9 602.874 319.923L603.359 320.913C599.747 329.736 553.815 346.766 543.615 350.627L542.622 350.813L542.113 350.405C542.912 345.994 554.316 328.298 557.236 323.522C575.599 324.916 582.537 325.057 600.595 320.083Z"/><path fill="#292C32" d="M565.138 771.417L565.893 771.478C568.202 774.665 564.515 806.757 563.924 812.994C558.807 814.309 555.292 814.428 550.053 814.319C545.222 809.44 549.135 781.667 549.798 773.899C554.82 773.347 560.136 772.3 565.138 771.417Z"/><path fill="#292C32" d="M609.655 763.104L610.037 763.468C613.024 772.446 612.128 791.529 613.249 801.45C614.091 808.897 603.312 808.104 598.226 807.861C595.567 795.686 594.842 779.603 593.571 766.817C600.864 767 603.293 766.603 609.655 763.104Z"/><path fill="#747474" d="M493.984 209.761C505.388 212.424 512.155 223.757 516.799 233.553L506.031 231.529C503.904 238.946 501.303 246.304 499.147 253.919C502.549 254.856 506.311 256.457 509.633 257.768C500.346 268.03 492.214 268.914 479.11 265.972C468.36 263.124 462.451 260.903 454.337 253.185C465.33 259.459 475.857 262.602 487.473 255.418C494.175 251.229 498.892 244.499 500.545 236.769C503.005 225.639 499.747 218.655 493.984 209.761Z"/><path fill="#292C32" d="M410.387 647.629L423.068 647.701L423.014 699.975L410.321 699.88C410.459 682.463 410.481 665.046 410.387 647.629Z"/><path fill="#292C32" d="M392.836 359.988C393.717 361.434 390.996 372.334 391.026 377.187C377.58 383.986 361.822 389.79 347.535 396.874C344.002 392.897 348.904 383.721 353.237 380.987C358.492 377.671 363.151 375.31 368.691 372.501C376.811 368.47 384.861 364.298 392.836 359.988Z"/><path fill="#292C32" d="M586.896 770.052L587.636 770.184C589.621 774.162 588.508 801.345 588.22 806.809C587.903 812.838 577.674 811.235 573.544 810.172C571.856 806.042 572.02 776.982 571.959 770.329C578.743 772.257 580.326 772.33 586.896 770.052Z"/><path fill="#292C32" d="M537.189 775.888C538.181 775.659 542.332 775.554 543.59 775.495C542.233 788.343 540.17 799.861 537.734 812.483L530.997 812.662C521.91 812.319 522.323 809.787 523.167 801.153C523.95 793.156 525.259 785.022 526.289 777.031C529.919 776.622 533.553 776.241 537.189 775.888Z"/><path fill="#292C32" d="M421.739 373.188C422.941 375.529 417.913 385.394 421.754 388.857C431.172 397.351 448.799 399.453 460.814 400.846C458.924 404.254 457.098 407.697 455.338 411.174L447.749 408.523C434.853 404.777 416.657 397.75 403.706 393.168C408.882 384.068 412.867 378.745 421.739 373.188Z"/><path fill="#292C32" d="M546.354 629.788C548.036 634.34 543.482 640.518 544.416 645.967C545.698 653.446 558.604 656.873 564.808 654.881C572.976 652.258 573.95 638.991 577.522 631.695C577.109 639.419 575.814 647.895 576.779 655.525C559.975 672.26 540.568 665.354 527.359 648.262C542.058 647.885 541.3 641.573 546.354 629.788Z"/><path fill="#292C32" d="M318.622 637.21L325.492 638.356C325.5 646.794 326.317 710.766 324.669 713.897C323.159 713.438 320.656 712.774 319.633 711.555C314.62 705.58 318.329 648.769 318.622 637.21Z"/><path fill="#292C32" d="M514.923 777.785C516.816 777.624 516.806 777.654 518.688 778.033C520.48 781.975 513.812 805.632 512.446 811.151C509.309 811.357 506.064 811.407 502.912 811.496C500.996 810.809 500.753 810.649 499.033 809.523C495.632 804.33 500.995 785.862 502.024 778.228C506.385 778.22 510.576 778 514.923 777.785Z"/><path fill="#292C32" d="M510.65 635.868C513.095 637.26 515.435 640.398 517.338 642.636C517.352 663.924 518.059 689.857 517.193 710.785C514.824 710.737 512.919 710.947 510.873 709.86C508.593 704.886 509.494 643.302 510.65 635.868Z"/><path fill="#292C32" d="M521.496 434.869C521.554 435.6 521.608 436.181 521.363 436.905C517.488 448.338 512.521 459.426 508.279 470.764C504.452 480.996 501.623 491.844 497.141 501.779C496.261 503.729 492.915 506.404 490.988 507.407C480.163 513.045 463.028 509.046 451.876 506.089L450.266 505.308C454.229 502.863 479.266 511.488 486.027 502.734C501.599 482.57 506.041 455.235 521.496 434.869Z"/><path fill="#292C32" d="M478.384 777.461C484.059 777.774 489.739 778.006 495.421 778.157C492.929 787.75 490.569 797.168 487.425 806.579C483.619 809.558 469.763 808.43 472.71 797.547C474.512 790.888 476.371 784.137 478.384 777.461Z"/><path fill="#292C32" d="M343.578 999.264C345.249 1000.54 346.881 1002.83 348.232 1004.53C325.14 1018.36 305.74 1023.65 279.424 1026.49C276.844 1026.12 275.711 1025.19 274.781 1022.79C276.287 1019.35 283.001 1018.99 286.539 1018.77C307.821 1017.44 325.159 1009.77 343.578 999.264Z"/><path fill="#8B2C43" d="M607.791 321.784L608.458 321.807C611.991 321.95 618.83 323.34 618.172 327.84C615.564 330.715 605.77 332.708 601.654 333.863C576.551 340.906 555.202 352.523 534.193 367.669L526.385 373.759L537.564 355.45C561.117 346.954 588.267 337.554 607.791 321.784Z"/><path fill="#292C32" d="M763.918 914.017C768.516 914.367 769.599 918.557 770.053 922.582C772.006 939.91 766.719 970.575 756.525 984.421C754.791 983.431 752.651 981.889 750.952 980.742C758.136 965.541 763.797 952.329 763.314 935.337C763.15 929.582 761.362 918.649 763.918 914.017Z"/><path fill="#292C32" d="M538.462 406.139C544.285 407 548.503 412.787 544.36 418.05C542.942 418.539 540.843 417.996 539.544 417.544C529.088 412.646 525.575 425.027 522.189 425.942C512.011 428.69 476.954 416.399 468.142 413.809C464.808 413.233 462.444 412.838 461.779 409.233L462.788 408.282C464.714 408.103 512.364 422.538 517.592 424.194C524.118 414.688 528.168 410.946 538.462 406.139Z"/><path fill="#292C32" d="M268.06 654.365L277.945 654.469C277.725 670.753 276.806 686.578 279.939 702.582C272.992 702.583 270.375 702.689 269.134 694.716C267.08 681.52 267.789 667.701 268.06 654.365Z"/><path fill="#292C32" d="M404.11 341.222L405.103 341.384C406.021 344.012 402.668 351.31 401.498 354.154C390.273 355.416 370.736 367.792 359.002 373.415L358.604 373.441L358.019 372.534C360.049 358.632 373.722 355.911 384.572 350.301C390.812 347.075 397.699 344.197 404.11 341.222Z"/><path fill="#292C32" d="M338.736 444.217C345.19 449.844 339.432 452.449 351.884 452.064C347.202 454.792 345.207 456.326 341.138 459.904C343.137 467.775 345.872 481.431 356.084 480.795C357.033 480.736 356.739 480.729 357.459 481.436L356.393 482.516C353.851 484.267 352.205 485.7 349.872 487.73C340.826 482.09 335.28 479.336 330.861 469.449C332.561 459.266 334.185 453.494 338.736 444.217Z"/><path fill="#292C32" d="M427.299 638.747C429.326 638.69 429.977 638.531 431.83 639.211C434.306 645.177 433.093 706.637 432.991 716.543C430.703 716.432 430.408 716.406 428.436 715.259C426.235 712.146 427.304 647.26 427.299 638.747Z"/><path fill="#292C32" d="M454.643 774.934C460.197 775.939 467.011 776.442 472.68 776.974C469.182 784.689 465.949 792.521 462.986 800.456C459.558 803.845 450.385 798.589 447.063 796.857C449.396 789.484 451.924 782.174 454.643 774.934Z"/><path fill="#292C32" d="M597.948 658.211C598.585 658.248 598.813 658.407 599.44 658.635C600.015 663.284 599.81 705.245 599.269 709.265C598.205 710.422 596.04 710.497 594.373 710.776L593.199 709.788C591.698 706.667 592.231 666.484 592.675 660.7C594.176 658.963 595.453 659.023 597.948 658.211Z"/><path fill="#292C32" d="M662.268 996.07C674.479 998.129 700.618 1021.72 703.573 1035.37C703.941 1037.07 702 1038.51 700.857 1039.63C697.198 1038.85 690.331 1023.35 685.126 1018.34C675.809 1009.38 669.38 1005.87 658.107 1000.28L662.268 996.07Z"/><path fill="#292C32" d="M205.835 941.293C207.63 941.271 209.206 941.357 210.992 941.451C221.376 948.374 215.412 986.611 212.557 997.574C210.974 997.021 207.999 996.361 206.271 995.918C211.831 972.566 211.882 964.434 205.835 941.293Z"/><path fill="#292C32" d="M291.185 605.828L308.464 606.116C314.699 613.89 320.464 621.173 305.384 620.544C298.098 620.585 290.114 620.159 282.781 619.909C285.187 615.006 288.629 611.503 291.185 605.828Z"/><path fill="#292C32" d="M662.343 636.016C663.085 636.601 663.285 637.017 663.696 637.857C668.822 648.424 658.54 658.604 649.602 662.544C639.376 667.053 631.393 665.546 621.49 661.684L620.474 660.609C623.172 657.265 630.303 661.421 636.124 650.193C642.005 654.554 650.673 658.198 657.242 652.462C662.289 648.055 661.971 642.186 662.343 636.016Z"/><path fill="#292C32" d="M431.714 770.441C435.986 771.549 443.511 772.653 448.071 773.455C445.154 779.203 442.228 786.716 439.276 792.836C434.146 794.294 428.61 791.084 424.049 788.817C426.082 783.191 429.333 776.07 431.714 770.441Z"/><path fill="#292C32" d="M638.604 625.908C639.537 626.439 641.794 628.656 642.752 629.526C648.348 634.616 650.625 634.871 657.752 636.093C658.628 641.793 659.426 644.097 656.01 648.842C635.785 659.021 638.243 638.77 638.604 625.908Z"/><path fill="#292C32" d="M328.532 457.392C329.323 460.99 326.202 466.654 327.716 471.955C330.558 481.905 343.991 488.437 352.553 493.414L339.677 489.396C313.989 480.623 304.175 479.769 328.532 457.392Z"/><path fill="#292C32" d="M221.693 939.148C228.197 939.249 231.109 941.946 233.247 947.815C238.324 961.753 246.864 967.22 256.455 977.407C257.159 978.156 256.166 980.583 255.856 981.656C245.671 986.669 225.07 946.741 221.693 939.148Z"/><path fill="#292C32" d="M709.607 982.574C712.115 982.573 713.088 985.165 713.215 987.287C709.051 994.581 677.146 992.811 669.625 992.273C667.179 991.389 664.661 990.146 664.27 987.441C665.471 986.101 664.777 986.408 666.558 986.266C673.302 985.729 680.159 986.33 686.933 986.163C694.913 985.968 701.969 984.628 709.607 982.574Z"/><path fill="#292C32" d="M409.541 764.176C413.804 765.731 420.772 767.376 425.369 768.581C422.759 773.949 420.103 778.345 417.041 783.471C412.796 785.284 404.62 783.682 403.364 778.654C402.348 774.59 407.32 767.768 409.541 764.176Z"/><path fill="#292C32" d="M334.933 412.831C337.583 417.965 335.981 419.329 340.995 425.892L336.696 431.319C336.799 433.374 337.087 435.642 337.3 437.708C334.983 441.634 332.993 446.388 331.1 450.584C329.49 452.119 329.086 452.651 327.146 453.646C324.11 447.507 332.567 419.564 334.933 412.831Z"/><path fill="#292C32" d="M267.421 626.249L277.934 626.175C277.661 634.419 277.872 642.872 277.977 651.135L267.936 651.334C267.142 644.156 267.403 633.688 267.421 626.249Z"/><path fill="#292C32" d="M386.753 755.312C388.724 755.769 400.569 760.784 403.134 761.826C400.485 765.37 397.993 769.115 395.495 772.773L393.932 773.519C388.157 773.072 384.19 768.48 380.461 764.478C382.781 761.499 384.701 758.466 386.753 755.312Z"/><path fill="#747474" d="M265.241 602.311C265.719 602.827 266.319 603.788 266.738 604.402C267.39 610.084 259.482 615.553 258.551 625.438C257.525 636.337 265.117 645.315 263.625 652.138L262.612 652.123C249.587 636.643 252.447 616.89 265.241 602.311Z"/><path fill="#747474" d="M444.505 230.522L446.283 232.032C446.273 236.998 448.741 243.037 450.485 247.74C441.802 251.845 434.772 258.663 425.222 253.743C431.179 252.995 444.855 250.107 446.36 243.133C444.74 242.152 443.164 243.626 441.631 244.876C433.287 251.677 429.51 251.09 419.499 250.155C434.001 247.162 438.406 244.047 444.505 230.522Z"/><path fill="#292C32" d="M330.491 610.62C332.876 610.745 332.887 610.311 334.052 611.569C332.691 613.188 329.207 617.213 328.511 618.948C326.546 623.846 327.329 632.104 323.193 635.217C316.403 632.307 316.569 625.476 319.622 619.595C322.308 614.419 324.927 612.39 330.491 610.62Z"/><path fill="#292C32" d="M630.467 755.636C630.652 755.817 630.929 756.559 631.053 756.843C629.887 762.856 623.389 774.179 618.886 778.39L617.825 777.991L614.588 759.399C621.917 759.066 624.299 759.214 630.467 755.636Z"/><path fill="#747474" d="M291.243 583.403C292.862 583.557 294.174 583.769 295.779 584.039C298.471 586.847 298.66 591.382 300.367 593.329C303.148 596.503 306.288 597.645 309.03 601.662C304.359 602.109 296.167 601.91 291.225 601.922L291.243 583.403Z"/><path fill="#FCFBFC" d="M479.768 270.53C484.202 270.477 492.657 269.025 493.046 274.842C491.42 278.717 488.448 280.443 485.092 282.91C479.403 284.272 477.158 283.825 471.318 282.802C477.115 278.714 478.219 277.372 479.768 270.53Z"/><path fill="#292C32" d="M402.872 622.529C403.565 622.724 404.704 623.249 405.411 623.545C408.019 626.942 406.966 633.518 406.735 637.979L396.608 638.147C394.581 637.986 394.441 637.489 393.27 636.093C391.807 629.987 397.178 624.139 402.872 622.529Z"/><path fill="#292C32" d="M508.726 235.256L516.359 237.761C515.848 244.233 515.386 247.258 512.111 252.72L503.629 251.71C505.437 246.26 507.136 240.774 508.726 235.256Z"/><path fill="#292C32" d="M313.464 482.045C315.699 482.51 317.841 483.314 319.959 484.178C330.918 488.645 342.47 491.944 353.141 497.035C354.168 497.525 355.711 500.03 356.345 501.043C347.239 499.024 327.843 490.605 318.542 486.916C315.974 485.898 314.357 484.69 313.464 482.045Z"/><path fill="#292C32" d="M363.596 745.786C367.75 746.796 376.516 750.222 380.162 752.424C380.276 754.036 378.66 755.504 377.45 757.147C371.592 762.006 362.331 753.718 363.596 745.786Z"/><path fill="#292C32" d="M411.283 337.906C418.984 344.524 412.367 354.649 407.802 360.91C406.961 361.753 407.472 361.454 406.096 361.53C403.496 357.439 409.412 342.597 411.283 337.906Z"/><path fill="#565556" d="M283.407 580.828L288.609 580.792C286.064 585.44 290.979 602.39 285.075 606.804L284.154 606.074C282.225 599.709 283.414 588.052 283.407 580.828Z"/><path fill="#292C32" d="M416.84 356.095C417.822 356.535 421.592 361.496 422.547 362.675C416.433 365.258 413.376 367.593 408.346 371.64C406.672 372.898 407.112 372.958 405.337 373.123C404.489 371.425 405.355 368.685 405.744 366.659C410.188 363.508 413.36 360.235 416.84 356.095Z"/><path fill="#292C32" d="M395.538 431.141C403.682 434.231 404.342 443.546 404.15 451.019C394.998 447.444 395.089 439.446 395.538 431.141Z"/><path fill="#292C32" d="M279.275 610.348L280.839 610.507L281.395 611.314C281.111 613.365 278.316 619.977 277.389 623.284L269.952 624.579C268.689 624.523 268.772 624.479 267.71 623.76L267.48 622.268C269.309 616.652 274.498 613.289 279.275 610.348Z"/><path fill="#292C32" d="M398.337 358.498C405.086 363.12 400.578 375.112 398.149 381.045C391.025 375.401 395.858 365.41 398.337 358.498Z"/><path fill="#292C32" d="M423.404 365.583C425.487 365.848 425.133 365.462 426.183 366.673C424.507 370.092 417.035 369.962 412.834 373.737C407.492 378.538 404.954 383.068 401.067 388.994L400.133 389.736L399.518 388.813C399.538 376.69 414.077 369.813 423.404 365.583Z"/><path fill="#292C32" d="M391.094 381.378C400.012 384.627 397.301 393.424 395.664 400.488L394.769 401.013C388.857 399.641 390.441 385.95 391.094 381.378Z"/><path fill="#292C32" d="M390.87 405.835C398.264 409.213 398.101 419.854 397.179 426.623C390.11 422.839 389.17 412.828 390.87 405.835Z"/><path fill="#292C32" d="M402.847 454.464C410.661 456.66 412.472 466.184 413.362 473.049C404.317 471.43 403.733 461.845 402.847 454.464Z"/><path fill="#292C32" d="M428.607 494.793C429.068 494.991 429.525 495.196 429.978 495.41C437.456 498.895 439.581 503.641 442.205 510.968C432.688 509.689 429.392 503.488 428.607 494.793Z"/><path fill="#292C32" d="M414.95 475.462C422.998 478.648 426.915 484.253 426.898 492.814C425.242 492.144 423.692 491.236 422.297 490.12C417.477 486.311 415.645 481.337 414.95 475.462Z"/><path fill="#292C32" d="M442.646 513.993C448.962 515.761 457.036 520.328 455.447 527.995C449.667 526.082 440.711 521.174 442.646 513.993Z"/><path fill="#292C32" d="M458.912 529.882C466.354 531.029 473.443 533.891 473.957 542.22C466.899 541.487 460.424 537.084 458.912 529.882Z"/><path fill="#292C32" d="M710.909 394.152C716.361 395.751 723.978 403.353 728.188 407.401L729.008 415.254C726.264 413.683 713.145 397.379 710.909 394.152Z"/><defs><linearGradient id="gradient_0" gradientUnits="userSpaceOnUse" x1="439.86981" y1="221.89232" x2="454.14053" y2="213.70697"><stop offset="0" stop-color="#5C5D5E"/><stop offset="1" stop-color="#797878"/></linearGradient></defs><path fill="url(#gradient_0)" d="M445.637 203.426C448.355 205.522 452.09 208.232 454.561 210.479C448.718 219.512 447.93 221.701 446.283 232.032L444.505 230.522C448.433 220.373 447.623 213.814 445.637 203.426Z"/><path fill="#292C32" d="M493.576 557.369C500.798 557.212 508.458 559.57 510.494 567.275C503.51 567.048 496.072 564.373 493.576 557.369Z"/><path fill="#747474" d="M273.897 583.66C276.172 583.645 280.66 583.687 280.554 586.622C277.747 588.222 274.258 587.364 270.862 590.028C266.834 593.186 268.836 598.201 272.215 601.114L272.56 602.897L271.452 604.083L271.899 604.167L271.41 604.543C267.612 603.434 266.031 596.592 266.832 593.112C267.971 588.161 269.852 586.469 273.897 583.66Z"/><path fill="#292C32" d="M475.615 544.854C484.018 545.294 489.005 547.998 491.149 556.578C489.832 556.2 488.528 555.777 487.24 555.31C481.027 552.986 478.27 550.843 475.615 544.854Z"/><path fill="#292C32" d="M568.593 587.458C572.943 587.342 579.425 587.899 582.671 590.999C583.469 593.234 583.501 592.278 582.454 594.573C577.893 593.994 569.416 594.014 567.61 589.411L568.593 587.458Z"/><path fill="#292C32" d="M595.099 591.3C598.577 591.52 607.124 592.006 609.033 595.352C608.353 596.999 608.561 596.476 606.455 597.499C602.79 597.554 595.044 597.558 592.726 594.255C593.08 592.274 592.956 592.913 595.099 591.3Z"/><path fill="#292C32" d="M624.906 589.525C628.262 589.648 630.769 589.198 632.902 592.039L632.392 593.412C630.474 595.007 628.715 595.065 626.222 595.526C623.203 595.699 619.863 595.813 617.988 593.241L618.437 591.875C620.463 590.158 622.271 590.063 624.906 589.525Z"/><path fill="#292C32" d="M517.229 570.734C525.343 570.112 530.222 571.736 534.566 578.897C527.218 578.367 521.393 577.392 517.229 570.734Z"/><path fill="#292C32" d="M541.702 580.823C548.769 580.239 555.681 580.779 558.274 588.33C553.207 587.977 543.753 586.18 541.702 580.823Z"/><path fill="#747474" d="M283.407 580.828C284.476 572.376 293.55 572.713 295.858 577.68C294.779 581.486 292.114 580.877 288.609 580.792L283.407 580.828Z"/><path fill="#292C32" d="M312.177 602.7C315.809 603.92 322.969 605.81 325.746 607.401L325.808 608.137L323.414 609.46C322.06 610.262 319.508 612.369 318.165 613.413C315.526 609.841 313.816 606.797 312.177 602.7Z"/><path fill="#292C32" d="M670.172 661.493C672.383 663.48 675.539 670.349 676.113 673.439L675.387 674.459C673.417 675.204 673.159 675.409 671.112 675.356L670.174 674.359C669.146 671.368 669.974 665.157 670.172 661.493Z"/><path fill="#292C32" d="M426.959 622.654C428.049 622.941 428.834 623.399 429.834 623.903C432.579 627.328 431.855 631.829 431.826 636.365C430.361 635.969 429.875 635.751 428.488 635.116C425.608 631.706 426.649 627.2 426.959 622.654Z"/><path fill="#FCFBFC" d="M447.803 253.369C450.671 254.208 451.713 254.244 452.002 257.342C451.168 259.835 450.048 260.795 448.301 262.697C446.526 263.631 447.169 263.597 445.374 263.475C444.331 260.684 446.627 256.331 447.803 253.369Z"/><path fill="#292C32" d="M607.322 758.858L607.898 759.132L608.131 760.046C605.514 762.821 600.989 763.847 597.39 764.791C596.6 764.255 596.855 764.389 596.326 763.463C597.831 760.952 604.316 759.658 607.322 758.858Z"/><path fill="#292C32" d="M627.314 751.252L628.456 751.255L629.028 751.872C627.188 754.734 623.08 755.756 619.969 756.593L618.497 756.136L618.341 755.158C620.399 753.442 624.64 752.194 627.314 751.252Z"/><path fill="#4F1C1F" d="M492.763 801.983C493.573 798.255 495.304 788.548 497.318 785.855C497.527 788.583 494.147 802.49 493.754 807.648C493.654 805.41 493.797 803.956 492.763 801.983Z"/><path fill="#4F1C1F" d="M517.614 805.422C518.037 803.042 519.432 794.407 520.731 793.138C520.535 798.737 519.128 804.393 519.209 809.457L518.731 806.072L517.614 805.422Z"/><path fill="#292C32" d="M581.994 615.438C582.841 618.466 580.761 626.062 580.004 629.428C578.049 625.59 580.653 619.182 581.994 615.438Z"/><path fill="#292C32" d="M628.464 323.718L629.028 324.307C628.355 326.729 624.692 328.15 622.546 329.184C621.822 328.243 622.06 328.789 622.151 327.397C623.859 325.46 626.049 324.785 628.464 323.718Z"/><path fill="#8B2C43" d="M470.246 791.222L470.582 791.522C470.995 794.903 468.85 799.577 467.52 802.66C465.668 800.838 469.283 793.584 470.246 791.222Z"/><path fill="#4F1C1F" d="M592.455 792.271C593.686 797.028 593.83 800.445 593.509 805.317C593.212 806.73 592.923 808.199 592.593 809.599C592.155 803.823 592.361 798.065 592.455 792.271Z"/><path fill="#292C32" d="M524.775 606.641L525.493 607.556C524.851 610.392 522.495 614.899 521.174 617.671L520.944 617.624L520.48 616.911C521.241 613.83 523.385 609.627 524.775 606.641Z"/><path fill="#292C32" d="M586.32 765.876L586.403 766.215L585.866 767.093C582.675 768.374 581.154 768.563 577.738 769.137L578.062 768.029C580.503 766.582 583.48 766.343 586.32 765.876Z"/><path fill="#4F1C1F" d="M448.994 780.232C447.859 784.502 446.466 789.6 444.393 793.489L443.801 792.39C445.381 787.327 446.635 784.92 448.994 780.232Z"/><path fill="#8B2C43" d="M568.572 799.799C569.727 803.166 569.311 807.675 568.901 811.142C567.287 807.657 567.829 803.433 568.572 799.799Z"/><path fill="#292C32" d="M370.778 506.147L371.339 506.585C370.859 508.307 368.581 509.61 367.027 510.766C366.594 510.353 366.635 510.179 366.385 509.542C367.601 507.558 368.703 507.24 370.778 506.147Z"/></svg>