<?xml version="1.0" encoding="utf-8" ?><svg xmlns="http://www.w3.org/2000/svg" xmlns:xlink="http://www.w3.org/1999/xlink" width="1006" height="1365" viewBox="0 0 1006 1365"><path transform="matrix(1.12277 0 0 1.12253 0.000244141 0)" d="M269.11 62.3592C308.589 36.7726 365.909 20.8852 412.183 12.9922C406.04 16.7639 400.712 20.0133 394.92 24.2698C413.657 24.6645 442.607 24.3875 461.003 22.2093C452.908 24.6995 444.726 28.0283 436.805 31.1007C458.177 39.0836 474.351 36.493 495.535 31.3341C476.669 41.8042 461.681 47.8868 442.548 56.8783C456.952 65.831 458.998 68.0325 454.492 84.7436C463.3 90.4781 462.572 93.0624 459.843 102.515C465.529 115.624 464.323 120.273 458.319 132.597C461.753 163.222 460.849 196.613 464.115 227.975C523.191 233.326 549.271 249.644 569.988 306.051C574.122 306.484 578.229 307.139 582.293 308.013C628.099 318.179 655.243 359.908 648.067 406.185C647.117 412.308 645.831 418.007 644.443 424.057C659.316 423.816 685.716 422.958 699.705 424.636C701.312 425.908 701.061 426.929 701.625 429.373C703.954 430.192 712.502 430.038 715.587 430.085C718.731 416.764 721.994 403.471 725.374 390.207C731.882 390.002 738.76 390.11 745.301 390.115C747.887 402.052 750.188 415.423 754.7 426.645C759.994 428.333 760.457 428.211 763.699 432.754C781.057 433.038 799.834 432.679 816.944 433.277C846.442 401.098 860.147 466.699 832.572 472.565C827.295 473.687 820.29 468.072 816.596 464.822C797.302 464.769 776.83 464.371 757.626 464.9L757.401 471.466C738.855 471.354 720.309 471.392 701.764 471.58C701.726 479.991 701.638 484.48 699.693 492.74C685.736 492.712 665.857 492.068 652.369 492.933C651.275 494.39 651.456 496.808 651.373 498.745C667.582 503.671 689.708 509.184 687.025 531.013C686.078 538.717 683.036 542.073 677.094 546.725C681.296 565.268 681.589 573.632 664.068 583.217C663.663 601.373 661.987 603.788 647.874 614.203C644.968 628.664 641.09 632.06 627.833 637.525C615.396 665.374 597.546 654.772 576.692 641.678C567.294 635.778 562.718 631.77 558.925 621.091C547.345 616.599 541.823 611.386 533.276 602.983C526.767 603.653 516.037 606.347 509.512 607.863C508.491 609.919 505.793 615.282 506.561 617.28C508.114 621.317 516.733 624.333 520.203 627.394C527.811 634.107 533.46 642.342 535.804 652.167C540.114 670.232 535.119 683.901 526.219 699.048C577.591 733.415 593.19 762.99 605.474 822.764C612.869 828.66 618.547 832.441 624.871 839.763C642.691 860.394 639.098 880.343 628.376 902.95C639.091 919.142 653.217 937.789 656.963 957.175C660.856 977.323 640.651 988.585 623.481 991.154C618.633 1009.61 611.689 1030.03 605.741 1048.22C620.357 1051.12 635.773 1052.16 650.805 1055.32C653.913 1055.62 654.916 1055.44 657.562 1057.09C660.191 1057.3 662.927 1057.36 665.565 1057.4C698.486 1057.86 709.85 1085.31 717.372 1111.54L717.49 1114.77C717.86 1131.37 719.581 1143.74 698.921 1144.87C697.327 1146.92 695.568 1148.87 693.847 1150.82C690.759 1151.84 686.478 1152.69 683.222 1153.42C680.357 1152.45 677.657 1151.75 674.735 1150.97C672.993 1152.41 670.593 1154.84 668.912 1156.47L656.875 1157.4C653.688 1155.5 652.468 1154.88 649.019 1153.53C646.493 1154.52 643.672 1156.26 641.277 1157.64C637.824 1157.77 632.992 1157.44 629.442 1157.3C622.67 1151.8 621.492 1151.3 614.255 1156.31C606.102 1154.81 604.46 1153.22 597.352 1149.19C595.144 1147.94 591.734 1150.07 589.572 1151.19C587.023 1150.79 584.463 1150.08 581.953 1149.44C579.711 1146.55 576.761 1140.88 574.884 1137.51C567.516 1134.37 561.621 1133.08 553.884 1131.31L549.811 1144.58C547.1 1144.17 544.596 1143.4 541.958 1142.66C540.415 1140.79 538.701 1138.97 537.061 1137.18C534.087 1138.13 531.097 1139.04 528.094 1139.9C523.935 1138.56 518.953 1135.49 515.066 1133.28L508.829 1136.03C488.562 1132.42 493.052 1121.36 494.361 1105.34C494.281 1104.64 494.33 1102.79 494.327 1101.98C494.96 1089.12 497.217 1061.23 507.266 1053.22C521.446 1041.93 538.038 1039.37 513.591 1021.12C513.257 1011.02 513.043 1000.92 512.95 990.814C507.59 989.048 502.704 987.543 497.729 984.793C465.964 967.23 479.906 941.907 502.698 925.027C495.103 911.106 493.285 904.858 497.888 888.983C484.789 882.181 471.226 874.868 459.023 866.61C431.722 848.135 398.362 814.709 388.247 782.395C388.122 782.002 388.003 781.607 387.889 781.21C377.726 782.632 367.501 783.574 357.249 784.033C352.544 797.924 347.106 814.455 340.646 827.515C324.496 860.166 296.167 894.274 265.076 913.415C266.818 922.343 268.699 931.243 270.718 940.111C281.632 989.857 275.776 1009.91 220.872 1014.24C217.235 1023.7 207.709 1047.18 202.215 1055.11C197.754 1057.28 186.566 1061.29 190.026 1067.98C192.151 1072.08 199.323 1074.78 202.01 1078.77C208.627 1089.57 206.987 1109.38 208.499 1121.23L208.371 1124.36C208.464 1133.08 208.622 1139.73 207.43 1148.38C203.835 1152.25 201.514 1153.86 196.893 1156.48L194.888 1148.64C182.973 1154.94 181.13 1160.27 175.767 1172.38C173.811 1173.69 171.773 1175.11 169.802 1176.37C161.415 1175.23 160.74 1175.31 155.018 1181.86C151.253 1182.81 148.536 1183.43 144.712 1184.03L138.228 1180.21C127.488 1185.85 122.594 1188.44 111.232 1182.21C102.585 1185.37 101.13 1186.19 91.7896 1185.38C86.5308 1179.52 84.9968 1178.71 78.4781 1183.59C74.6295 1183.35 72.5148 1183.23 68.7817 1182.42C63.0172 1176.13 62.387 1174.47 54.287 1178.63C42.9303 1169.78 41.0571 1163.03 41.5846 1148.98L42.1327 1145.09C41.6518 1133.93 44.2028 1122.84 49.5149 1113C57.3801 1098.69 67.8877 1092.16 83.0315 1087.81C84.8744 1085.99 85.3469 1085.37 87.821 1084.48C94.6497 1080.75 102.439 1078.42 109.539 1074.77C117.486 1060.85 116.392 1043.73 116.394 1028.23L116.357 990.551C95.1529 980.277 78.8578 966.794 86.6731 939.98C93.5102 916.523 123.372 901.873 143.636 891.076L148.741 882.385C145.997 872.525 144.444 860.426 143.964 850.223C141.561 799.137 165.584 765.721 197.924 729.723C163.439 723.841 166.497 716.092 166.784 683.203C166.82 679.089 166.886 674.689 166.941 670.549C156.211 665.29 156.295 663.562 158.798 651.801C160.875 642.047 163.62 633.083 167.363 623.846C133.736 612.81 134.028 592.719 134.481 561.527C126.121 557.998 119.621 555.244 111.991 550.306C89.4243 535.701 73.6076 512.707 68.0403 486.41C61.7515 456.974 68.4855 431.884 84.5274 407.066C80.5392 399.188 78.2521 393.746 76.127 385.073C70.2246 360.75 74.2592 335.077 87.338 313.736C102.006 289.591 125.722 274.561 152.811 267.952C152.426 262.712 151.476 256.992 150.618 251.8C158.32 243.166 170.03 232.928 178.751 225.025C162.369 225.442 145.982 224.419 129.779 221.967C150.583 208.563 168.034 193.744 178.975 170.906C172.966 171.082 167.065 171.256 161.096 170.337C131.58 165.792 112.927 141.822 96.2715 119.683C114.758 126.912 127.761 129.612 146.542 120.639C182.277 103.568 196.627 108.518 221.049 137.533C226.011 131.215 227.894 129.977 235.675 127.637C236.826 123.477 238.125 120.819 239.902 116.932C238.163 108.513 239.342 105.714 243.614 98.6341C243.238 97.5838 242.857 96.5356 242.471 95.4894C236.824 80.2358 233.423 73.6665 216.541 81.1002C227.38 70.5954 232.209 69.0622 246.538 66.8704C240.332 56.814 234.199 53.1719 223.507 49.3486C243.823 52.4019 243.035 49.5619 260.707 63.7036C266.242 51.1556 270.86 45.5805 279.923 35.76C273.235 46.3278 271.754 50.3452 269.11 62.3592Z"/><path transform="matrix(1.12277 0 0 1.12253 0.000244141 0)" d="M494.361 1105.34C517.067 1108.91 540.22 1112.7 562.676 1117.67C572.197 1119.78 582.529 1123.54 592.136 1125.59C642.829 1136.39 671.638 1138.21 717.49 1114.77C717.86 1131.37 719.581 1143.74 698.921 1144.87C697.327 1146.92 695.568 1148.87 693.847 1150.82C690.759 1151.84 686.478 1152.69 683.222 1153.42C680.357 1152.45 677.657 1151.75 674.735 1150.97C672.993 1152.41 670.593 1154.84 668.912 1156.47L656.875 1157.4C653.688 1155.5 652.468 1154.88 649.019 1153.53C646.493 1154.52 643.672 1156.26 641.277 1157.64C637.824 1157.77 632.992 1157.44 629.442 1157.3C622.67 1151.8 621.492 1151.3 614.255 1156.31C606.102 1154.81 604.46 1153.22 597.352 1149.19C595.144 1147.94 591.734 1150.07 589.572 1151.19C587.023 1150.79 584.463 1150.08 581.953 1149.44C579.711 1146.55 576.761 1140.88 574.884 1137.51C567.516 1134.37 561.621 1133.08 553.884 1131.31L549.811 1144.58C547.1 1144.17 544.596 1143.4 541.958 1142.66C540.415 1140.79 538.701 1138.97 537.061 1137.18C534.087 1138.13 531.097 1139.04 528.094 1139.9C523.935 1138.56 518.953 1135.49 515.066 1133.28L508.829 1136.03C488.562 1132.42 493.052 1121.36 494.361 1105.34Z"/><path transform="matrix(1.12277 0 0 1.12253 0.000244141 0)" d="M208.371 1124.36C208.464 1133.08 208.622 1139.73 207.43 1148.38C203.835 1152.25 201.514 1153.86 196.893 1156.48L194.888 1148.64C182.973 1154.94 181.13 1160.27 175.767 1172.38C173.811 1173.69 171.773 1175.11 169.802 1176.37C161.415 1175.23 160.74 1175.31 155.018 1181.86C151.253 1182.81 148.536 1183.43 144.712 1184.03L138.228 1180.21C127.488 1185.85 122.594 1188.44 111.232 1182.21C102.585 1185.37 101.13 1186.19 91.7896 1185.38C86.5308 1179.52 84.9968 1178.71 78.4781 1183.59C74.6295 1183.35 72.5148 1183.23 68.7817 1182.42C63.0172 1176.13 62.387 1174.47 54.287 1178.63C42.9303 1169.78 41.0571 1163.03 41.5846 1148.98C49.3494 1150.53 58.2411 1155.68 65.0259 1156.81C98.5486 1162.36 141.334 1166.29 172.757 1150.44C175.844 1148.88 180.832 1143.99 182.97 1141.62C192.412 1131.15 195.637 1128.98 208.371 1124.36Z"/><path fill="#FDFDFD" transform="matrix(1.12277 0 0 1.12253 0.000244141 0)" d="M494.327 1101.98C512.648 1106.74 536.149 1108.49 554.942 1113.01C617.333 1128.03 657.011 1144.49 717.372 1111.54L717.49 1114.77C671.638 1138.21 642.829 1136.39 592.136 1125.59C582.529 1123.54 572.197 1119.78 562.676 1117.67C540.22 1112.7 517.067 1108.91 494.361 1105.34C494.281 1104.64 494.33 1102.79 494.327 1101.98Z"/><path fill="#FDFDFD" transform="matrix(1.12277 0 0 1.12253 0.000244141 0)" d="M208.499 1121.23L208.371 1124.36C195.637 1128.98 192.412 1131.15 182.97 1141.62C180.832 1143.99 175.844 1148.88 172.757 1150.44C141.334 1166.29 98.5486 1162.36 65.0259 1156.81C58.2411 1155.68 49.3494 1150.53 41.5846 1148.98L42.1327 1145.09C68.5727 1162.33 141.451 1162.94 169.859 1148.81C183.23 1142.16 185.516 1128.6 208.499 1121.23Z"/><path fill="#FDFDFD" transform="matrix(1.12277 0 0 1.12253 0.000244141 0)" d="M87.821 1084.48C110.665 1085.33 141.88 1086.64 158.945 1104.25C163.227 1108.66 168.181 1117.89 168.082 1124.07L167.553 1124.84C166.009 1123.76 163.26 1116.14 161.998 1113.87C147.743 1088.29 108.936 1086.99 83.0315 1087.81C84.8744 1085.99 85.3469 1085.37 87.821 1084.48Z"/><path fill="#FDFDFD" transform="matrix(1.12277 0 0 1.12253 0.000244141 0)" d="M650.805 1055.32C653.913 1055.62 654.916 1055.44 657.562 1057.09C642.734 1060.18 632.783 1066.34 624.43 1079.27C621.543 1083.74 619.444 1088.08 616.248 1092.43L615.753 1093.1C619.321 1073.03 634.016 1063.63 650.805 1055.32Z"/><path fill="#D35E5A" transform="matrix(1.12277 0 0 1.12253 0.000244141 0)" d="M161.022 280.27C165.334 280.976 169.598 282.456 173.779 283.769C165.387 302.246 179.783 299.279 193.028 302.065C188.228 315.817 185.826 322.175 203.493 321.197C205.666 323.557 207.994 326.711 210.003 329.293C208.529 341.37 209.91 344.204 222.569 344.424C227.673 352.682 231.803 361.954 235.848 370.799C223.172 368.816 217.587 368.961 205.107 370.396C220.432 372.743 234.025 377.21 246.437 387.061C258.208 396.344 265.734 409.984 267.31 424.891C269.415 444.397 261.381 458.822 249.619 473.404C220.652 481.901 196.401 492.851 184.986 523.483C196.723 509.752 212.543 499.01 229.092 491.939C306.306 458.947 346.509 533.033 375.771 529.8C388.154 528.432 394.94 514.037 401.993 505.358C420.013 504.83 437.981 505.244 456.008 505.242C468.512 505.438 481.473 504.774 493.889 506.012C504.05 507.024 507.56 519.108 501.323 526.338C492.834 536.179 478.426 529.855 467.462 531.163C465.437 531.405 463.398 531.944 462.226 533.553C467.076 538.293 486.446 533.323 493.053 536.83C499.391 540.195 499.259 546.458 496.486 552.213C490.714 564.193 464.654 552.526 460.459 560.588L460.939 561.699C469.721 561.287 483.686 559.693 490.608 565.977C497.344 572.093 489.953 579.984 485.151 584.288C480.125 584.182 464.954 583.16 461.749 586.109C464.642 588.758 479.523 588.578 485.215 589.796C488.857 593.405 488.01 599.708 485.71 603.854C480.22 613.747 468.163 608.008 459.813 609.165C445.669 611.125 431.162 613.412 417.24 616.695C406.973 611.046 395.14 602.743 385.315 596.138C350.355 610.578 316.413 634.196 276.88 636.344C255.061 637.53 231.459 630.499 213.852 617.54C206.365 612.029 197.712 603.514 190.561 597.107C193.01 602.176 195.873 607.469 198.485 612.489C146.153 613.324 147.062 599.692 146.203 552.654C140.188 550.653 133.552 547.369 128.143 544.082C106.287 530.986 90.6324 509.634 84.7157 484.853C77.3429 454.602 85.4292 434.215 100.683 409.165C97.4881 403.691 94.8734 397.898 92.8815 391.881C78.4409 348.085 98.3598 303.295 142.081 286.773C148.452 284.365 154.517 282.342 161.022 280.27Z"/><path transform="matrix(1.12277 0 0 1.12253 0.000244141 0)" d="M211.343 582.939C214.127 583.245 221.4 586.234 224.322 587.31C269.056 603.778 314.201 595.696 359.04 585.145L353.092 587.867C305.302 607.056 255.401 616.25 211.343 582.939Z"/><path transform="matrix(1.12277 0 0 1.12253 0.000244141 0)" d="M136.319 404.904L136.749 405.275C136.437 408.838 134.241 413.188 133.263 416.758C121.233 460.709 142.862 486.933 171.84 515.198L166.292 512.198C165.444 511.676 164.604 511.142 163.772 510.595C144.694 498.088 127.675 482.47 123.167 459.035C118.925 436.978 124.463 422.708 136.319 404.904Z"/><path transform="matrix(1.12277 0 0 1.12253 0.000244141 0)" d="M173.031 552.606C175.032 554.206 178.54 564.772 181.581 568.536C188.395 576.975 193.124 577.234 203.008 578.617L203.349 579.493L202.12 580.804C199.025 582.095 194.891 583.159 191.604 584.107C175.19 577.716 171.728 569.411 173.031 552.606Z"/><path fill="#5C5D52" transform="matrix(1.12277 0 0 1.12253 0.000244141 0)" d="M349.278 700.096L387.16 700.027C387.461 731.19 386.539 748.833 364.762 773.759C346.979 777.511 323.11 779.078 304.891 780.237C304.636 781.067 304.507 781.001 304.661 781.71C316.419 783.909 335.236 784.196 347.467 784.336C332.178 820.168 314.335 849.949 284.03 875.18C277.043 880.997 271.342 885.755 263.523 890.473C261.797 875.988 260.226 868.258 254.267 854.976C258.662 891.354 248.968 923.649 214.568 942.28C228.943 941.524 242.668 930.211 253.146 921.193C250.117 943.24 246.569 947.488 234.888 965.463C248.523 953.875 252.428 948.722 262.072 933.648C264.914 973.896 230.26 1024.85 188.264 996.408C204.248 983 210.443 976.665 223.409 960.678C201.337 977.533 188.123 984 162.13 970.497C164.445 978.694 166.834 986.87 169.295 995.024C166.283 995.099 163.003 995.157 160.071 995.087C120.232 994.133 97.1331 966.374 117.898 928.997C123.753 918.457 129.465 911.925 137.224 902.682C134.114 914.993 132.516 922.892 133.866 935.628C138.143 915.19 142.05 906.385 153.727 889.148C153.623 904.253 153.882 919.605 161.957 932.968C155.347 894.97 167.98 869.263 194.385 843.217C181.024 849.8 175.293 855.652 165.052 865.957C163.64 857.062 163.032 848.059 163.237 839.056C164.051 792.449 188.029 759.682 220.245 728.483C221.127 728.932 222.017 729.366 222.914 729.785C241.408 738.38 258.995 737.05 277.438 730.392C298.785 736.605 322.828 740.456 340.733 723.81C348.278 716.796 349.02 709.758 349.278 700.096Z"/><path fill="#313030" transform="matrix(1.12277 0 0 1.12253 0.000244141 0)" d="M304.661 781.71C302.631 781.534 302.296 781.543 300.404 780.876C301.523 780.074 303.271 780.299 304.891 780.237C304.636 781.067 304.507 781.001 304.661 781.71Z"/><path fill="#5C5D52" transform="matrix(1.12277 0 0 1.12253 0.000244141 0)" d="M431.618 694.651L440.057 694.651C448.865 707.23 457.71 717.243 473.359 720.785C491.446 724.878 502.473 719.835 517.254 710.647C558.078 736.019 576.931 758.55 595.004 803.29C597.843 810.319 599.599 817.89 602.657 824.78C604.849 829.721 610.005 834.061 613.338 838.345C621.225 848.613 626.115 864.397 625.203 877.14C623.653 898.816 613.398 910.882 598.268 924.348C611.179 919.051 614.571 916.554 624.567 907.287C634.452 929.025 642.454 960.612 622.412 979.265C614.688 986.454 592.431 992.459 602.062 974.078C607.127 964.413 609.22 948.443 611.24 937.531C599.139 958.78 580.151 984.671 552.92 983.91C537.859 983.489 519.086 975.797 512.329 961.415C508.973 954.272 509.302 948.13 509.558 940.524C528.54 947.995 539.983 949.937 560.374 948.371L561.026 948.145L560.892 947.535C555.174 943.726 545.517 939.797 539.219 936.11C522.964 926.595 515.959 918.844 510.953 901.13C533.237 909.983 548.319 912.163 572.272 912.606C541.135 896.291 511.881 877.078 487.561 851.456C470.246 833.214 455.198 813.069 438.055 794.675C434.167 790.503 430.395 786.056 426.677 781.731C443.339 778.828 462.224 773.661 478.833 769.458C462.421 769.157 445.563 770.871 428.822 770.684C443.835 763.666 458.655 757.194 472.604 748.204C456.765 753.754 444.447 757.435 428.25 761.86C442.947 748.82 450.683 742.239 460.724 725.411C443.208 743.22 420.577 759.088 395.881 764.697C409.763 749.945 418.646 737.224 423.004 716.832C424.213 711.177 424.855 705.581 425.991 699.882L431.618 694.651Z"/><path fill="#D35E5A" transform="matrix(1.12277 0 0 1.12253 0.000244141 0)" d="M395.131 126.712C403.157 125.55 432.999 126.328 442.569 126.437C432.406 137.059 421.925 147.37 411.139 157.358C408.438 151.844 407.569 147.606 406.355 141.716C406.07 148.575 404.761 163.876 412.379 166.973C417.319 166.909 443.195 142.781 448.232 138.254C450.36 187.15 454.969 236.554 456.638 285.443C400.901 286.096 345.283 288.727 289.214 289.156C285.3 280.643 284.12 280.115 274.885 281.571C275.623 259.218 275.04 236.666 276.14 214.497C272.324 211.86 259.257 211.96 253.606 206.418C245.658 198.691 244.47 190.176 243.333 179.58C241.743 164.766 255.159 143.797 270.592 158.418C278.859 166.251 277.981 180.336 277.805 191.176L295.756 191.174C295.421 177.649 292.439 154.303 290.034 141.056C304.333 137.141 321.953 134.174 336.772 131.346C332.549 137.891 328.195 144.507 324.884 151.554L336.751 143.111C346.731 148.469 356.782 153.693 366.901 158.784L364.218 164.685C369.857 172.852 372.432 172.917 378.442 164.828L390.138 170.968C400.224 159.35 400.583 156.74 397.667 141.825C397.01 151.178 396.849 153.639 393.291 162.381C378.37 154.729 357.853 140.074 343.695 130.218C360.829 128.892 377.975 127.723 395.131 126.712Z"/><path transform="matrix(1.12277 0 0 1.12253 0.000244141 0)" d="M354.114 210.369C367.684 209.478 410.498 216.883 426.158 219.386C424.99 230.709 423.852 244.106 423.184 255.386L387.01 255.469L313.278 255.383C316.278 228.087 326.421 214.742 354.114 210.369Z"/><path fill="#FDFDFD" transform="matrix(1.12277 0 0 1.12253 0.000244141 0)" d="M354.226 214.54C365.487 213.285 399.59 219.768 412.805 221.836C410.887 225.867 409.734 227.733 407.066 231.239C400.371 233.008 392.525 234.142 385.68 235.069C399.207 237.121 406.318 237.464 411.621 251.207L367.247 251.227L326.389 251.207C328.293 246.864 329.461 244.857 332.124 240.959C341.119 238.736 349.384 236.939 358.613 236.156C361.823 235.883 368.487 236.005 371.17 234.982C370.214 233.508 356.258 231.82 353.641 231.384C344.974 229.995 336.374 228.209 327.87 226.035C336.127 218.722 343.504 215.92 354.226 214.54Z"/><path transform="matrix(1.12277 0 0 1.12253 0.000244141 0)" d="M402.499 162.559C406.518 166.06 414.923 186.517 417.468 192.407C412.284 195.874 407.028 199.232 401.704 202.479C400.576 203.028 400.611 202.951 399.338 202.944L398.91 202.084C400.737 197.673 408.582 193.266 412.684 190.901C408.983 181.973 404.658 171.85 402.499 162.559Z"/><path transform="matrix(1.12277 0 0 1.12253 0.000244141 0)" d="M262.544 173.882C257.954 169.452 257.46 168.472 250.979 168.518L250.459 168.526L250.381 167.958C258.979 161.011 265.831 171.76 267.848 179.269C267.741 181.127 267.887 183.147 266.835 184.586L264.755 177.122C260.89 180.138 256.033 187.284 252.915 187.843L252.478 186.728C253.612 179.989 257.335 177.973 262.544 173.882Z"/><path transform="matrix(1.12277 0 0 1.12253 0.000244141 0)" d="M349.562 169.281C352.064 170.266 365.229 175.938 366.035 176.924C357.346 178.859 353.87 176.685 349.562 169.281Z"/><path fill="#210B08" transform="matrix(1.12277 0 0 1.12253 0.000244141 0)" d="M267.848 179.269C268.811 183.926 268.904 191.83 268.946 196.693C267.99 192.359 267.193 189.048 266.835 184.586C267.887 183.147 267.741 181.127 267.848 179.269Z"/><path fill="#D35E5A" transform="matrix(1.12277 0 0 1.12253 0.000244141 0)" d="M464.407 241.547C479.229 241.532 502.822 247.984 515.815 255.082C543.119 269.998 549.679 285.744 558.026 312.921C551.524 315.849 545.075 318.895 538.683 322.056C542.883 321.068 546.773 320.384 551.024 319.814C599.563 313.304 643.769 354.627 635.135 404.159C633.878 411.369 632.375 416.825 630.199 423.887L572.372 423.957C572.02 365.986 555.072 338.718 501.746 315.118C514.356 325.448 521.512 331.297 532.201 343.75C553.288 370.812 554.545 391.849 545.963 423.907L529.553 423.959L519.762 394.784C487.973 394.096 456.737 394.376 424.966 394.243C423.916 399.478 422.261 405.657 420.993 410.922C411.184 407.957 408.805 410.294 401.753 416.575C403.886 405.851 401.955 400.087 399.371 389.832C394.262 369.553 386.325 354.487 371.818 339.398C411.895 311.88 460.383 299.353 508.775 304.014C493.887 298.548 482.428 297.041 466.724 296.222C466.557 278.288 465.44 259.499 464.407 241.547Z"/><path fill="#D35E5A" transform="matrix(1.12277 0 0 1.12253 0.000244141 0)" d="M342.34 83.0253C316.178 86.3649 291.842 94.5721 267.341 104.109C262.128 106.138 251.409 113.09 246.395 112.355C245.941 111.628 245.689 111.565 246.046 110.641C249.07 102.603 255.901 98.8745 262.947 94.902C313.626 66.3324 375.948 47.7453 433.998 61.4735C448.119 64.8129 451.207 71.0982 447.026 84.4612C427.381 84.437 397.38 86.6639 378.768 93.1284L379.121 93.515C400.775 90.2488 434.07 88.9154 455.341 93.0103L452.022 104.951C453.827 107.993 455.631 111.112 457.562 114.068L456.245 120.649C407.521 114.721 341.742 123.011 293.42 133.363C276.776 136.928 258.896 142.507 242.266 146.626L242.48 138.611C275.96 123.201 292.385 118.436 328.281 110.792C327.225 110.201 326.302 109.954 325.157 109.555C305.824 111.716 289.759 114.039 270.844 119.601C261.928 122.222 251.032 127.14 242.42 128.542C257.822 108.211 316.543 91.2582 342.34 83.0253Z"/><path fill="#210B08" transform="matrix(1.12277 0 0 1.12253 0.000244141 0)" d="M325.157 109.555C329.527 109.174 331.637 109.222 336.046 109.47C333.493 109.988 330.871 110.592 328.281 110.792C327.225 110.201 326.302 109.954 325.157 109.555Z"/><path fill="#D35E5A" transform="matrix(1.12277 0 0 1.12253 0.000244141 0)" d="M609.216 495.734C621.185 496.061 629.972 500.134 641.097 503.51C650.879 506.251 660.072 508.742 669.398 512.823C683.674 519.069 683.803 535.78 670.379 542.937C661.954 547.428 653.756 545.187 645.169 542.607C654.718 550.311 657.233 550.557 669.227 550.441C679.52 576.837 657.495 581.498 637.031 576.31C644.072 581.593 647.696 582.694 655.981 584.703C655.481 611.088 641.251 610.34 619.869 605.531C627.851 611.302 630.797 612.294 640.265 614.402C631.822 634.196 624.04 632.092 605.883 626.021C610.88 630.555 614.451 632.932 620.025 636.43C609.042 656.709 598.079 645.04 583.524 637.197C575.47 632.858 557.146 618.821 571.662 610.783C583.822 607.759 599.599 627.358 605.19 623.956C604.539 613.922 572.4 611.408 574.797 595.971C578.559 571.751 611.794 605.658 617.299 601.388C615.888 592.585 578.807 586.726 582.095 570.867C587.539 544.61 623.648 576.817 631.016 572.054C630.085 563.677 602.705 561.298 596.706 554.636C593.932 551.556 592.068 549.983 591.696 545.062C591.421 541.439 593.998 534.457 596.521 532.289C608.185 522.266 625.63 537.868 637.698 539.402C638.65 539.523 638.687 539.092 639.582 538.193C639.372 530.571 606.73 527.974 602.079 519.193C596.73 509.091 600.623 501.901 609.216 495.734Z"/><path fill="#A9A7A7" transform="matrix(1.12277 0 0 1.12253 0.000244141 0)" d="M493.066 401.062L514.29 400.833L524.605 430.598L546.202 430.599L546.237 466.205L476.501 466.125L422.242 466.112C422.123 456.47 421.638 441.442 423.041 432.387C424.51 422.907 428.496 411.021 430.862 401.302C451.597 401.438 472.333 401.358 493.066 401.062Z"/><path transform="matrix(1.12277 0 0 1.12253 0.000244141 0)" d="M435.32 410.432C456.236 410.31 477.513 410.605 498.457 410.703L498.428 427.443L435.236 427.487L435.32 410.432Z"/><path transform="matrix(1.12277 0 0 1.12253 0.000244141 0)" d="M435.782 451.253L533.239 451.242L533.222 459.327L435.791 459.554L435.782 451.253Z"/><path transform="matrix(1.12277 0 0 1.12253 0.000244141 0)" d="M444.664 437.891C474.191 437.604 503.72 437.535 533.248 437.685L533.263 445.868L523.557 445.882L435.773 445.819L435.771 438.022L444.664 437.891Z"/><path fill="#A9A7A7" transform="matrix(1.12277 0 0 1.12253 0.000244141 0)" d="M550.478 430.5L696.486 430.515C697.216 444.163 697.126 457.148 697.121 470.824L550.381 470.757L550.478 430.5Z"/><path transform="matrix(1.12277 0 0 1.12253 0.000244141 0)" d="M564.56 441.312C600.953 440.702 637.507 441.39 673.92 441.109C676.389 441.09 680.347 440.951 682.554 441.691C683.895 443.44 683.48 442.9 683.814 445.365L609.564 445.383C596.924 445.46 578.423 446.592 566.514 445.105C564.972 443.973 565.22 443.445 564.56 441.312Z"/><path transform="matrix(1.12277 0 0 1.12253 0.000244141 0)" d="M574.623 456.274C590.775 455.974 606.939 456.418 623.71 456.565C642.031 456.725 664.03 455.455 682.275 457.323C683.491 457.448 683.496 457.944 683.983 458.834C682.279 461.274 678.074 460.715 675.403 460.65C647.976 460.88 595.742 461.044 566.003 459.748C565.615 459.454 565.227 459.16 564.839 458.866L565.059 457.575C567.241 455.824 571.471 456.33 574.623 456.274Z"/><path fill="#A9A7A7" transform="matrix(1.12277 0 0 1.12253 0.000244141 0)" d="M274.856 434.035L382.45 434.115L382.473 480.421L370.129 484.906C358.393 489.336 346.57 493.533 334.668 497.496C328.961 493.96 323.34 490.288 317.808 486.484L317.735 476.166C306.131 467.788 287.777 457.863 274.885 450.46L274.856 434.035Z"/><path fill="#A9A7A7" transform="matrix(1.12277 0 0 1.12253 0.000244141 0)" d="M422.232 469.71L545.742 470.268C545.768 478.298 546.012 487.327 545.355 495.226L422.337 495.746L422.232 469.71Z"/><path transform="matrix(1.12277 0 0 1.12253 0.000244141 0)" d="M478.183 473.768L532.053 473.831L532.055 489.518C514.45 489.051 495.878 489.34 478.203 489.34L478.183 473.768Z"/><path transform="matrix(1.12277 0 0 1.12253 0.000244141 0)" d="M539.59 485.386C540.574 485.098 541.636 485.387 542.338 486.134C543.04 486.88 543.264 487.958 542.916 488.922C542.568 489.886 541.708 490.573 540.691 490.699C539.284 490.874 537.978 489.939 537.69 488.551C537.402 487.162 538.229 485.785 539.59 485.386Z"/><path transform="matrix(1.12277 0 0 1.12253 0.000244141 0)" d="M428.698 485.976C429.848 485.231 431.38 485.523 432.175 486.638C432.97 487.754 432.745 489.297 431.666 490.14C430.924 490.72 429.924 490.846 429.062 490.468C428.2 490.09 427.615 489.269 427.539 488.33C427.463 487.392 427.908 486.488 428.698 485.976Z"/><path fill="#313030" transform="matrix(1.12277 0 0 1.12253 0.000244141 0)" d="M323.388 640.692C326.38 647.854 323.562 700.913 324.016 713.229C324.322 721.532 321.589 726.925 314.065 730.906C300.21 730.917 289.101 729.581 276.583 723.209C267.961 715.361 270.627 686.799 271.045 675.128C304.557 685.098 313.663 671.131 323.388 640.692Z"/><path fill="#D35E5A" transform="matrix(1.12277 0 0 1.12253 0.000244141 0)" d="M545.603 505.142C549.812 510.069 534.162 556.925 542.102 566.448C546.944 572.257 553.684 572.856 560.513 574.211C557.657 582.049 549.547 604.206 537.905 594.483C529.448 587.418 526.966 574.998 521.738 565.823C522.137 569.772 522.394 573.891 522.699 577.861C523.564 583.041 524.89 587.185 526.468 592.136C515.086 595.186 506.82 595.503 495.092 595.602C494.501 592.987 493.41 589.847 492.575 587.231C500.872 578.555 502.775 573.3 497.388 562.115C504.5 553.987 511.361 542.336 516.992 533.034C544.125 523.655 534.616 512.484 545.603 505.142Z"/><path fill="#313030" transform="matrix(1.12277 0 0 1.12253 0.000244141 0)" d="M263.492 657.856C263.983 661.131 262.788 666.535 262.199 669.965L265.952 673.26C266.964 692.119 263.843 704.232 269.042 723.018C266.622 725.975 264.867 728.082 261.206 729.606C251.454 733.665 235.212 728.804 225.724 724.971C212.935 717.786 216.687 687.88 217.002 674.449C240.218 683.687 250.151 676.915 263.492 657.856Z"/><path fill="#D35E5A" transform="matrix(1.12277 0 0 1.12253 0.000244141 0)" d="M217.854 159.315C218.688 159.345 218.516 159.407 219.345 159.822C219.086 161.05 215.713 164.838 214.637 165.991C205.946 175.314 202.906 184.829 199.38 196.814C210.86 181.383 221.238 171.079 237.873 161.694C236.385 169.095 236.307 173.543 236.28 180.92C229.487 191.83 223.03 199.461 212.464 207.028C191.854 218.304 172.409 218.757 149.521 218.266C154.205 213.858 161.97 207.524 165.724 202.734C182.659 181.12 187.293 163.609 217.854 159.315Z"/><path fill="#D35E5A" transform="matrix(1.12277 0 0 1.12253 0.000244141 0)" d="M174.568 118.32C190.349 115.341 203.195 127.307 212.577 138.167C195.353 134.333 174.83 136.971 159.762 146.349C177.534 141.944 192.429 143.181 208.963 151.349C204.297 152.61 200.249 153.987 195.689 155.543C186.492 159.104 175.515 164.152 165.779 164.042C145.689 163.816 128.863 146.474 115.61 133.164C144.341 135.166 151.085 122.648 174.568 118.32Z"/><path fill="#D35E5A" transform="matrix(1.12277 0 0 1.12253 0.000244141 0)" d="M560.225 492.859C570.091 492.147 573.965 494.327 579.654 502.129C579.634 518.113 575.483 550.654 569.393 566.401C568.604 568.44 565.261 569.354 563.192 570.003C560.068 569.964 556.754 569.765 553.677 569.226C550.403 568.653 547.042 567.038 545.203 564.163C540.736 557.177 549.477 508.352 552.07 498.124C555.202 495.568 556.626 494.805 560.225 492.859Z"/><path fill="#313030" transform="matrix(1.12277 0 0 1.12253 0.000244141 0)" d="M209.844 649.378C210.724 652.986 208.238 664.651 207.648 669.368L211.292 672.997C212.098 688.433 211.989 703.181 211.996 718.615C200.937 726.561 191.789 725.293 179.659 720.369C179.207 719.944 178.773 719.501 178.357 719.041C168.698 708.515 171.006 686.351 171.584 672.613C195.816 674.135 198.718 670.023 209.844 649.378Z"/><path fill="#313030" transform="matrix(1.12277 0 0 1.12253 0.000244141 0)" d="M349.126 641.251C361.403 640.944 374.226 641.183 386.554 641.262L386.478 694.638C374.143 694.698 361.535 695.125 349.141 695.276L349.126 641.251Z"/><path fill="#313030" transform="matrix(1.12277 0 0 1.12253 0.000244141 0)" d="M390.984 641.947C402.247 642.307 414.343 642.011 425.687 641.906C425.23 658.877 425.029 675.853 425.086 692.83C413.294 693.994 403.098 693.353 391.297 692.868C391.34 675.91 390.564 658.881 390.984 641.947Z"/><path fill="#D35E5A" transform="matrix(1.12277 0 0 1.12253 0.000244141 0)" d="M324.833 321.858C373.081 334.202 382.233 350.055 393.83 395.605C389.06 397.536 384.154 400.114 379.524 402.417C381.945 394.27 382.617 390.851 382.41 382.469C378.62 370.568 366.863 379.96 360.073 383.407C365.125 358.293 364.818 349.778 339.609 364.067C347.045 340.644 347.302 328.515 319.815 344.188C323.557 335.057 325.497 331.705 324.833 321.858Z"/><path fill="#313030" transform="matrix(1.12277 0 0 1.12253 0.000244141 0)" d="M173.382 624.032C185.611 623.906 197.64 623.691 209.85 624.677C207.825 640.555 205.159 651.438 194.521 663.798C181.674 671.705 175.199 668.648 162.431 662.539C164.284 647.574 166.354 637.532 173.382 624.032Z"/><path transform="matrix(1.12277 0 0 1.12253 0.000244141 0)" d="M176.557 649.267C179.726 648.659 182.799 650.697 183.471 653.853C184.143 657.008 182.168 660.122 179.026 660.858C176.937 661.348 174.746 660.669 173.298 659.085C171.851 657.501 171.373 655.257 172.049 653.221C172.725 651.184 174.45 649.672 176.557 649.267Z"/><path fill="#A9A7A7" transform="matrix(1.12277 0 0 1.12253 0.000244141 0)" d="M549.903 474.607L697.032 474.903L696.561 485.144L549.848 485.637L549.903 474.607Z"/><path fill="#5C5D52" transform="matrix(1.12277 0 0 1.12253 0.000244141 0)" d="M391.351 698.259L421.796 698.349C417.574 726.27 413.382 740.667 392.422 760.944C386.25 765.849 380.505 768.843 373.274 771.77C391.129 747.079 392.06 727.298 391.351 698.259Z"/><path fill="#A9A7A7" transform="matrix(1.12277 0 0 1.12253 0.000244141 0)" d="M701.317 436.384L751.681 436.332L751.704 463.123L701.927 463.033C701 454.827 701.274 444.791 701.317 436.384Z"/><path fill="#313030" transform="matrix(1.12277 0 0 1.12253 0.000244141 0)" d="M219.634 631.621C236.062 640.588 243.199 643.3 262.104 644.917C259.353 654.714 256.484 659.732 249.718 667.091C235.979 677.093 226.96 674.067 212.87 666.677C214.907 654.951 217.163 643.263 219.634 631.621Z"/><path transform="matrix(1.12277 0 0 1.12253 0.000244141 0)" d="M226.46 655.831C229.374 654.469 232.844 655.67 234.292 658.542C235.74 661.415 234.643 664.919 231.814 666.451C229.908 667.484 227.592 667.398 225.767 666.228C223.943 665.058 222.899 662.988 223.043 660.825C223.187 658.663 224.496 656.749 226.46 655.831Z"/><path fill="#313030" transform="matrix(1.12277 0 0 1.12253 0.000244141 0)" d="M316.567 635.937C316.912 636.146 317.297 636.712 317.587 637.068C319.242 650.325 305.259 673.249 290.49 673.161C283.385 673.118 280.229 672.541 273.58 670.056L267.181 667.389C269.123 660.159 270.7 652.212 272.299 644.852C288.757 644.643 301.213 641.233 316.567 635.937Z"/><path transform="matrix(1.12277 0 0 1.12253 0.000244141 0)" d="M281.963 655.83C285.01 654.94 288.218 656.605 289.244 659.609C290.27 662.612 288.751 665.892 285.797 667.052C283.764 667.85 281.456 667.468 279.79 666.056C278.123 664.643 277.367 662.43 277.821 660.293C278.275 658.157 279.866 656.442 281.963 655.83Z"/><path fill="#A9A7A7" transform="matrix(1.12277 0 0 1.12253 0.000244141 0)" d="M403.588 426.892L418.124 426.895C417.198 437.354 418.728 486.687 416.288 491.198L414.6 491.672L403.934 491.533C401.23 488.975 400.216 487.569 397.981 484.54C397.877 467.016 398.003 449.49 398.358 431.969L403.588 426.892Z"/><path fill="#A9A7A7" transform="matrix(1.12277 0 0 1.12253 0.000244141 0)" d="M247.76 268.98C251.077 272.111 256.243 279.627 259.13 283.62C245.21 293.925 230.751 303.938 216.691 314.173C212.953 311.522 208.087 302.205 205.659 297.968C214.993 289.55 236.357 276.363 247.76 268.98Z"/><path fill="#A9A7A7" transform="matrix(1.12277 0 0 1.12253 0.000244141 0)" d="M211.31 227.259C214.942 228.39 220.837 239.202 222.949 242.661C208.637 251.717 194.646 261.272 181.002 271.306C177.741 269.231 171.739 258.541 169.522 254.903C179.343 246.601 199.662 234.54 211.31 227.259Z"/><path fill="#A9A7A7" transform="matrix(1.12277 0 0 1.12253 0.000244141 0)" d="M285.128 308.636C289.493 313.062 293.501 317.916 297.535 322.651C284.223 333.393 270.788 345.196 257.762 356.356C253.91 353.027 248.637 344.858 245.703 340.515C256.632 330.234 273.012 318.113 285.128 308.636Z"/><path fill="#A9A7A7" transform="matrix(1.12277 0 0 1.12253 0.000244141 0)" d="M229.686 247.074C232.203 249.365 238.47 258.994 240.704 262.309L198.041 292.22C195.313 289.818 189.035 279.541 186.897 276.16C201.087 266.357 215.35 256.661 229.686 247.074Z"/><path fill="#A9A7A7" transform="matrix(1.12277 0 0 1.12253 0.000244141 0)" d="M266.352 289.615C269.902 293.377 274.486 300.512 277.529 304.991C263.387 314.063 248.872 325.646 235.429 335.998L223.905 319.911C236.052 310.008 253.167 299.092 266.352 289.615Z"/><path fill="#A9A7A7" transform="matrix(1.12277 0 0 1.12253 0.000244141 0)" d="M303.372 328.249L316.669 341.609C304.05 353.403 291.504 365.276 279.033 377.228C274.979 374.754 268.688 366.281 265.572 362.365C278.236 351.065 290.836 339.693 303.372 328.249Z"/><path fill="#A9A7A7" transform="matrix(1.12277 0 0 1.12253 0.000244141 0)" d="M322.773 347.802C327.522 351.688 331.724 356.298 335.985 360.727C323.946 373.118 311.527 385.135 298.746 396.759C295.969 394.452 288.714 385.315 286.016 382.014C298.021 370.348 310.277 358.941 322.773 347.802Z"/><path fill="#A9A7A7" transform="matrix(1.12277 0 0 1.12253 0.000244141 0)" d="M756.295 432.613C758.449 433.911 759.242 435.91 760.417 438.124C778.141 438.979 796.557 438.763 814.357 438.769C813.63 445.49 813.455 448.745 813.466 455.434C795.55 456.008 774.018 455.425 755.842 455.38C755.682 449.22 755.244 438.562 756.295 432.613Z"/><path fill="#A9A7A7" transform="matrix(1.12277 0 0 1.12253 0.000244141 0)" d="M342.464 367.387C346.876 371.567 351.44 376.555 355.667 381C343.487 392.265 331.678 403.923 320.258 415.957C314.543 411.786 311.277 407.533 306.867 402.119C316.583 391.053 331.497 377.949 342.464 367.387Z"/><path fill="#A9A7A7" transform="matrix(1.12277 0 0 1.12253 0.000244141 0)" d="M362.084 388.128C366.955 391.687 371.561 396.027 376.068 400.075C370.654 405.748 350.228 429.59 343.942 429.854L335.701 429.76C333.068 427.792 330.206 424.907 327.776 422.592L362.084 388.128Z"/><path fill="#A9A7A7" transform="matrix(1.12277 0 0 1.12253 0.000244141 0)" d="M730.134 394.874L740.988 394.793C744.673 407.054 747.701 419.873 750.854 432.32L739.544 432.439L719.358 432.287C722.111 421.827 726.154 404.514 730.134 394.874Z"/><path transform="matrix(1.12277 0 0 1.12253 0.000244141 0)" d="M730.007 410.935C731.699 410.755 733.197 410.72 734.878 410.676C740.848 410.519 747.97 420.524 741.536 424.486L726.962 424.521C728.004 419.999 729.02 415.47 730.007 410.935Z"/><path transform="matrix(1.12277 0 0 1.12253 0.000244141 0)" d="M732.268 396.411C736.148 398.196 734.604 403.79 734.203 407.303C733.01 406.748 732.907 406.505 732.01 405.565C730.808 402.238 731.474 399.742 732.268 396.411Z"/><path transform="matrix(1.12277 0 0 1.12253 0.000244141 0)" d="M737.202 396.269C740.702 398.895 740.253 403.704 739.058 407.39C735.714 404.112 736.195 400.478 737.202 396.269Z"/><path fill="#A9A7A7" transform="matrix(1.12277 0 0 1.12253 0.000244141 0)" d="M822.898 432.826C826.265 430.659 831.041 428.153 834.459 429.55C846.725 434.565 845.672 463.141 833.434 468.267C827.667 470.682 822.207 464.255 820.105 460.257C818.314 457.538 817.643 455.149 817.292 451.945C816.577 445.083 818.591 438.216 822.898 432.826Z"/><path fill="#BFBDBE" transform="matrix(1.12277 0 0 1.12253 0.000244141 0)" d="M820.105 460.257C818.314 457.538 817.643 455.149 817.292 451.945C816.577 445.083 818.591 438.216 822.898 432.826C824.069 433.796 824.807 433.981 824.777 435.38C824.607 443.443 823.701 450.355 824.543 458.491C825.93 460.179 827.287 461.378 827.548 463.457C825.07 464.168 822.262 461.307 820.105 460.257Z"/><path transform="matrix(1.12277 0 0 1.12253 0.000244141 0)" d="M832.98 432.604C846.341 436.011 842.962 456.379 834.969 464.501C821.055 458.98 824.457 441.499 832.98 432.604Z"/><path fill="#313030" transform="matrix(1.12277 0 0 1.12253 0.000244141 0)" d="M343.145 664.99C346.245 668.216 343.955 707.891 342.32 713.655C340.952 718.478 334.137 722.464 329.963 724.828L329.409 724.534C328.255 720.578 328.919 677.868 328.967 670.955C335.104 669.386 337.677 668.197 343.145 664.99Z"/><path fill="#FDFDFD" transform="matrix(1.12277 0 0 1.12253 0.000244141 0)" d="M497.673 606.572C499.481 606.582 499.615 606.512 501.014 607.524C503.561 611.158 502.615 617.794 502.448 622.405C504.819 623.389 507.143 624.482 509.413 625.68C520.367 631.488 527.824 640.262 531.418 652.21C534.962 664.093 533.62 676.9 527.688 687.79C521.772 698.671 511.772 706.752 499.892 710.253C474.67 717.5 450.922 703.016 444.307 677.875C441.002 665.648 442.767 652.605 449.202 641.696C456.396 629.711 466.049 624.207 479.092 620.846C479.735 618.377 479.272 618.68 480.832 617.129L481.729 617.743L481.925 619.773C478.877 626.513 456.026 626.516 447.591 651.477C443.731 662.885 444.638 675.367 450.106 686.097C455.373 696.368 464.598 704.049 475.654 707.368C486.421 710.685 498.318 709.786 508.253 704.369C518.344 698.763 525.797 689.379 528.973 678.281C535.83 654.933 523.39 630.898 499.777 624.128C499.85 619.941 500.12 613.303 498.313 609.577C497.575 608.053 497.635 608.661 497.673 606.572Z"/><path fill="#313030" transform="matrix(1.12277 0 0 1.12253 0.000244141 0)" d="M343.181 625.181L344.127 625.948C345.774 632.728 345.462 651.495 341.426 657.613C337.694 663.269 335.367 664.449 329.235 666.028C329.509 653.575 330.329 644.217 327.107 631.927L343.181 625.181Z"/><path fill="#A9A7A7" transform="matrix(1.12277 0 0 1.12253 0.000244141 0)" d="M382.346 407.779C388.406 411.227 391.365 414.287 396.261 419.1C393.086 422.743 389.47 426.538 386.175 430.114L374.654 430.274L359.696 430.255C366.881 422.513 374.725 415.108 382.346 407.779Z"/><path fill="#FDFDFD" transform="matrix(1.12277 0 0 1.12253 0.000244141 0)" d="M236.072 194.062C237.627 196.604 234.736 215.973 234.245 219.984C224.582 216.655 219.265 219.429 209.744 222.611L208.243 222.41L207.583 220.946C207.777 219.613 208.37 218.684 209.464 217.87C219.618 210.317 227.936 203.789 236.072 194.062Z"/><path fill="#A9A7A7" transform="matrix(1.12277 0 0 1.12253 0.000244141 0)" d="M387.132 433.856C389.39 433.762 390.504 433.508 392.541 434.47C395.198 438.266 394.034 470.081 393.809 477.309C391.75 477.557 389.161 477.816 387.526 476.56C386.419 472.375 387.077 440.323 387.132 433.856Z"/><path fill="#FDFDFD" transform="matrix(1.12277 0 0 1.12253 0.000244141 0)" d="M580.235 994.305C582.015 999.92 576.969 1027.6 575.902 1035.18C575.461 1038.69 571.933 1041.55 570.535 1044.6C560.774 1065.88 601.49 1064.58 604.796 1073.26L604.06 1074.04C593.784 1070.73 571.431 1064.54 566.73 1053.9C563.752 1047.16 572.329 1039.43 573.59 1033.5C576.042 1021.98 575.31 1004.97 580.235 994.305Z"/><path fill="#313030" transform="matrix(1.12277 0 0 1.12253 0.000244141 0)" d="M430.392 641.897L439.745 641.931C432.83 657.885 431.881 668.405 436.599 685.058L437.19 687.267C436.505 689.325 437.075 688.467 435.343 689.884C433.138 690.167 434.163 690.338 432.161 689.329C429.538 685.733 430.283 677.319 430.27 672.622L430.392 641.897Z"/><path fill="#D35E5A" transform="matrix(1.12277 0 0 1.12253 0.000244141 0)" d="M394.722 500.221L395.409 501.059C385.798 513.551 382.398 527.404 363.609 518.707C369.067 513.785 387.47 504.086 394.722 500.221Z"/><path fill="#A9A7A7" transform="matrix(1.12277 0 0 1.12253 0.000244141 0)" d="M531.411 498.071C532.441 498.122 533.62 498.262 534.662 498.357C543.602 503.551 533.21 518.112 527.87 522.476C523.504 526.045 520.458 526.941 515.06 528.111C512.949 528.435 510.803 528.908 509.154 527.489C511.636 525.065 522.208 522.304 525.191 519.383C531.099 513.599 531.112 505.61 531.411 498.071Z"/><path fill="#D35E5A" transform="matrix(1.12277 0 0 1.12253 0.000244141 0)" d="M233.696 135.161C238.162 136.799 235.869 142.389 235.022 145.789C236.526 148.26 239.216 150.636 238.627 153.489C236.893 154.758 235.391 154.446 233.156 154.425C220.565 149.35 225.88 141.506 233.696 135.161Z"/><path fill="#837C7B" transform="matrix(1.12277 0 0 1.12253 0.000244141 0)" d="M165.484 259.559C168.946 262.313 171.722 268.169 173.784 272.167L165.76 273.957C163.203 274.26 162.026 274.627 159.616 273.734C155.346 269.373 162.359 262.919 165.484 259.559Z"/><path fill="#FDFDFD" transform="matrix(1.12277 0 0 1.12253 0.000244141 0)" d="M125.986 1033.27C128.411 1033.37 131.699 1033.7 134.955 1034.31C147.255 1036.65 160.855 1038.49 172.859 1042.01C173.343 1042.67 173.744 1043.22 174.063 1043.66C164.335 1044.53 149.021 1039.33 139.081 1038.13C135.14 1037.66 128.795 1036.12 125.986 1033.27Z"/><path fill="#D35E5A" transform="matrix(1.12277 0 0 1.12253 0.000244141 0)" d="M253.603 247.161C257.108 248.814 267.975 256.003 264.675 260.434L262.95 260.555C258.596 259.874 255.928 260.887 251.719 262.032C251.324 255.209 251.445 253.626 253.603 247.161Z"/><path fill="#837C7B" transform="matrix(1.12277 0 0 1.12253 0.000244141 0)" d="M262.417 368.037C265.915 371.134 269.66 375.308 272.917 378.751L266.154 381.506C263.132 382.497 261.577 383.244 258.654 381.991C255.031 377.568 259.702 371.815 262.417 368.037Z"/><path fill="#837C7B" transform="matrix(1.12277 0 0 1.12253 0.000244141 0)" d="M182.772 280.673C185.3 282.659 189.859 289.946 191.81 292.914L185.759 294.327C183.051 294.9 180.934 295.555 178.299 294.737C173.54 290.742 179.856 284.351 182.772 280.673Z"/><path fill="#837C7B" transform="matrix(1.12277 0 0 1.12253 0.000244141 0)" d="M241.962 346.061C245.251 349.26 248.054 353.367 250.788 357.09L243.622 359.796C241.487 360.614 238.993 361.019 236.899 359.957C233.638 355.125 238.733 349.488 241.962 346.061Z"/><path fill="#837C7B" transform="matrix(1.12277 0 0 1.12253 0.000244141 0)" d="M220.658 325.143C224.086 327.809 227.012 333.114 229.313 336.9L222.203 338.977C219.778 339.552 218.028 339.788 215.778 338.789C212.113 334.556 217.898 328.511 220.658 325.143Z"/><path fill="#837C7B" transform="matrix(1.12277 0 0 1.12253 0.000244141 0)" d="M201.116 303.176C204.55 305.588 207.122 310.585 209.257 314.259L202.213 316.715C199.808 317.162 197.785 317.305 195.602 316.224C191.865 311.692 197.988 306.265 201.116 303.176Z"/><path fill="#FDFDFD" transform="matrix(1.12277 0 0 1.12253 0.000244141 0)" d="M124.674 1052.9C125.454 1052.83 127.034 1052.76 127.728 1052.87C135.894 1054.22 165.113 1056.46 170.075 1062.16C164.172 1062.33 127.635 1056.28 124.674 1052.9Z"/><path fill="#837C7B" transform="matrix(1.12277 0 0 1.12253 0.000244141 0)" d="M303.278 407.562C306.042 408.976 311.215 415.152 313.515 417.717L307.404 420.625C304.936 421.666 303.233 422.398 300.652 421.84C296.153 418.447 301.156 411.253 303.278 407.562Z"/><path fill="#FDFDFD" transform="matrix(1.12277 0 0 1.12253 0.000244141 0)" d="M127.532 1012.54C127.968 1012.57 128.405 1012.61 128.841 1012.65C135.455 1013.29 173.252 1019.68 176.328 1023.41C166.354 1024.71 141.129 1016.35 130.237 1014.7C128.893 1014.49 128.282 1013.52 127.532 1012.54Z"/><path fill="#837C7B" transform="matrix(1.12277 0 0 1.12253 0.000244141 0)" d="M282.513 388.047C285.505 389.687 290.243 394.975 292.764 397.625L285.781 400.995C283.379 401.851 281.657 402.424 279.201 401.843C275.174 398.342 280.294 391.478 282.513 388.047Z"/><path fill="#FDFDFD" transform="matrix(1.12277 0 0 1.12253 0.000244141 0)" d="M124.076 1069.51C133.344 1069.26 154.286 1073.92 164.185 1075.7C166.919 1076.19 167.053 1076.92 168.19 1078.81C162.587 1079.47 129.788 1072.97 124.076 1069.51Z"/><path fill="#837C7B" transform="matrix(1.12277 0 0 1.12253 0.000244141 0)" d="M226.895 222.055C228.738 222.72 228.644 222.668 229.975 224.113C231.533 228.158 228.677 235.343 224.375 234.242L218.08 225.156L226.895 222.055Z"/><path fill="#837C7B" transform="matrix(1.12277 0 0 1.12253 0.000244141 0)" d="M243.144 242.236C245.11 242.671 245.007 242.631 246.458 244.041C248.235 247.931 246.613 253.555 242.928 255.567C240.502 252.035 238.101 248.167 235.767 244.549L243.144 242.236Z"/><path fill="#837C7B" transform="matrix(1.12277 0 0 1.12253 0.000244141 0)" d="M296.476 304.011C298.235 303.977 298.488 304.08 300.22 304.517C304.034 307.938 301.966 312.526 298.905 315.698C298.099 314.962 297.301 314.219 296.509 313.468C293.721 310.829 292.59 310.353 292.491 306.821C293.865 304.79 294.074 305.141 296.476 304.011Z"/><path fill="#837C7B" transform="matrix(1.12277 0 0 1.12253 0.000244141 0)" d="M260.744 264.973C262.833 264.86 263.052 265.281 264.389 266.541C265.767 270.198 264.303 273.815 261.622 276.443L260.598 276.343L253.697 266.435L260.744 264.973Z"/><path fill="#837C7B" transform="matrix(1.12277 0 0 1.12253 0.000244141 0)" d="M279.757 285.725C285.116 287.948 283.715 295.51 279.679 297.433L278.602 296.593L272.002 287.871L279.757 285.725Z"/><path fill="#837C7B" transform="matrix(1.12277 0 0 1.12253 0.000244141 0)" d="M353.175 361.518C360.294 361.084 359.436 370 356.432 372.701L355.304 372.236L347.114 364.619L353.175 361.518Z"/><path fill="#837C7B" transform="matrix(1.12277 0 0 1.12253 0.000244141 0)" d="M334.892 341.968C341.49 341.955 340.646 349.537 337.151 352.92L336.062 352.854L328.35 344.498L334.892 341.968Z"/><path fill="#837C7B" transform="matrix(1.12277 0 0 1.12253 0.000244141 0)" d="M315.956 322.968C321.616 325.089 321.706 330.907 317.386 333.48L316.086 332.805L308.6 325.763L315.956 322.968Z"/><path fill="#837C7B" transform="matrix(1.12277 0 0 1.12253 0.000244141 0)" d="M372.814 382.263C375.553 382.394 375.533 382.48 377.376 383.862C379.019 386.869 378.889 389.634 376.365 392.112L375.134 392.024L367.184 385.457L372.814 382.263Z"/><path fill="#837C7B" transform="matrix(1.12277 0 0 1.12253 0.000244141 0)" d="M394.448 400.692C398.951 402.204 400.121 408.329 396.086 410.052L394.481 409.191L387.106 403.977L394.448 400.692Z"/><path fill="#837C7B" transform="matrix(1.12277 0 0 1.12253 0.000244141 0)" d="M413.51 413.728C415.703 414.175 416.865 414.531 418.223 416.215C418.511 418.216 418.629 417.399 417.489 419.319C415.538 420.764 414.61 420.624 412.183 420.84C410.13 421.059 408.957 421.31 406.892 420.912L406.439 420.137C407.433 418.144 411.537 415.28 413.51 413.728Z"/><path fill="#FDFDFD" transform="matrix(1.12277 0 0 1.12253 0.000244141 0)" d="M600.223 1028C602.228 1027.72 603.45 1027.3 605.238 1028.16L605.115 1028.97C600.892 1031.68 599.395 1031.66 594.51 1032.28C592.404 1032.62 591.6 1033 589.803 1032.11L590.05 1031.13C594.078 1028.42 595.399 1028.58 600.223 1028Z"/><path fill="#FDFDFD" transform="matrix(1.12277 0 0 1.12253 0.000244141 0)" d="M607.268 1012.51L609.074 1012.66L609.292 1013.58C606.073 1016.02 598.678 1016.94 594.498 1017.63C593.355 1017.76 593.214 1017.62 592.081 1017.33L591.886 1016.5C594.672 1014.25 603.454 1013.15 607.268 1012.51Z"/><path fill="#FDFDFD" transform="matrix(1.12277 0 0 1.12253 0.000244141 0)" d="M608.403 997.719C610.532 997.521 611.176 997.051 612.58 998.067L612.829 997.586L613.001 997.947C611.381 1000.11 604.252 1001.04 601.449 1001.48C599.326 1001.9 597.204 1002.67 595.699 1001.02L595.026 1001.53C596.912 998.703 605.001 998.106 608.403 997.719Z"/><path fill="#FDFDFD" transform="matrix(1.12277 0 0 1.12253 0.000244141 0)" d="M599.422 1052.68L601.259 1053.02L601.602 1053.88C599.388 1056.7 592.868 1058.57 589.326 1059.79L587.667 1059.77L587.113 1059.06C588.92 1056.47 596.225 1053.97 599.422 1052.68Z"/><path fill="#FDFDFD" transform="matrix(1.12277 0 0 1.12253 0.000244141 0)" d="M597.705 1042.76C598.009 1042.73 599.245 1042.83 599.63 1042.85L599.863 1043.5C597.462 1046.08 591.586 1047.14 588.236 1047.79C587.559 1047.82 586.573 1047.72 585.869 1047.67L585.58 1046.88C587.977 1044.43 594.252 1043.43 597.705 1042.76Z"/><path fill="#D35E5A" transform="matrix(1.12277 0 0 1.12253 0.000244141 0)" d="M304.5 317.51L311.572 318.487L303.951 323.026L298.671 326.88C300.489 323.696 302.522 320.6 304.5 317.51Z"/><path fill="#FDFDFD" transform="matrix(1.12277 0 0 1.12253 0.000244141 0)" d="M617.023 1056.22L617.768 1056.51L618.088 1057.44C616.048 1060.27 611.638 1061.67 608.435 1062.83L607.741 1062.59L607.446 1061.65C609.248 1059.01 614.069 1057.39 617.023 1056.22Z"/><path fill="#904545" transform="matrix(1.12277 0 0 1.12253 0.000244141 0)" d="M394.722 500.221C397.732 498.432 404.109 495.228 407.58 496.074C404.736 499.171 400.117 497.921 395.409 501.059L394.722 500.221Z"/></svg>