<?xml version="1.0" encoding="utf-8" ?><svg xmlns="http://www.w3.org/2000/svg" xmlns:xlink="http://www.w3.org/1999/xlink" width="1024" height="1792" viewBox="0 0 1024 1792"><path fill="#000001" transform="scale(1.33333 1.33333)" d="M0 0L637.455 0L640.555 0L768 0L768 637.955L768 649.374L768 651.798L768 654.06L768 1344L714.22 1344L711.568 1344L346.417 1344L343.994 1344L0 1344L0 459.103L0 450.307L0 0Z"/><path fill="#FEFEFE" transform="scale(1.33333 1.33333)" d="M0 459.103C6.49836 479.961 13.2201 479.446 27.9444 494.097C32.3138 498.445 36.5796 506.703 42.7665 511.193C57.1809 521.654 72.3531 531.72 86.9955 541.792C110.68 558.258 134.484 574.552 158.406 590.671C173.454 600.859 189.761 611.436 204.454 621.913C185.624 631.734 178.669 647.695 183.391 668.269C167.273 668.089 139.654 664.717 128.705 677.157C112.963 695.043 120.561 715.229 139.528 725.902C111.023 737.672 110.979 772.704 139.263 783.744C110.263 796.384 111.098 828.893 139.891 841.42C131.187 845.63 124.793 850.97 121.563 860.438C119.029 867.866 120.159 876.635 123.719 883.531C127.128 890.134 133.418 896.21 140.622 898.443C150.911 901.632 261.724 899.363 274.741 897.347C283.872 895.932 292.984 892.182 301.064 887.762C307.19 884.41 311.688 878.372 317.766 875.501C319.792 877.765 316.369 880.589 323.599 880.574C340.846 880.537 358.287 880.23 375.517 880.251L375.484 871.313L455.475 845.208C467.112 841.344 479.905 837.471 491.257 833.177C481.896 844.122 465.999 859.078 455.474 869.79L388.678 938.008C361.74 965.397 335.647 984.362 338.896 1026.69C339.717 1037.96 342.791 1048.96 347.938 1059.03C351.914 1066.79 358.955 1076.23 364.102 1083.53C370.771 1093.03 377.388 1102.56 383.953 1112.13C410.439 1150.14 436.654 1188.35 462.596 1226.74C415.329 1230.58 374.977 1255.67 354.307 1299.12C346.842 1314.82 344.731 1326.72 343.994 1344L0 1344L0 459.103Z"/><path fill="#FEFEFE" transform="scale(1.33333 1.33333)" d="M0 0L637.455 0C624.158 4.11228 618.287 11.4061 622.227 25.6283C608.106 38.1752 593.909 50.6367 579.637 63.0121C571.798 69.8757 561.763 79.3947 553.534 85.4902C519.99 56.2654 472.889 42.9093 428.997 45.4299C310.353 52.2435 234.865 172.368 274.938 282.827C276.811 287.979 278.968 293.057 280.941 298.179C290.733 305.192 307.357 315.098 318.028 321.06C315.574 331.329 313.209 341.698 310.288 351.84L326.29 384.504C369.347 364.743 412.361 343.52 455.38 324.04C460.631 337.325 469.901 362.608 475.798 374.686C442.713 391.581 415.628 412.283 403.774 448.861C400.883 457.647 399.269 466.803 398.981 476.049C398.72 486.027 400.747 498.009 402.134 508.079C404.122 522.683 406.262 537.265 408.554 551.825C395.367 550.967 394.368 548.312 383.607 540.973L358.72 523.965L281.145 471.406C268.142 462.623 255.64 453.624 242.285 445.304C248.503 430.318 250.55 416.733 253.476 401.109C255.04 392.751 257.26 388.878 257.3 379.607C257.269 372.558 255.831 365.586 253.071 359.099C244.241 337.978 226.598 328.243 204.709 326.06C194.856 332.928 186.064 340.035 176.677 347.512C179.214 331.785 176.455 325.09 163.678 315.556C145.434 301.943 121.764 274.772 97.2263 293.699C90.599 298.82 86.3007 306.382 85.2926 314.695C84.688 319.66 85.3154 323.969 86.5232 328.795C76.9235 328.389 68.9305 329.895 61.4528 336.639C55.5121 342.042 51.998 349.61 51.7036 357.633C51.4349 364.314 53.1847 369.382 56.2338 375.181C28.8154 377.102 16.1091 399.381 28.4642 423.967C11.8859 426.822 4.74775 434.161 0 450.307L0 0Z"/><path fill="#FEFEFE" transform="scale(1.33333 1.33333)" d="M640.555 0L768 0L768 637.955C765.474 629.958 763.105 618.495 761.197 610.154C758.188 596.903 755.087 583.674 751.895 570.466L713.999 408.189C699.637 347.777 639.796 313.814 580.132 328.196C574.101 310.327 568.37 291.782 562.571 273.792C588.512 260.968 615.709 248.524 641.95 236.171C619.027 186.054 611.319 146.311 572.703 102.778C592.835 82.9232 612.978 57.1559 633.64 36.0326C638.873 36.954 642.768 37.032 647.633 34.6077C652.004 32.4556 655.312 28.6201 656.798 23.9817C658.312 19.369 657.864 14.3375 655.561 10.0639C652.032 3.66447 647.058 1.78896 640.555 0Z"/><path fill="#FEFEFE" transform="scale(1.33333 1.33333)" d="M729.188 663.928C741.16 661.495 755.848 657.123 768 654.06L768 1344L714.22 1344C718.513 1319.93 718.314 1298.05 708.004 1275.37C700.494 1259.17 689.137 1245.04 674.922 1234.23C672.541 1232.42 664.986 1228.46 663.77 1226.62C660.533 1221.73 657.311 1216.29 654.088 1211.33L630.661 1175.56C604.911 1136.12 577.58 1093.89 551.052 1055.16C562.961 1043.46 575.758 1029.54 587.417 1017.37L655.893 946.015C674.099 927.313 692.135 908.446 710 889.419C719.595 879.358 730.025 869.162 739.016 858.729C754.146 841.171 762.49 815.136 760.384 791.99C758.049 766.328 746.661 745.829 727.073 729.344C734.855 709.155 734.55 684.681 729.188 663.928Z"/><path fill="#0B4CBB" transform="scale(1.33333 1.33333)" d="M348.46 1323.49L714.148 1323.56C713.539 1330.94 712.997 1336.72 711.568 1344L346.417 1344C346.633 1336.42 347.189 1331.02 348.46 1323.49Z"/><path fill="#0B4CBB" transform="scale(1.33333 1.33333)" d="M692.313 547.676C700.124 562.359 710.954 578.291 719.617 592.699C725.453 601.83 730.271 611.181 737.3 619.44C744.826 628.284 753.177 615.381 758.452 609.57C760.932 619.572 765.032 640.697 768 649.374L768 651.798C756.955 654.301 746.27 657.534 735.335 660.153C717.575 664.406 699.712 668.481 681.918 672.607C683.433 658.361 677.558 651.475 663.091 651.04L663.061 622.839C664.247 622.963 665.438 623.046 666.63 623.089C675.986 623.354 684.14 616.337 684.199 606.796C684.243 602.466 682.516 598.306 679.418 595.279C674.527 590.438 669.347 590.015 662.979 590.009L662.936 578.016L692.313 547.676Z"/><path fill="#000001" transform="scale(1.33333 1.33333)" d="M711.793 619.2C721.109 618.15 729.524 624.817 730.632 634.124C731.739 643.431 725.122 651.885 715.819 653.049C706.436 654.222 697.891 647.537 696.774 638.149C695.657 628.762 702.396 620.259 711.793 619.2Z"/><path fill="#FBBC2A" transform="scale(1.33333 1.33333)" d="M710.371 621.842C718.246 620.043 726.097 624.932 727.956 632.792C729.814 640.651 724.983 648.537 717.136 650.454C709.205 652.391 701.214 647.499 699.336 639.555C697.458 631.612 702.412 623.66 710.371 621.842Z"/><path fill="#EC4342" transform="scale(1.33333 1.33333)" d="M393.84 53.9475C394.473 54.3479 394.198 54.1842 394.588 55.0903C390.223 63.8907 385.419 72.3533 380.884 81.0569C378.965 84.7512 377.049 90.0621 378.649 94.224C381.057 100.49 390.317 96.3862 394.335 94.5905C401.854 91.2295 409.203 87.8377 416.668 84.473C426.869 79.8744 437.19 75.9408 447.34 71.2621C441.759 82.6411 436.196 94.0793 430.038 105.449C424.832 111.208 428.369 124.456 437.16 120.853C457.596 112.475 480.811 99.3912 501.022 91.1996C496.023 101.834 490.937 112.427 485.764 122.978C482.929 128.786 474.344 143.515 476.409 149.233C477.051 151.054 478.484 152.485 480.305 153.127C485.381 154.947 499.788 147.315 505.268 144.994C520.59 138.531 535.866 131.959 551.095 125.281C545.47 136.43 539.667 147.488 533.689 158.452C530.1 165.065 525.774 172.158 522.936 179.059C520.043 186.096 526.843 190.93 533.74 189.136C542.969 186.736 551.735 183.662 560.754 180.62L607.973 164.64C607.942 171.401 606.831 179.847 606.178 186.731C604.938 198.898 603.945 211.088 603.2 223.295C595.138 218.957 563.506 201.035 556.624 201.141C554.902 201.168 553.3 201.789 552.109 203.052C546.655 208.838 548.259 243.233 548.11 252.3C535.553 248.161 520.559 241.403 507.898 240.08C497.677 239.011 502.582 259.441 503.248 264.807C504.565 275.379 505.803 285.96 506.962 296.549C463.084 317.702 419.045 338.518 374.848 358.997C359.504 366.304 342.944 374.497 327.434 381.244C322.709 371.291 317.607 361.61 313.136 351.525C315.686 341.838 317.34 332.241 320.421 322.563C331.588 328.89 342.373 335.269 353.732 341.28C355.277 333.881 364.034 312.468 367.18 304.325C378.931 308.337 394.018 312.123 406.242 315.501C410.319 303.73 414.289 291.923 418.15 280.08C427.958 282.843 449.693 287.018 458.321 290.756C461.266 277.598 464.069 264.408 466.729 251.19C462.635 239.529 457.421 223.2 452.6 212.198C448.012 223.936 443.507 239.485 439.632 251.72C426.446 247.988 413.307 244.094 400.217 240.037C395.36 251.699 390.391 263.315 385.312 274.883C373.172 271.187 361.095 267.288 349.087 263.186C345.574 274.291 339.83 288.218 335.396 299.1C325.311 294.022 311.365 287.526 301.096 283.252C299.16 289.223 297.209 297.987 295.453 304.317C291.721 301.893 287.326 299.37 283.477 297.041C277.978 285.425 273.823 273.219 271.093 260.66C260.586 214.209 269.158 165.486 294.887 125.407C315.959 92.6362 355.467 62.3187 393.84 53.9475Z"/><path fill="#000001" transform="scale(1.33333 1.33333)" d="M378.645 132.317C379.702 133.052 379.323 132.548 379.589 134.023C377.659 137.322 371.202 144.446 368.436 147.65L347.896 171.434C352.871 171.173 356.66 170.688 361.502 171.942C368.146 173.623 373.83 177.913 377.267 183.841C394.864 213.947 349.151 242.139 331.147 208.165C328.997 202.665 328.98 199.475 329.034 193.749C325.709 197.55 309.498 217.626 306.622 218.373L306.297 217.75C306.629 214.904 327.981 191.001 331.416 186.955C341.095 175.506 350.843 164.115 360.658 152.783C366.163 146.367 372.773 138.142 378.645 132.317Z"/><path fill="#FBBC2A" transform="scale(1.33333 1.33333)" d="M350.046 173.366C355.782 172.902 360.248 173.191 365.426 175.886C371.257 178.933 375.628 184.184 377.566 190.47C379.424 196.302 378.85 202.636 375.974 208.039C372.525 214.538 367.129 218.297 360.249 220.445C355.021 221.522 350.001 221.141 345.091 218.963C339.398 216.389 334.987 211.624 332.859 205.75C328.045 192.664 338.009 177.851 350.046 173.366Z"/><path fill="#FBBC2A" transform="scale(1.33333 1.33333)" d="M375.472 685.566C392.107 686.516 409.019 686.298 425.698 686.306L500.539 686.308L549.226 686.508C555.821 686.533 570.261 686.878 576.406 686.046L576.946 688.456C564.93 694.703 555.404 704.859 549.939 717.247C543.656 731.441 543.335 747.563 549.047 761.996C557.027 782.568 570.597 790.065 589.577 798.446C574.883 802.854 560.051 808.311 545.402 812.938C488.595 830.88 432.265 850.849 375.405 868.597L375.472 685.566Z"/><path fill="#0B4CBB" transform="scale(1.33333 1.33333)" d="M660.085 493.96C660.848 496.852 660.781 511.751 660.805 515.544L660.689 571.922L660.719 672.555C660.706 688.493 661.095 704.564 660.641 720.477C656.406 712.128 653.136 705.913 646.472 699.175C635.36 687.786 619.988 681.569 604.081 682.029C597.326 682.201 590.01 683.6 583.319 683.796C572.405 684.114 561.172 683.971 550.236 683.93L533.797 683.848L534.125 581.582C534.191 557.537 534.61 532.346 533.686 508.436C556.042 529.211 582.372 538.297 612.643 530.291C632.663 524.976 649.738 511.9 660.085 493.96Z"/><path fill="#0B4CBB" transform="scale(1.33333 1.33333)" d="M662.998 707.032C688.607 711.394 712.917 718.434 731.862 736.834C748.371 753.027 757.87 775.047 758.32 798.165C758.839 840.593 734.206 860.49 707.663 888.506C684.633 912.906 661.371 937.088 637.882 961.048C624.208 946.878 634.745 935.887 618.134 921.88C602.811 908.959 595.813 916.374 579.648 912.467C571.548 910.509 571.621 893.425 569.465 887.538C565.839 877.667 558.054 872.396 548.583 867.888C538.771 864.309 537.322 866.291 527.364 866.138C512.111 865.904 514.886 850.753 511.055 840.756C508.923 835.191 506.944 833.198 503.029 829.131C521.1 823.504 539.115 817.697 557.07 811.711C569.166 807.649 582.122 803.008 594.44 799.802C596.977 799.142 605.301 799.439 608.419 799.299C612.754 799.105 615.514 798.56 619.778 797.786C619.839 803.287 620.025 806.925 621.161 812.341C624.383 828.13 633.848 841.948 647.409 850.658C660.464 859.272 676.437 862.27 691.728 858.977C708.065 855.473 721.337 846.623 730.35 832.513C738.803 819.417 741.624 803.469 738.177 788.269C730.341 753.089 698.22 734.902 663.65 742.626C663.728 738.25 662.891 733.981 662.846 729.55C662.771 722.058 662.9 714.523 662.998 707.032Z"/><path fill="#000001" transform="scale(1.33333 1.33333)" d="M623.452 868.594C632.097 867.328 640.154 873.243 641.532 881.869C642.911 890.494 637.099 898.626 628.49 900.116C622.82 901.097 617.061 898.953 613.415 894.503C609.769 890.054 608.799 883.987 610.877 878.623C612.955 873.259 617.759 869.427 623.452 868.594Z"/><path fill="#FBBC2A" transform="scale(1.33333 1.33333)" d="M622.688 871.275C629.897 869.536 637.156 873.946 638.932 881.144C640.709 888.341 636.335 895.621 629.145 897.434C621.903 899.26 614.556 894.849 612.767 887.599C610.977 880.349 615.428 873.027 622.688 871.275Z"/><path fill="#000001" transform="scale(1.33333 1.33333)" d="M553.629 817.433C562.104 815.097 570.871 820.06 573.227 828.528C575.582 836.996 570.637 845.771 562.172 848.145C553.681 850.526 544.869 845.563 542.507 837.069C540.144 828.574 545.128 819.776 553.629 817.433Z"/><path fill="#FBBC2A" transform="scale(1.33333 1.33333)" d="M555.585 819.279C562.902 818.081 569.821 822.993 571.099 830.295C572.378 837.596 567.541 844.567 560.252 845.925C555.465 846.818 550.568 845.069 547.429 841.348C544.29 837.627 543.393 832.506 545.081 827.94C546.768 823.373 550.78 820.066 555.585 819.279Z"/><path fill="#000001" transform="scale(1.33333 1.33333)" d="M655.991 892.787C664.661 891.459 672.772 897.392 674.13 906.055C675.488 914.719 669.581 922.848 660.921 924.235C652.218 925.629 644.039 919.689 642.675 910.984C641.31 902.279 647.28 894.122 655.991 892.787Z"/><path fill="#FBBC2A" transform="scale(1.33333 1.33333)" d="M655.383 895.357C662.546 893.696 669.722 898.07 671.526 905.196C673.33 912.323 669.1 919.583 662.009 921.529C657.294 922.823 652.248 921.468 648.816 917.987C645.384 914.505 644.103 909.442 645.465 904.747C646.827 900.053 650.621 896.462 655.383 895.357Z"/><path fill="#000001" transform="scale(1.33333 1.33333)" d="M588.671 842.843C597.206 841.023 605.606 846.446 607.456 854.973C609.307 863.499 603.912 871.916 595.39 873.797C586.825 875.687 578.355 870.26 576.495 861.69C574.634 853.121 580.093 844.672 588.671 842.843Z"/><path fill="#FBBC2A" transform="scale(1.33333 1.33333)" d="M588.072 845.404C595.208 843.182 602.786 847.208 604.938 854.364C607.09 861.519 602.989 869.056 595.811 871.137C588.732 873.189 581.32 869.158 579.198 862.101C577.075 855.044 581.035 847.595 588.072 845.404Z"/><path fill="#FBBC2A" transform="scale(1.33333 1.33333)" d="M581.596 378.59C623.456 373.118 661.838 402.578 667.366 444.42C672.893 486.263 643.476 524.674 601.631 530.255C559.708 535.845 521.202 506.37 515.664 464.45C510.127 422.531 539.659 384.072 581.596 378.59Z"/><path fill="#000001" transform="scale(1.33333 1.33333)" d="M585.761 409.461C609.85 406.487 631.783 423.62 634.723 447.708C637.663 471.796 620.495 493.698 596.397 496.604C572.348 499.503 550.493 482.381 547.559 458.342C544.624 434.302 561.719 412.428 585.761 409.461Z"/><path fill="#0B4CBB" transform="scale(1.33333 1.33333)" d="M525.909 354.596C544.297 345.822 573.101 331.658 591.875 327.896C617.484 322.764 649.265 332.593 670.249 347.466C702.384 370.243 709.049 393.638 716.524 430.068C719.303 443.612 723.562 457.979 726.209 471.922L726.507 473.983L725.796 474.078L723.833 471.538C723.02 469.78 721.795 468.1 720.857 466.47C710.855 449.089 699.617 467.798 693.067 474.882C682.954 485.742 672.91 496.666 662.935 507.653C663.125 490.596 660.496 494.375 667.189 477.772C673.557 461.973 670.695 436.29 663.341 420.811C654.365 401.903 638.152 387.404 618.358 380.587C597.756 373.364 575.113 374.73 555.529 384.378C534.874 394.344 522.514 411.667 515.1 432.783C490.361 437.542 485.158 461.659 473.517 465.063C452.958 471.074 444.272 431.187 407.322 446.847C410.188 439.379 413.319 429.858 420.081 425.012C439.276 411.255 461.275 441.873 475.627 443.434C477.877 443.679 480.773 442.192 482.466 440.782C487.144 436.884 523.422 377.414 527.727 369.156C528.891 366.922 529.875 364.733 530.014 362.184C530.201 358.75 528.103 356.875 525.909 354.596Z"/><path fill="#0B4CBB" transform="scale(1.33333 1.33333)" d="M487.143 1009.66C489.245 1010.4 504.825 1022.58 507.584 1024.71C501.283 1035.64 493.782 1046.3 487.847 1057.33C501.241 1060.77 521.804 1065.5 535.167 1067.74C527.057 1080.38 516.907 1099.62 509.22 1113.13C527.031 1114.72 548.591 1117.42 566.371 1119.82C557.565 1132.97 549.88 1150.22 540.677 1163.71C558.333 1165.8 575.977 1167.47 593.611 1169.83C586.078 1182.74 579.26 1197.87 571.553 1211.34C588.129 1213.2 615.075 1213.57 632.587 1214.41C631.007 1218.42 628.909 1222.56 627.031 1226.46L556.964 1226.51L534.332 1226.43C537.112 1222.66 543.048 1216.3 542.607 1211.51C542.389 1209.16 541.134 1206.61 539.206 1205.21C534.633 1201.9 491.779 1209.85 483.469 1211.22L510.416 1177.35C512.598 1174.57 516.744 1169.89 515.968 1166.26C515.399 1162.82 511.997 1159.27 508.209 1159.78C489.163 1162.36 468.873 1165.01 450.069 1168.64C456.147 1158.99 481.848 1122.44 481.766 1114.73C481.749 1113.16 481.229 1111.62 480.003 1110.59C477.867 1108.78 474.692 1108.43 472.004 1108.4C465.206 1108.34 457.723 1110.18 450.99 1111.22C439.01 1113.14 426.994 1114.83 414.948 1116.28C432.8 1088.5 452.3 1061.25 470.342 1033.52C475.41 1025.73 481.413 1016.9 487.143 1009.66Z"/><path fill="#0B4CBB" transform="scale(1.33333 1.33333)" d="M455.354 1230.06C456.577 1229.93 460.63 1229.54 461.725 1229.55C471.647 1229.62 488.732 1243.89 495.549 1250.48C514.835 1268.94 525.85 1294.4 526.095 1321.1L421.122 1321.07L349.217 1321.2C360.367 1270.88 405.524 1236.42 455.354 1230.06Z"/><path fill="#FBBC2A" transform="scale(1.33333 1.33333)" d="M321.102 677.758C338.388 677.675 355.674 677.752 372.958 677.987L373.003 877.93L320.915 877.796L321.102 677.758Z"/><path fill="#000001" transform="scale(1.33333 1.33333)" d="M342.23 766.054C350.173 764.218 358.123 769.08 360.104 776.986C362.084 784.893 357.365 792.928 349.494 795.05C344.274 796.458 338.701 794.939 334.918 791.078C331.135 787.216 329.732 781.614 331.248 776.426C332.764 771.238 336.963 767.272 342.23 766.054Z"/><path fill="#EC4342" transform="scale(1.33333 1.33333)" d="M345.344 768.063C352.097 767.904 357.769 773.108 358.188 779.849C358.606 786.589 353.622 792.455 346.901 793.133C342.318 793.595 337.849 791.513 335.253 787.708C332.658 783.903 332.353 778.983 334.457 774.886C336.562 770.789 340.739 768.171 345.344 768.063Z"/><path fill="#000001" transform="scale(1.33333 1.33333)" d="M342.817 701.116C350.928 699.633 358.707 704.998 360.2 713.104C361.694 721.211 356.338 728.995 348.232 730.5C340.11 732.007 332.306 726.64 330.809 718.518C329.312 710.396 334.691 702.601 342.817 701.116Z"/><path fill="#EC4342" transform="scale(1.33333 1.33333)" d="M341.653 703.868C345.983 702.49 350.72 703.554 354.044 706.651C357.368 709.749 358.763 714.398 357.692 718.813C356.621 723.228 353.252 726.723 348.877 727.954C342.271 729.814 335.392 726.035 333.421 719.462C331.449 712.889 335.112 705.95 341.653 703.868Z"/><path fill="#000001" transform="scale(1.33333 1.33333)" d="M342.827 826.378C350.885 825.031 358.502 830.491 359.812 838.553C361.123 846.615 355.626 854.205 347.556 855.477C339.539 856.741 332.007 851.289 330.706 843.28C329.404 835.271 334.822 827.716 342.827 826.378Z"/><path fill="#EC4342" transform="scale(1.33333 1.33333)" d="M342.186 829.048C348.751 827.3 355.494 831.185 357.272 837.74C359.05 844.296 355.194 851.055 348.645 852.861C342.054 854.679 335.242 850.794 333.453 844.197C331.664 837.601 335.58 830.807 342.186 829.048Z"/><path fill="#EC4342" transform="scale(1.33333 1.33333)" d="M392.638 937.837C396.976 940.607 404.287 946.358 408.686 949.635C420.109 958.169 431.439 966.827 442.675 975.607C452.371 1012.46 436.74 1028.6 410.179 1050.62L383.377 1072.78C378.094 1077.17 373.642 1080.9 368.68 1085.7C352.827 1062.5 339.512 1046.83 341.22 1016.69C342.324 997.227 349.376 981.104 363.288 967.321C373.147 957.553 382.346 947.164 392.638 937.837Z"/><path fill="#EC4342" transform="scale(1.33333 1.33333)" d="M470.615 1228.82L590.92 1228.97C614.233 1228.98 638.989 1228.25 662.051 1228.77L669.722 1233.43C645.593 1237.66 629.25 1244.62 610.79 1261.13C592.005 1277.13 583.795 1297.72 578.554 1321.02L528.566 1321.11C528.533 1314.63 527.852 1308.16 526.533 1301.81C519.266 1266.38 499.185 1247.7 470.615 1228.82Z"/><path fill="#FBBC2A" transform="scale(1.33333 1.33333)" d="M229.805 544.036C232.512 547.833 229.955 596.486 232.121 604.43C235.05 615.172 249.628 605.218 255.741 603.013C260.858 601.168 265.796 598.586 270.255 596.618C289.672 587.898 309.17 579.357 328.745 570.997C329.099 580.236 330.463 631.886 332.953 636.388C334.861 637.763 339.744 638.361 339.784 638.418C343.489 643.753 346.236 649.167 350.069 654.591C335.117 653.239 318.544 651.99 303.792 649.785C297.109 643.94 293.092 640.697 285.573 635.992C285.265 635.8 284.956 635.612 284.644 635.428C260.597 621.255 235.369 613.422 207.689 620.662C198.488 615.198 186.037 606.424 176.968 600.254L126.97 566.339C135.564 564.607 146.245 558.888 154.187 554.837C153.941 560.807 152.403 568.901 157.585 572.933C164.023 574.688 182.889 564.895 189.614 561.891L229.805 544.036Z"/><path fill="#0B4CBB" transform="scale(1.33333 1.33333)" d="M318.29 680.504C318.922 683.191 318.643 696.657 318.61 700.276C318.415 711.819 318.402 723.363 318.569 734.906C311.081 730.561 300.215 722.645 292.796 717.56C283.326 723.833 273.91 730.187 264.549 736.621C273.439 741.399 284.34 749.304 292.705 755.148C301.005 749.057 309.916 743.343 318.398 737.166C318.763 754.664 318.5 773.054 318.477 790.623C310.141 785.086 301.145 779.192 293.577 772.738C284.191 779.03 274.856 785.398 265.574 791.842C274.628 797.688 284.003 804.311 292.919 810.43C301.202 804.179 309.959 798.897 318.46 792.335L318.558 840.345L292.87 822.994C284.032 829.483 275.041 835.761 265.906 841.825C275.063 847.838 283.826 853.768 293.11 859.731C298.768 856.302 307.43 849.95 313.094 846.033C314.576 844.978 316.52 843.315 318.091 843.311C318.794 849.495 318.404 864.161 318.38 871.019C289.56 897.682 272.25 896.649 234.762 896.416C249.194 887.275 263.415 877.806 277.414 868.016C267.6 863.029 246.48 848.297 236.269 841.587C242.429 838.723 271.128 819.355 277.086 814.694C265.303 808.297 250.214 797.192 238.232 789.667C251.32 781.845 264.306 771.532 277.24 764.246C268.898 757.171 246.923 743.811 236.945 737.392C263.948 720.621 292.628 699.586 318.29 680.504Z"/><path fill="#0B4CBB" transform="scale(1.33333 1.33333)" d="M247.282 411.589L249.109 413.378C247.003 419.429 246.332 427.087 244.076 433.224C226.984 479.705 201.951 524.452 157.57 549.781C146.328 556.197 137.365 561.412 124.497 564.625C118.476 560.816 111.875 555.861 106.017 551.667C107.011 550.33 107.735 549.546 108.873 548.322C112.109 548.202 114.617 551.774 117.359 551.958C124.87 552.461 128.957 547.283 129.981 540.896C131.711 540.763 135.932 545.548 139.738 545.44C146.055 545.26 150.292 540.579 150.293 534.344C150.399 533.16 150.417 531.931 152.044 532.653C162.225 537.174 174.068 529.498 167.514 518.101C166.146 515.759 163.885 514.073 161.25 513.432C158.637 512.787 155.11 513.252 152.908 514.746C145.677 519.653 148.639 521.869 147.376 526.724C142.698 526.398 140.561 521.872 135.055 525.568C128.329 530.084 130.274 530.348 128.822 536.517C120.994 529.148 118.654 527.025 110.72 535.27C104.741 541.482 103.102 523.278 88.5539 539.79L54.7314 516.332C92.8219 523.537 131.644 508.55 158.092 481.355C172.96 466.067 180.528 451.448 188.336 431.994C214.815 436.779 229.405 432.217 247.282 411.589Z"/><path fill="#000001" transform="scale(1.33333 1.33333)" d="M211.9 436.831C217.807 435.604 223.614 439.313 224.982 445.187C226.351 451.061 222.782 456.954 216.941 458.463C213.036 459.472 208.891 458.286 206.11 455.365C203.33 452.443 202.352 448.245 203.554 444.396C204.757 440.546 207.951 437.651 211.9 436.831Z"/><path fill="#EC4342" transform="scale(1.33333 1.33333)" d="M211.08 439.424C215.659 437.746 220.729 440.112 222.381 444.699C224.034 449.286 221.638 454.341 217.041 455.967C212.48 457.581 207.473 455.209 205.833 450.658C204.194 446.108 206.538 441.088 211.08 439.424Z"/><path fill="#000001" transform="scale(1.33333 1.33333)" d="M196.812 478.364C197.8 478.874 199.368 479.997 200.454 480.656L199.537 482.333C211.066 500.772 182.36 509.53 181.129 490.875C180.534 481.852 187.988 479.378 195.642 479.759L196.812 478.364Z"/><path fill="#0B46B2" transform="scale(1.33333 1.33333)" d="M196.812 478.364C197.8 478.874 199.368 479.997 200.454 480.656L199.537 482.333C197.816 481 197.606 480.793 195.642 479.759L196.812 478.364Z"/><path fill="#EC4342" transform="scale(1.33333 1.33333)" d="M190.719 482.008C195.36 481.458 199.566 484.782 200.102 489.424C200.639 494.066 197.302 498.261 192.657 498.784C188.031 499.304 183.857 495.985 183.323 491.362C182.789 486.739 186.096 482.556 190.719 482.008Z"/><path fill="#000001" transform="scale(1.33333 1.33333)" d="M196.812 478.364C193.069 471.488 192.465 464.989 200.314 460.869C214.141 453.611 222.735 475.571 208.748 480.576C205.431 481.763 203.584 480.838 200.454 480.656C199.368 479.997 197.8 478.874 196.812 478.364Z"/><path fill="#EC4342" transform="scale(1.33333 1.33333)" d="M202.984 462.195C205.933 461.412 209.074 462.275 211.209 464.453C213.344 466.631 214.142 469.789 213.3 472.72C212.457 475.65 210.103 477.902 207.137 478.615C202.626 479.698 198.083 476.953 196.945 472.456C195.808 467.959 198.5 463.385 202.984 462.195Z"/><path fill="#000001" transform="scale(1.33333 1.33333)" d="M174.034 497.798C179.734 496.69 185.261 500.385 186.414 506.075C187.567 511.764 183.915 517.319 178.234 518.517C172.488 519.729 166.856 516.027 165.69 510.274C164.523 504.52 168.27 498.918 174.034 497.798Z"/><path fill="#EC4342" transform="scale(1.33333 1.33333)" d="M173.246 500.509C176.047 499.449 179.205 500.018 181.46 501.989C183.715 503.961 184.7 507.014 184.022 509.931C183.344 512.848 181.114 515.154 178.221 515.93C174.045 517.05 169.724 514.699 168.397 510.585C167.07 506.472 169.202 502.04 173.246 500.509Z"/><path fill="#FBBC2A" transform="scale(1.33333 1.33333)" d="M677.964 1243.22C681.24 1242.67 682.698 1244.02 684.952 1246.33C705.943 1267.81 714.3 1291.32 714.412 1321.06L628.975 1321.02L590.341 1320.9C600.105 1276.85 633.086 1247.64 677.964 1243.22Z"/><path fill="#FBBC2A" transform="scale(1.33333 1.33333)" d="M234.068 463.765C236.065 470.297 229.35 503.442 237.996 506.08C242.352 507.409 260.546 498.245 266.769 495.544C266.354 511.358 265.119 527.24 264.64 543.083C264.445 549.521 263.475 561.302 274.323 557.477C283.969 554.075 293.591 549.549 303.018 545.463C319.892 538.157 336.803 530.938 353.751 523.806C366.001 531.209 382.853 543.333 395.088 551.59C369.966 553.869 356.395 565.134 342.921 585.364C342.782 576.968 344.267 562.295 340.191 555.859C337.857 554.602 335.183 553.183 332.438 554.263C321.354 558.834 310.23 563.676 299.317 568.66C281.568 576.766 262.887 583.814 245.459 592.503C245.437 575.963 245.314 559.408 245.082 542.881C244.808 538.724 245.87 529.756 240.925 527.993C234.073 525.549 220.304 533.464 213.626 536.378C198.747 543.011 183.765 549.413 168.687 555.581L168.684 546.031C199.846 522.829 217.566 498.809 234.068 463.765Z"/><path fill="#FBBC2A" transform="scale(1.33333 1.33333)" d="M509.362 1026.22C522.143 1036.91 537.586 1046.64 549.483 1058.07C551.767 1060.26 557.852 1069.72 559.928 1072.88C556.354 1080.95 552.133 1088.63 548.643 1096.73C558.444 1098.25 568.262 1099.66 578.094 1100.96C583.347 1107.44 587.249 1115.86 592.344 1121.68C588.467 1130.85 584.253 1138.99 579.557 1147.71C590.435 1148.98 600.779 1150.09 611.636 1151.67C615.028 1156.46 618.359 1161.29 621.627 1166.16C617.849 1175.69 613.641 1185.03 609.015 1194.18L642.098 1198.18C648.611 1207.04 654.797 1216.98 660.782 1226.27C650.881 1225.93 640.122 1226.24 630.139 1226.38C631.889 1222.3 635.338 1216.88 635.2 1212.8C633.767 1211.27 633.62 1211.75 630.974 1211.63C612.981 1211.43 593.756 1209.88 575.491 1209.35C583.154 1195.57 589.908 1181.45 597.498 1167.61L545.024 1161.53C553.657 1147.11 561.992 1132.52 570.026 1117.76C551.401 1115.54 531.786 1113.58 513.316 1110.85C522.139 1096.21 530.321 1080.82 538.855 1065.96C523.49 1063.33 506.935 1059.19 491.604 1055.76C496.472 1046.62 503.864 1035.59 509.362 1026.22Z"/><path fill="#0B4CBB" transform="scale(1.33333 1.33333)" d="M511.212 455.973C512.438 457.439 512.836 462.817 513.129 465.111C515.096 480.546 521.363 494.556 531.484 506.653C532.44 565.074 531.539 625.285 531.577 683.878C521.59 683.71 511.4 683.759 501.395 683.705C523.639 654.609 529.26 619.522 521.477 584.218C507.017 530.328 458.932 489.488 402.198 490.259C401.582 485.289 401.61 480.113 401.517 475.094C407.448 467.472 413.23 464.707 422.12 462.217C439.913 466.731 447.859 484.088 466.792 485.674C488.729 487.51 498.003 466.828 511.212 455.973Z"/><path fill="#FBBC2A" transform="scale(1.33333 1.33333)" d="M246.226 693.214C251.747 695.968 266.274 707.589 271.562 711.694C258.491 719.816 245.821 729.17 232.434 737.388C243.625 743.941 261.857 756.203 272.561 763.778C259.829 772.641 246.915 781.24 233.827 789.57C243.256 796.689 262.26 808.434 272.724 815.315L232.188 841.913C245.895 850.498 259.114 859.843 272.9 868.407L231.447 895.93C228.736 897.109 209.916 896.761 206.24 896.677L200.282 892.874C212.858 884.266 225.488 875.736 238.169 867.285C225.8 859.223 212.891 849.365 200.897 840.571C213.707 832.532 226.3 824.152 238.663 815.441L201.19 787.455C212.605 780.88 227.875 770.13 239.687 762.722L202.173 735.522C221.849 720.476 246.916 728.215 246.226 693.214Z"/><path fill="#FBBC2A" transform="scale(1.33333 1.33333)" d="M452.55 220.335C454.245 221.99 462.443 246.254 462.819 249.38C463.916 258.491 458.533 277.819 456.74 287.465C443.485 283.926 430.032 280.673 416.724 277.235L404.546 312.773L365.681 301.421L351.75 337.669C338.588 330.397 325.596 322.821 312.785 314.949C307.645 311.918 302.544 308.821 297.484 305.659C299.41 300.043 301.362 292.502 303.059 286.67L336.887 302.457C341.722 290.671 346.207 278.351 350.707 266.403L386.78 278.065L401.626 243.011C414.708 246.772 428.278 251.332 441.34 254.62C443.704 245.155 449.217 229.888 452.55 220.335Z"/><path fill="#EC4342" transform="scale(1.33333 1.33333)" d="M427.673 48.1715C445.581 45.5915 473.862 49.3203 491.098 54.877C544.351 72.0443 577.943 103.963 603.442 152.247C582.578 159.042 561.771 166.011 541.023 173.151C549.61 155.832 559.662 139.005 568.375 121.7C570.662 117.159 574.678 109.109 567.195 106.597C562.096 104.886 551.097 110.697 546.077 112.888C528.949 120.454 511.678 127.465 494.582 135.17C494.713 134.93 494.84 134.687 494.963 134.443C500.576 123.318 505.977 111.895 511.412 100.666C514.107 95.0987 522.078 81.8242 519.952 76.173C519.262 74.3103 517.783 72.8486 515.912 72.1808C514.283 71.6003 512.512 71.5551 510.856 72.0519C504.809 73.8245 492.237 80.6315 485.839 83.5887C473.003 89.5214 459.798 95.3483 447.201 101.697C451.077 93.1274 468.609 62.6576 466.637 56.4592C466.026 54.472 464.573 52.8529 462.663 52.0308C458.263 50.1343 444.955 57.6187 440.187 59.7256L396.721 78.9843C400.815 70.1084 407.685 58.5564 412.597 49.7924C417.739 48.9553 422.485 48.5988 427.673 48.1715Z"/><path fill="#0B4CBB" transform="scale(1.33333 1.33333)" d="M672.166 756.165C684.167 755.566 693.596 756.216 704.316 762.811C714.083 768.941 721.056 778.659 723.733 789.874C726.4 801.815 724.25 814.325 717.75 824.692C710.587 835.935 700.173 842.14 687.424 844.977C672.465 847.121 657.221 841.902 646.788 830.969C635.346 818.977 634.296 806.843 634.749 791.335C647.467 783.14 656.366 773.917 660.8 759.108C664.973 757.846 667.862 757.047 672.166 756.165Z"/><path fill="#000001" transform="scale(1.33333 1.33333)" d="M675.526 775.229C688.923 772.453 702.037 781.052 704.829 794.443C707.62 807.833 699.034 820.954 685.644 823.76C672.231 826.571 659.081 817.971 656.285 804.558C653.489 791.146 662.107 778.009 675.526 775.229Z"/><path fill="#EC4342" transform="scale(1.33333 1.33333)" d="M677.428 777.244C689.701 775.538 701.036 784.094 702.758 796.361C704.479 808.629 695.935 819.972 683.666 821.708C671.377 823.446 660.007 814.887 658.283 802.598C656.559 790.31 665.134 778.953 677.428 777.244Z"/><path fill="#FBBC2A" transform="scale(1.33333 1.33333)" d="M602.243 696.577C626.455 694.423 647.839 712.277 650.034 736.479C652.229 760.682 634.406 782.09 610.202 784.325C585.94 786.565 564.465 768.696 562.264 744.436C560.064 720.177 577.974 698.737 602.243 696.577Z"/><path fill="#0B4CBB" transform="scale(1.33333 1.33333)" d="M446.154 883.28C473.679 883.494 463.577 902.915 474.654 917.329C487.297 933.783 503.311 924.356 513.388 928.427C528.473 934.523 517.27 953.519 534.673 967.317C553.517 982.257 562.551 968.419 575.113 978.563C583.953 985.701 576.966 998.131 590.835 1010.16C584.91 1015.66 576.885 1024.84 571.192 1031.03C570.303 1031.89 570.26 1031.84 569.123 1032.37C565.775 1030.3 565.628 1020.18 564.18 1016.11C559.816 1003.84 547.633 994.574 534.72 993.272C523.463 992.137 517.624 995.45 510.552 984.698C509.744 977.69 510.604 976.186 507.598 968.999C503.076 958.134 492.698 950.844 480.94 950.275C475.823 950.042 468.323 951.04 463.722 948.939C451.157 943.202 455.628 930.37 451.066 920.199C446.35 909.683 438.222 905.096 428.396 901.026C434.373 894.809 439.828 889.157 446.154 883.28Z"/><path fill="#0B4CBB" transform="scale(1.33333 1.33333)" d="M487.579 841.106C497.009 847.364 490.559 864.1 503.146 876.004C521.466 893.328 531.804 879.348 546.489 889.34C555.169 895.246 549.345 909.413 559.601 921.493C577.068 942.069 595.212 928.138 605.085 936.885C615.563 946.169 604.075 958.453 624.909 974.728C621.501 978.33 606.331 995.321 603.325 996.038L601.558 994.103C598.887 987.177 600.992 981.443 596.68 973.987C584.944 953.691 570.877 956.174 551.605 954.359C540.539 953.316 542.783 933.286 538.321 925.422C532.984 916.014 521.317 908.275 509.752 908.082C505.803 907.956 496.153 909.146 493.441 907.703C485.903 903.693 488.883 891.111 483.834 882.876C477.955 873.287 472.12 869.787 461.972 866.597L487.579 841.106Z"/><path fill="#FBBC2A" transform="scale(1.33333 1.33333)" d="M407.388 50.6685C407.887 50.6413 408.054 50.8228 408.597 51.0697C407.698 55.2286 393.818 79.5879 391.237 84.4385C400.647 79.2642 411.096 75.2686 420.944 70.9591C432.215 66.0267 443.348 60.7297 454.654 55.8952C457.131 54.8365 459.551 53.4189 462.2 54.672C463.026 55.0627 464.145 56.1984 464.425 57.0946C465.942 61.9347 444.469 101.272 441.237 107.798C450.779 102.223 461.083 97.8624 471.065 93.15C482.264 87.8631 493.341 82.287 504.597 77.1271C507.43 75.8285 512.186 73.212 515.253 74.6744C516.712 75.37 517.597 76.4059 518.024 77.9618C519.283 82.5495 492.928 133.094 488.805 140.939C490.81 139.789 492.862 138.722 494.955 137.74C511.547 129.83 528.968 123.097 545.786 115.628C550.175 113.678 562.308 107.66 566.624 109.18C568.858 111.149 569.633 112.939 568.265 115.935C558.724 136.833 545.597 156.676 535.955 177.466C543.171 174.502 553.629 171.358 561.174 168.853L604.471 154.374C605.713 156.609 607.042 159.619 608.164 161.984L600.445 164.727C587.915 169.326 574.405 173.196 561.702 177.599C552.007 180.713 542.426 184.347 532.594 186.996C528.401 188.126 526.15 186.769 524.784 182.696C524.785 176.616 542.853 148.381 546.27 139.901C547.83 136.03 555.313 123.043 557.885 119.689L507.392 141.479C500.105 144.623 492.882 148.066 485.44 150.802C481.941 152.088 479.102 150.558 478.062 147.037C478.298 142.166 503.017 91.8385 507.043 85.6525C495.22 92.0165 482.299 97.1062 470.112 102.852C459.543 107.836 448.699 114.119 437.766 118.068C435.981 118.713 434.131 118.869 432.406 117.917C431.213 117.258 430.317 116.207 429.939 114.893C428.774 110.836 449.801 72.0949 453.697 65.2962C439.903 72.0444 425.736 77.9542 411.709 84.192C403.943 87.6458 395.74 92.146 387.667 94.613C386.263 95.0419 385.028 95.2893 383.606 94.7672C382.178 94.2427 380.987 92.9326 380.508 91.4953C378.829 86.4616 395.342 58.8531 398.519 52.6279L407.388 50.6685Z"/><path fill="#EC4342" transform="scale(1.33333 1.33333)" d="M402.619 492.21C432.588 492.348 462.151 505.191 484.087 525.34C507.361 546.852 521.194 576.684 522.578 608.342C523.596 630.663 517.961 652.784 506.386 671.898C502.828 677.898 501.877 683.481 494.294 683.684L472.981 683.808C490.399 667.425 501.446 641.128 502.701 617.358C503.919 591.015 494.659 565.26 476.945 545.721C458.586 525.22 432.731 512.989 405.233 511.797C404.28 505.34 403.479 498.695 402.619 492.21Z"/><path fill="#0B4CBB" transform="scale(1.33333 1.33333)" d="M218.099 620.966C225.297 620.263 238.922 620.56 245.814 622.445L246.106 624.353C243.348 629.103 237.568 625.235 233.063 627.929C230.217 629.63 231.047 634.602 228.812 636.253C218.473 634.963 219.487 641.439 220.984 648.639C221.36 650.446 214.447 652.449 213.943 655.621C211.837 668.872 230.276 670.226 230.246 657.26C230.245 655.462 229.38 654.128 229.535 652.254C236.715 648.985 234.771 644.779 236.856 643.698C244.095 639.947 242.433 643.947 247.212 635.186C255.082 636.993 260.456 637.572 261.035 627.376C267.604 627.081 289.479 641.658 296.004 646.081C287.518 648.197 244.748 652.527 240.972 656.736C239.777 658.066 239.518 659.982 239.654 661.715C239.778 663.307 240.596 664.763 241.89 665.699C243.744 667.061 247.374 667.959 249.499 667.695C261.846 666.163 275.771 663.317 287.996 661.09C294.469 659.909 300.964 658.856 307.479 657.93C312.201 663.032 316.361 670.596 318.685 677.138L305.2 687.144C305.434 686.22 305.617 685.284 305.748 684.34C307.387 672.472 294.639 669.678 287.006 675.911C284.213 678.192 284.646 680.601 284.501 684.031C283.229 685.738 278.307 684.439 276.473 685.518C263.308 693.265 269.724 701.287 279.197 705.957C278.647 707.512 275.787 709.129 274.268 710.185C270.709 707.482 246.519 690.121 245.674 688.26C233.977 662.483 211.117 667.94 186.286 668.298C185.825 666.742 185.413 665.171 185.049 663.59C179.831 640.133 196.869 625.367 218.099 620.966Z"/><path fill="#EC4342" transform="scale(1.33333 1.33333)" d="M471.759 1023.84C472.506 1023.91 473.125 1024.02 473.86 1024.14C456.518 1048.76 440.504 1074.64 423.294 1099.39C418.9 1105.7 414.109 1112.66 410.254 1119.29C423.845 1117.71 437.33 1115.62 450.857 1113.58C457.951 1112.51 465.283 1111 472.442 1110.58C474.146 1110.48 475.764 1110.39 477.2 1111.41C478.487 1112.32 479.292 1114.02 479.478 1115.56C479.943 1119.41 449.276 1165.44 444.487 1172.12C452.516 1170.13 507.025 1160.61 511.157 1163C512.872 1164.73 513.007 1164.99 513.579 1167.35C513.03 1171.34 482.403 1208.99 477.451 1214.61C484.521 1213.21 533.837 1204.87 537.136 1206.95C538.813 1208.01 539.667 1209.53 540.111 1211.41C539.608 1216.11 534.056 1222.5 531.051 1226.51L521.406 1226.58C523.39 1223.06 525.937 1219.12 528.081 1215.65C511.022 1218.53 493.202 1220.47 476.078 1223.45C472.188 1224.13 468.118 1223.37 466.374 1219.49C466.442 1212.82 476.381 1202.19 480.557 1196.96L500.658 1171.63C480.637 1174.32 455.739 1180.29 435.97 1181.63L431.993 1176.35C441.889 1158.32 456.615 1139.12 467.389 1120.61C446.992 1122.94 419.838 1128.66 400.577 1129.66C399.102 1127.81 397.964 1125.58 396.803 1123.5C399.418 1118.5 404.227 1111.96 407.492 1107.09L425.113 1080.58C433.131 1068.6 442.644 1053.42 451.181 1042.22C452.36 1040.67 468.93 1026.42 471.759 1023.84Z"/><path fill="#0B4CBB" transform="scale(1.33333 1.33333)" d="M405.42 514.169C431.303 515.533 453.757 525.891 472.049 544.133C490.133 562.142 500.306 586.604 500.324 612.123C500.306 640.57 489.566 663.931 469.613 683.821L457.8 683.765C451.105 683.77 444.354 683.647 437.655 683.57C444.756 679.513 450.538 675.913 456.562 670.241C471.868 655.721 480.81 635.739 481.437 614.654C481.795 593.647 473.884 573.34 459.407 558.11C446.893 545.119 426.931 534.997 408.721 534.659C407.394 528.433 406.399 520.566 405.42 514.169Z"/><path fill="#FBBC2A" transform="scale(1.33333 1.33333)" d="M395.067 573.764C401.02 573.228 406.04 573.579 411.896 574.446C414.48 597.914 418.947 625.201 422.479 648.767L421.861 649.185C410.728 656.583 400.76 657.77 387.94 655.106C383.53 653.509 380.527 652.277 376.572 649.52C367.686 643.321 361.7 633.778 359.987 623.081C355.892 598.75 370.605 577.695 395.067 573.764Z"/><path fill="#EC4342" transform="scale(1.33333 1.33333)" d="M408.633 536.653C421.83 537.122 438.758 544.309 449.147 552.345C465.331 564.875 475.896 583.299 478.535 603.592C480.921 623.746 475.201 644.022 462.634 659.96C456.055 668.456 440.137 682.157 429.659 683.48L407.632 683.809C417.283 678.999 422.692 673.712 426.15 663.468C428.878 662.355 431.51 661.022 434.021 659.482C445.78 652.272 454.577 638.631 457.62 625.233C460.999 610.384 458.228 594.8 449.937 582.026C440.94 568.067 427.977 560.291 411.97 556.804C410.967 549.865 410.034 543.544 408.633 536.653Z"/><path fill="#0B4CBB" transform="scale(1.33333 1.33333)" d="M413.619 916.55C444.676 921.397 426.89 946.912 448.114 962.723C459.262 971.029 467.45 970.84 480.145 969.35C496.723 977.232 486.625 987.563 497.137 1000.3C508.156 1013.65 517.61 1011.61 531.772 1012.92C547.286 1014.35 545.814 1028.68 549.352 1039.15C550.173 1041.58 553.073 1045.26 554.796 1047.51L549.095 1053.82L543.178 1049.18L394.321 935.685C400.129 930.449 407.85 922.262 413.619 916.55Z"/><path fill="#EC4342" transform="scale(1.33333 1.33333)" d="M460.47 868.167C471.938 872.782 483.675 880.038 484.931 893.859C485.37 898.689 485.961 904.158 489.869 907.722C496.491 913.762 507.161 909.126 515.498 911.255C526.317 913.216 538.151 924.081 538.851 935.2C540.404 959.902 552.148 957.162 571.826 958.156C580.646 958.602 594.775 970.736 596.715 979.715C598.323 987.159 597.388 990.764 602.032 998.042C599.614 1000.8 594.567 1008.15 591.102 1007.62C580.351 996.54 586.036 986.967 577.771 977.673C567.342 965.947 555.472 978.348 540.391 968.413C520.641 955.4 530.558 946.125 520.173 930.493C515.094 922.848 502.549 925.675 494.935 925.332C490.072 925.136 485.373 923.515 481.422 920.673C462.74 906.988 480.027 882.339 447.75 881.308C451.803 876.885 456.256 872.467 460.47 868.167Z"/><path fill="#EC4342" transform="scale(1.33333 1.33333)" d="M499.23 830.559C501.407 830.708 501.899 831.477 503.54 832.787C513.039 840.37 508.873 855.984 515.563 863.606C523.555 872.711 535.477 865.372 546.408 869.525C576.692 881.029 563.093 901.192 575.659 912.8C585.103 921.524 602.602 908.594 618.294 925.225C633.808 941.666 620.706 949.073 636.611 962.406C633.615 965.69 630.006 969.218 626.858 972.427C611.428 967.223 615.466 946.986 609.325 938.01C599.61 923.811 581.345 937.803 566.484 925.086C551.508 912.27 558.45 905.108 550.892 890.805C543.833 879.181 530.31 884.374 520.026 882.33C493.682 877.092 500.222 854.306 490.03 838.995C493.008 835.813 495.492 832.819 499.23 830.559Z"/><path fill="#EC4342" transform="scale(1.33333 1.33333)" d="M426.782 902.927C439.639 907.453 449.559 915.47 451.242 929.609C451.766 934.012 452.076 939.79 454.27 943.523C462.679 957.837 475.773 949.929 487.79 953.824C496.729 956.721 505.083 964.696 506.765 974.094C507.473 978.05 508.021 984.523 509.845 987.65C516.635 999.296 529.317 993.082 540.311 996.804C550.803 1000.36 559.683 1008.47 562.555 1019.24C564.518 1026.59 563.195 1028.02 567.02 1035.39C563.598 1038.96 559.948 1042.11 556.25 1045.4C546.915 1034.23 552.022 1029.46 546.214 1019.1C539.196 1006.58 524.72 1011.6 514.221 1008.98C503.534 1006.09 496.364 997.817 494.228 987.058C493.321 982.492 492.67 977.536 489.925 973.661C482.674 963.484 471.027 969.382 461.049 966.766C450.419 963.979 441.181 954.565 438.485 943.958C436.818 937.403 436.929 930.774 433.151 924.853C428.749 917.952 422.666 916.287 415.235 914.703C419.316 910.141 422.3 907.095 426.782 902.927Z"/><path fill="#0B4CBB" transform="scale(1.33333 1.33333)" d="M128.45 407.537C129.176 408.578 130.932 412.737 131.667 414.257C138.809 429.01 146.527 437.25 159.773 446.606C157.789 449.489 155.764 452.343 153.698 455.168C136.672 478.122 114.31 492.432 86.0087 496.6L74.9996 497.609C87.2944 485.809 88.6998 473.509 81.1407 458.687C90.5056 457.879 93.2136 456.88 101.105 451.696C101.913 452.293 104.968 454.562 105.674 454.785C121.635 459.819 130.735 438.382 113.061 430.85C112.537 422.077 112.247 420.444 108.877 412.093C117.762 412.315 120.754 411.463 128.45 407.537Z"/><path fill="#EC4342" transform="scale(1.33333 1.33333)" d="M619.186 190.113C621.666 192.272 636.199 228.647 638.77 234.847C633.76 237.048 628.299 239.678 623.396 242.128C589.052 259.289 553.184 274.273 518.833 291.236C518.511 285.361 518.092 280.274 517.279 274.466C516.722 267.921 515.975 261.394 515.037 254.893C525.644 258.687 541.93 265.292 553.145 267.604C555.442 268.077 558.678 264.669 560.441 263.032C561.381 247.63 561.904 232.206 562.011 216.776C570.434 221.152 599.216 238.013 606.786 238.429C609.009 238.552 611.03 237.95 612.659 236.39C618.116 231.166 618.882 198.647 619.186 190.113Z"/><path fill="#FBBC2A" transform="scale(1.33333 1.33333)" d="M234.973 529.518C237.189 529.091 238.967 529.328 240.798 530.631C243.426 533.896 242.682 549.736 242.717 554.56L242.917 596.029C271.332 581.733 303.609 570.75 332.533 556.917C344.348 551.266 340.78 585.604 340.36 590.911C339.73 598.856 336.929 604.011 336.837 612.812C336.778 618.487 339.293 631.314 338.744 634.464C336.693 635.282 337.588 635.15 335.282 634.821C334.244 633.783 333.637 632.31 333.574 630.837C332.672 609.822 331.819 588.712 330.569 567.709C321.904 570.875 310.772 576.1 302.115 579.894L262.63 597.363C257.706 599.526 239.318 608.777 235.161 606.222C232.851 600.461 232.961 549.292 232.95 540.055C217.736 546.716 202.555 553.452 187.408 560.265C182.092 562.64 162.659 572.806 158.131 570.276C155.256 566.169 156.284 558.731 156.466 553.481L166.676 547.409C166.702 552.217 166.727 554.473 165.944 559.287C172.451 557.307 185 551.511 191.601 548.658C206.155 542.5 220.614 536.119 234.973 529.518Z"/><path fill="#0B4CBB" transform="scale(1.33333 1.33333)" d="M412.053 559.466C446.834 565.734 466.16 602.092 452.026 634.65C449.85 639.663 447.219 643.365 443.985 647.756C437.982 654.277 433.998 657.421 426.115 661.222C425.66 650.364 422.405 632.004 420.84 620.721C418.052 600.627 415.471 579.375 412.053 559.466Z"/><path fill="#0B4CBB" transform="scale(1.33333 1.33333)" d="M165.917 727.349C179.092 727.999 196.981 727.213 210.484 727.016C206.13 729.841 201.812 732.722 197.531 735.658L235.586 762.44L229.301 766.258C220.85 771.793 212.481 777.531 203.885 782.829C191.087 782.7 178.287 782.675 165.488 782.754C165.46 765.608 164.994 744.197 165.917 727.349Z"/><path fill="#EC4342" transform="scale(1.33333 1.33333)" d="M241.07 447.27C243.361 448.984 246.988 451.174 249.474 452.783L249.253 486.521C256.25 483.493 269.512 476.886 276.937 476.306C277.992 476.224 278.869 476.095 279.666 476.848C283.964 480.907 279.74 530.625 279.461 539.768C297.16 531.032 321.511 521.764 340.033 514.087L351.991 522.446C348.279 523.591 344.087 525.417 340.441 526.894C320.401 535.368 300.401 543.911 280.42 552.52C277.144 553.931 271.32 556.047 267.858 554.614C266.034 551.363 269.03 500.46 269.394 491.996C262.197 494.567 244.751 503.834 238.99 503.712C235.208 501.11 235.797 493.097 236.108 488.804C237.124 474.793 234.928 460.213 241.07 447.27Z"/><path fill="#EC4342" transform="scale(1.33333 1.33333)" d="M692.608 518.251C694.988 518.39 696.389 518.18 697.882 520.268C702.102 526.171 705.691 532.56 709.547 538.721L731.192 572.957C735.282 579.407 740.277 587.8 744.77 593.801C747.382 590.994 750.397 587.303 752.941 584.338L757.631 606.354C753.182 610.45 747.912 619.853 741.446 619.726C737.001 618.231 730.394 605.498 727.407 600.628C715.778 581.097 704.208 563.885 692.719 543.649C682.967 553.794 673.106 564.292 662.934 573.976L663.072 549.726C671.222 541.194 684.384 525.443 692.608 518.251Z"/><path fill="#EC4342" transform="scale(1.33333 1.33333)" d="M674.05 743.094C674.481 743.036 674.914 742.991 675.347 742.958C707.6 740.708 735.325 765.637 737.113 797.896C737.882 812.958 732.626 827.706 722.504 838.888C712.184 850.264 697.743 857.044 682.396 857.717C667.051 858.43 652.057 852.988 640.744 842.598C626.862 829.864 622.945 814.856 622.227 796.856C623.966 795.795 630.397 793.476 632.724 792.465C628.237 827.935 659.399 855.501 693.6 845.794C705.402 842.32 715.354 834.327 721.289 823.554C727.373 812.325 728.793 799.153 725.242 786.886C721.754 774.978 713.622 764.974 702.675 759.126C689.405 752.062 675.686 752.085 661.667 756.469C662.573 752.352 662.88 749.307 663.323 745.142C666.885 744.243 670.431 743.7 674.05 743.094Z"/><path fill="#0B4CBB" transform="scale(1.33333 1.33333)" d="M166.021 784.839C171.961 784.884 196.236 784.089 200.167 785.448C198.68 786.644 198.337 786.474 198.019 787.905C205.616 794.752 225.611 809.051 234.407 815.16L220.527 825.019C212.952 830.062 205.315 835.011 197.618 839.866L165.73 839.968C166.369 822.176 166.088 802.681 166.021 784.839Z"/><path fill="#0B4CBB" transform="scale(1.33333 1.33333)" d="M193.445 670.623C204.306 670.687 220.514 669.132 229.82 673.854C236.05 676.944 240.718 682.48 242.712 689.141C244.826 695.958 244.113 703.338 240.733 709.625C236.61 717.365 230.788 721.103 222.674 723.592C214.953 725.316 182.655 725.122 172.716 725.183C174.206 723.819 175.647 722.403 177.038 720.938C190.646 706.384 194.07 689.924 193.445 670.623Z"/><path fill="#0B4CBB" transform="scale(1.33333 1.33333)" d="M165.521 842.521C176.16 842.288 187.711 842.569 198.417 842.629C208.841 848.411 223.007 860.105 233.709 867.238C226.436 871.994 219.042 877.161 211.838 882.067C206.686 885.452 201.62 888.965 196.645 892.605L203.137 897.257C190.975 896.933 177.739 897.241 165.419 897.15L165.521 842.521Z"/><path fill="#0B4CBB" transform="scale(1.33333 1.33333)" d="M142.776 302.921C148.257 305.71 169.218 321.543 172.236 327.519C176.612 336.185 175.702 340.974 173.409 349.426C161.917 360.019 158.868 366.321 143.484 367.132C134.738 366.639 118.299 351.656 110.434 345.487C117.997 330.62 131.13 314.85 142.776 302.921Z"/><path fill="#0B4CBB" transform="scale(1.33333 1.33333)" d="M79.0401 393.047C88.8509 399.367 94.1318 406.025 105.728 412.128C108.578 417.602 110.308 422.259 110.164 428.574C110.012 435.921 106.963 442.911 101.682 448.022C94.8833 454.513 88.1023 456.259 79.154 456.072C67.0391 453.421 56.8956 442.743 46.9593 434.509C54.203 419.545 67.4283 404.78 79.0401 393.047Z"/><path fill="#EC4342" transform="scale(1.33333 1.33333)" d="M172.312 424.35C177.08 428.016 180.601 429.351 186.11 431.205C174.263 461.572 159.701 481.845 131.33 499.578C108.513 513.84 75.8944 519.415 49.5875 512.862C43.4033 509.499 39.8243 504.714 35.1494 499.484C49.9251 507.272 57.6071 507.768 72.4074 499.509C85.3346 500.352 102.393 496.625 114.03 491.036C143.965 476.658 161.094 454.701 172.312 424.35Z"/><path fill="#0B4CBB" transform="scale(1.33333 1.33333)" d="M54.0532 444.122C56.2063 444.897 66.8453 453.977 69.7877 455.499C72.7958 457.054 74.693 457.573 77.9332 458.549C93.0997 482.329 74.9933 503.252 48.825 502.739C37.3239 499.974 27.9937 490.361 18.7099 482.638C29.2405 467.054 39.3916 455.751 54.0532 444.122Z"/><path fill="#0B4CBB" transform="scale(1.33333 1.33333)" d="M109.637 348.185C112.331 349.5 120.823 356.63 123.715 358.896C129.157 363.16 132.095 365.099 138.168 368.672C143.279 385.489 139.89 401.089 121.379 408.107C117.637 409.526 114.705 409.533 110.72 409.572C99.6653 408.85 88.346 396.491 78.4696 389.177C89.3995 371.083 95.4194 363.145 109.637 348.185Z"/><path fill="#0B4CBB" transform="scale(1.33333 1.33333)" d="M708.303 490.626C711.123 492.237 738.174 537.812 742.625 544.096C744.225 546.355 750.711 575.914 752.017 581.847C750.025 584.621 747.027 587.777 744.701 590.372C736.301 576.14 726.927 561.732 718.071 547.727C712.973 539.949 708.383 531.829 703.359 523.975C700.728 519.327 694.659 512.607 689.228 518.193C680.406 527.267 671.548 537.175 662.947 546.495L662.965 537.336C668.503 532.817 676.726 523.977 681.803 518.628L708.303 490.626Z"/><path fill="#FBBC2A" transform="scale(1.33333 1.33333)" d="M610.53 167.83C621.307 188.476 616.08 192.183 615.035 212.772C613.54 242.242 611.257 239.498 586.768 226.904L559.89 213.07C559.067 228.635 559.815 244.507 558.282 259.918C557.881 263.942 552.66 265.428 549.242 264.34C536.894 260.409 524.629 255.841 512.391 251.495C513.533 262.977 516.33 279.593 516.314 291.394C516.313 292.356 515.16 292.688 514.095 293.304C512.296 294.324 511.86 294.721 509.806 294.919L509.011 293.818C507.962 285.877 503.22 250.68 504.662 246.064C504.943 245.163 505.682 243.888 506.536 243.419C508.409 242.389 510.201 242.442 512.242 242.81C517.338 243.728 522.533 246.194 527.425 247.93C535.077 250.687 542.803 253.234 550.594 255.569C550.702 247.809 549.646 211.598 552.109 206.932C552.976 205.291 554.375 204.237 556.157 203.752C560.217 202.647 599.29 223.946 605.689 227.371C606.361 212.507 608.329 181.857 610.53 167.83Z"/><path fill="#EC4342" transform="scale(1.33333 1.33333)" d="M522.417 356.344C529.61 357.85 527.37 365.458 524.654 369.906C511.096 392.116 497.135 414.148 483.333 436.205C478.115 445.075 468.91 437.504 462.971 434.035C450.594 426.807 441.899 417.589 426.684 419.745L418.821 422.873C424.617 415.796 429.481 409.948 436.144 403.68C450.739 407.862 461.59 416.407 474.412 424.511L500.267 382.569C504.856 375.196 510.061 365.911 515.819 359.495C517.103 358.063 520.529 356.983 522.417 356.344Z"/><path fill="#EC4342" transform="scale(1.33333 1.33333)" d="M709.079 461.114C710.346 461.056 712.887 461.186 713.842 461.969C719.557 466.658 727.017 479.199 729.36 486.027C731.115 491.142 732.882 499.48 734.126 504.746L741.834 537.479C731.953 523.904 717.845 500.785 709.283 486.031L704.49 491.359L662.987 534.764C663.158 526.932 663.006 518.771 662.972 510.914C666.522 506.287 675.917 496.861 680.195 492.31L709.079 461.114Z"/><path fill="#EC4342" transform="scale(1.33333 1.33333)" d="M513.47 435.13L513.788 435.298C514.526 436.883 512.219 448.556 511.961 452.493C503.029 458.017 497.333 468.295 489.327 475.131C459.633 500.488 442.264 461.704 423.008 460.463C415.278 459.964 408.946 464.534 403.4 469.334L402.438 469.851C400.926 467.118 405.219 452.903 406.235 449.451C434.311 439.043 440.599 452.434 461.42 466.377C476.575 476.525 489.414 450.994 498.432 443.189C503.773 438.568 506.755 437.218 513.47 435.13Z"/><path fill="#0B4CBB" transform="scale(1.33333 1.33333)" d="M247.082 352.976C250.173 356.71 251.843 363.322 253.191 367.996C229.627 399.835 193.438 407.901 159.128 387.511L153.689 383.078C154.684 377.259 156.367 372.3 158.326 366.764C159.154 367.421 160.005 368.048 160.876 368.645C174.456 377.94 191.134 381.557 207.346 378.722C223.457 375.686 237.729 366.439 247.082 352.976Z"/><path fill="#FBBC2A" transform="scale(1.33333 1.33333)" d="M283.685 476.082C301.486 488.324 319.369 500.447 337.332 512.45L320.192 519.751C308.472 524.706 293.073 530.086 282.056 536.064C282.71 523.246 285.305 486.056 283.685 476.082Z"/><path fill="#0B4CBB" transform="scale(1.33333 1.33333)" d="M509.452 362.254C509.351 364.61 477.108 415.788 473.595 421.468C466.939 416.851 460.167 412.404 453.284 408.132C448.39 405.173 443.794 403.668 438.437 401.834C460.234 382.719 483.34 373.597 509.452 362.254Z"/><path fill="#0B4CBB" transform="scale(1.33333 1.33333)" d="M461.532 1123.83C461.891 1124.01 461.807 1124.18 462.029 1124.77C451.667 1142.02 440.622 1157.15 430.423 1175.27L418.904 1158.4C412.905 1149.67 406.96 1140.9 401.07 1132.09C407.154 1132.28 416.723 1130.4 422.963 1129.49C435.844 1127.6 448.573 1125.33 461.532 1123.83Z"/><path fill="#EC4342" transform="scale(1.33333 1.33333)" d="M623.432 28.0406C626.229 30.9341 628.08 32.5928 631.127 35.167C610.402 56.6483 591.554 79.5792 571.023 101.011L568.044 98.3623C563.953 94.3478 559.816 90.828 555.473 87.0878C578.458 67.9037 600.558 47.1539 623.432 28.0406Z"/><path fill="#0B4CBB" transform="scale(1.33333 1.33333)" d="M252.992 390.346C254.821 397.666 243.6 412.432 238.182 417.497C218.047 436.322 186.629 436.376 167.523 416.22C163.883 412.317 161.491 408.544 158.801 403.998C190.005 419.592 228.072 415.662 252.992 390.346Z"/><path fill="#0B4CBB" transform="scale(1.33333 1.33333)" d="M493.145 1175.63L493.566 1176.3C487.986 1185.99 471.069 1202.71 465.112 1213.59C461.472 1220.24 465.633 1222 467.135 1226.31L466.171 1226.38C463.086 1224.37 458.932 1217.08 456.787 1213.71C450.249 1203.71 443.586 1193.79 436.801 1183.95C452.162 1182.78 477.175 1178.14 493.145 1175.63Z"/><path fill="#0B4CBB" transform="scale(1.33333 1.33333)" d="M219.759 331.151C227.556 334.68 230.9 336.37 237.728 341.473C224.135 359.806 208.72 367.197 185.858 363.391C179.139 361.599 175.614 359.9 169.992 356.101L186.168 343.193C200.1 349.877 214.172 346.373 219.759 331.151Z"/><path fill="#FBBC2A" transform="scale(1.33333 1.33333)" d="M253.714 371.275C255.296 373.997 254.72 381.33 254.637 384.698C237.189 407.816 201.102 415.696 174.216 407.828C168.546 406.169 158.953 402.804 156.05 397.54C155.201 394.097 154.479 390.353 153.736 386.863C162.644 392.626 169.739 396.726 180.193 399.012C209.492 405.419 236.187 395.285 253.714 371.275Z"/><path fill="#0B4CBB" transform="scale(1.33333 1.33333)" d="M441.581 1050.06L441.884 1050.22C441.369 1052.22 435.491 1060.87 434.015 1063.11C426.168 1075 418.229 1086.82 410.198 1098.58C405.5 1105.5 397.906 1116.02 394.669 1123.22L389.679 1116.03C386.686 1111.76 383.78 1107.44 380.964 1103.06C401.269 1085.84 420.937 1067.51 441.581 1050.06Z"/><path fill="#FEFEFE" transform="scale(1.33333 1.33333)" d="M306.802 653.404C317.643 653.514 341.198 656.107 352.404 657.38C357.044 663.004 362.183 666.409 368.371 670.042C370.74 671.434 373.207 672.153 374.265 674.551C371.106 676.2 327.325 675.282 320.783 675.245C317.323 666.884 313.024 659.94 306.802 653.404Z"/><path fill="#FBBC2A" transform="scale(1.33333 1.33333)" d="M239.178 343.277C242.205 345.881 243.482 347.616 245.917 350.701C226.198 377.043 196.644 384.383 167.038 369.742C164.838 368.597 162.154 366.527 160.086 365.03L167.88 357.876C168.231 358.127 168.585 358.373 168.943 358.612C192.934 374.627 223.336 366.932 239.178 343.277Z"/><path fill="#FBBC2A" transform="scale(1.33333 1.33333)" d="M637.124 2.76143C658.592 2.57453 662.043 28.4061 642.044 34.1366C628.668 34.1978 619.307 25.0844 625.482 10.7843C627.359 6.43875 632.605 3.9569 637.124 2.76143Z"/><path fill="#EC4342" transform="scale(1.33333 1.33333)" d="M176.753 670.728L191.076 670.84C191.615 690.892 188.84 704.531 174.699 719.705C172.227 722.206 170.897 724.127 167.517 724.177C165.016 721.624 166.204 710.756 166.237 706.278C176.137 695.321 176.728 684.558 176.753 670.728Z"/><path fill="#EC4342" transform="scale(1.33333 1.33333)" d="M292.464 720.436C295.825 722.008 311.956 733.543 315.879 736.278C308.043 741.476 300.239 746.722 292.468 752.017C284.636 746.653 277.248 741.578 269.209 736.509C277.079 731.324 284.833 725.966 292.464 720.436Z"/><path fill="#EC4342" transform="scale(1.33333 1.33333)" d="M293.007 776.253C295.331 776.929 312.196 789.297 315.169 791.399C309.09 796.589 299.634 802.747 292.901 807.375C285.178 802.192 277.497 796.947 269.858 791.641C277.079 787.46 285.665 780.986 293.007 776.253Z"/><path fill="#EC4342" transform="scale(1.33333 1.33333)" d="M292.75 826.07C294.948 826.781 312.333 839.141 315.27 841.196C307.852 846.549 300.833 851.642 293.134 856.597C288.408 854.384 273.801 844.784 270.497 841.508C277.851 836.902 285.622 831.132 292.75 826.07Z"/><path fill="#EC4342" transform="scale(1.33333 1.33333)" d="M141.296 392.174C141.749 392.98 144.128 400.47 144.882 402.332C150.114 415.24 155.904 423.167 166.837 431.646C165.531 434.719 162.851 441.785 160.45 443.556L158.915 443.082C144.874 433.649 136.858 421.7 130.759 406.202C136.367 401.104 138.14 398.936 141.296 392.174Z"/><path fill="#0B4CBB" transform="scale(1.33333 1.33333)" d="M145.233 784.95L145.753 785.073L145.869 785.787C137.205 792.515 137.026 797.625 136.943 808.407C136.888 815.58 137.073 822.746 137.284 829.924C139.158 833.632 142.939 836.408 143.41 839.039L142.245 839.416C139.009 838.92 136.845 837.577 133.973 836.067C111.317 819.487 118.028 792.268 145.233 784.95Z"/><path fill="#0B4CBB" transform="scale(1.33333 1.33333)" d="M139.941 781.455C134.471 779.367 130.964 777.291 127.181 772.704C122.282 766.764 120.043 759.073 120.987 751.433C122.259 740.43 132.128 726.885 144.152 728.595L144.305 729.359C134.646 739.529 136.815 748.669 136.55 761.633C136.426 767.739 137.14 774.187 141.11 779.018L141.542 779.537C147.25 781.742 144.933 782.982 139.941 781.455Z"/><path fill="#0B46B2" transform="scale(1.33333 1.33333)" d="M141.542 779.537C147.25 781.742 144.933 782.982 139.941 781.455C140.901 780.617 140.947 780.629 141.542 779.537Z"/><path fill="#0B4CBB" transform="scale(1.33333 1.33333)" d="M143.917 671.324L144.942 671.408L145.342 672.048C134.167 681.666 138.05 693.723 137.649 707.142C137.365 716.622 139.957 719.762 146.43 725.709C142.027 724.184 140.269 723.499 136.094 721.297C130.283 717.333 126.01 712.332 123.911 705.523C121.862 698.793 122.553 691.527 125.832 685.303C129.959 677.497 135.784 673.853 143.917 671.324Z"/><path fill="#0B4CBB" transform="scale(1.33333 1.33333)" d="M142.542 843.215L143.181 843.362L143.365 844.076C142.35 845.356 141.366 846.661 140.415 847.988C135.02 855.593 136.84 875.271 137.612 884.734C138.117 890.933 143.468 894.93 148.233 898.267C144.111 897.149 141.942 896.241 138.078 894.594C115.665 881.69 117.594 852.894 142.542 843.215Z"/><path fill="#0B4CBB" transform="scale(1.33333 1.33333)" d="M154.738 367.71C154.911 367.956 155.084 368.203 155.258 368.449C153.815 373.398 151.105 383.553 151.821 388.664C153.902 403.506 160.141 412.433 170.41 422.768C169.763 424.994 169.455 426.711 168.064 428.555C166.141 428.651 166.445 428.348 164.636 426.783C151.491 414.618 143.663 400.511 143.084 382.29C142.941 377.793 142.238 373.583 141.079 369.249C146.419 369.472 149.697 368.89 154.738 367.71Z"/><path fill="#0B4CBB" transform="scale(1.33333 1.33333)" d="M80.8286 330.952C83.6644 330.921 87.6622 331.757 90.5512 332.255C74.8801 341.52 60.675 355.346 60.9477 374.794L60.8506 375.574L60.1415 375.715C57.0615 372.115 55.0331 367.736 54.2787 363.059C51.3804 345.67 64.4446 333.31 80.8286 330.952Z"/><path fill="#FBBC2A" transform="scale(1.33333 1.33333)" d="M297.408 648.614C299.416 649.392 304.287 653.82 306.209 655.444C300.47 656.751 292.459 657.811 286.447 658.863L250.733 665.374C246.861 666.063 244.215 666.332 242.218 662.154C242.132 659.653 241.926 660.651 243.072 658.362C245.978 655.531 261.575 654.312 266.231 653.671C276.663 652.242 287.059 650.555 297.408 648.614Z"/><path fill="#FBBC2A" transform="scale(1.33333 1.33333)" d="M663.074 592.683C672.571 592.367 680.275 594.465 681.79 606.054C682.346 610.312 680.12 613.598 677.449 616.735C675.196 618.445 663.949 623.439 663.586 620.157C662.691 612.069 662.903 601.086 663.074 592.683Z"/><path fill="#FBBC2A" transform="scale(1.33333 1.33333)" d="M251.99 454.865C255.306 456.262 275.2 470.452 280.258 473.626C276.417 474.031 276.929 473.418 272.906 474.867C265.783 477.447 258.536 480.065 251.612 483.093C251.565 473.682 251.69 464.271 251.99 454.865Z"/><path fill="#0B4CBB" transform="scale(1.33333 1.33333)" d="M116.743 292.149C107.578 295.942 98.3417 310.182 94.2151 318.958C93.1487 321.226 93.275 327.568 92.026 330.924L91.1831 330.955C87.9204 327.456 86.9837 324.339 87.0236 319.499C87.0635 311.346 90.4223 303.561 96.3263 297.937C102.268 292.247 108.603 289.899 116.735 290.136L116.743 292.149Z"/><path fill="#0B4CBB" transform="scale(1.33333 1.33333)" d="M623.149 1169.23C625.355 1171.43 638.507 1192.28 640.34 1195.5C637.753 1195.23 634.397 1194.69 632.064 1194.49C626.899 1193.58 618.103 1192.58 612.864 1192.19C616.501 1184.25 619.942 1177.58 623.149 1169.23Z"/><path fill="#FBBC2A" transform="scale(1.33333 1.33333)" d="M662.998 653.628C674.396 653.951 681.695 658.1 679.153 671.959C679 672.794 677.97 673.285 677.259 673.581C672.375 675.033 667.816 675.997 662.876 677.621C662.873 669.773 662.83 661.453 662.998 653.628Z"/><path fill="#0B4CBB" transform="scale(1.33333 1.33333)" d="M54.6954 377.591C58.7969 378.128 56.1298 379.184 54.0357 380.449C44.5453 386.23 32.999 399.18 30.3458 410.122C30.0876 411.197 29.8463 412.276 29.6221 413.358C29.6095 414.885 29.8588 418.454 29.1504 419.421C28.5951 418.407 28.2309 417.833 27.8211 416.738C19.6705 397.318 35.1165 379.887 54.6954 377.591Z"/><path fill="#0B46B2" transform="scale(1.33333 1.33333)" d="M54.6954 377.591C58.7969 378.128 56.1298 379.184 54.0357 380.449L54.6954 377.591Z"/><path fill="#0B4CBB" transform="scale(1.33333 1.33333)" d="M593.473 1124.65C597.932 1129.58 605.696 1142.57 609.786 1148.74C607.783 1148.55 603.637 1147.96 601.952 1147.9C595.865 1147.01 589.759 1146.26 583.637 1145.65C587.074 1138.88 591.048 1131.74 593.473 1124.65Z"/><path fill="#0B4CBB" transform="scale(1.33333 1.33333)" d="M26.204 426.623C28.0582 426.523 32.1718 425.814 32.8047 428.303C32.5814 428.988 24.1075 433.583 22.4597 434.939C15.8163 440.406 9.9796 446.82 4.99786 453.759C4.70151 454.351 2.95051 458.659 2.97829 458.623C2.94232 458.617 2.90635 458.612 2.87038 458.606C2.4971 458.487 2.37469 458.003 2.29503 457.672C1.74284 455.377 2.1532 451.611 2.69426 449.541C3.59991 446.075 5.09439 442.588 6.89323 439.659C11.3349 432.427 18.1452 428.55 26.204 426.623Z"/><path fill="#0B4CBB" transform="scale(1.33333 1.33333)" d="M561.369 1075.9C564.141 1078.31 573.855 1094.22 576.355 1098.28C574.331 1098.03 570.793 1097.47 568.986 1097.33C563.184 1096.25 557.847 1095.57 552.046 1094.75C555.09 1088.92 558.83 1081.84 561.369 1075.9Z"/><path fill="#EC4342" transform="scale(1.33333 1.33333)" d="M155.322 516.022C158.137 514.891 161.342 515.37 163.703 517.273C166.064 519.176 167.211 522.207 166.702 525.196C166.193 528.185 164.108 530.665 161.251 531.681C156.955 533.208 152.226 531.018 150.612 526.755C148.998 522.492 151.092 517.721 155.322 516.022Z"/><path fill="#EC4342" transform="scale(1.33333 1.33333)" d="M116.922 533.135C121.336 532.076 125.787 534.74 126.938 539.131C128.088 543.521 125.516 548.025 121.149 549.266C118.243 550.092 115.117 549.283 112.978 547.15C110.839 545.017 110.02 541.894 110.839 538.986C111.657 536.078 113.984 533.84 116.922 533.135Z"/><path fill="#FBBC2A" transform="scale(1.33333 1.33333)" d="M291.93 675.309C305.283 674.018 307.9 683.691 298.924 690.32C285.561 692.787 283.727 680.962 291.93 675.309Z"/><path fill="#FBBC2A" transform="scale(1.33333 1.33333)" d="M277.535 687.148L279.645 687.027C289.621 686.522 288.335 691.631 288.471 699.31C286.399 700.697 284.884 701.631 282.73 702.869C270.915 703.409 269.465 692.496 275.932 688.198L277.535 687.148Z"/><path fill="#EC4342" transform="scale(1.33333 1.33333)" d="M139.981 526.318C150.925 528.083 150.824 539.686 139.366 543.399C139.076 543.301 138.786 543.204 138.496 543.106L137.804 542.89C127.471 539.588 130.016 529.926 139.981 526.318Z"/><path fill="#EC4342" transform="scale(1.33333 1.33333)" d="M112.174 433.261C124.187 438.804 122.849 449.56 110.706 453.63C102.211 452.311 101.859 450.206 106.985 445.569C109.275 443.497 111.328 436.451 112.174 433.261Z"/><path fill="#0B4CBB" transform="scale(1.33333 1.33333)" d="M480.592 1225.52C494.722 1222.95 508.925 1220.78 523.183 1219.04C521.755 1221.48 520.169 1224.82 517.854 1226.23C515.615 1226.8 514.899 1226.72 512.669 1226.64C509.53 1227 477.891 1227.31 477.164 1226.8L477.104 1226.42C477.821 1225.76 479.547 1225.7 480.592 1225.52Z"/><path fill="#18365F" transform="scale(1.33333 1.33333)" d="M512.669 1226.64C509.53 1227 477.891 1227.31 477.164 1226.8L477.104 1226.42C477.821 1225.76 479.547 1225.7 480.592 1225.52C483.552 1227.27 506.709 1226.21 512.669 1226.64Z"/><path fill="#0B4CBB" transform="scale(1.33333 1.33333)" d="M166.317 698.317L166.379 697.781C166.759 694.235 166.022 671.953 166.97 670.951C167.708 670.172 173.377 670.602 174.594 670.622C174.392 688.217 173.55 684.538 169.019 698.964C166.944 702.057 166.455 702.373 166.317 698.317Z"/><path fill="#FBBC2A" transform="scale(1.33333 1.33333)" d="M211.525 329.338C214.157 330.205 218.335 330.159 216.322 333.718C214.81 336.634 212.493 338.873 209.778 340.7C204.56 344.213 200.369 344.417 194.294 343.873C193.487 343.596 188.084 342.38 189.203 340.841C189.993 339.971 193.442 337.327 194.527 337.539C203.458 339.279 207.756 336.66 211.525 329.338Z"/><path fill="#EC4342" transform="scale(1.33333 1.33333)" d="M97.3642 535.557C111.995 534.771 108.242 550.075 102.736 549.936C98.6565 547.083 94.2912 544.259 90.4283 541.17C93.7974 537.728 93.2468 538.107 97.3642 535.557Z"/><path fill="#FBBC2A" transform="scale(1.33333 1.33333)" d="M220.151 652.613C222.158 651.954 224.364 652.432 225.917 653.862C227.47 655.293 228.127 657.452 227.634 659.506C227.14 661.559 225.574 663.184 223.54 663.753C220.491 664.605 217.319 662.867 216.398 659.839C215.477 656.811 217.144 653.602 220.151 652.613Z"/><path fill="#FBBC2A" transform="scale(1.33333 1.33333)" d="M237.066 628.982C240.193 628.387 243.215 630.424 243.836 633.545C244.457 636.666 242.445 639.705 239.329 640.352C236.175 641.008 233.091 638.967 232.462 635.808C231.834 632.649 233.901 629.584 237.066 628.982Z"/><path fill="#FBBC2A" transform="scale(1.33333 1.33333)" d="M224.708 638.992C226.424 637.814 228.648 637.667 230.504 638.61C232.36 639.553 233.553 641.434 233.614 643.515C233.674 645.596 232.593 647.544 230.794 648.593C228.151 650.135 224.761 649.31 223.122 646.725C221.484 644.141 222.184 640.723 224.708 638.992Z"/><path fill="#FBBC2A" transform="scale(1.33333 1.33333)" d="M248.59 623.22C255.283 623.857 262.321 626.228 255.693 633.296C247.274 634.939 243.706 630.413 248.59 623.22Z"/><path fill="#0B46B2" transform="scale(1.33333 1.33333)" d="M204.493 329.356C213.835 329.099 203.469 334.456 200.797 335.894C191.927 336.423 201.874 331.143 204.493 329.356Z"/><path fill="#0B4CBB" transform="scale(1.33333 1.33333)" d="M289.931 692.73C292.208 692.853 297.091 691.935 295.126 694.617C290.385 697.741 291.331 697.881 289.931 692.73Z"/><path fill="#0B46B2" transform="scale(1.33333 1.33333)" d="M247.282 411.589C247.702 410.896 248.267 409.569 249.042 409.246C249.851 409.366 249.181 412.821 249.109 413.378L247.282 411.589Z"/><path fill="#C13829" transform="scale(1.33333 1.33333)" d="M471.759 1023.84C474.195 1021.57 477.575 1020.05 473.86 1024.14C473.125 1024.02 472.506 1023.91 471.759 1023.84Z"/><path fill="#ECB42E" transform="scale(1.33333 1.33333)" d="M576.406 686.046C577.087 686.138 579.397 686.282 579.806 686.681C579.929 687.25 577.414 688.242 576.946 688.456L576.406 686.046Z"/><path fill="#0B46B2" transform="scale(1.33333 1.33333)" d="M116.735 290.136C117.203 290.145 117.671 290.138 118.138 290.146C118.462 290.151 119.017 290.182 119.24 290.472C119.271 290.513 119.284 290.593 119.273 290.639C119.108 291.313 117.284 291.902 116.743 292.149L116.735 290.136Z"/></svg>