<?xml version="1.0" standalone="no"?>
<!DOCTYPE svg PUBLIC "-//W3C//DTD SVG 20010904//EN"
 "http://www.w3.org/TR/2001/REC-SVG-20010904/DTD/svg10.dtd">
<svg version="1.0" xmlns="http://www.w3.org/2000/svg"
 width="1024.000000pt" height="1024.000000pt" viewBox="0 0 1024.000000 1024.000000"
 preserveAspectRatio="xMidYMid meet">

<g transform="translate(0.000000,1024.000000) scale(0.100000,-0.100000)"
fill="#000000" stroke="none">
<path d="M4820 9359 c-446 -26 -894 -125 -1290 -286 -866 -350 -1461 -1019
-1670 -1877 -61 -246 -74 -372 -75 -686 0 -303 9 -393 60 -620 51 -228 95
-344 246 -645 122 -243 137 -295 120 -391 -15 -82 -48 -145 -136 -264 -87
-119 -106 -152 -129 -229 -29 -100 -15 -213 40 -307 55 -96 276 -360 353 -422
51 -41 111 -70 171 -83 82 -18 154 1 330 85 218 104 242 111 380 111 101 -1
123 -4 176 -26 69 -30 179 -97 171 -106 -3 -2 -37 2 -76 11 -189 43 -337 1
-392 -112 -21 -41 -23 -61 -23 -157 1 -65 10 -158 23 -228 44 -245 19 -451
-94 -788 -48 -140 -60 -222 -45 -296 29 -138 111 -231 316 -357 425 -261 519
-340 890 -742 111 -120 174 -162 275 -184 60 -13 108 -12 462 11 162 11 234
11 405 0 351 -23 422 -24 481 -11 99 22 149 55 256 168 382 403 517 519 832
710 257 156 338 229 384 351 34 90 24 189 -39 384 -101 310 -122 515 -82 788
37 256 20 363 -70 428 -21 15 -60 34 -85 41 -57 16 -213 8 -272 -14 -51 -18
-55 -6 -10 27 100 76 216 111 346 105 116 -6 170 -23 367 -118 79 -39 165 -75
191 -81 109 -24 217 15 325 118 139 134 304 344 348 444 20 44 24 70 24 144 0
112 -25 172 -131 319 -41 56 -88 130 -106 166 -30 61 -32 71 -32 171 l0 107
121 238 c211 418 288 714 300 1164 18 636 -148 1201 -494 1684 -472 657 -1265
1096 -2202 1220 -275 37 -669 51 -940 35z m-1955 -2947 c191 -99 464 -366 895
-871 30 -36 47 -62 38 -58 -31 11 -250 162 -349 239 -53 41 -165 135 -250 207
-270 233 -478 380 -611 434 -34 14 -54 28 -50 34 4 6 30 23 57 38 44 24 58 26
120 23 59 -4 84 -12 150 -46z m4770 29 c50 -22 77 -52 55 -59 -54 -18 -221
-112 -303 -170 -53 -37 -192 -149 -308 -248 -117 -98 -259 -216 -318 -262
-105 -82 -304 -222 -316 -222 -19 0 434 508 586 655 285 278 466 369 604 306z
m-4705 -718 c41 -31 138 -109 215 -173 505 -420 917 -659 1293 -750 50 -12 92
-26 92 -31 0 -19 -180 -142 -275 -189 -213 -103 -450 -141 -675 -107 -443 67
-716 336 -806 796 -29 148 -10 405 37 494 16 28 40 20 119 -40z m4519 -7 c80
-259 28 -600 -129 -839 -193 -294 -553 -450 -941 -408 -242 26 -455 114 -628
260 l-54 45 81 17 c383 83 821 335 1352 779 173 145 260 210 281 210 14 0 23
-15 38 -64z m-2248 -1319 c75 -93 167 -277 219 -437 51 -157 51 -236 -1 -291
-27 -29 -34 -31 -74 -26 -63 7 -117 46 -177 128 l-52 71 -19 -37 c-41 -81
-152 -165 -217 -165 -64 0 -108 85 -95 184 17 127 117 372 210 512 97 145 130
155 206 61z m-1541 -1123 c67 -72 101 -162 131 -344 l12 -75 14 50 c33 124 46
157 76 197 61 80 145 74 204 -14 45 -67 70 -135 97 -264 14 -66 25 -116 25
-113 1 4 8 42 17 85 61 294 232 356 339 122 26 -57 75 -238 75 -277 0 -43 11
-16 29 75 26 122 55 195 99 244 31 35 45 43 83 47 31 4 56 0 78 -11 63 -33
133 -179 162 -338 7 -38 15 -68 19 -68 4 0 12 29 18 64 30 160 93 297 157 336
112 69 215 -31 267 -261 l22 -99 17 85 c39 190 91 293 169 333 51 26 79 23
127 -14 40 -31 99 -150 114 -230 18 -95 20 -94 39 12 31 181 72 276 139 321
44 30 82 29 120 -3 35 -29 96 -149 107 -209 12 -70 20 -68 33 7 39 231 119
388 196 388 28 0 41 -32 50 -131 7 -69 -9 -298 -26 -360 -26 -100 -224 -200
-578 -290 -534 -137 -1129 -159 -1681 -62 -219 38 -548 137 -693 209 -167 82
-172 92 -172 374 0 232 5 260 49 260 15 0 39 -16 66 -46z m2995 -716 c-15
-145 -56 -252 -128 -334 -46 -52 -95 -82 -102 -62 -5 17 -27 349 -23 353 2 1
46 21 98 44 52 23 106 48 120 56 14 8 29 14 34 15 4 0 5 -33 1 -72z m-2985 32
c33 -17 84 -39 114 -51 l54 -20 -4 -52 c-2 -29 -8 -107 -14 -175 -5 -67 -12
-127 -15 -132 -10 -16 -59 15 -100 62 -70 80 -125 238 -125 359 0 48 10 49 90
9z m311 -119 c30 -10 89 -26 133 -37 46 -11 81 -24 84 -33 15 -38 -25 -441
-44 -441 -3 0 -21 9 -42 19 -82 42 -148 140 -177 262 -19 83 -31 249 -18 249
5 0 34 -8 64 -19z m2341 2 c2 -10 0 -54 -4 -97 -19 -201 -91 -346 -194 -396
-39 -19 -48 -21 -59 -9 -14 14 -32 199 -36 363 l-2 78 109 29 c60 16 123 33
139 38 42 13 43 13 47 -6z m-362 -80 c0 -5 -7 -57 -15 -117 -23 -177 -54 -262
-122 -337 -43 -48 -81 -69 -122 -69 -24 0 -31 5 -40 33 -12 39 -28 175 -37
323 l-6 112 73 12 c41 7 115 20 164 30 50 10 93 18 98 19 4 0 7 -2 7 -6z
m-1507 -30 c167 -27 167 -27 167 -53 0 -64 -32 -352 -43 -391 -15 -53 -37 -60
-94 -30 -85 43 -160 163 -187 297 -19 94 -29 204 -19 204 4 0 83 -12 176 -27z
m516 -49 l114 -7 -7 -128 c-11 -225 -42 -331 -106 -364 -84 -43 -173 15 -224
145 -21 53 -42 171 -51 289 l-7 84 83 -6 c46 -4 135 -10 198 -13z m576 -56
c-10 -120 -33 -243 -56 -304 -39 -102 -130 -170 -201 -149 -81 25 -109 113
-124 383 l-7 122 24 0 c60 0 284 13 288 16 2 2 22 4 44 4 l39 0 -7 -72z"/>
</g>
</svg>
