<?xml version="1.0" encoding="utf-8" ?><svg xmlns="http://www.w3.org/2000/svg" xmlns:xlink="http://www.w3.org/1999/xlink" width="1024" height="1792" viewBox="0 0 1024 1792"><path fill="#F6F6F0" transform="scale(1.33333 1.33333)" d="M0 0L768 0L768 1344L0 1344L0 0Z"/><path fill="#0B0B0B" transform="scale(1.33333 1.33333)" d="M177.323 295.264C177.875 273.163 184.061 255.323 200.446 239.682C211.436 229.237 224.945 221.817 239.656 218.145C255.647 214.162 278.127 215.76 294.73 215.466C323.867 214.95 353.397 215.151 382.53 215.335C404.981 215.477 425.961 222.814 441.619 239.367C456.864 255.485 461.716 273.491 461.332 295.29C449.907 295.289 438.304 295.176 426.895 295.299C432.482 321.295 427.965 340.759 409.031 359.942C411.076 365.954 413.317 372.216 414.988 378.315C429.511 377.791 428.395 387.119 434.394 397.363C470.609 365.9 519.907 351.022 567.45 354.739C587.499 356.307 605.526 362.871 618.894 378.502C627.786 388.699 633.331 401.381 634.777 414.832L614.366 414.628L614.628 424.6C629.116 432.67 644.598 445.871 658.668 455.224C671.738 463.913 684.749 473.64 697.419 482.906C750.174 524.88 728.514 600.171 666.328 617.646C649.668 622.328 627.568 620.197 610.076 620.163L544.544 620.12C538.928 629.413 533.662 635.012 522.938 638.368C520.613 639.095 517.546 639.937 515.705 641.462L516.143 642.739C519.381 643.217 527.566 641.637 531.631 641.819C547.473 642.526 563.289 650.23 572.674 662.922C580.211 673.175 583.283 686.038 581.194 698.589C579.051 712.092 571.819 722.31 560.909 730.087C559.303 731.218 557.671 732.311 556.014 733.366L555.913 812.209C555.898 826.471 555.146 846.572 557.061 860.01C562.331 861.967 575.158 867.332 578.595 871.677C596.634 883.393 616.904 923.792 628.1 942.804L685.26 1039.3L685.568 1040.69C684.788 1041.72 684.622 1041.76 684.467 1043.07C699.232 1048.63 701.592 1054.91 707.228 1068.08C716.165 1088.96 720.203 1108.53 722.073 1131.09C691.811 1132.16 656.388 1131.18 625.72 1131.18L441.082 1131.29C447.678 1088.91 473.521 1064.45 512.173 1048.75C507.11 1037.43 498.741 1022.11 493 1010.88L456.074 938.583C426.515 880.531 428.169 888.917 439.169 824.424L451.222 752.688C441.612 753.037 421.814 753.853 413.077 751.92C403.382 762.823 391.699 778.217 382.295 789.876C365.031 810.949 347.879 832.114 330.841 853.37C331.931 860.179 329.098 862.176 332.951 867.611C345.689 886.211 352.168 954.634 359.182 979.563C361.106 986.402 370.774 1039.02 370.373 1041.19C369.228 1042.36 369.132 1042.35 367.524 1042.84L366.785 1043.29C381.629 1051.3 383.481 1057.88 388.247 1073.67C389.821 1078.88 392.087 1087.53 392.43 1092.96C394.547 1103.09 395.231 1120.67 395.849 1131.16L111.125 1131.22C112.578 1120.09 115.92 1109.29 121.008 1099.29C132.332 1077.43 156.429 1057.15 179.76 1049.68C189.488 1044.87 205.636 1042.86 216.391 1041.29C216.15 997.141 211.819 950.687 211.018 906.358C210.794 893.99 208.593 877.799 208.877 866.307C209.083 855.302 212.261 844.557 218.075 835.21C224.159 825.426 234.331 815.145 242.333 806.658L267.62 779.587C286.964 758.536 306.485 737.647 326.18 716.923C332.912 709.927 339.396 702.536 346.44 695.878C348.969 671.568 360.629 654.822 384.21 646.549C388.125 645.176 393.953 645.377 397.769 644.002C403.167 642.057 406.961 639.371 412.757 638.084L412.756 624.886C404.232 624.775 393.045 624.32 384.949 621.405C361.114 612.822 332.813 616.736 327.613 586.081L320.128 582.712C314.272 590.968 305.341 606.83 299.946 615.925L269.591 666.554C262.992 677.617 254.101 694.639 244.942 703.156C215.153 730.855 167.063 730.114 137.825 701.737C132.953 696.983 128.709 691.627 125.194 685.798C120.538 677.919 114.182 663.966 110.004 655.489L83.4798 602.033L58.5267 551.786C50.0709 534.729 39.9666 518.315 40.701 498.46C41.2009 484.944 38.9597 467.266 42.4666 453.961C43.4224 450.335 47.5916 445.908 50.2696 443.159C50.3001 438.418 51.5066 431.293 54.648 427.61C59.8449 418.747 66.1365 415.783 75.3497 412.563C87.2399 389.246 128.468 380.003 151.308 391.368C167.966 399.657 172.89 421.852 179.103 438.358C185.863 438.204 191.366 437.847 196.993 442.287C215.738 453.177 206.752 485.062 197.186 499.357C190.048 510.024 179.867 524.445 168.958 531.375C181.056 555.345 194.515 578.791 207.083 602.538C213.663 587.597 224.82 566.902 233.166 552.869C213.447 512.648 230.38 468.307 270.055 448.735C285.011 441.357 298.261 440.197 314.607 441.117C320.207 438.124 323.774 436.438 330.032 434.752C328.492 427.75 329.036 426.397 333.537 420.902C330.815 417.885 329.973 416.917 327.949 413.44C282.282 435.301 232.931 420.498 210.986 374.165C197.634 345.975 204.249 324.12 202.428 295.438L177.323 295.264Z"/><path fill="#014C8D" transform="scale(1.33333 1.33333)" d="M91.3234 431.372C97.9413 429.664 100.776 431.28 106.452 434.192C118.82 444.216 117.313 452.513 124.072 465.491C136.245 488.863 109.991 509.116 89.756 495.359C86.5354 493.17 83.6094 486.095 81.4453 485.163C80.2319 486.399 79.7658 486.901 79.9401 488.9C81.5214 507.028 94.6443 517.649 112.569 516.771C123.831 516.112 134.351 510.937 141.745 502.419C146.608 496.929 148.461 492.864 150.745 486.178C157.995 486.359 184.321 484.866 188.811 479.502L188.53 478.569C182.461 478.861 176.198 481.422 170.258 482.187C160.52 483.44 151.431 486.291 143.37 479.302C128.627 466.521 136.034 442.568 156.661 443.54C167.933 443.877 187.617 437.356 197.86 445.971C217.475 468.158 194.182 502.993 177.969 519.916C171.805 526.403 165.641 530.923 158.564 536.119C156.161 537.882 152.402 539.982 150.548 541.634L150.744 542.894C154.81 543.141 163.062 536.288 166.475 533.557C171.56 541.242 177.631 554.009 182.283 562.553C191.515 579.504 201.58 596.85 209.994 614.159C216.386 627.311 227.633 645.122 233.258 658.227C224.145 655.873 216.27 654.833 207.579 659.908C201.339 663.562 196.796 669.533 194.94 676.52C190.984 691.822 200.567 705.941 215.663 709.262C221.976 710.651 226.364 709.967 232.549 708.972C219.574 716.766 209.644 720.396 194.472 720.806C168.113 721.518 142.354 708.484 128.716 685.734C123.897 677.695 120.434 668.283 115.524 660.265C136.027 660.328 158.122 660.776 178.498 660.204C171.963 648.199 165.745 635.145 159.721 622.867C155.925 613.33 146.69 596.111 141.726 586.897C136.905 576.955 130.673 563.846 125.162 554.516C107.221 556.925 85.1778 552.568 67.6679 548.519L59.0613 546.511C55.1738 538.459 50.4367 530.576 47.3442 522.182C42.9569 510.275 40.9483 463.935 46.1913 452.846C47.3646 450.364 48.8939 448.482 51.1473 446.91C59.3794 441.167 80.75 435.301 91.3234 431.372Z"/><path fill="#0B0B0B" transform="scale(1.33333 1.33333)" d="M162.424 673.497C167.614 673.125 172.202 676.842 172.913 681.994C173.623 687.147 170.213 691.967 165.117 693.013C161.51 693.754 157.791 692.426 155.469 689.57C153.146 686.713 152.607 682.802 154.069 679.423C155.531 676.045 158.752 673.76 162.424 673.497Z"/><path fill="#0B0B0B" transform="scale(1.33333 1.33333)" d="M194.685 609.859C198.145 609.028 201.784 610.137 204.192 612.755C206.601 615.374 207.401 619.092 206.282 622.469C205.164 625.846 202.304 628.353 198.808 629.018C193.579 630.012 188.511 626.653 187.391 621.451C186.272 616.248 189.509 611.103 194.685 609.859Z"/><path fill="#000002" transform="scale(1.33333 1.33333)" d="M85.2697 467.214C87.5775 467.854 89.9143 474.934 90.8987 477.018C91.7133 478.742 95.2364 487.019 94.8746 488.009C93.5201 491.714 87.6895 476.457 87.3836 475.671C86.4738 473.726 85.6812 472.104 84.6306 470.218C82.4354 471.249 68.9973 478.073 67.9932 474.82C68.699 473.522 82.9002 468.204 85.2697 467.214Z"/><path fill="#014C8D" transform="scale(1.33333 1.33333)" d="M272.191 856.462C273.428 857.829 273.587 858.011 273.777 859.831C273.764 860.745 273.767 861.658 273.786 862.571L275.804 864.457C283.431 884.36 304.983 892.163 322.565 877.875C324.72 876.123 328.077 867.723 329.462 867.545L332.951 867.611C345.689 886.211 352.168 954.634 359.182 979.563C361.106 986.402 370.774 1039.02 370.373 1041.19C369.228 1042.36 369.132 1042.35 367.524 1042.84L367.183 1039.89C355.319 1040.46 341.534 1040.01 329.533 1040.22C322.118 1040.34 307.737 1040.66 300.739 1039.93C299.474 1038.73 299.511 1037.15 299.057 1035.15C298.574 1037.23 298.847 1037.5 297.503 1038.94C296.701 1036.94 294.968 1028.01 294.427 1025.39C291.522 1011.9 289.131 998.291 287.261 984.61C264.805 983.686 239.872 985.483 217.578 984.201C219.617 982.744 277.727 984.321 284.048 983.666C288.178 983.238 287.244 984.121 288.607 985.515C289.092 983.799 288.267 979.94 287.964 977.985C287.534 979.115 287.361 981.162 287.199 982.424L286.72 982.095L286.725 981.168C284.182 969.463 283.04 956.178 280.479 944.4L278.271 943.601C278.835 942.944 278.909 941.998 278.454 941.262C277.998 940.526 277.119 940.169 276.279 940.381L275.824 939.28C277.09 939.041 278.211 938.854 279.455 938.502C280.702 938.038 280.177 938.419 280.961 937.18C280.984 935.372 281.299 935.253 280.481 934.049L280.289 936.485C279.155 937.55 258.494 937.121 255.094 937.16L255.459 936.736L260.892 936.358C250.362 935.403 231.221 936.023 219.807 935.901L219.181 934.443C218.479 934.94 217.521 934.861 216.911 934.256C216.3 933.65 216.213 932.693 216.704 931.987C215.772 931.76 215.605 931.714 214.718 931.27C214.644 920.634 214.05 909.71 213.875 898.977L213.406 899.212L212.969 902.248C212.456 900.977 212.674 893.374 212.677 891.45C215.472 891.442 218.096 891.25 220.883 891.063C223.921 890.693 234.099 890.925 237.559 890.924C248.954 890.894 260.35 890.932 271.745 891.039C269.439 876.588 268.707 870.642 272.191 856.462Z"/><path fill="#FC6830" transform="scale(1.33333 1.33333)" d="M265.674 893.459C267.414 893.45 270.37 893.169 271.696 894.015C274.928 905.948 276.631 923.516 279.34 936.252C275.906 936.238 263.618 935.96 260.892 936.358C250.362 935.403 231.221 936.023 219.807 935.901L219.181 934.443C218.479 934.94 217.521 934.861 216.911 934.256C216.3 933.65 216.213 932.693 216.704 931.987C215.772 931.76 215.605 931.714 214.718 931.27C214.644 920.634 214.05 909.71 213.875 898.977L215.979 898.357C216.683 898.909 217.69 898.847 218.321 898.212C218.952 897.578 219.008 896.572 218.451 895.871L218.666 894.63C225.911 893.722 262.617 895.513 265.674 893.459Z"/><path fill="#000002" transform="scale(1.33333 1.33333)" d="M216.704 931.987C217.108 931.408 217.817 931.124 218.509 931.264C219.201 931.404 219.744 931.942 219.89 932.633C220.036 933.324 219.757 934.035 219.181 934.443C218.479 934.94 217.521 934.861 216.911 934.256C216.3 933.65 216.213 932.693 216.704 931.987Z"/><path fill="#000002" transform="scale(1.33333 1.33333)" d="M267.892 895.552C268.443 895.218 269.131 895.211 269.689 895.533C270.246 895.855 270.584 896.455 270.57 897.098C270.557 897.742 270.193 898.327 269.623 898.624C268.778 899.065 267.737 898.756 267.269 897.926C266.802 897.096 267.078 896.046 267.892 895.552Z"/><path fill="#1F0302" transform="scale(1.33333 1.33333)" d="M274.335 932.142C275.115 931.964 275.902 932.404 276.159 933.161C276.415 933.918 276.058 934.746 275.331 935.078C274.79 935.326 274.155 935.243 273.695 934.866C273.235 934.49 273.029 933.884 273.166 933.305C273.302 932.726 273.755 932.275 274.335 932.142Z"/><path fill="#000002" transform="scale(1.33333 1.33333)" d="M272.191 856.462C273.428 857.829 273.587 858.011 273.777 859.831C273.764 860.745 273.767 861.658 273.786 862.571C270.858 886.126 279.202 919.667 283.287 944.071C286.664 965.362 290.304 986.611 294.206 1007.81C295.716 1016.31 297.237 1026.94 299.057 1035.15C298.574 1037.23 298.847 1037.5 297.503 1038.94C296.701 1036.94 294.968 1028.01 294.427 1025.39C291.522 1011.9 289.131 998.291 287.261 984.61C264.805 983.686 239.872 985.483 217.578 984.201C219.617 982.744 277.727 984.321 284.048 983.666C288.178 983.238 287.244 984.121 288.607 985.515C289.092 983.799 288.267 979.94 287.964 977.985C287.534 979.115 287.361 981.162 287.199 982.424L286.72 982.095L286.725 981.168C284.182 969.463 283.04 956.178 280.479 944.4L278.271 943.601C278.835 942.944 278.909 941.998 278.454 941.262C277.998 940.526 277.119 940.169 276.279 940.381L275.824 939.28C277.09 939.041 278.211 938.854 279.455 938.502C280.702 938.038 280.177 938.419 280.961 937.18C280.984 935.372 281.299 935.253 280.481 934.049L280.289 936.485C279.155 937.55 258.494 937.121 255.094 937.16L255.459 936.736L260.892 936.358C263.618 935.96 275.906 936.238 279.34 936.252C276.631 923.516 274.928 905.948 271.696 894.015C270.37 893.169 267.414 893.45 265.674 893.459C262.617 895.513 225.911 893.722 218.666 894.63L218.451 895.871C219.008 896.572 218.952 897.578 218.321 898.212C217.69 898.847 216.683 898.909 215.979 898.357L213.875 898.977L213.406 899.212L212.969 902.248C212.456 900.977 212.674 893.374 212.677 891.45C215.472 891.442 218.096 891.25 220.883 891.063C223.921 890.693 234.099 890.925 237.559 890.924C248.954 890.894 260.35 890.932 271.745 891.039C269.439 876.588 268.707 870.642 272.191 856.462Z"/><path fill="#EE6033" transform="scale(1.33333 1.33333)" d="M213.406 899.212C213.362 897.021 213.148 895.635 213.968 893.603C216.566 893.046 227.235 893.357 230.498 893.369L265.674 893.459C262.617 895.513 225.911 893.722 218.666 894.63L218.451 895.871C219.008 896.572 218.952 897.578 218.321 898.212C217.69 898.847 216.683 898.909 215.979 898.357L213.875 898.977L213.406 899.212Z"/><path fill="#000002" transform="scale(1.33333 1.33333)" d="M215.979 898.357C215.444 897.937 215.197 897.247 215.346 896.584C215.494 895.92 216.01 895.4 216.673 895.248C217.337 895.096 218.028 895.338 218.451 895.871C219.008 896.572 218.952 897.578 218.321 898.212C217.69 898.847 216.683 898.909 215.979 898.357Z"/><path fill="#EE6033" transform="scale(1.33333 1.33333)" d="M275.824 939.28C277.09 939.041 278.211 938.854 279.455 938.502C280.122 941.047 280.24 941.8 280.479 944.4L278.271 943.601C278.835 942.944 278.909 941.998 278.454 941.262C277.998 940.526 277.119 940.169 276.279 940.381L275.824 939.28Z"/><path fill="#000002" transform="scale(1.33333 1.33333)" d="M329.462 867.545L332.951 867.611C345.689 886.211 352.168 954.634 359.182 979.563C361.106 986.402 370.774 1039.02 370.373 1041.19C369.228 1042.36 369.132 1042.35 367.524 1042.84L367.183 1039.89C367.785 1036.62 365.282 1025.97 364.491 1021.85L357.851 987.084C354.26 968.358 350.447 948.45 346.639 929.875C343.906 916.548 338.952 875.851 329.462 867.545Z"/><path fill="#0B0B0B" transform="scale(1.33333 1.33333)" d="M330.172 998.473C333.518 997.296 337.239 998.014 339.907 1000.35C342.575 1002.69 343.775 1006.28 343.047 1009.75C342.319 1013.22 339.776 1016.03 336.394 1017.1C331.279 1018.72 325.813 1015.93 324.114 1010.85C322.415 1005.76 325.112 1000.25 330.172 998.473Z"/><path fill="#0B0B0B" transform="scale(1.33333 1.33333)" d="M316.988 892.028C320.447 891.24 324.06 892.399 326.414 895.052C328.768 897.705 329.488 901.43 328.293 904.769C327.098 908.108 324.177 910.53 320.674 911.087C315.5 911.911 310.605 908.483 309.61 903.34C308.615 898.197 311.88 893.193 316.988 892.028Z"/><path fill="#0B0B0B" transform="scale(1.33333 1.33333)" d="M362.563 1034.08C363.736 1033.98 364.786 1034.8 364.977 1035.96C365.169 1037.12 364.439 1038.24 363.298 1038.52C362.472 1038.73 361.6 1038.45 361.042 1037.81C360.484 1037.17 360.335 1036.27 360.657 1035.48C360.978 1034.69 361.715 1034.15 362.563 1034.08Z"/><path fill="#000002" transform="scale(1.33333 1.33333)" d="M302.561 1035.22C303.014 1034.76 303.678 1034.59 304.298 1034.76C304.919 1034.93 305.4 1035.42 305.558 1036.04C305.716 1036.66 305.527 1037.32 305.062 1037.77C304.356 1038.44 303.238 1038.43 302.553 1037.73C301.869 1037.03 301.872 1035.91 302.561 1035.22Z"/><path fill="#014C8D" transform="scale(1.33333 1.33333)" d="M556.824 862.68C568.966 867.565 573.879 871.05 584.028 879.273C582.689 874.147 579.403 875.608 578.595 871.677C596.634 883.393 616.904 923.792 628.1 942.804L685.26 1039.3C682.905 1041.26 678.028 1041.86 675.65 1040.3C655.382 1039.69 634.896 1040.5 614.608 1040.26C610.106 1040.2 605.684 1040.41 601.188 1039.96L547.714 951.204C535.32 930.89 514.192 899.35 506.477 878.356C508.799 878.794 512.093 882.769 514.366 884.212C522.535 889.399 534.234 889.416 542.658 884.794C549.034 881.272 553.717 875.323 555.642 868.299C556.107 866.589 556.503 864.426 556.824 862.68Z"/><path fill="#000002" transform="scale(1.33333 1.33333)" d="M578.595 871.677C596.634 883.393 616.904 923.792 628.1 942.804L685.26 1039.3C682.905 1041.26 678.028 1041.86 675.65 1040.3L683 1040.21C676.06 1029.68 670.737 1019.86 664.287 1009.12L618.224 931.244C608.022 914.043 597.527 893.54 584.028 879.273C582.689 874.147 579.403 875.608 578.595 871.677Z"/><path fill="#0B0B0B" transform="scale(1.33333 1.33333)" d="M564.596 890.958C569.77 889.216 575.372 892.018 577.081 897.201C578.789 902.385 575.95 907.968 570.755 909.642C565.607 911.301 560.085 908.494 558.392 903.358C556.699 898.223 559.47 892.684 564.596 890.958Z"/><path fill="#0B0B0B" transform="scale(1.33333 1.33333)" d="M624.144 998.52C627.481 997.342 631.194 998.048 633.866 1000.37C636.537 1002.69 637.754 1006.27 637.051 1009.74C636.349 1013.2 633.835 1016.03 630.471 1017.13C625.354 1018.8 619.845 1016.04 618.112 1010.95C616.379 1005.85 619.068 1000.31 624.144 998.52Z"/><path fill="#000002" transform="scale(1.33333 1.33333)" d="M673.638 1035.05C674.169 1034.56 674.941 1034.43 675.604 1034.72C676.266 1035.01 676.694 1035.66 676.694 1036.38C676.694 1037.11 676.266 1037.76 675.603 1038.05C674.788 1038.41 673.835 1038.13 673.348 1037.38C672.861 1036.64 672.984 1035.65 673.638 1035.05Z"/><path fill="#000002" transform="scale(1.33333 1.33333)" d="M604.069 1035.13C604.771 1034.51 605.84 1034.58 606.46 1035.28C607.081 1035.97 607.02 1037.04 606.323 1037.67C605.623 1038.29 604.547 1038.23 603.923 1037.53C603.299 1036.83 603.364 1035.75 604.069 1035.13Z"/><path fill="#FC6830" transform="scale(1.33333 1.33333)" d="M503.741 877.266L504.794 876.432C505.928 877.212 505.889 877.121 506.477 878.356C514.192 899.35 535.32 930.89 547.714 951.204L601.188 1039.96L598.093 1039.94C596.463 1037.38 595.347 1035.45 593.513 1032.94C583.622 1016.94 573.862 1000.85 564.232 984.692C539.729 987.948 513.111 994.355 489.663 997.163C488.887 996.552 488.945 996.318 488.606 995.352C486.319 992.273 469.452 959.266 468.965 956.933C468.494 955.871 468.131 955.556 467.414 954.643C460.518 941.036 453.698 927.389 446.957 913.704L446.516 913.785L446.542 912.73C450.712 910.391 450.489 912.232 454.111 911.166L448.515 910.393C471.412 906.989 490.33 904.021 513.086 899.224C508.22 890.418 506.58 886.871 503.741 877.266Z"/><path fill="#FC6830" transform="scale(1.33333 1.33333)" d="M446.957 913.704C449.425 912.843 469.985 909.68 473.758 909.158C486.931 907.337 501.57 903.815 514.47 902.125C522.053 914.36 531.527 929.329 538.499 941.944C515.63 945.224 490.697 950.68 467.414 954.643C460.518 941.036 453.698 927.389 446.957 913.704Z"/><path fill="#000002" transform="scale(1.33333 1.33333)" d="M468.636 948.618C469.182 948.15 469.958 948.06 470.597 948.391C471.236 948.722 471.611 949.407 471.544 950.124C471.477 950.84 470.982 951.444 470.293 951.651C469.493 951.892 468.635 951.539 468.234 950.806C467.834 950.074 468.001 949.161 468.636 948.618Z"/><path fill="#000002" transform="scale(1.33333 1.33333)" d="M451.427 915.764C451.915 915.36 452.584 915.25 453.176 915.475C453.769 915.701 454.195 916.228 454.29 916.855C454.386 917.482 454.137 918.112 453.639 918.504C452.882 919.1 451.785 918.977 451.18 918.227C450.574 917.477 450.684 916.379 451.427 915.764Z"/><path fill="#000002" transform="scale(1.33333 1.33333)" d="M509.792 905.224C510.563 904.634 511.666 904.782 512.254 905.555C512.841 906.327 512.689 907.43 511.914 908.014C511.143 908.596 510.047 908.444 509.463 907.676C508.879 906.908 509.026 905.811 509.792 905.224Z"/><path fill="#000002" transform="scale(1.33333 1.33333)" d="M503.741 877.266L504.794 876.432C505.928 877.212 505.889 877.121 506.477 878.356C514.192 899.35 535.32 930.89 547.714 951.204L601.188 1039.96L598.093 1039.94C596.463 1037.38 595.347 1035.45 593.513 1032.94C583.622 1016.94 573.862 1000.85 564.232 984.692C539.729 987.948 513.111 994.355 489.663 997.163C488.887 996.552 488.945 996.318 488.606 995.352C512.78 990.358 538.267 986.24 562.626 982.005C555.783 969.803 547.543 956.692 540.193 944.691C531.168 945.551 519.302 948.069 510.158 949.749C496.446 952.25 482.715 954.645 468.965 956.933C468.494 955.871 468.131 955.556 467.414 954.643C490.697 950.68 515.63 945.224 538.499 941.944C531.527 929.329 522.053 914.36 514.47 902.125C501.57 903.815 486.931 907.337 473.758 909.158C469.985 909.68 449.425 912.843 446.957 913.704L446.516 913.785L446.542 912.73C450.712 910.391 450.489 912.232 454.111 911.166L448.515 910.393C471.412 906.989 490.33 904.021 513.086 899.224C508.22 890.418 506.58 886.871 503.741 877.266Z"/><path fill="#000002" transform="scale(1.33333 1.33333)" d="M536.665 948.606C537.265 948.177 538.052 948.11 538.716 948.432C539.381 948.753 539.817 949.411 539.853 950.148C539.89 950.885 539.521 951.583 538.892 951.968C537.965 952.536 536.755 952.268 536.155 951.362C535.555 950.456 535.78 949.237 536.665 948.606Z"/><path fill="#000002" transform="scale(1.33333 1.33333)" d="M474.573 958.026C475.504 957.935 476.363 958.535 476.598 959.441C476.833 960.347 476.375 961.289 475.516 961.662C474.828 961.961 474.027 961.828 473.474 961.321C472.92 960.814 472.716 960.029 472.953 959.317C473.191 958.605 473.825 958.099 474.573 958.026Z"/><path fill="#FC6830" transform="scale(1.33333 1.33333)" d="M489.663 997.163C513.111 994.355 539.729 987.948 564.232 984.692C573.862 1000.85 583.622 1016.94 593.513 1032.94C592.581 1033.63 591.727 1034.28 590.825 1035.02C590.31 1035.33 590.006 1035.9 590.027 1036.51C590.048 1037.11 590.392 1037.66 590.928 1037.94C587.12 1040.01 575.959 1037.21 573.226 1039.92C549.615 1040.35 537.369 1041.21 515.001 1047.97C511.238 1041.31 506.628 1031.36 502.89 1024.4C499.871 1018.77 491.171 1002.28 489.663 997.163Z"/><path fill="#000002" transform="scale(1.33333 1.33333)" d="M560.862 988.678C561.589 988.031 562.695 988.065 563.38 988.755C564.066 989.446 564.092 990.552 563.439 991.274C562.985 991.777 562.289 991.988 561.631 991.822C560.974 991.656 560.462 991.14 560.3 990.481C560.139 989.823 560.355 989.129 560.862 988.678Z"/><path fill="#000002" transform="scale(1.33333 1.33333)" d="M495.732 999.068C496.229 998.643 496.915 998.517 497.53 998.739C498.145 998.961 498.593 999.496 498.704 1000.14C498.814 1000.78 498.569 1001.44 498.063 1001.85C497.293 1002.48 496.16 1002.37 495.522 1001.61C494.883 1000.85 494.977 999.715 495.732 999.068Z"/><path fill="#014C8D" transform="scale(1.33333 1.33333)" d="M437.528 852.663C456.592 849.626 480.978 841.569 500.696 837.727C500.692 852.233 499.794 863.318 503.741 877.266C506.58 886.871 508.22 890.418 513.086 899.224C490.33 904.021 471.412 906.989 448.515 910.393L448.327 909.595L447.957 909.55C446.49 910.484 447.242 910.33 445.716 910.316C439.95 905.259 435.472 887.452 434.605 879.614C433.671 871.161 435.815 861.006 437.528 852.663Z"/><path fill="#000002" transform="scale(1.33333 1.33333)" d="M447.957 909.55C441.884 903.223 453.33 904.962 448.327 909.595L447.957 909.55Z"/><path fill="#0B0B0B" transform="scale(1.33333 1.33333)" d="M460.309 873.141C463.658 871.863 467.436 872.493 470.189 874.788C472.942 877.084 474.24 880.687 473.584 884.21C472.927 887.733 470.418 890.627 467.023 891.777C461.91 893.51 456.35 890.83 454.521 885.752C452.691 880.674 455.265 875.066 460.309 873.141Z"/><path fill="#000002" transform="scale(1.33333 1.33333)" d="M439.324 854.724C439.902 854.429 440.596 854.476 441.13 854.845C441.664 855.214 441.952 855.847 441.88 856.492C441.808 857.137 441.388 857.691 440.786 857.934C439.91 858.287 438.91 857.888 438.519 857.028C438.127 856.169 438.482 855.153 439.324 854.724Z"/><path fill="#000002" transform="scale(1.33333 1.33333)" d="M495.464 840.866C496.264 840.5 497.212 840.797 497.661 841.554C498.11 842.311 497.915 843.285 497.21 843.811C496.682 844.205 495.975 844.263 495.39 843.961C494.805 843.658 494.443 843.049 494.459 842.39C494.475 841.732 494.865 841.14 495.464 840.866Z"/><path fill="#FC6830" transform="scale(1.33333 1.33333)" d="M217.578 984.201C239.872 985.483 264.805 983.686 287.261 984.61C289.131 998.291 291.522 1011.9 294.427 1025.39C294.968 1028.01 296.701 1036.94 297.503 1038.94L297.024 1039.51C294.754 1040.68 286.943 1040.19 283.993 1040.09C281.659 1040.23 279.093 1040.15 276.73 1040.14C257.573 1040.09 238.558 1040.2 219.414 1041.08C219.035 1025.22 216.929 999.236 217.578 984.201Z"/><path fill="#EE6033" transform="scale(1.33333 1.33333)" d="M290.391 1038.06C290.672 1038.45 291.103 1038.69 291.576 1038.73C292.049 1038.78 292.517 1038.61 292.863 1038.29C293.415 1040.02 295.361 1039.45 297.024 1039.51C294.754 1040.68 286.943 1040.19 283.993 1040.09C286.122 1039.75 289.768 1040.1 290.391 1038.06Z"/><path fill="#1F0302" transform="scale(1.33333 1.33333)" d="M290.391 1038.06C289.866 1037.35 289.999 1036.35 290.693 1035.79C291.387 1035.24 292.394 1035.33 292.976 1036C293.559 1036.67 293.508 1037.68 292.863 1038.29C292.517 1038.61 292.049 1038.78 291.576 1038.73C291.103 1038.69 290.672 1038.45 290.391 1038.06Z"/><path fill="#000002" transform="scale(1.33333 1.33333)" d="M282.784 987.314C283.499 986.62 284.638 986.624 285.35 987.322C286.061 988.021 286.085 989.159 285.404 989.887C284.948 990.374 284.264 990.576 283.617 990.414C282.97 990.253 282.462 989.753 282.288 989.109C282.115 988.465 282.305 987.778 282.784 987.314Z"/><path fill="#000002" transform="scale(1.33333 1.33333)" d="M219.826 987.313C220.611 986.971 221.527 987.268 221.961 988.004C222.396 988.741 222.213 989.686 221.535 990.207C221.016 990.606 220.314 990.67 219.731 990.372C219.148 990.074 218.79 989.466 218.81 988.812C218.831 988.158 219.226 987.574 219.826 987.313Z"/><path fill="#014C8D" transform="scale(1.33333 1.33333)" d="M213.07 890.715C210.9 859.664 209.326 845.27 232.735 821.549C241.444 823.326 269.154 824.436 279.165 825.05C282.55 825.549 286.334 825.46 289.126 826.18C281.242 835.633 275.636 844.613 272.191 856.462C268.707 870.642 269.439 876.588 271.745 891.039C260.35 890.932 248.954 890.894 237.559 890.924C234.099 890.925 223.921 890.693 220.883 891.063C218.525 890.856 215.49 890.817 213.07 890.715Z"/><path fill="#084580" transform="scale(1.33333 1.33333)" d="M279.165 825.05C282.55 825.549 286.334 825.46 289.126 826.18C286.86 826.399 284.839 825.593 283.98 827.473C281.288 826.91 280.171 825.983 279.521 828.951C278.819 827.033 278.887 827.128 279.165 825.05Z"/><path fill="#0B0B0B" transform="scale(1.33333 1.33333)" d="M279.521 828.951C280.171 825.983 281.288 826.91 283.98 827.473C282.805 829.901 282.041 831.113 279.521 828.951Z"/><path fill="#0B0B0B" transform="scale(1.33333 1.33333)" d="M239.591 850.074C243.064 849.042 246.824 849.989 249.394 852.542C251.964 855.096 252.934 858.849 251.923 862.328C250.913 865.807 248.082 868.456 244.543 869.236C239.337 870.383 234.157 867.203 232.823 862.043C231.489 856.882 234.48 851.592 239.591 850.074Z"/><path fill="#FC6830" transform="scale(1.33333 1.33333)" d="M82.4256 593.209C98.0151 593.101 113.658 593.443 129.252 593.347C133.041 593.324 137.556 593.538 141.21 592.86C151.69 609.642 164.773 639.171 174.106 657.62L138.939 657.561C135.435 657.547 123.57 657.317 120.514 657.765C118.821 657.705 117.135 657.573 115.445 657.456C112.201 655.638 86.4971 601.606 82.4256 593.209Z"/><path fill="#0B0B0B" transform="scale(1.33333 1.33333)" d="M113.995 609.241C119.323 608.086 124.592 611.426 125.819 616.737C127.046 622.049 123.776 627.36 118.481 628.659C114.991 629.514 111.311 628.426 108.848 625.81C106.386 623.194 105.522 619.455 106.588 616.025C107.653 612.594 110.483 610.002 113.995 609.241Z"/><path fill="#000002" transform="scale(1.33333 1.33333)" d="M116.244 652.027C116.737 651.498 117.476 651.275 118.179 651.443C118.882 651.61 119.441 652.143 119.642 652.838C119.842 653.532 119.654 654.28 119.149 654.797C118.38 655.583 117.123 655.605 116.328 654.847C115.532 654.088 115.495 652.831 116.244 652.027Z"/><path fill="#000002" transform="scale(1.33333 1.33333)" d="M165.807 651.079C166.499 650.936 167.213 651.185 167.667 651.726C168.121 652.267 168.241 653.014 167.979 653.67C167.717 654.326 167.116 654.785 166.415 654.865C165.395 654.982 164.463 654.276 164.301 653.263C164.138 652.249 164.802 651.287 165.807 651.079Z"/><path fill="#FC6830" transform="scale(1.33333 1.33333)" d="M223.278 938.576L257.962 938.723C261.277 938.743 273.042 938.743 275.824 939.28L276.279 940.381C277.119 940.169 277.998 940.526 278.454 941.262C278.909 941.998 278.835 942.944 278.271 943.601L280.479 944.4C283.04 956.178 284.182 969.463 286.725 981.168C284.513 982.457 225.42 981.751 217.385 981.719C216.786 976.312 214.528 942.383 215.787 939.262L217.535 938.861C219.518 938.7 221.289 938.634 223.278 938.576Z"/><path fill="#000002" transform="scale(1.33333 1.33333)" d="M276.279 940.381C277.119 940.169 277.998 940.526 278.454 941.262C278.909 941.998 278.835 942.944 278.271 943.601C277.713 944.251 276.8 944.47 276.007 944.143C275.215 943.817 274.721 943.019 274.783 942.164C274.844 941.309 275.448 940.59 276.279 940.381Z"/><path fill="#000002" transform="scale(1.33333 1.33333)" d="M218.666 940.729C218.992 940.644 219.337 940.659 219.654 940.773C220.431 941.053 220.887 941.857 220.727 942.667C220.567 943.476 219.839 944.048 219.015 944.011C218.19 943.974 217.516 943.34 217.429 942.52C217.342 941.699 217.868 940.938 218.666 940.729Z"/><path fill="#EE6033" transform="scale(1.33333 1.33333)" d="M217.535 938.861C219.518 938.7 221.289 938.634 223.278 938.576C221.472 939.25 220.952 939.369 219.654 940.773C219.337 940.659 218.992 940.644 218.666 940.729L217.535 938.861Z"/><path fill="#014C8D" transform="scale(1.33333 1.33333)" d="M75.3497 412.563C87.2399 389.246 128.468 380.003 151.308 391.368C167.966 399.657 172.89 421.852 179.103 438.358C185.863 438.204 191.366 437.847 196.993 442.287C195.175 442.763 190.155 440.089 186.365 439.654C182.654 439.228 180.107 439.54 176.858 439.201L176.523 439.164C167.202 440.324 156.403 440.997 146.944 441.789C143.652 432.646 140.121 419.474 131.917 414.314L129.897 415.881C114.553 405.838 86.3518 411.04 69.8247 416.999C66.3586 415.403 58.1195 424.57 56.0803 427.15L54.648 427.61C59.8449 418.747 66.1365 415.783 75.3497 412.563Z"/><path fill="#000002" transform="scale(1.33333 1.33333)" d="M75.3497 412.563C87.2399 389.246 128.468 380.003 151.308 391.368C167.966 399.657 172.89 421.852 179.103 438.358C185.863 438.204 191.366 437.847 196.993 442.287C195.175 442.763 190.155 440.089 186.365 439.654C182.654 439.228 180.107 439.54 176.858 439.201L176.523 439.164C175.025 433.516 171.498 426.275 169.529 420.617C167.759 415.529 164.655 407.905 161.701 403.665C151.996 389.738 132.115 386.796 116.544 390.588C100.562 394.318 88.5582 396.65 79.0372 411.257C89.7609 409.401 97.4286 408.544 108.296 408.076C109.386 401.477 111.306 395.753 118.337 393.415C121.787 392.259 125.559 392.564 128.779 394.258C131.685 395.79 133.823 398.461 134.68 401.631C136.145 406.94 134.483 409.88 131.917 414.314L129.897 415.881C114.553 405.838 86.3518 411.04 69.8247 416.999C66.3586 415.403 58.1195 424.57 56.0803 427.15L54.648 427.61C59.8449 418.747 66.1365 415.783 75.3497 412.563Z"/><path fill="#FC6830" transform="scale(1.33333 1.33333)" d="M120.416 395.678C124.9 395.704 131.229 397.818 131.961 401.95C133.625 411.34 131.525 412.449 124.897 409.66C123.478 409.195 111.234 406.212 112.061 407.235C108.339 402.629 117.296 396.887 120.416 395.678Z"/><path fill="#F6F6F0" transform="scale(1.33333 1.33333)" d="M205.167 1045.47C227.236 1048.41 245.808 1059.14 250.617 1082.57C249.071 1082.32 244.195 1081.44 242.919 1081.48C225.731 1077.94 206.854 1084.72 192.051 1093.05C191.087 1090.29 185.782 1085.4 183.321 1083.82C169.27 1074.76 156.783 1074.04 141.182 1076.8C150.756 1068.23 162.938 1059.16 174.971 1054.4C185.356 1055.65 194.253 1059 202.082 1065.94C204.662 1068.22 206.795 1070.82 210.252 1071.22L210.396 1070.27C204.31 1060.96 191.524 1055.09 181.003 1052.53C187.167 1049.11 198.316 1046.74 205.167 1045.47Z"/><path fill="#014C8D" transform="scale(1.33333 1.33333)" d="M113.825 1128.15C117.64 1113.75 122.574 1097.42 132.981 1086.42C147.985 1070.55 174.531 1078.5 188.238 1091.69C174.385 1098.52 163.771 1114.19 158.692 1128.43C153.415 1128.48 116.173 1129.29 113.825 1128.15Z"/><path fill="#FC6830" transform="scale(1.33333 1.33333)" d="M67.6679 548.519C85.1778 552.568 107.221 556.925 125.162 554.516C130.673 563.846 136.905 576.955 141.726 586.897C141.372 588.725 141.469 589.906 140.393 591.136C134.772 591.481 82.1211 591.433 81.1198 590.835C74.6774 579.105 66.8702 562.114 60.8782 549.764L60.7788 550.649L60.5439 549.546C61.8043 549.545 66.1714 548.757 67.6679 548.519Z"/><path fill="#000002" transform="scale(1.33333 1.33333)" d="M67.6679 548.519C85.1778 552.568 107.221 556.925 125.162 554.516C130.673 563.846 136.905 576.955 141.726 586.897C141.372 588.725 141.469 589.906 140.393 591.136C134.772 591.481 82.1211 591.433 81.1198 590.835C85.6648 590.098 97.2207 590.389 102.267 590.396L140.737 590.462C134.846 579.724 130.027 568.504 123.768 557.652C99.4265 558.19 84.0102 554.9 60.8782 549.764L60.7788 550.649L60.5439 549.546C61.8043 549.545 66.1714 548.757 67.6679 548.519Z"/><path fill="#000002" transform="scale(1.33333 1.33333)" d="M70.4831 554.838C71.0664 554.383 71.8568 554.296 72.5247 554.615C73.1926 554.933 73.6231 555.601 73.6368 556.341C73.6505 557.08 73.2449 557.764 72.5892 558.107C71.6941 558.575 70.5898 558.283 70.0428 557.434C69.4959 556.585 69.6868 555.459 70.4831 554.838Z"/><path fill="#000002" transform="scale(1.33333 1.33333)" d="M131.663 584.499C132.258 584.256 132.939 584.358 133.438 584.764C133.936 585.17 134.173 585.816 134.055 586.448C133.937 587.081 133.483 587.598 132.872 587.797C131.973 588.09 131.003 587.619 130.677 586.731C130.352 585.843 130.787 584.857 131.663 584.499Z"/><path fill="#014C8D" transform="scale(1.33333 1.33333)" d="M69.8247 416.999C86.3518 411.04 114.553 405.838 129.897 415.881C140.242 424.846 138.745 431.577 144.769 442.496C128.264 455.9 135.454 456.063 133.904 472.489C132.306 473.714 133.073 473.495 131.163 473.321C123.593 467.822 125.016 443.631 107.288 431.883C107.423 433.483 107.703 433.409 106.452 434.192C100.776 431.28 97.9413 429.664 91.3234 431.372C89.7471 430.562 89.9524 430.773 88.1851 430.31C87.5629 430.147 86.6118 428.398 86.309 428.226L86.2097 428.268C85.8298 428.781 85.7226 429.554 85.5498 430.153L85.386 430.626C76.198 432.612 63.0517 439.179 52.5909 441.552C52.6931 441.056 52.7984 440.561 52.907 440.066C55.5631 427.988 59.7965 423.403 69.8247 416.999Z"/><path fill="#000002" transform="scale(1.33333 1.33333)" d="M85.386 430.626C76.0034 406.703 118.017 407.564 107.288 431.883C107.423 433.483 107.703 433.409 106.452 434.192C100.776 431.28 97.9413 429.664 91.3234 431.372C89.7471 430.562 89.9524 430.773 88.1851 430.31C87.5629 430.147 86.6118 428.398 86.309 428.226L86.2097 428.268C85.8298 428.781 85.7226 429.554 85.5498 430.153L85.386 430.626Z"/><path fill="#FC6830" transform="scale(1.33333 1.33333)" d="M93.7929 416.132C97.8544 416.052 102.067 415.704 104.571 419.599C106.252 422.213 107.116 427.597 103.983 429.498C103.205 429.521 100.12 428.677 99.252 428.461C95.4055 427.931 88.2123 430.251 87.4911 427.547C85.8977 421.573 88.547 418.372 93.7929 416.132Z"/><path fill="#000002" transform="scale(1.33333 1.33333)" d="M111.125 1131.22C112.578 1120.09 115.92 1109.29 121.008 1099.29C132.332 1077.43 156.429 1057.15 179.76 1049.68C179.825 1050.4 179.774 1051.05 179.661 1051.76C180.329 1052.26 180.3 1052.41 181.003 1052.53C191.524 1055.09 204.31 1060.96 210.396 1070.27L210.252 1071.22C206.795 1070.82 204.662 1068.22 202.082 1065.94C194.253 1059 185.356 1055.65 174.971 1054.4C162.938 1059.16 150.756 1068.23 141.182 1076.8C156.783 1074.04 169.27 1074.76 183.321 1083.82C185.782 1085.4 191.087 1090.29 192.051 1093.05C190.076 1092.94 191.486 1091.85 188.238 1091.69C174.531 1078.5 147.985 1070.55 132.981 1086.42C122.574 1097.42 117.64 1113.75 113.825 1128.15C113.058 1128.94 113.314 1128.48 113.247 1129.66C116.708 1130.79 146.963 1129.99 153.053 1130.05C233.426 1130.85 314.163 1128.98 394.503 1130.06C394.727 1122.46 391.285 1097.11 392.43 1092.96C394.547 1103.09 395.231 1120.67 395.849 1131.16L111.125 1131.22Z"/><path fill="#000002" transform="scale(1.33333 1.33333)" d="M141.21 592.86L140.428 592.161C141.411 592.032 141.977 591.723 142.385 592.384C147.467 600.618 154.393 614.98 158.365 623.241L159.721 622.867C165.745 635.145 171.963 648.199 178.498 660.204C158.122 660.776 136.027 660.328 115.524 660.265L115.039 660.427C115.885 657.725 172.968 661.225 176.573 658.88L175.973 657.517L175.029 657.239L174.209 658.761C167.391 659.353 119.797 659.706 114.711 658.588C117.007 658.445 118.277 658.199 120.514 657.765C123.57 657.317 135.435 657.547 138.939 657.561L174.106 657.62C164.773 639.171 151.69 609.642 141.21 592.86Z"/><path fill="#EE6033" transform="scale(1.33333 1.33333)" d="M593.513 1032.94C595.347 1035.45 596.463 1037.38 598.093 1039.94C593.964 1040.29 577.925 1040.15 573.226 1039.92C575.959 1037.21 587.12 1040.01 590.928 1037.94C590.392 1037.66 590.048 1037.11 590.027 1036.51C590.006 1035.9 590.31 1035.33 590.825 1035.02C591.727 1034.28 592.581 1033.63 593.513 1032.94Z"/><path fill="#000002" transform="scale(1.33333 1.33333)" d="M590.825 1035.02C591.519 1034.59 592.421 1034.72 592.966 1035.32C593.511 1035.93 593.543 1036.84 593.042 1037.48C592.541 1038.13 591.65 1038.32 590.928 1037.94C590.392 1037.66 590.048 1037.11 590.027 1036.51C590.006 1035.9 590.31 1035.33 590.825 1035.02Z"/><path fill="#EE6033" transform="scale(1.33333 1.33333)" d="M214.718 931.27C215.605 931.714 215.772 931.76 216.704 931.987C216.213 932.693 216.3 933.65 216.911 934.256C217.521 934.861 218.479 934.94 219.181 934.443L219.807 935.901C214.41 936.054 214.804 936.606 214.718 931.27Z"/><path fill="#084580" transform="scale(1.33333 1.33333)" d="M273.777 859.831C275.487 860.142 275.345 862.72 275.804 864.457L273.786 862.571C273.767 861.658 273.764 860.745 273.777 859.831Z"/><path fill="#014C8D" transform="scale(1.33333 1.33333)" d="M385.891 476.884C396.774 465.617 400.422 465.008 415.785 466.927L410.769 471.354C408.064 476.576 409.333 478.79 410.859 483.984L411.347 486.541C417.674 488.276 453.639 498.935 456.783 497.586C455.304 494.683 452.142 494.637 449.437 493.818C440.899 491.231 429.741 489.792 421.755 486.052L423.437 483.987C419.93 483.386 420.626 484.66 418.035 483.533C416.401 483.421 414.873 482.683 413.769 481.473C412.025 479.563 411.612 476.787 412.723 474.452C413.834 472.116 416.249 470.686 418.832 470.833C421.415 470.98 423.652 472.675 424.49 475.122C425.258 473.882 425.469 473.466 426.462 472.368L425.603 470.674C429.319 469.066 438.81 473.211 442.619 474.714C476.789 488.201 481.043 520.715 486.982 523.741L487.971 523.127C488.059 521.013 484.359 514.246 483.107 511.518C528.935 510.856 575.205 512.249 621.085 511.699C635.791 511.522 653.619 512.34 667.931 511.765L668.407 511.812C671.569 512.098 671.509 511.781 674.916 512.607C663.869 525.15 659.865 530.464 661.203 548.112C661.26 548.865 655.235 548.611 654.681 548.583C655.72 549.482 656.56 550.078 657.281 551.254C660.654 551.48 660.27 550.956 662.671 552.66C663.818 554.831 663.885 556.015 664.259 558.385C664.134 559.689 663.876 559.954 664.376 560.924C662.643 566.386 639.745 604.564 635.681 610.899L634.3 610.567C632.01 612.889 631.471 617.15 629.965 617.271C596.853 618.19 560.222 617.567 526.955 617.546L485.729 617.454C479.173 617.425 469.422 617.66 463.05 617.129L462.372 616.304L463.425 612.955L462.533 612.602C463.793 609.804 463.946 610.473 463.712 607.687C460.828 612.35 458.024 617.062 455.3 621.82C438.115 621.836 420.703 622.55 403.548 621.956C391.325 621.533 377.215 615.992 365.271 613.253C357.214 611.405 345.374 608.745 339.163 603.573C326.33 592.887 329.336 576.336 338.774 564.806C328.3 544.104 331.362 531.597 350.849 519.111C350.664 518.801 350.482 518.49 350.302 518.177C345.919 510.568 343.998 503.096 346.458 494.401C348.293 487.709 352.768 482.049 358.857 478.717C367.323 474.184 374.36 476.374 382.783 478.878C384.586 478.254 384.777 478.459 385.891 476.884Z"/><path fill="#FC6830" transform="scale(1.33333 1.33333)" d="M496.509 548.647C548.533 549.536 602.294 548.087 654.681 548.583C655.72 549.482 656.56 550.078 657.281 551.254C660.654 551.48 660.27 550.956 662.671 552.66C663.818 554.831 663.885 556.015 664.259 558.385C664.134 559.689 663.876 559.954 664.376 560.924C662.643 566.386 639.745 604.564 635.681 610.899L634.3 610.567C632.01 612.889 631.471 617.15 629.965 617.271C596.853 618.19 560.222 617.567 526.955 617.546L485.729 617.454C479.173 617.425 469.422 617.66 463.05 617.129L462.372 616.304L463.425 612.955L462.533 612.602C463.793 609.804 463.946 610.473 463.712 607.687C464.715 604.796 471.516 593.097 473.499 589.563L496.509 548.647Z"/><path fill="#000002" transform="scale(1.33333 1.33333)" d="M496.509 548.647C548.533 549.536 602.294 548.087 654.681 548.583C655.72 549.482 656.56 550.078 657.281 551.254L498.29 551.449C490.158 565.223 482.697 579.117 474.969 593.086C473.317 596.073 464.9 611.478 463.425 612.955L462.533 612.602C463.793 609.804 463.946 610.473 463.712 607.687C464.715 604.796 471.516 593.097 473.499 589.563L496.509 548.647Z"/><path fill="#000002" transform="scale(1.33333 1.33333)" d="M664.259 558.385C664.134 559.689 663.876 559.954 664.376 560.924C662.643 566.386 639.745 604.564 635.681 610.899L634.3 610.567C632.01 612.889 631.471 617.15 629.965 617.271C630.055 614.392 661.313 560.781 664.259 558.385Z"/><path fill="#0B0B0B" transform="scale(1.33333 1.33333)" d="M573.315 569.211C576.046 570.739 577.862 572.053 580.407 573.815L563.732 607.781C560.9 606.333 559.267 605.19 556.71 603.368C560.896 596.35 569.571 577.245 573.315 569.211Z"/><path fill="#0B0B0B" transform="scale(1.33333 1.33333)" d="M613.902 569.331C616.1 570.786 618.28 572.176 620.437 573.704C615.837 584.478 608.844 597.497 603.475 608.168C600.69 606.905 599.53 605.548 597.326 603.51C602.57 592.986 608.372 579.267 613.902 569.331Z"/><path fill="#0B0B0B" transform="scale(1.33333 1.33333)" d="M530.366 568.076C532.644 569.349 534.802 570.505 537.108 571.715C531.571 583.004 526.021 595.069 520.579 606.474C517.222 604.992 516.683 604.566 513.547 602.58C518.931 591.05 524.909 579.721 530.366 568.076Z"/><path fill="#000002" transform="scale(1.33333 1.33333)" d="M501.687 554.839C502.593 554.354 503.721 554.659 504.259 555.535C504.798 556.412 504.56 557.555 503.717 558.144C503.125 558.558 502.353 558.61 501.712 558.278C501.07 557.947 500.665 557.288 500.66 556.566C500.655 555.844 501.05 555.179 501.687 554.839Z"/><path fill="#000002" transform="scale(1.33333 1.33333)" d="M469.956 610.644C470.895 610.239 471.987 610.648 472.429 611.57C472.871 612.492 472.506 613.598 471.602 614.076C470.984 614.403 470.238 614.366 469.656 613.979C469.074 613.592 468.751 612.918 468.813 612.222C468.876 611.527 469.315 610.921 469.956 610.644Z"/><path fill="#000002" transform="scale(1.33333 1.33333)" d="M654.369 554.962C655.374 554.725 656.385 555.328 656.655 556.324C656.924 557.32 656.355 558.35 655.368 558.652C654.7 558.857 653.974 558.681 653.474 558.194C652.973 557.707 652.778 556.986 652.965 556.313C653.151 555.64 653.689 555.122 654.369 554.962Z"/><path fill="#000002" transform="scale(1.33333 1.33333)" d="M625.623 611.213C626.563 610.929 627.558 611.448 627.863 612.381C628.167 613.315 627.669 614.32 626.742 614.644C626.124 614.86 625.439 614.725 624.949 614.291C624.46 613.858 624.243 613.193 624.383 612.555C624.523 611.916 624.997 611.403 625.623 611.213Z"/><path fill="#014C8D" transform="scale(1.33333 1.33333)" d="M385.891 476.884C396.774 465.617 400.422 465.008 415.785 466.927L410.769 471.354C408.064 476.576 409.333 478.79 410.859 483.984C405.334 482.536 390.599 478.725 385.891 476.884Z"/><path fill="#FC6830" transform="scale(1.33333 1.33333)" d="M413.769 481.473C412.025 479.563 411.612 476.787 412.723 474.452C413.834 472.116 416.249 470.686 418.832 470.833C421.415 470.98 423.652 472.675 424.49 475.122C425.182 477.139 424.817 479.367 423.519 481.058C422.221 482.749 420.162 483.678 418.035 483.533C416.401 483.421 414.873 482.683 413.769 481.473Z"/><path fill="#000002" transform="scale(1.33333 1.33333)" d="M382.783 478.878C384.586 478.254 384.777 478.459 385.891 476.884C390.599 478.725 405.334 482.536 410.859 483.984L411.347 486.541C404.08 484.319 389.966 480.115 382.783 478.878Z"/><path fill="#000002" transform="scale(1.33333 1.33333)" d="M424.49 475.122C425.258 473.882 425.469 473.466 426.462 472.368C428.034 476.393 428.923 482.712 423.437 483.987C419.93 483.386 420.626 484.66 418.035 483.533C420.162 483.678 422.221 482.749 423.519 481.058C424.817 479.367 425.182 477.139 424.49 475.122Z"/><path fill="#000002" transform="scale(1.33333 1.33333)" d="M378.608 516.589C384.539 517.859 400.73 523.604 407.381 525.57C407.965 525.743 408.041 526.975 408.109 527.569C404.953 527.615 403.144 526.816 400.159 525.993C393.345 524.12 386.606 521.978 379.762 520.211C377.52 519.633 378.087 518.276 378.608 516.589Z"/><path fill="#0B0B0B" transform="scale(1.33333 1.33333)" d="M367.378 547.965C375.145 548.506 388.076 553.971 396.063 555.906C396.711 556.062 396.945 557.145 397.005 557.722L397.091 558.47C391.19 557.867 374.698 552.644 368.41 550.224C367.708 549.953 367.541 548.66 367.378 547.965Z"/><path fill="#000002" transform="scale(1.33333 1.33333)" d="M361.352 578.168C368.693 579.03 381.994 584.912 390.022 586.345C390.516 586.433 391.368 587.959 391.614 588.364C389.771 588.724 387.417 588.835 385.766 587.945C382.343 586.101 362.255 582.58 361.634 579.546L361.352 578.168Z"/><path fill="#014C8D" transform="scale(1.33333 1.33333)" d="M317.265 218.503C318.433 217.465 327.581 217.151 328.2 218.814C332.078 219.754 333.227 218.643 336.124 219.64C342.338 225.02 347.437 230.853 353.446 236.347C360.256 236.309 367.589 236.409 374.355 236.173C368.387 232.307 358.569 222.945 352.731 217.89C358.246 217.94 364.618 217.841 370.059 218.09C375.733 223.737 383.237 231.371 389.47 236.266L409.984 236.25C403.584 230.539 396.82 224.767 390.981 218.519C403.382 220.181 412.227 222.247 423.082 228.426C445.965 241.452 459.474 265.477 458.491 291.758C458.481 292.019 458.343 292.657 458.257 292.952C452.085 293.83 431.652 293.327 424.688 293.023C423.865 295.075 424.79 295.212 424.414 297.401C431.584 328.821 417.717 352.416 392.905 369.696C390.002 371.717 386.995 374.776 384.038 376.639C378.124 380.492 372.622 384.058 366.493 387.6C357.324 393.275 348.003 398.703 338.542 403.877C316.559 416.171 300.424 423.96 274.044 419.609C247.777 415.276 233.161 402.876 218.213 382.084C257.611 382.762 299.709 380.969 338.647 382.622C338.259 380.991 337.826 379.37 337.349 377.763C333.478 364.984 326.671 355.568 314.653 349.255C310.101 346.834 305.169 345.207 300.069 344.445C290.274 343.021 248.069 343.228 237.553 346.169C225.084 349.656 218.078 360.053 212.576 371.068C203.274 349.933 204.065 317.886 205.492 294.799C211.079 291.675 261.363 296.222 272.404 293.635L272.299 293.26C270.377 293.308 265.844 293.626 264.309 293.013C263.72 291.185 263.676 290.954 264.044 289.074L264.604 292.247C268.518 260.29 282.278 244.617 309.889 229.437L316.689 236.238C323.587 236.347 330.487 236.274 337.381 236.019C334.056 232.583 327.358 227.304 323.232 223.391C322.556 222.968 321.87 222.561 321.175 222.168C319.768 220.469 318.878 219.963 317.265 218.503Z"/><path fill="#FC6830" transform="scale(1.33333 1.33333)" d="M317.265 218.503C318.433 217.465 327.581 217.151 328.2 218.814C332.078 219.754 333.227 218.643 336.124 219.64C342.338 225.02 347.437 230.853 353.446 236.347C360.256 236.309 367.589 236.409 374.355 236.173C368.387 232.307 358.569 222.945 352.731 217.89C358.246 217.94 364.618 217.841 370.059 218.09C375.733 223.737 383.237 231.371 389.47 236.266L409.984 236.25C403.584 230.539 396.82 224.767 390.981 218.519C403.382 220.181 412.227 222.247 423.082 228.426C445.965 241.452 459.474 265.477 458.491 291.758C458.481 292.019 458.343 292.657 458.257 292.952C452.085 293.83 431.652 293.327 424.688 293.023C423.865 295.075 424.79 295.212 424.414 297.401C416.582 273.531 396.201 261.472 372.085 259.419L366.146 258.86C363.749 258.198 360.388 258.588 357.844 258.689C341.929 259.319 330.987 264.393 317.434 272.072C303.908 279.905 290.286 287.572 276.573 295.073C261.071 294.811 245.566 294.779 230.064 294.978C224.969 295.034 209.693 295.778 205.492 294.799C211.079 291.675 261.363 296.222 272.404 293.635L272.299 293.26C270.377 293.308 265.844 293.626 264.309 293.013C263.72 291.185 263.676 290.954 264.044 289.074L264.604 292.247C268.518 260.29 282.278 244.617 309.889 229.437L316.689 236.238C323.587 236.347 330.487 236.274 337.381 236.019C334.056 232.583 327.358 227.304 323.232 223.391C322.556 222.968 321.87 222.561 321.175 222.168C319.768 220.469 318.878 219.963 317.265 218.503Z"/><path fill="#000002" transform="scale(1.33333 1.33333)" d="M274.987 292.687L307.416 274.441C316.108 269.518 325.576 263.559 335.013 260.407C350.203 255.334 372.152 254.243 387.555 258.674C402.723 263.149 415.504 273.443 423.104 287.309C424.037 289.014 424.941 290.736 425.814 292.473C432.814 292.438 451.817 292.017 458.257 292.952C452.085 293.83 431.652 293.327 424.688 293.023C423.865 295.075 424.79 295.212 424.414 297.401C416.582 273.531 396.201 261.472 372.085 259.419L366.146 258.86C363.749 258.198 360.388 258.588 357.844 258.689C341.929 259.319 330.987 264.393 317.434 272.072C303.908 279.905 290.286 287.572 276.573 295.073C261.071 294.811 245.566 294.779 230.064 294.978C224.969 295.034 209.693 295.778 205.492 294.799C211.079 291.675 261.363 296.222 272.404 293.635L272.299 293.26C270.377 293.308 265.844 293.626 264.309 293.013C263.72 291.185 263.676 290.954 264.044 289.074L264.604 292.247L274.987 292.687Z"/><path fill="#000002" transform="scale(1.33333 1.33333)" d="M317.265 218.503C318.433 217.465 327.581 217.151 328.2 218.814C332.078 219.754 333.227 218.643 336.124 219.64C331.949 221.079 327.895 221.681 323.232 223.391C322.556 222.968 321.87 222.561 321.175 222.168C319.768 220.469 318.878 219.963 317.265 218.503Z"/><path fill="#EE6033" transform="scale(1.33333 1.33333)" d="M317.265 218.503C318.433 217.465 327.581 217.151 328.2 218.814L327.35 218.911C324.442 220.072 323.743 220.287 321.175 222.168C319.768 220.469 318.878 219.963 317.265 218.503Z"/><path fill="#8D3926" transform="scale(1.33333 1.33333)" d="M317.265 218.503C318.433 217.465 327.581 217.151 328.2 218.814L327.35 218.911C323.373 218.159 321.307 218.134 317.265 218.503Z"/><path fill="#014C8D" transform="scale(1.33333 1.33333)" d="M372.085 259.419C396.201 261.472 416.582 273.531 424.414 297.401C431.584 328.821 417.717 352.416 392.905 369.696C390.002 371.717 386.995 374.776 384.038 376.639C380.099 373.581 372.907 366.243 369.057 362.533C373.517 357.839 378.626 352.983 383.261 348.403C376.631 341.415 370.068 334.365 363.571 327.254C368.756 321.95 373.74 316.259 378.697 310.726C373.209 305.3 367.749 299.845 362.319 294.361C366.253 288.86 373.159 281.84 377.977 276.864C373.977 272.986 370.004 269.081 366.059 265.149C367.827 263.198 370.115 261.214 372.085 259.419Z"/><path fill="#F6F6F0" transform="scale(1.33333 1.33333)" d="M358.665 265.474C361.041 261.643 361.472 259.277 366.146 258.86L372.085 259.419C370.115 261.214 367.827 263.198 366.059 265.149C370.004 269.081 373.977 272.986 377.977 276.864C373.159 281.84 366.253 288.86 362.319 294.361C367.749 299.845 373.209 305.3 378.697 310.726C373.74 316.259 368.756 321.95 363.571 327.254C370.068 334.365 376.631 341.415 383.261 348.403C378.626 352.983 373.517 357.839 369.057 362.533C372.907 366.243 380.099 373.581 384.038 376.639C378.124 380.492 372.622 384.058 366.493 387.6C365.8 382.292 369.267 380.205 372.77 376.265C368.786 371.316 363.604 366.838 359.789 361.67C364.443 357.138 369.169 352.68 373.965 348.298C367.576 341.151 360.507 333.874 353.893 326.871C359.466 321.425 363.916 316.666 369.115 310.926C363.441 305.333 358.214 300.128 352.799 294.26C357.909 288.433 363.061 282.643 368.256 276.892C364.988 273.146 361.79 269.339 358.665 265.474Z"/><path fill="#000002" transform="scale(1.33333 1.33333)" d="M311.003 291.393C311.356 291.74 311.788 292.754 312.038 293.259C310.616 295.985 299.614 300.516 296.113 302.142C305.03 308.036 308.487 318.582 300.082 326.622C296.774 329.727 292.343 331.351 287.811 331.118C277.781 330.64 273.572 322.557 274.002 313.397C269.153 315.579 266.205 316.878 261.136 318.425C260.118 314.804 258.606 311.955 259.143 308.47L259.931 308.004C261.99 309.549 262.835 312.677 263.783 315.169C277.787 308.902 296.77 298.647 311.003 291.393Z"/><path fill="#F6F6F0" transform="scale(1.33333 1.33333)" d="M292.857 303.678C305.555 307.45 305.827 327.846 286.905 328.602C280.023 326.275 274.865 321.934 276.395 313.991C276.939 311.164 289.769 305.533 292.857 303.678Z"/><path fill="#000002" transform="scale(1.33333 1.33333)" d="M227.056 305.542C233.962 309.179 241.039 311.954 247.747 315.41C247.831 315.132 249.89 304.784 252.061 308.8C252.507 309.624 250.067 317.28 249.517 319.123C246.493 317.708 243.688 316.4 240.696 314.861L240.662 315.411C240.432 319.604 240.581 323.201 237.037 326.256C224.165 337.349 208.613 317.146 222.538 307.863L223.581 307.174C224.832 306.711 225.874 306.157 227.056 305.542Z"/><path fill="#F6F6F0" transform="scale(1.33333 1.33333)" d="M225.611 308.305C227.348 309.229 236.303 313.11 236.749 314.404C238.718 320.121 236.576 323.386 231.867 326.339C228.078 326.916 225.212 326.762 222.411 323.623C220.684 321.719 219.796 319.201 219.945 316.636C220.202 312.747 222.836 310.517 225.611 308.305Z"/><path fill="#0B0B0B" transform="scale(1.33333 1.33333)" d="M223.581 307.174C218.374 304.175 213.091 302.545 207.943 299.647C206.892 298.452 209.241 297.269 209.765 297.415C214.261 298.663 223.33 303.149 227.056 305.542C225.874 306.157 224.832 306.711 223.581 307.174Z"/><path fill="#F6F6F0" transform="scale(1.33333 1.33333)" d="M447.546 390.609C470.399 374.905 480.736 370.94 506.254 362.799C482.871 378.974 469.756 394.251 464.057 423.326C460.595 440.987 464.353 463.066 473.153 478.78C480.779 478.948 488.406 479.06 496.034 479.114C501.877 489.382 507.401 499.106 513.857 508.998L481.875 508.708C469.721 486.521 457.696 475.432 432.524 468.525C412.302 462.976 398.279 457.422 382.985 476.05C377.583 474.543 371.4 472.516 365.867 473.691C342.978 478.551 338.442 499.856 346.847 518.341C329.694 530.207 325.342 545.41 335.225 564.285C330.773 570.874 328.817 574.959 327.565 583.043C308.406 572.438 295.281 555.461 289.207 534.457C278.767 498.356 291.085 447.457 331.841 437.206C334.012 441.087 341 452.608 342.468 455.885L344.672 454.77C344.987 455.031 345.871 455.691 346.208 455.791C361.928 460.465 379.029 459.142 393.653 453.876L396.958 455.509C430.221 440.124 436.928 423.478 447.546 390.609Z"/><path fill="#000002" transform="scale(1.33333 1.33333)" d="M344.672 454.77C344.987 455.031 345.871 455.691 346.208 455.791C361.928 460.465 379.029 459.142 393.653 453.876L396.958 455.509C380.591 461.687 361.952 463.946 344.515 458.104C343.948 457.914 342.953 456.48 342.468 455.885L344.672 454.77Z"/><path fill="#0B0B0B" transform="scale(1.33333 1.33333)" d="M309.338 479.5C314.478 477.599 320.184 480.247 322.048 485.4C323.912 490.553 321.222 496.238 316.054 498.064C310.939 499.872 305.324 497.215 303.479 492.115C301.634 487.015 304.25 481.382 309.338 479.5Z"/><path fill="#000002" transform="scale(1.33333 1.33333)" d="M307.003 528.727C308.86 528.256 310.752 529.362 311.253 531.211C311.753 533.061 310.677 534.969 308.835 535.498C307.617 535.848 306.306 535.515 305.404 534.626C304.501 533.738 304.148 532.432 304.479 531.21C304.811 529.988 305.775 529.039 307.003 528.727Z"/><path fill="#000002" transform="scale(1.33333 1.33333)" d="M447.549 440.041C448.749 439.699 450.04 440.054 450.897 440.961C451.753 441.869 452.033 443.178 451.622 444.356C451.21 445.534 450.177 446.385 448.942 446.563C447.201 446.813 445.564 445.672 445.196 443.953C444.829 442.233 445.857 440.523 447.549 440.041Z"/><path fill="#014C8D" transform="scale(1.33333 1.33333)" d="M434.477 640.828L488.247 640.913C493.789 640.95 507.538 640.644 512.337 641.561L513.07 643.055C512.02 644.469 503.047 647.361 500.134 648.71C495.927 650.665 491.901 652.99 488.105 655.657C457.417 677.509 458.4 709.029 452.723 743.459L451.568 750.091C433.08 750.308 414.068 753.732 399.946 739.621C376.02 715.713 373.662 674.428 397.081 649.415C407.206 638.601 421.087 640.77 434.477 640.828Z"/><path fill="#0B0B0B" transform="scale(1.33333 1.33333)" d="M421.534 661.897C426.712 660.357 432.154 663.324 433.662 668.51C435.17 673.696 432.167 679.119 426.971 680.594C421.82 682.056 416.455 679.086 414.96 673.946C413.465 668.806 416.402 663.423 421.534 661.897Z"/><path fill="#014C8D" transform="scale(1.33333 1.33333)" d="M224.896 1045.1C252.11 1046.54 277.819 1054.98 300.155 1070.69C320.667 1085.13 335.748 1101.65 331.859 1128.58L161.474 1128.37C167.24 1114.37 175.375 1101.38 189.394 1094.34C190.574 1095.12 190.941 1095.47 191.977 1096.45C194.531 1095.31 197.084 1093.76 199.547 1092.41C216.714 1083.01 235.114 1081.48 253.907 1086.62C252.207 1073.08 247.284 1062.55 236.083 1053.97C232.335 1051.07 228.101 1048.86 223.578 1047.44C224.023 1046.66 224.462 1045.88 224.896 1045.1Z"/><path fill="#014C8D" transform="scale(1.33333 1.33333)" d="M525.606 644.696C547.375 643.018 569.367 655.224 576.61 676.425C580.42 687.691 579.594 700.011 574.313 710.668C568.86 721.354 559.44 729.481 548.069 733.311C533.218 738.241 522.532 735.054 509.337 728.442L504.903 725.546C505.009 719.562 505.326 713.577 505.414 707.516C501.324 707.978 493.458 710.179 489.191 711.247C479.393 713.774 469.564 716.18 459.706 718.466C462.03 700.537 463.787 686.482 475.42 671.85C488.688 655.161 504.95 647.333 525.606 644.696Z"/><path fill="#000002" transform="scale(1.33333 1.33333)" d="M531.204 673.514C541.37 670.724 551.872 676.707 554.654 686.872C557.437 697.038 551.445 707.533 541.274 710.307C531.115 713.078 520.632 707.095 517.852 696.94C515.073 686.786 521.049 676.3 531.204 673.514Z"/><path fill="#FC6830" transform="scale(1.33333 1.33333)" d="M533.084 675.952C541.902 674.175 550.482 679.914 552.204 688.741C553.926 697.568 548.133 706.109 539.293 707.776C530.531 709.428 522.078 703.698 520.371 694.948C518.664 686.199 524.343 677.713 533.084 675.952Z"/><path fill="#014C8D" transform="scale(1.33333 1.33333)" d="M549.599 1045.89C550.649 1045.87 551.7 1045.88 552.749 1045.93C559.328 1046.25 567.429 1048.42 573.832 1050.02C599.47 1056.43 623.378 1069.34 641.449 1088.82C651.989 1100.19 656.787 1112.91 656.006 1128.52L559.694 1128.49L491.044 1128.62C494.642 1118.4 507.847 1097.34 518.907 1094.65C519.779 1095.42 520.498 1096.09 521.332 1096.9C524.761 1095.34 528.355 1092.67 531.887 1090.92C549.46 1082.24 565.992 1081.33 584.387 1087.14C579.198 1065.52 570.302 1054.32 549.599 1045.89Z"/><path fill="#FC6830" transform="scale(1.33333 1.33333)" d="M562.739 358.546C595.752 354.094 625.817 379.99 631.48 411.979L614.056 411.977C612.363 407.505 610.249 402.178 607.693 398.15C601.884 388.911 592.605 382.393 581.941 380.061C569.327 377.405 554.425 381.035 543.884 388.338C527.764 399.507 519.869 413.757 516.059 432.515C513.876 450.439 516.826 459.468 523.78 475.838C508.994 476.496 489.944 476.425 475.103 476.009C469.182 464.916 467.682 457.592 465.779 445.289C475.583 445.119 485.39 445.121 495.195 445.294C494.041 402.793 518.58 364.221 562.739 358.546Z"/><path fill="#014C8D" transform="scale(1.33333 1.33333)" d="M504.991 729.457C521.697 738.394 534.265 741.712 552.966 734.68L552.916 846.846C551.103 844.829 548.972 842.738 547.057 840.784C537.819 832.805 525.898 831.51 515.251 837.873C509.927 841.055 507.024 845.196 503.339 850.009C504.351 809.833 504.902 769.646 504.991 729.457Z"/><path fill="#0B0B0B" transform="scale(1.33333 1.33333)" d="M532.559 802.167C536.075 801.625 539.611 803.017 541.815 805.809C544.018 808.602 544.549 812.363 543.204 815.656C541.859 818.949 538.846 821.264 535.318 821.717C529.956 822.404 525.039 818.654 524.284 813.303C523.529 807.952 527.217 802.989 532.559 802.167Z"/><path fill="#000002" transform="scale(1.33333 1.33333)" d="M547.321 740.546C550.019 740.006 551.835 741.142 550.49 742.236C547.954 744.299 529.718 743.564 526.933 743.52C523.002 743.453 523.891 741.268 524.303 741.228C531.756 740.505 539.55 741.28 547.321 740.546Z"/><path fill="#000002" transform="scale(1.33333 1.33333)" d="M525.818 746.468C529.815 745.924 546.366 744.721 548.904 747.861C546.39 748.924 527.168 749.867 526.29 747.662L525.818 746.468Z"/><path fill="#000002" transform="scale(1.33333 1.33333)" d="M525.066 751.65C531.261 751.264 538.002 751.23 544.173 751.61C544.673 751.641 545.213 753.549 545.345 753.916C541.348 754.119 536.668 754.307 532.677 754.135C528.422 753.952 525.622 755.737 525.066 751.65Z"/><path fill="#014C8D" transform="scale(1.33333 1.33333)" d="M554.755 420.689C571.684 420.501 588.615 420.443 605.545 420.513C624.897 436.101 649.003 451.025 669.159 465.969C680.548 474.413 694.112 482.146 703.991 492.613C712.021 501.078 718.112 511.189 721.842 522.243C708.352 509.228 697.212 504.906 678.736 511.094C677.038 509.979 673.627 507.673 672.045 506.72C645.569 485.922 615.682 466.345 588.803 445.873C579.327 438.655 563.093 428.199 554.755 420.689Z"/><path fill="#0B0B0B" transform="scale(1.33333 1.33333)" d="M626.535 460.107L651.375 459.994C656.697 463.886 661.537 468.244 666.4 472.679C662.699 473.292 646.954 473.076 642.446 473.074C637.72 470.267 630.84 463.929 626.535 460.107Z"/><path fill="#0B0B0B" transform="scale(1.33333 1.33333)" d="M588.806 433.796C596.437 433.162 607.383 433.597 615.242 433.695C619.265 437.478 624.782 441.789 628.445 445.592C624.355 446.597 610.408 446.431 605.513 446.463C600.154 443.114 593.863 437.824 588.806 433.796Z"/><path fill="#FC6830" transform="scale(1.33333 1.33333)" d="M235.057 549.553C212.081 507.299 243.301 454.207 288.228 445.244C296.634 443.566 302.504 443.183 311.095 443.169C305.122 448.117 303.286 450.449 299.071 456.62C297.731 457.791 297.606 457.826 297.054 459.456L296.616 459.124C290.017 471.4 286.383 479.575 283.861 493.457C270.653 499.246 256.009 507.354 250.44 521.683L248.292 520.486L248.256 519.154C246.909 523.986 249.534 524.715 246.169 527.171L246.575 528.25C245.704 531.362 237.104 546.359 235.057 549.553Z"/><path fill="#FC6830" transform="scale(1.33333 1.33333)" d="M296.616 459.124C290.017 471.4 286.383 479.575 283.861 493.457C270.653 499.246 256.009 507.354 250.44 521.683L248.292 520.486L248.256 519.154C248.76 514.64 249.091 510.325 250.038 505.871C255.293 481.151 272.719 465.468 296.616 459.124Z"/><path fill="#000002" transform="scale(1.33333 1.33333)" d="M246.169 527.171C239.743 496.787 267.457 458.409 299.071 456.62C297.731 457.791 297.606 457.826 297.054 459.456L296.616 459.124C272.719 465.468 255.293 481.151 250.038 505.871C249.091 510.325 248.76 514.64 248.256 519.154C246.909 523.986 249.534 524.715 246.169 527.171Z"/><path fill="#FC6830" transform="scale(1.33333 1.33333)" d="M286.846 218.699C290.112 218.294 294.794 218.314 298.181 218.228C300.718 221.512 304.149 224.465 307.212 227.306C280.776 243.031 264.491 260.322 261.674 292.265L239.301 292.141L217.607 292.199C220.619 253.884 250.401 226.442 286.846 218.699Z"/><path fill="#F6F6F0" transform="scale(1.33333 1.33333)" d="M532.412 1046.22C556.023 1046.34 573.743 1060.06 580.045 1082.7C556.29 1078.19 542.981 1081.22 521.917 1093.2C511.837 1082.14 505.291 1078.01 490.488 1075.66C483.675 1075.2 479.298 1075.67 472.634 1076.6C481.076 1067.51 493.368 1059.62 504.795 1054.89C514.944 1055.92 524.828 1060.19 533.011 1066.27C535.786 1068.33 537.698 1070.77 540.594 1072.67L540.929 1071.93C536.763 1061.07 520.427 1056.18 510.347 1052.6C517.171 1050.26 525.387 1047.5 532.412 1046.22Z"/><path fill="#FC6830" transform="scale(1.33333 1.33333)" d="M180.138 292.161C182.211 249.669 215.582 220.538 257.517 218.596C261.488 218.412 265.5 218.424 269.477 218.383L269.459 220.662C260.781 224.196 252.711 229.068 245.542 235.1C227.023 250.818 216.818 267.938 214.827 292.256C203.264 292.333 191.7 292.302 180.138 292.161Z"/><path fill="#014C8D" transform="scale(1.33333 1.33333)" d="M664.376 560.924L665.811 560.545C668.826 562.695 670.799 565.018 673.612 567.235C680.894 572.971 690.842 574.805 699.892 573.251C709.355 571.627 715.388 566.868 721.954 560.401C716.576 580.484 702.706 596.509 684.857 606.69C665.709 617.612 653.393 618.029 632.361 617.417L635.681 610.899C639.745 604.564 662.643 566.386 664.376 560.924Z"/><path fill="#014C8D" transform="scale(1.33333 1.33333)" d="M478.773 1078.37C496.105 1077.4 504.423 1080.39 517.277 1091.61C504.421 1098.82 496.179 1109.81 490.52 1123.14C489.807 1124.82 488.808 1127.15 487.732 1128.55L484.595 1128.65L444.075 1128.67C447.612 1112.97 453.534 1096.41 465.045 1084.5C469.063 1080.34 473.353 1079.43 478.773 1078.37Z"/><path fill="#F6F6F0" transform="scale(1.33333 1.33333)" d="M499.774 796.832L500.501 796.936C501.813 798.782 500.862 829.342 500.794 834.091C480.782 839.36 460.716 844.418 440.598 849.264C440.193 849.265 439.277 849.012 438.892 848.922C437.82 845.511 443.393 816.386 444.33 810.831C461.295 807.428 482.172 800.798 499.774 796.832Z"/><path fill="#000002" transform="scale(1.33333 1.33333)" d="M494.78 829.793C495.335 829.307 496.128 829.205 496.788 829.533C497.449 829.862 497.845 830.556 497.792 831.292C497.739 832.027 497.248 832.658 496.547 832.888C495.726 833.159 494.827 832.814 494.398 832.063C493.97 831.312 494.129 830.363 494.78 829.793Z"/><path fill="#000002" transform="scale(1.33333 1.33333)" d="M496.2 799.744C496.737 799.428 497.404 799.43 497.939 799.75C498.473 800.07 498.791 800.656 498.766 801.279C498.742 801.901 498.379 802.461 497.821 802.738C496.999 803.145 496.002 802.829 495.565 802.023C495.129 801.216 495.409 800.209 496.2 799.744Z"/><path fill="#000002" transform="scale(1.33333 1.33333)" d="M446.211 812.766C446.655 812.395 447.269 812.304 447.802 812.53C448.334 812.756 448.696 813.26 448.74 813.837C448.783 814.413 448.5 814.966 448.007 815.268C447.317 815.692 446.417 815.51 445.945 814.852C445.472 814.195 445.588 813.284 446.211 812.766Z"/><path fill="#FC6830" transform="scale(1.33333 1.33333)" d="M465.643 442.279C464.12 398.997 493.989 359.364 538.859 357.576C540.656 357.712 541.566 357.705 543.35 357.629C543.769 358.352 544.193 359.072 544.623 359.789C535.287 363.403 526.726 368.765 519.401 375.588C499.728 393.811 493.189 416.22 492.203 442.205L465.643 442.279Z"/><path fill="#F6F6F0" transform="scale(1.33333 1.33333)" d="M495.46 754.174C497.126 753.92 500.368 753.208 502.106 752.845L501.882 766.59L501.479 793.332C482.883 797.743 463.414 803.162 444.853 808.042C447.383 794.474 449.526 779.385 451.865 765.586C465.336 762.694 481.925 757.782 495.46 754.174Z"/><path fill="#F6F6F0" transform="scale(1.33333 1.33333)" d="M495.46 754.174C497.126 753.92 500.368 753.208 502.106 752.845L501.882 766.59C500.151 767.702 499.669 756.904 499.714 756.65C499.532 756.127 499.13 755.71 498.614 755.508C498.098 755.307 497.519 755.341 497.03 755.602C496.287 755.055 496.041 754.93 495.46 754.174Z"/><path fill="#000002" transform="scale(1.33333 1.33333)" d="M497.03 755.602C497.519 755.341 498.098 755.307 498.614 755.508C499.13 755.71 499.532 756.127 499.714 756.65C500.046 757.603 499.574 758.648 498.639 759.029C497.705 759.41 496.636 758.992 496.207 758.079C495.779 757.166 496.141 756.077 497.03 755.602Z"/><path fill="#000002" transform="scale(1.33333 1.33333)" d="M453.613 767.448C454.36 766.789 455.501 766.866 456.153 767.619C456.804 768.372 456.716 769.512 455.957 770.157C455.207 770.792 454.086 770.706 453.443 769.963C452.8 769.22 452.876 768.097 453.613 767.448Z"/><path fill="#000002" transform="scale(1.33333 1.33333)" d="M497.544 789.093C498.041 788.789 498.389 788.377 498.934 788.719C499.095 789.318 498.846 789.465 498.402 789.945C496.716 790.847 495.806 790.508 497.544 789.093Z"/><path fill="#F6F6F0" transform="scale(1.33333 1.33333)" d="M559.161 490.082C565.638 476.875 572.691 463.929 579.322 450.798C580.18 449.099 581.18 447.504 582.269 445.943C584.186 445.994 584.929 446.876 586.781 448.007C596.369 455.443 606.224 462.529 616.326 469.25C609.431 481.907 602.412 495.948 595.844 508.845L585.903 508.939C582.068 508.477 563.267 493.28 559.161 490.082Z"/><path fill="#000002" transform="scale(1.33333 1.33333)" d="M586.781 448.007C585.919 451.49 585.974 451.77 582.303 451.247C582.817 448.155 583.958 448.346 586.781 448.007Z"/><path fill="#000002" transform="scale(1.33333 1.33333)" d="M563.123 487.351C563.832 487.012 564.683 487.247 565.117 487.903C565.552 488.558 565.436 489.433 564.847 489.954C564.386 490.362 563.729 490.464 563.166 490.215C562.602 489.966 562.235 489.412 562.226 488.796C562.217 488.181 562.567 487.616 563.123 487.351Z"/><path fill="#FC6830" transform="scale(1.33333 1.33333)" d="M337.044 441.056C370.732 447.269 413.141 425.969 429.639 396.38C433.261 401.727 435.166 405.79 437.252 411.814C428.27 432.921 414.359 445.056 393.653 453.876C379.029 459.142 361.928 460.465 346.208 455.791C345.871 455.691 344.987 455.031 344.672 454.77C344.296 452.484 338.522 443.462 337.044 441.056Z"/><path fill="#014C8D" transform="scale(1.33333 1.33333)" d="M706.711 1074.84C713.041 1084.34 717.808 1116.27 719.04 1128.48C699.407 1128.69 679.517 1128.53 659.864 1128.52C658.365 1127.18 658.842 1125.12 658.798 1123.06C658.616 1114.57 655.805 1107.07 652.824 1099.21C677.915 1110.96 700.409 1102.72 706.711 1074.84Z"/><path fill="#F6F6F0" transform="scale(1.33333 1.33333)" d="M550.469 421.855C553.872 423.486 575.618 439.702 580.025 442.904C572.149 457.756 564.366 473.538 556.556 488.562C546.805 480.805 536.872 473.281 526.764 465.995C532.922 453.014 543.439 435.469 550.469 421.855Z"/><path fill="#000002" transform="scale(1.33333 1.33333)" d="M550.83 425.552C551.383 424.943 552.31 424.858 552.965 425.357C553.619 425.856 553.783 426.772 553.342 427.467C553.021 427.972 552.442 428.254 551.846 428.194C551.25 428.135 550.738 427.745 550.524 427.186C550.309 426.627 550.427 425.995 550.83 425.552Z"/><path fill="#000002" transform="scale(1.33333 1.33333)" d="M531.019 462.982C531.755 462.598 532.663 462.852 533.091 463.562C533.52 464.273 533.321 465.194 532.638 465.665C532.157 465.996 531.533 466.034 531.016 465.762C530.5 465.49 530.176 464.955 530.177 464.371C530.178 463.788 530.502 463.253 531.019 462.982Z"/><path fill="#F6F6F0" transform="scale(1.33333 1.33333)" d="M500.877 711.499L502.25 711.821C502.908 714.656 502.232 744.144 502.193 749.151C486.125 753.825 469.983 758.241 453.772 762.394C453.305 762.377 453 762.152 452.517 761.928C454.445 748.529 457.051 735.053 459.104 721.628L500.877 711.499Z"/><path fill="#000002" transform="scale(1.33333 1.33333)" d="M460.716 723.511C461.449 722.861 462.571 722.933 463.215 723.671C463.858 724.408 463.777 725.53 463.033 726.166C462.298 726.795 461.194 726.715 460.558 725.986C459.923 725.258 459.993 724.153 460.716 723.511Z"/><path fill="#000002" transform="scale(1.33333 1.33333)" d="M497.241 714.464C497.938 714.001 498.864 714.098 499.45 714.695C500.036 715.291 500.116 716.219 499.64 716.907C499.241 717.485 498.534 717.766 497.846 717.622C497.159 717.477 496.626 716.934 496.494 716.244C496.361 715.554 496.656 714.853 497.241 714.464Z"/><path fill="#014C8D" transform="scale(1.33333 1.33333)" d="M386.088 1078C390.484 1084.26 392.521 1119.55 393.093 1128.61L335.378 1128.63L334.726 1127.48C335.077 1114.18 335.001 1110.59 330.702 1097.94C354.306 1111.16 377.457 1104.48 386.088 1078Z"/><path fill="#F6F6F0" transform="scale(1.33333 1.33333)" d="M261.701 790.164C264.064 787.477 263.689 787.219 267.193 787.753C281.831 791.62 296.935 795.185 311.434 799.194C305.023 806.462 297.165 815.853 291.211 823.529C277.689 820.94 255.826 821.395 241.367 819.669L241.105 818.8L241.477 816.698C240.281 815.426 240.326 815.511 240.063 813.783C243.14 809.249 257.306 794.832 261.701 790.164Z"/><path fill="#000002" transform="scale(1.33333 1.33333)" d="M266.224 789.275C267.157 789.666 267.636 790.705 267.327 791.669C267.018 792.632 266.025 793.2 265.038 792.976C264.051 792.753 263.399 791.813 263.535 790.811C263.617 790.21 263.974 789.681 264.5 789.38C265.027 789.079 265.664 789.04 266.224 789.275Z"/><path fill="#E3E1E1" transform="scale(1.33333 1.33333)" d="M261.701 790.164C264.064 787.477 263.689 787.219 267.193 787.753L266.224 789.275C265.664 789.04 265.027 789.079 264.5 789.38C263.974 789.681 263.617 790.21 263.535 790.811C262.713 790.222 262.704 790.182 261.701 790.164Z"/><path fill="#000002" transform="scale(1.33333 1.33333)" d="M302.614 800.37C303.042 799.826 303.748 799.58 304.421 799.74C305.095 799.901 305.615 800.437 305.752 801.116C305.89 801.795 305.621 802.491 305.063 802.901C304.346 803.428 303.351 803.344 302.732 802.705C302.114 802.066 302.063 801.068 302.614 800.37Z"/><path fill="#000002" transform="scale(1.33333 1.33333)" d="M287.71 818.667C288.431 818.235 289.362 818.431 289.848 819.117C290.333 819.803 290.208 820.747 289.561 821.283C289.096 821.668 288.455 821.76 287.9 821.521C287.346 821.283 286.972 820.754 286.932 820.152C286.892 819.55 287.192 818.977 287.71 818.667Z"/><path fill="#014C8D" transform="scale(1.33333 1.33333)" d="M337.37 771.596C338.218 772.418 350.195 815.323 352.372 821.966C346.272 830.313 336.171 841.831 329.376 850.101C323.823 833.91 320.333 818.139 313.827 801.211C317.993 794.107 331.477 778.876 337.37 771.596Z"/><path fill="#F6F6F0" transform="scale(1.33333 1.33333)" d="M289.942 759.866C291.694 757.741 292.006 757.923 294.644 758.364C307.918 761.69 322.373 765.015 335.461 768.705C328.236 778.299 320.496 787.207 313.251 796.673C298.134 793.071 281.693 788.058 266.877 784.901C273.916 776.823 282.133 767.118 289.942 759.866Z"/><path fill="#E3E1E1" transform="scale(1.33333 1.33333)" d="M289.942 759.866C291.694 757.741 292.006 757.923 294.644 758.364L294.095 759.98C293.695 759.698 293.188 759.615 292.718 759.752C292.248 759.889 291.867 760.233 291.681 760.685L289.942 759.866Z"/><path fill="#000002" transform="scale(1.33333 1.33333)" d="M291.681 760.685C291.867 760.233 292.248 759.889 292.718 759.752C293.188 759.615 293.695 759.698 294.095 759.98C294.785 760.464 294.984 761.398 294.552 762.121C294.12 762.845 293.203 763.113 292.45 762.736C291.696 762.359 291.361 761.465 291.681 760.685Z"/><path fill="#000002" transform="scale(1.33333 1.33333)" d="M328.436 769.638C329.365 769.335 330.37 769.803 330.736 770.708C331.102 771.614 330.705 772.648 329.826 773.076C329.202 773.38 328.46 773.31 327.903 772.896C327.345 772.481 327.066 771.79 327.178 771.105C327.29 770.419 327.776 769.854 328.436 769.638Z"/><path fill="#014C8D" transform="scale(1.33333 1.33333)" d="M360.515 743.351C362.006 744.647 374.427 786.566 376.408 792.288C370.598 800.693 361.905 810.426 355.249 818.597L354.396 818.751C351.764 815.466 342.02 775.011 340.367 768.341C344.494 761.835 355.332 749.536 360.515 743.351Z"/><path fill="#F6F6F0" transform="scale(1.33333 1.33333)" d="M231.346 561.769C236.374 553.017 243.703 539.111 249.025 531.291L251.751 532.022C252.428 532.446 252.998 532.77 253.699 533.147C263.894 537.138 275.652 540.898 286.116 544.549C282.353 553.115 274.081 567.206 269.306 575.841C256.248 571.217 244.252 566.882 231.346 561.769Z"/><path fill="#000002" transform="scale(1.33333 1.33333)" d="M250.662 534.257C251.345 534.166 252.022 534.461 252.42 535.023C252.9 535.701 252.869 536.616 252.345 537.261C251.82 537.905 250.931 538.121 250.169 537.789C249.407 537.457 248.96 536.659 249.075 535.836C249.19 535.013 249.839 534.368 250.662 534.257Z"/><path fill="#F6F6F0" transform="scale(1.33333 1.33333)" d="M251.751 532.022C252.428 532.446 252.998 532.77 253.699 533.147C253.092 533.416 252.749 534.369 252.42 535.023C252.022 534.461 251.345 534.166 250.662 534.257C251.166 533.474 251.658 532.907 251.751 532.022Z"/><path fill="#000002" transform="scale(1.33333 1.33333)" d="M280.312 545.68C281.216 545.46 282.13 546 282.373 546.898C282.616 547.795 282.099 548.723 281.208 548.988C280.611 549.166 279.964 549.007 279.518 548.571C279.073 548.135 278.899 547.493 279.064 546.892C279.229 546.291 279.707 545.827 280.312 545.68Z"/><path fill="#F6F6F0" transform="scale(1.33333 1.33333)" d="M344.18 702.396C347.609 698.663 346.327 698.957 350.773 699.435C357.029 701.61 372.403 704.697 379.037 705.753L380.535 713.944C374.518 721.165 366.593 730.165 361.086 737.54C347.315 734.451 333.633 730.982 320.054 727.138C325.882 721.223 338.808 706.879 344.18 702.396Z"/><path fill="#E3E1E1" transform="scale(1.33333 1.33333)" d="M344.18 702.396C347.609 698.663 346.327 698.957 350.773 699.435C350.849 701.365 350.839 701.258 349.677 702.867C349.431 703.72 348.578 704.248 347.705 704.088C346.831 703.928 346.221 703.132 346.294 702.247L344.18 702.396Z"/><path fill="#000002" transform="scale(1.33333 1.33333)" d="M346.294 702.247C346.348 701.591 346.77 701.023 347.382 700.781C347.995 700.54 348.691 700.667 349.178 701.11C349.666 701.553 349.859 702.234 349.677 702.867C349.431 703.72 348.578 704.248 347.705 704.088C346.831 703.928 346.221 703.132 346.294 702.247Z"/><path fill="#000002" transform="scale(1.33333 1.33333)" d="M376.374 708.58C377.175 708.257 378.087 708.621 378.446 709.406C378.805 710.191 378.482 711.12 377.714 711.513C377.185 711.784 376.55 711.743 376.061 711.406C375.572 711.068 375.308 710.49 375.373 709.899C375.439 709.309 375.823 708.802 376.374 708.58Z"/><path fill="#F6F6F0" transform="scale(1.33333 1.33333)" d="M294.184 755.4C300.961 747.895 310.617 736.694 318.119 730.37C320.865 730.617 321.607 730.858 324.263 731.362C335.867 734.411 347.759 737.02 359.193 740.104C352.142 748.755 345.037 757.361 337.878 765.922C323.202 762.863 308.79 758.867 294.184 755.4Z"/><path fill="#F6F6F0" transform="scale(1.33333 1.33333)" d="M318.119 730.37C320.865 730.617 321.607 730.858 324.263 731.362L323.806 731.699C322.513 732.635 322.045 732.44 321.194 734.046C321.226 733.473 320.972 732.922 320.517 732.573C320.062 732.224 319.464 732.122 318.919 732.301L318.119 730.37Z"/><path fill="#000002" transform="scale(1.33333 1.33333)" d="M318.919 732.301C319.464 732.122 320.062 732.224 320.517 732.573C320.972 732.922 321.226 733.473 321.194 734.046C321.146 734.92 320.454 735.622 319.581 735.682C318.707 735.743 317.925 735.143 317.757 734.284C317.588 733.425 318.087 732.575 318.919 732.301Z"/><path fill="#000002" transform="scale(1.33333 1.33333)" d="M350.004 741.961C350.364 741.409 351.002 741.106 351.657 741.176C352.312 741.246 352.871 741.678 353.105 742.293C353.339 742.909 353.208 743.603 352.765 744.09C352.152 744.765 351.124 744.856 350.402 744.299C349.68 743.742 349.507 742.725 350.004 741.961Z"/><path fill="#F6F6F0" transform="scale(1.33333 1.33333)" d="M618.295 471.209C632.313 481.11 647.279 491.645 660.741 502.243L658.528 509.201L641.479 509.169L598.756 508.98C604.112 497.464 612.301 482.918 618.295 471.209Z"/><path fill="#000002" transform="scale(1.33333 1.33333)" d="M653.894 503.563C654.829 503.185 655.896 503.614 656.308 504.534C656.72 505.454 656.33 506.535 655.425 506.98C654.81 507.283 654.079 507.225 653.518 506.83C652.958 506.435 652.658 505.766 652.737 505.085C652.815 504.404 653.259 503.821 653.894 503.563Z"/><path fill="#000002" transform="scale(1.33333 1.33333)" d="M620.538 474.763C621.22 474.655 621.896 474.991 622.221 475.6C622.547 476.209 622.451 476.957 621.983 477.464C621.501 477.985 620.736 478.133 620.094 477.827C619.453 477.522 619.086 476.835 619.187 476.132C619.289 475.429 619.837 474.875 620.538 474.763Z"/><path fill="#F6F6F0" transform="scale(1.33333 1.33333)" d="M230.127 564.041C242.39 569.33 255.152 573.825 267.746 578.24C262.961 587.528 257.03 597.514 251.822 606.669C247.734 606.669 219.621 595.228 214.723 592.904C218.855 583.802 225.24 572.868 230.127 564.041Z"/><path fill="#000002" transform="scale(1.33333 1.33333)" d="M260.949 579.282C261.591 578.613 262.649 578.578 263.335 579.203C264.02 579.827 264.081 580.884 263.474 581.584C263.067 582.053 262.438 582.265 261.831 582.137C261.223 582.009 260.733 581.562 260.55 580.969C260.367 580.376 260.52 579.73 260.949 579.282Z"/><path fill="#000002" transform="scale(1.33333 1.33333)" d="M231.942 567.359C232.666 567.212 233.398 567.574 233.719 568.239C234.041 568.904 233.87 569.702 233.305 570.178C232.789 570.613 232.058 570.681 231.47 570.35C230.883 570.018 230.563 569.357 230.668 568.691C230.773 568.024 231.281 567.494 231.942 567.359Z"/><path fill="#014C8D" transform="scale(1.33333 1.33333)" d="M391.941 647.832L393.742 647.991C393.402 649.722 388.279 656.185 387.028 658.311C379.097 671.793 376.805 687.451 378.686 702.606C371.838 701.384 365.023 699.988 358.247 698.419L349.153 696.174C350.66 669.376 366.804 654.08 391.941 647.832Z"/><path fill="#F6F6F0" transform="scale(1.33333 1.33333)" d="M339.094 421.998C337.371 421.774 338.019 422.165 336.986 420.981C338.045 419.086 343.487 417.375 345.636 416.269C367.877 404.823 395.193 391.543 410.01 370.875C411.082 374.344 411.84 377.744 413.03 381.262C408.788 407.445 363.434 426.221 339.094 421.998Z"/><path fill="#FC6830" transform="scale(1.33333 1.33333)" d="M339.094 421.998C337.371 421.774 338.019 422.165 336.986 420.981C338.045 419.086 343.487 417.375 345.636 416.269C367.877 404.823 395.193 391.543 410.01 370.875C411.082 374.344 411.84 377.744 413.03 381.262C398.351 394.528 384.661 403.981 365.992 411.564C360.72 413.705 342.806 419.313 339.094 421.998Z"/><path fill="#F6F6F0" transform="scale(1.33333 1.33333)" d="M213.282 595.531C222.254 599.955 240.563 606.255 250.503 609.963C245.719 618.02 241.065 626.154 236.544 634.361C234.342 638.673 232.623 641.68 230.048 645.782C223.046 633.791 215.43 618.513 208.799 606.055C210.075 602.495 211.729 598.987 213.282 595.531Z"/><path fill="#000002" transform="scale(1.33333 1.33333)" d="M216.171 598.808C217.221 598.628 218.227 599.307 218.453 600.348C218.679 601.39 218.045 602.424 217.015 602.696C216.306 602.882 215.553 602.665 215.053 602.13C214.552 601.596 214.386 600.829 214.62 600.135C214.853 599.441 215.449 598.932 216.171 598.808Z"/><path fill="#000002" transform="scale(1.33333 1.33333)" d="M243.836 610.218C244.633 609.743 245.662 609.975 246.177 610.747C246.691 611.518 246.51 612.558 245.764 613.11C245.248 613.492 244.564 613.559 243.983 613.284C243.403 613.009 243.022 612.436 242.991 611.795C242.96 611.154 243.285 610.548 243.836 610.218Z"/><path fill="#F6F6F0" transform="scale(1.33333 1.33333)" d="M245 346.672C253.52 346.307 263.141 346.477 271.751 346.536C271.737 352.784 272.066 372.044 271.43 379.453C271.406 379.738 270.277 379.862 269.908 379.905C260.68 379.893 251.452 379.814 242.225 379.666C242.128 369.216 241.995 358.644 242.355 348.217C242.382 347.445 244.478 346.867 245 346.672Z"/><path fill="#F6F6F0" transform="scale(1.33333 1.33333)" d="M274.714 346.547C284.302 346.479 295.364 345.416 304.438 348.159C304.455 358.589 304.56 369.386 304.316 379.794L274.839 379.888C274.734 368.774 274.693 357.66 274.714 346.547Z"/><path fill="#FC6830" transform="scale(1.33333 1.33333)" d="M690.45 524.545C699.783 522.233 709.223 527.924 711.534 537.255C713.844 546.587 708.149 556.024 698.815 558.331C689.484 560.638 680.05 554.947 677.74 545.619C675.43 536.291 681.12 526.857 690.45 524.545Z"/><path fill="#FC6830" transform="scale(1.33333 1.33333)" d="M346.789 1054.82C355.97 1052.33 365.443 1057.71 368.008 1066.87C370.574 1076.02 365.272 1085.54 356.132 1088.17C346.888 1090.84 337.241 1085.47 334.646 1076.21C332.051 1066.94 337.504 1057.34 346.789 1054.82Z"/><path fill="#FC6830" transform="scale(1.33333 1.33333)" d="M668.593 1054.78C677.757 1052.36 687.15 1057.82 689.587 1066.97C692.025 1076.13 686.587 1085.53 677.434 1087.99C668.253 1090.45 658.815 1084.99 656.37 1075.81C653.926 1066.63 659.402 1057.2 668.593 1054.78Z"/><path fill="#FC6830" transform="scale(1.33333 1.33333)" d="M525.93 847.916C533.167 846.122 540.485 850.545 542.259 857.786C544.033 865.026 539.588 872.33 532.341 874.082C525.123 875.827 517.854 871.405 516.087 864.194C514.32 856.984 518.723 849.703 525.93 847.916Z"/><path fill="#F6F6F0" transform="scale(1.33333 1.33333)" d="M307.27 348.917C319.141 353.871 333.283 366.079 334.536 379.67C325.409 379.769 316.283 379.803 307.156 379.773C307.15 369.656 307.021 359.005 307.27 348.917Z"/><path fill="#FC6830" transform="scale(1.33333 1.33333)" d="M300.215 845.48C307.281 843.586 314.558 847.722 316.544 854.761C318.53 861.8 314.488 869.129 307.473 871.205C302.854 872.573 297.856 871.35 294.39 868.005C290.925 864.659 289.528 859.708 290.734 855.045C291.939 850.381 295.561 846.728 300.215 845.48Z"/><path fill="#FC6830" transform="scale(1.33333 1.33333)" d="M217.29 670.991C224.205 668.448 231.866 672.032 234.344 678.968C236.822 685.904 233.165 693.529 226.204 695.941C219.335 698.32 211.831 694.723 209.386 687.879C206.941 681.035 210.468 673.5 217.29 670.991Z"/><path fill="#F6F6F0" transform="scale(1.33333 1.33333)" d="M238.879 348.523C240.031 349.928 239.473 375.932 239.458 379.705L217.181 379.721C216.309 377.625 215.467 375.516 214.656 373.396C220.814 359.906 225.068 354.457 238.879 348.523Z"/><path fill="#000002" transform="scale(1.33333 1.33333)" d="M663.712 504.059C663.375 503.888 663.228 503.9 663.122 503.632C663.704 502.116 668.053 505.861 668.421 506.092C670.345 507.299 670.599 509.157 672.045 506.72C673.627 507.673 677.038 509.979 678.736 511.094C677.26 511.758 676.468 512.177 674.916 512.607C671.509 511.781 671.569 512.098 668.407 511.812L667.931 511.765C666.508 511.474 659.192 511.039 659.122 510.885L659.189 510.725C659.782 510.541 659.97 510.551 660.637 510.514C660.895 509.99 660.735 509.815 661.098 509.252C662.165 507.598 662.779 505.879 663.712 504.059Z"/><path fill="#FC6830" transform="scale(1.33333 1.33333)" d="M661.098 509.252C662.165 507.598 662.779 505.879 663.712 504.059C665.963 505.855 668.341 507.586 670.637 509.349L661.098 509.252Z"/><path fill="#F6F6F0" transform="scale(1.33333 1.33333)" d="M442.395 395.058C443.596 396.352 439.677 406.287 438.294 407.525C437.286 405.195 436.469 402.773 435.551 400.39C437.857 398.644 440.138 396.867 442.395 395.058Z"/><path fill="#8D3926" transform="scale(1.33333 1.33333)" d="M538.859 357.576C540.445 357.331 549.681 356.445 550.259 357.466C549.874 358.278 548.857 358.382 548.063 358.581C546.919 358.992 545.772 359.395 544.623 359.789C544.193 359.072 543.769 358.352 543.35 357.629C541.566 357.705 540.656 357.712 538.859 357.576Z"/><path fill="#EE6033" transform="scale(1.33333 1.33333)" d="M543.35 357.629L545.118 357.68C546.527 357.724 546.88 357.956 548.063 358.581C546.919 358.992 545.772 359.395 544.623 359.789C544.193 359.072 543.769 358.352 543.35 357.629Z"/><path fill="#E3E1E1" transform="scale(1.33333 1.33333)" d="M241.367 819.669C239.988 819.654 235.484 819.776 235.455 819.082C235.29 815.072 240.826 818.699 241.105 818.8L241.367 819.669Z"/><path fill="#084580" transform="scale(1.33333 1.33333)" d="M222.066 1047.6C221.447 1047.1 219.785 1046.23 219.563 1045.72L219.679 1045.6L220.043 1045.99L220.382 1045.3C222.494 1045.27 222.732 1045.35 224.896 1045.1C224.462 1045.88 224.023 1046.66 223.578 1047.44L222.066 1047.6Z"/><path fill="#EE6033" transform="scale(1.33333 1.33333)" d="M269.477 218.383C270.339 218.417 272.585 218.366 273.136 218.861C272.919 219.475 270.161 220.374 269.459 220.662L269.477 218.383Z"/><path fill="#EE6033" transform="scale(1.33333 1.33333)" d="M248.292 520.486L250.44 521.683C250.128 522.027 249.281 523.256 248.899 523.231C248.617 523.023 248.559 522.457 248.51 522.113L248.292 520.486Z"/></svg>