<svg viewBox="0 0 100 100" xmlns="http://www.w3.org/2000/svg">
    <!-- Главый круг прицела -->
    <circle cx="50" cy="50" r="40" fill="none" stroke="#fff" stroke-width="4" />
    
    <!-- Горизонтальная ось -->
    <line x1="2" y1="50" x2="98" y2="50" stroke="#fff" stroke-width="4" />
    
    <!-- Вертикальная ось -->
    <line x1="50" y1="2" x2="50" y2="98" stroke="#fff" stroke-width="4" />

    <!-- ЗАСЕЧКИ -->
    <line x1="45" y1="15" x2="55" y2="15" stroke="#fff" stroke-width="3" />
    <line x1="45" y1="25" x2="55" y2="25" stroke="#fff" stroke-width="3" />
    <line x1="45" y1="35" x2="55" y2="35" stroke="#fff" stroke-width="3" />

    <line x1="45" y1="65" x2="55" y2="65" stroke="#fff" stroke-width="3" />
    <line x1="45" y1="75" x2="55" y2="75" stroke="#fff" stroke-width="3" />
    <line x1="45" y1="85" x2="55" y2="85" stroke="#fff" stroke-width="3" />

    <line x1="15" y1="45" x2="15" y2="55" stroke="#fff" stroke-width="3" />
    <line x1="25" y1="45" x2="25" y2="55" stroke="#fff" stroke-width="3" />
    <line x1="35" y1="45" x2="35" y2="55" stroke="#fff" stroke-width="3" />

    <line x1="65" y1="45" x2="65" y2="55" stroke="#fff" stroke-width="3" />
    <line x1="75" y1="45" x2="75" y2="55" stroke="#fff" stroke-width="3" />
    <line x1="85" y1="45" x2="85" y2="55" stroke="#fff" stroke-width="3" />
    
    <circle cx="50" cy="50" r="3" fill="#fff" />
</svg>
