<?xml version="1.0" encoding="UTF-8" standalone="no"?>
<svg
   width="1024"
   height="1024"
   viewBox="0 0 1024 1024"
   version="1.1"
   id="svg26"
   sodipodi:docname="soldier_1.svg"
   inkscape:version="1.4.3 (0d15f75, 2025-12-25)"
   xmlns:inkscape="http://www.inkscape.org/namespaces/inkscape"
   xmlns:sodipodi="http://sodipodi.sourceforge.net/DTD/sodipodi-0.dtd"
   xmlns="http://www.w3.org/2000/svg"
   xmlns:svg="http://www.w3.org/2000/svg">
  <defs
     id="defs26">
    <linearGradient
       id="swatch27"
       inkscape:swatch="solid">
      <stop
         style="stop-color:#1a191a;stop-opacity:1;"
         offset="0"
         id="stop27" />
    </linearGradient>
  </defs>
  <sodipodi:namedview
     id="namedview26"
     pagecolor="#505050"
     bordercolor="#eeeeee"
     borderopacity="1"
     inkscape:showpageshadow="0"
     inkscape:pageopacity="0"
     inkscape:pagecheckerboard="0"
     inkscape:deskcolor="#505050"
     inkscape:zoom="0.70710678"
     inkscape:cx="613.06158"
     inkscape:cy="440.52752"
     inkscape:window-width="1366"
     inkscape:window-height="705"
     inkscape:window-x="-8"
     inkscape:window-y="-8"
     inkscape:window-maximized="1"
     inkscape:current-layer="svg26" />
  <path
     fill="#1A191A"
     d="M465.301 261.913C476.402 248.803 491.182 241.904 508.236 240.4C525.511 238.876 543.383 243.052 556.83 254.337C570.934 266.174 573.607 279.847 577.117 296.982C577.267 299.555 577.506 302.457 577.497 305.006L581.364 303.682C578.537 300.221 578.665 302.97 578.09 296.992L578.012 294.932C579.471 291.999 583.13 292.005 585.682 293.625C586.352 294.05 586.285 295.536 586.394 296.388L587.977 296.106C589.558 297.275 588.962 296.532 589.659 298.536C589.422 300.283 589.525 300.366 588.478 301.849C587.662 302.108 586.921 302.35 586.093 302.572C585.692 306.614 585.076 309.571 586.194 313.472C587.923 320.495 589.885 326.65 590.054 333.873C591.183 334.033 591.907 334.08 593.048 334.133C594.433 336.811 588.084 359.746 589.056 363.019C591.734 355.751 592.513 343.691 594.54 335.406C597.272 336.304 600.02 337.152 602.783 337.948L602.325 344.447C600.883 350.392 600.314 359.977 599.319 366.297C594.314 365.507 588.346 364.226 583.541 363.618C583.371 365.269 583.455 366.819 582.457 368.038C581.839 368.218 581.085 368.438 580.197 368.697C575.44 374.093 573.329 381.908 566.467 385.501C564.092 386.745 560.535 387.602 557.87 388.344C557.397 400.153 557.474 408.1 552.086 419.097C557.114 414.411 557.804 412.853 561.244 406.73C564.24 426.5 560.331 435.285 543.763 446.391C572.342 436.797 568.501 416.239 578.016 410.523C582.731 409.832 593.418 415.352 598.46 416.949C601.774 417.998 615.073 422.461 616.787 423.845C623.879 429.57 613.192 449.382 609.913 455.894C615.118 450.815 617.293 448.617 621.175 442.575C626.035 443.966 630.704 446.844 635.107 449.367C632.262 449.423 628.891 449.266 626.251 450.098L625.877 450.59C627.151 452.319 649.331 458.339 653.295 460.012C673.677 468.61 679.897 490.344 684.666 510.101C686.091 516.002 692.044 538.82 688.094 542.694C683.071 544.938 670.754 536.351 666.23 533.687C659.723 529.815 653.117 526.112 646.418 522.581C649.644 525.558 685.461 554.902 685.336 554.643C690.724 565.764 699.244 593.751 701.943 606.524C696.398 601.411 690.414 595.896 684.198 591.645C693.059 601.302 703.403 611.695 706.652 624.811C710.217 639.203 698.992 653.683 688.917 662.792C683.955 667.23 678.636 671.251 673.012 674.813C670.078 670.896 664.211 665.455 660.609 661.849C651.003 652.169 641.213 642.673 631.244 633.367C628.596 630.866 621.743 624.739 619.653 622.277C627.852 615.975 634.184 608.546 642.503 602.033C634.537 605.049 624.057 608.911 617.564 614.284C616.715 612.541 616.054 611.15 614.949 609.522C611.997 605.115 606.455 602.421 608.659 596.484C610.385 591.835 616.891 580.114 614.134 575.747C611.126 570.985 598.72 560.682 594.36 556.656L562.481 527.046C554.952 520.155 547.603 512.694 539.837 506.101C537.894 504.206 535.583 504.07 532.938 504.434C525.614 505.441 523.988 514.694 516.046 514.824C514.092 514.855 511.981 516.41 510.401 517.469C505.418 513.831 504.74 513.928 498.766 515.461C487.806 504.591 487.364 511.616 482.284 508.833C481.476 507.147 479 501.763 477.958 500.734C455.124 478.178 433.378 454.417 411.59 430.86C408.612 427.639 413.776 423.137 416.703 422.352C425.959 419.88 444.044 409.912 453.135 411.487C455.607 413.598 457.185 417.848 458.552 420.894C464.655 434.491 472.693 442.17 486.919 446.308C477.782 441.056 471.695 435.676 468.696 425.051C467.34 420.245 467.01 412.956 469.235 408.426L469.859 408.113C472.499 413.812 472.842 413.906 477.382 418.281C472.298 405.24 472.436 401.834 472.468 387.983C459.58 385.88 456.024 380.742 450.406 369.387C443.312 367.74 447.766 366.163 444.22 363.976C442.462 364.03 441.735 364.051 440.02 364.368C440.114 360.153 437.143 340.528 436.296 335.647L436.109 333.703L438.013 333.329L438.623 333.289C439.419 332.054 439.088 331.291 439.082 329.512C440.613 322.836 444.83 309.731 443.335 303.295C442.354 302.539 441.739 302.197 440.692 301.562C439.797 299.446 439.153 297.242 441.424 295.519C445.184 292.666 447.332 293.145 451.666 293.732C451.317 296.958 450.905 300.177 450.43 303.386L446.604 303.352L446.329 303.678L451.109 305.096C453.889 286.94 453.907 278 465.301 261.913ZM466.056 366.131C462.265 367.004 459.397 367.632 455.558 368.158C460.704 378.984 463.863 377.75 471.408 384.475C483.506 395.258 491.438 401.66 507.227 407.455C517.267 411.14 521.633 409.151 531.403 404.885C541.755 400.365 547.982 392.832 556.163 385.97C559.173 383.29 562.028 381.67 565.424 379.527C569.639 376.866 572.161 372.382 574.799 368.267C570.844 367.876 566.815 368.004 563.846 365.495C563.198 362.315 572.104 325.515 573.341 318.705C540.056 324.824 489.831 325.338 456.359 318.697C459.902 332.883 463.72 351.69 466.056 366.131Z"
     id="path1"
     style="fill:#aa1414;fill-opacity:1" />
  <path
     fill="#030303"
     d="M586.394 296.388L587.977 296.106C589.558 297.275 588.962 296.532 589.659 298.536C589.422 300.283 589.525 300.366 588.478 301.849C587.662 302.108 586.921 302.35 586.093 302.572C586.114 300.376 586.221 298.579 586.394 296.388Z"
     id="path2" />
  <path
     fill="#1A191A"
     d="M466.234 338.377C465.13 334.635 464.539 330.144 464.328 326.247C496.006 333.413 534.343 330.542 566.266 326.306C564.503 333.467 563.339 340.536 561.314 347.724C560.507 342.411 559.805 337.088 558.476 331.882C558.604 344.443 556.8 361.495 555.966 374.54C550.811 381.675 545.881 388.033 538.569 393.016C532.154 397.388 520.8 403.345 512.952 401.444C498.147 397.86 481.453 386.018 473.242 373.417C472.456 359.87 472.255 347.962 470.733 334.156C469.776 335.257 469.974 336.42 469.751 338.194C468.439 338.104 467.438 337.895 466.234 338.377Z"
     id="path3" />
  <path
     fill="#030303"
     fill-opacity="0.98823529"
     d="M466.234 338.377C467.438 337.895 468.439 338.104 469.751 338.194C469.422 342.425 468.996 346.899 468.843 351.121C467.774 346.837 466.805 342.766 466.234 338.377Z"
     id="path4" />
  <path
     fill="#1A191A"
     d="M346.785 478.745C358.938 468.677 370.157 454.111 381.579 443.092C386.769 438.084 392.108 432.521 396.971 427.199C399.251 429.873 401.378 432.103 403.822 434.632C425.8 457.989 452.322 484.234 472.711 508.139C472.294 509.294 472.512 508.898 471.678 509.81C472.435 512.054 479.975 518.778 482.043 520.078L486.838 515.814C488.146 516.892 489.777 518.652 491.012 519.897C496.31 524.445 497.96 528.319 503.544 521.932C505.46 523.329 513.66 530.514 514.78 530.929C515.488 528.578 511.885 523.29 517.923 523.914L520.442 525.652C523.849 522.386 530.6 514.624 534.228 513.061C536.889 513.475 558.558 534.54 562.084 537.838C576.672 551.754 591.616 565.291 606.902 578.436C604.175 586.795 600.12 594.922 597.368 603.23C601.415 606.38 605.902 611.15 609.599 614.855C605.042 622.978 611.162 622.126 612.774 625.258L611.541 627.097C611.729 627.944 611.976 628.406 612.77 628.715C618.128 630.806 616.685 628.725 618.165 632.827C618.521 633.815 624.958 638.803 625.974 639.792C626.228 639.971 628.02 640.029 628.246 640.038C629.961 642.898 626.827 643.694 633.353 645.606C635.096 647.561 641.356 654.902 643.024 655.94L644.208 655.098C645.221 656.103 645.156 657.06 645.357 658.511C646.934 660.193 646.93 659.983 649.567 660.445C651.587 662.884 649.717 664.763 652.726 666.157C654.668 665.478 653.888 665.319 655.288 665.976L655.486 666.594C656.184 668.733 656.198 669.056 657.516 670.776C658.839 670.91 658.315 670.912 659.674 670.382C661.147 671.18 660.652 670.621 661.359 671.966C660.46 679.055 666.38 672.683 666.648 678.198C666.727 679.821 668.087 681.376 669.51 682.002C670.411 681.174 670 681.64 670.728 680.594C673.253 682.454 671.379 685.331 674.423 687.106C675.192 686.492 675.205 686.422 676.16 686.128C678.914 688.505 676.933 689.282 679.482 691.665C680.647 691.285 680.311 691.438 681.317 690.8C682.63 691.484 682.184 690.982 682.722 692.335L682.039 693.952C683.615 696.149 684.018 696.265 686.73 696.979C687.905 697.948 688.119 699.237 688.624 700.731L693.686 703.907C694.827 707.015 709.012 719.704 712.445 718.4C713.274 719.82 712.729 719.244 714.216 720.115C713.672 721.174 708.279 727.348 707.194 728.608C717.84 736.415 727.331 748.021 737.159 756.872C738.436 758.022 737.912 755.996 739.986 755.522C743.683 758.473 750.968 765.856 754.536 769.409C752.844 773.024 748.559 777.74 745.851 780.931C740.755 776.007 735.215 771.243 730.474 765.979C730.458 765.324 730.441 764.668 730.425 764.013C724.435 757.987 705.193 739.294 700.509 734.377C698.699 737.054 697.122 739.204 695.143 741.761C692.382 739.485 688.143 733.898 685.944 732.558C685.075 733.897 685.657 733.551 684.411 734.023L683.28 733.04C683.318 732.125 683.346 731.209 683.364 730.292C682.396 728.818 682.924 729.16 681.522 728.458L680.591 729.672L679.741 729.777L678.704 728.626C678.475 726.216 678.715 725.778 676.765 724.286C675.745 724.672 675.688 724.757 674.844 725.427L674.082 724.928C674.003 722.126 673.512 719.736 670.397 718.952L670.349 720.939L669.909 721.324C668.783 720.509 669.174 720.852 668.399 719.605L668.978 717.673C668.096 715.592 666.21 714.902 664.079 713.929C665.185 715.147 665.482 715.175 665.942 716.652C664.37 716.121 664.463 716.196 663.417 714.912C662.975 711.964 663.284 711.841 661.242 710.158C660.615 711.048 660.847 710.815 660.006 711.525L658.847 710.653C658.322 709.058 658.356 709.913 659.288 708.005L659.081 707.475C657.118 706.139 654.756 705.775 653.683 704.947L654.296 703.481C653.215 699.739 652.291 702.702 649.896 700.784C649.699 698.327 649.211 696.784 646.807 695.958L646.267 697.977L645.598 697.874C644.088 695.726 644.442 696.883 644.465 694.284C643.567 692.931 643.656 693.002 642.274 692.157C641.129 693.748 641.184 700.148 639.839 702.906C632.104 718.771 615.357 701.362 605.239 697.138C600.533 689.919 599.931 689.389 592.535 685.015C592.322 681.651 592.326 679.422 592.945 674.888C593.631 669.868 596.363 660.779 596.782 655.61C596.822 655.121 595.366 655.785 594.493 653.725C594.967 652.854 595.247 652.484 595.869 651.734C594.878 650.411 594.918 650.525 593.356 649.921C587.079 650.706 591.638 648.842 589.618 645.897C587.63 645.261 588.365 645.394 585.982 646.273C584.708 645.953 585.131 646.328 584.523 645.334L585.659 642.39L585.384 642.164L581.946 644.509C576.817 639.485 571.452 633.996 565.699 629.779C562.96 632.009 562.844 633.723 560.063 635.517C558.187 635.52 558.678 635.438 556.806 634.247C550.502 641.433 547.484 644.087 542.795 652.615L534.136 647.32C531.056 645.049 525.503 641.722 522.132 639.519C513.874 634.204 505.724 628.721 497.688 623.076C499.891 620.464 502.102 618.074 504.422 615.565C505.218 614.597 506.203 613.059 506.938 611.98C498.055 606.29 488.931 597.631 485.225 587.529C482.847 589.233 480.186 591.43 477.852 593.272C476.455 600.221 472.95 600.037 470.943 606.607C467.765 608.055 463.929 610.588 460.909 612.48C456.826 612.365 451.929 613.765 448.039 612.975C443.966 612.147 423.131 584.087 420.326 579.597C409.202 584.143 398.145 588.852 387.159 593.724C380.4 596.767 373.036 600.66 366.06 603.113C348.514 609.283 326.461 613.553 308 610.752C297.545 609.014 289.486 605.274 283.138 596.698C271.672 581.211 279.909 561.55 289.593 547.432C295.968 538.136 307.246 528.223 315.664 520.058C323.369 512.585 334.168 499.17 342.783 493.365L341.937 493.684C339.357 494.641 335.595 496.256 333.102 495.11L333.31 494.036C340.247 485.404 357.851 485.677 368.913 484.349C372.841 487.602 389.382 497.581 394.552 500.664C404.31 506.483 423.573 521.015 433.198 524.295L439.735 522.308C443.656 523.919 447.582 525.716 451.552 527.355L445.148 535.709C423.857 530.033 379.848 533.521 357.575 537.157C352.916 537.68 348.271 538.314 343.643 539.057C349.765 538.492 356.777 539.063 363.228 538.055C368.257 538.504 384.77 537.455 391.136 537.481C411.922 537.566 431.753 538.309 451.84 544.643C459.682 547.115 468.863 551.118 476.598 554.211C474.573 551.668 472.52 546.783 471.091 543.7L473.875 538.945C473.251 538.096 471.012 534.995 470.779 534.249C468.676 527.517 468.948 527.682 463.247 523.205C458.734 520.005 460.105 522.107 456.212 520.506C450.198 518.032 445.413 515.253 439.082 513.355L433.288 514.721C427.773 512.408 418.025 506.032 412.791 502.782C398.947 494.187 385.224 484.432 371.061 476.398C364.932 476.46 353.148 477.931 346.785 478.745ZM591.861 596.199L598.324 587.588C595.347 585.016 593.584 583.35 590.887 580.491L594.123 576.334C578.985 560.427 560.351 543.969 542.818 530.696C541.994 530.073 538.008 527.159 537.182 526.884C534.577 529.629 532.348 532.088 529.417 534.495C531.938 538.678 533.247 539.236 532.729 543.747C536.559 548.939 554.922 564.941 560.73 570.427L582.502 590.964C584.145 592.502 588.835 597.352 590.605 597.804L591.861 596.199ZM490.343 581.556C490.536 592.101 497.606 596.72 504.157 603.846C505.684 605.507 507.108 606.841 508.998 608.088C511.232 605.952 515.539 602.293 516.181 599.329L515.411 598.199C514.75 597.575 512.926 595.561 512.335 595.664C508.878 596.267 506.58 600.578 502.88 599.457L502.175 598.706C502.888 597.933 508.171 594.92 509.742 593.896C503.613 587.916 498.587 584.508 490.343 581.556ZM749.783 770.607C748.412 767.939 743.312 762.367 740.35 761.776C742.374 764.033 747.031 769.78 749.783 770.607ZM550.532 574.741C562.256 586.975 574.906 600.328 586.066 613.026L589.144 607.559C580.332 598.202 561.445 582.303 551.141 573.101C548.984 571.033 540.093 562.228 537.996 561.311C541.836 566.063 546.516 570.134 550.532 574.741ZM621.408 639.767L625.407 644.284C624.929 654.188 629.405 648.323 633.033 651.838C636.252 654.958 640.163 659.098 643.463 662.337L668.426 686.722C677.445 695.616 689.09 705.924 697.257 714.711C697.347 713.258 697.747 712.292 696.426 711.293C688.556 705.344 677.939 692.824 671.113 687.316C664.229 681.761 625.567 640.929 621.408 639.767Z"
     id="path5"
     style="fill:#480048;fill-opacity:1" />
  <path
     fill="#030303"
     d="M486.838 515.814C488.146 516.892 489.777 518.652 491.012 519.897C487.768 520.171 485.29 520.127 482.043 520.078L486.838 515.814Z"
     id="path6" />
  <path
     fill="#D4D5D4"
     fill-opacity="0.019607844"
     d="M621.408 639.767C625.567 640.929 664.229 681.761 671.113 687.316C677.939 692.824 688.556 705.344 696.426 711.293C697.747 712.292 697.347 713.258 697.257 714.711C689.09 705.924 677.445 695.616 668.426 686.722L643.463 662.337C640.163 659.098 636.252 654.958 633.033 651.838C629.405 648.323 624.929 654.188 625.407 644.284L621.408 639.767Z"
     id="path7" />
  <path
     fill="#D4D5D4"
     fill-opacity="0.035294119"
     d="M550.532 574.741C546.516 570.134 541.836 566.063 537.996 561.311C540.093 562.228 548.984 571.033 551.141 573.101L550.532 574.741Z"
     id="path8" />
  <path
     fill="#D4D5D4"
     fill-opacity="0.035294119"
     d="M740.35 761.776C743.312 762.367 748.412 767.939 749.783 770.607C747.031 769.78 742.374 764.033 740.35 761.776Z"
     id="path9" />
  <path
     fill="#1A191A"
     d="M416.656 591.968C418.247 592.695 420.021 595.267 421.29 596.574C432.198 607.814 435.475 619.725 452.442 622.664C457.372 620.632 459.844 620.719 464.494 619.085C468.671 617.617 470.637 616.41 475.234 615.035C476.584 613.308 477.64 611.139 478.693 609.19C482.414 612.239 486.343 615.904 489.96 619.136C488.644 623.693 489.335 624.299 491.08 628.769C483.343 641.336 464.316 684.97 465.842 698.481C466.061 700.426 466.713 702.781 468.373 703.993C472.008 706.646 511.029 715.004 515.559 713.997C517.417 713.584 518.584 712.535 519.362 710.821C521.467 706.187 521.697 700.329 522.98 695.377C526.303 682.561 531.6 670.62 538.461 659.331C552.141 663.849 551.448 649.634 559.308 643.301C559.226 643.367 563.646 643.219 563.767 643.131C565.115 642.134 566.155 641.606 567.506 641.042C570.939 642.336 570.935 648.68 572.37 649.93C577.437 654.345 582.997 655.533 588.74 659.901C585.317 669.816 583.655 676.281 584.549 686.907C584.84 687.365 585.959 689.212 586.275 689.515C598.919 701.635 618.7 723.771 638.189 716.135C640.755 715.129 644.498 712.383 646.727 710.639C650.225 713.141 656.816 719.438 660.309 722.552C658.966 723.904 657.536 725.167 656.028 726.334C648.13 732.57 636.211 738.986 627.165 743.544C583.319 765.964 533.826 774.925 484.903 769.302C455.482 766.103 430.852 759.408 404.088 746.317C341.804 716.167 294.077 662.472 271.44 597.082L271.783 596.532C279.632 609.618 288.198 615.198 302.647 620.18C316.289 651.354 350.523 689.016 377.968 708.778C387.563 715.687 397.109 720.768 407.294 726.632C408.834 715.026 409.793 701.96 410.824 690.224C414.957 690.089 419.483 690.146 423.651 690.111C423.274 680.139 421.558 667.737 420.957 657.082C415.188 656.8 403.324 658.259 399.463 654.115C392.647 646.801 394.682 631.188 394.427 621.903C394.242 615.166 394.459 608.433 394.479 601.941C401.389 598.536 409.557 595.117 416.656 591.968ZM627.316 722.368C627.017 720.632 624.893 718.878 623.449 717.797C623.4 719.931 623.01 721.563 623.908 723.226C625.449 723.341 625.915 722.992 627.316 722.368Z"
     id="path10"
     style="fill:#aa0005;fill-opacity:1" />
  <path
     fill="#1A191A"
     d="M571.742 261.105C611.629 268.915 655.775 294.75 684.962 322.373C735.346 369.877 764.939 435.352 767.305 504.559C768.744 557.526 753.882 609.658 724.727 653.902C716.122 667.228 707.587 678.76 696.601 690.293L693.593 693.122C689.575 689.995 683.684 684.304 679.766 680.712C693.085 670.954 704.414 659.982 711.33 644.581C713.136 640.976 713.691 634.607 715.683 631.329C759.318 559.554 758.871 465.892 716.345 393.431C687.344 344.016 637.782 299.128 580.836 283.998C579.395 275.631 576.756 268.011 571.742 261.105Z"
     id="path11"
     style="fill:#b01a03;fill-opacity:1" />
  <path
     fill="#1A191A"
     d="M457.784 259.659C458.262 259.614 457.996 259.574 458.531 259.962C453.222 266.673 450.388 274.041 448.125 282.188C444.811 283.336 441.49 284.359 438.165 285.476C347.456 315.942 280.401 404.35 276.643 500.122C276.028 515.799 277.417 530.18 278.849 545.741C271.187 560.682 269.519 563.4 267.19 580.259L265.441 574.6C263.96 568.493 262.62 562.354 261.422 556.186C248.833 489.685 265.615 420.046 303.567 364.427C335.295 318.744 380.81 284.414 433.452 266.458C440.75 264.023 450.303 261.063 457.784 259.659Z"
     id="path12"
     style="fill:#ba160d;fill-opacity:1" />
  <path
     fill="#1A191A"
     d="M485.83 700.325C488.195 684.106 499.599 648.646 510.163 636.914C517.286 641.101 524.26 646.38 531.395 650.334L533.244 651.244C533.045 652.714 533.15 652.178 532.271 653.47C525.755 663.054 514.571 691.604 513.315 702.955C512.949 704.11 512.789 704.501 512.266 705.596C509.6 706.72 502.173 704.146 499.115 703.382C503.493 688.308 504.993 673.904 512.949 659.736C515.675 654.882 519.85 647.803 521.165 642.636C512.355 655.722 498.928 687.884 498.246 703.38C493.787 702.425 490.191 701.608 485.83 700.325Z"
     id="path13" />
  <path
     fill="#D4D5D4"
     fill-opacity="0.023529412"
     d="M513.315 702.955C514.502 705.191 514.89 705.223 513.478 707.303C508.566 708.661 493.297 704.005 487.672 702.759C483.402 701.813 474.502 701.04 471.044 699.404C470 697.486 470.282 692.953 470.405 690.745C473.062 691.131 473.385 689.973 473.957 687.249C475.103 681.799 473.873 676.885 476.659 671.321C476.792 671.056 478.959 670.675 478.668 669.396C476.913 661.663 480.555 663.857 482.533 661.104C482.533 659.158 482.382 658.66 481.956 656.727C483.095 653.324 488.069 653.342 486.679 647.958C486.32 646.568 490.257 644.643 490.894 643.184C491.766 641.187 492.154 638.759 492.64 636.609L493.725 637.148C495.217 635.149 496.439 633.312 496.55 630.78C497.492 630.016 497.091 630.304 498.118 629.624L498.849 629.148C500.438 625.155 496.766 626.486 495.516 622.513C496.444 619.644 498.097 618.266 500.449 616.43C501.853 616.2 501.485 616.133 502.645 614.634L504.422 615.565C502.102 618.074 499.891 620.464 497.688 623.076C505.724 628.721 513.874 634.204 522.132 639.519C525.503 641.722 531.056 645.049 534.136 647.32L534.217 648.833C533.163 649.987 532.898 649.909 531.395 650.334C524.26 646.38 517.286 641.101 510.163 636.914C499.599 648.646 488.195 684.106 485.83 700.325C490.191 701.608 493.787 702.425 498.246 703.38C498.928 687.884 512.355 655.722 521.165 642.636C519.85 647.803 515.675 654.882 512.949 659.736C504.993 673.904 503.493 688.308 499.115 703.382C502.173 704.146 509.6 706.72 512.266 705.596C512.789 704.501 512.949 704.11 513.315 702.955ZM478.83 676.642L478.414 674.302L477.869 674.336C476.066 676.932 475.161 681.273 476.544 684.255L478.83 676.642Z"
     id="path14" />
  <path
     fill="#1A191A"
     d="M500.276 630.369L508.933 636.087C496.109 655.712 489.018 677.261 484.242 699.997L473.745 698.28C474.25 692.578 475.627 689.425 476.544 684.255L478.83 676.642C484.561 658.553 490.126 646.437 500.276 630.369Z"
     id="path15" />
  <path
     fill="#1A191A"
     d="M391.05 416.239C396.711 416.376 396.706 419.901 397.658 424.708C382.445 439.849 367.941 455.279 353.288 470.951C350.606 473.82 347.349 477.192 344.435 479.805C328.209 474.798 342.664 466.722 348.169 459.526C355.098 453.253 386.072 418.177 391.05 416.239Z"
     id="path16" />
  <path
     fill="#D4D5D4"
     fill-opacity="0.027450981"
     d="M391.05 416.239L389.891 415.24L390.326 414.411C392.302 414.032 395.044 414.991 396.767 415.922C399.023 419.534 399.202 424.099 400.534 427.875C400.688 428.31 403.154 430.867 404.235 433.015L403.822 434.632C401.378 432.103 399.251 429.873 396.971 427.199C392.108 432.521 386.769 438.084 381.579 443.092C370.157 454.111 358.938 468.677 346.785 478.745C353.148 477.931 364.932 476.46 371.061 476.398C385.224 484.432 398.947 494.187 412.791 502.782C418.025 506.032 427.773 512.408 433.288 514.721L439.082 513.355C445.413 515.253 450.198 518.032 456.212 520.506C460.105 522.107 458.734 520.005 463.247 523.205C461.784 523.933 460.589 524.61 459.033 525.135C456.035 524.798 453.794 521.713 450.752 520.602C449.794 520.253 447.825 519.487 446.865 519.236C446.041 517.872 447.004 517.809 445.361 517.244C440.369 515.527 435.826 516.444 430.602 515.913C428.326 516.772 424.044 511.388 423.396 511.457C416.734 512.171 415.893 508.159 411.008 504.442C410.272 503.882 401.009 498.737 401.184 499.326C400.014 495.398 397.421 496.153 394.441 494.059C389.209 490.856 383.084 486.668 377.896 483.17C377.239 482.779 373.068 481.772 372.791 481.442C369.182 477.152 367.278 478.535 362.152 479.092C359.626 479.366 356.159 479.561 353.35 479.996C347.236 480.943 337.229 484.356 334.879 475.759C333.948 472.372 335.233 470.143 337.219 467.438C340.274 463.341 341.34 460.544 346.739 459.603L347.466 458.967L348.169 459.526C342.664 466.722 328.209 474.798 344.435 479.805C347.349 477.192 350.606 473.82 353.288 470.951C367.941 455.279 382.445 439.849 397.658 424.708C396.706 419.901 396.711 416.376 391.05 416.239Z"
     id="path17" />
  <path
     fill="#030303"
     d="M724.374 692.224C727.231 694.376 729.248 696.263 731.878 698.703C727.325 704.236 718.793 715.382 714.216 720.115C712.729 719.244 713.274 719.82 712.445 718.4C710.548 715.002 699.905 702.34 696.341 701.981C695.053 702.55 694.736 702.968 693.686 703.907C694.61 701.58 696.871 699.827 698.807 698.185C701.036 698.952 703.3 699.758 705.534 700.492C712.725 698.832 718.192 696.157 724.374 692.224ZM714.402 712.801C715.506 711.313 716.009 711.235 715.554 709.291C714.926 706.602 713.341 704.402 710.503 704.231L708.85 705.815C708.879 709.081 711.823 711.053 714.402 712.801ZM719.559 707.762C721.159 704.647 718.964 702.18 716.069 701.199L714.846 702.523C715.409 703.883 718.087 705.926 719.559 707.762Z"
     id="path18" />
  <path
     fill="#1A191A"
     d="M426.189 337.796C429.248 337.018 432.326 336.608 435.445 336.119C435.982 340.972 438.023 361.038 439.089 364.437C435.875 365.179 432.46 365.605 429.188 366.087C428.074 356.861 427.207 347.1 426.189 337.796Z"
     id="path19" />
  <path
     fill="#D4D5D4"
     fill-opacity="0.039215688"
     d="M436.109 333.703C434.729 334.424 433.219 334.752 431.676 334.504C428.718 328.758 432.795 326.367 433.831 321.034C435.098 314.509 434.849 309.293 438.983 303.608C439.703 302.619 437.84 299.463 437.641 297.638C439.956 289.866 447.502 293.466 450.341 291.798C451.566 289.115 451.471 287.386 451.06 284.474L450.967 283.86C452.903 280.133 461.984 261.266 464.319 259.909L465.192 260.16L465.301 261.913C453.907 278 453.889 286.94 451.109 305.096L446.329 303.678L446.604 303.352L450.43 303.386C450.905 300.177 451.317 296.958 451.666 293.732C447.332 293.145 445.184 292.666 441.424 295.519C439.153 297.242 439.797 299.446 440.692 301.562C441.739 302.197 442.354 302.539 443.335 303.295C444.83 309.731 440.613 322.836 439.082 329.512L438.211 328.628C439.158 324.284 443.024 311.851 442.696 308.581L441.69 307.798C437.051 308.708 434.172 326.196 432.624 330.881L431.649 330.869C431.467 332.493 431.394 331.669 432.241 333.365C434.359 333.147 435.953 332.809 438.013 333.329L436.109 333.703Z"
     id="path20" />
  <path
     fill="#D4D5D4"
     fill-opacity="0.027450981"
     d="M586.194 313.472L586.832 313.023C588.519 319.17 590.055 325.356 591.44 331.578L596.864 331.746L594.645 323.851L596.356 323.329C597.812 324.99 598.583 329.516 599.185 331.768C599.925 334.538 602.505 335.583 604.5 337.75C604.554 339.728 604.831 341.755 604.044 343.519C603.137 344.182 603.274 344.299 602.325 344.447L602.783 337.948C600.02 337.152 597.272 336.304 594.54 335.406C592.513 343.691 591.734 355.751 589.056 363.019C588.084 359.746 594.433 336.811 593.048 334.133C591.907 334.08 591.183 334.033 590.054 333.873C589.885 326.65 587.923 320.495 586.194 313.472Z"
     id="path21" />
  <path
     fill="#1A191A"
     d="M586.832 313.023C586.567 311.586 586.121 310.233 586.568 308.904C587.897 308.269 587.17 308.447 588.92 308.879C592.012 311.659 593.075 319.244 594.645 323.851L596.864 331.746L591.44 331.578C590.055 325.356 588.519 319.17 586.832 313.023Z"
     id="path22" />
  <path
     fill="#1A191A"
     d="M432.624 330.881C434.172 326.196 437.051 308.708 441.69 307.798L442.696 308.581C443.024 311.851 439.158 324.284 438.211 328.628C437.378 331.045 437.985 330.414 436.121 331.58C434.321 331.573 434.367 331.641 432.624 330.881Z"
     id="path23" />
  <path
     fill="#D4D5D4"
     fill-opacity="0.023529412"
     d="M436.296 335.647C437.143 340.528 440.114 360.153 440.02 364.368L439.089 364.437C438.023 361.038 435.982 340.972 435.445 336.119L436.296 335.647Z"
     id="path24" />
  <path
     fill="#D4D5D4"
     fill-opacity="0.023529412"
     d="M363.228 538.055C356.777 539.063 349.765 538.492 343.643 539.057C348.271 538.314 352.916 537.68 357.575 537.157C359.256 538.021 361.298 537.94 363.228 538.055Z"
     id="path25" />
  <path
     fill="#D4D5D4"
     fill-opacity="0.023529412"
     d="M577.117 296.982L578.09 296.992C578.665 302.97 578.537 300.221 581.364 303.682L577.497 305.006C577.506 302.457 577.267 299.555 577.117 296.982Z"
     id="path26" />
</svg>
